<svg height="512pt" viewBox="-49 0 512 512" width="512pt" xmlns="http://www.w3.org/2000/svg"><path d="m406 433.664062c-3.628906 0-6.859375-2.566406-7.574219-6.257812-4.234375-21.875-18.289062-36.832031-41.773437-44.449219-18.273438-5.929687-35.28125-5.046875-35.453125-5.035156-4.246094.238281-7.90625-3.015625-8.148438-7.273437-.242187-4.261719 3.015625-7.910157 7.273438-8.152344.8125-.046875 20.101562-1.046875 41.097656 5.765625 28.820313 9.351562 46.859375 28.789062 52.167969 56.207031.8125 4.1875-1.925782 8.242188-6.113282 9.050781-.496093.097657-.992187.144531-1.476562.144531zm0 0" fill="#ad5e2e"/><path d="m183.976562 302.648438v-60.949219c35.488282-7.261719 57.3125-27.824219 58.261719-69.898438.976563-43.195312-40.960937-86.5-40.960937-86.5s37.953125 16.292969 66.878906-14.046875c0 0-16.417969-35.65625-72.125-21.054687v-33.195313c0-9.390625-7.613281-17.003906-17.003906-17.003906-9.394532 0-17.007813 7.613281-17.007813 17.003906v33.195313h-55.882812v-33.195313c0-9.390625-7.617188-17.003906-17.007813-17.003906s-17.003906 7.613281-17.003906 17.003906v33.195313c-55.707031-14.601563-72.125 21.054687-72.125 21.054687 28.925781 30.34375 66.882812 14.046875 66.882812 14.046875s-41.941406 43.304688-40.964843 86.503907c.949219 42.070312 22.773437 62.632812 58.265625 69.894531v254.785156c0 8.570313 6.945312 15.515625 15.515625 15.515625h18.863281c8.570312 0 15.515625-6.945312 15.515625-15.515625v-32.847656h55.117187v32.847656c0 8.570313 6.945313 15.515625 15.515626 15.515625h18.863281c8.570312 0 15.515625-6.945312 15.515625-15.515625v-32.847656h73.980468v32.847656c0 8.570313 6.949219 15.515625 15.519532 15.515625h18.859375c8.570312 0 15.519531-6.945312 15.519531-15.515625v-48.238281c0-53.648438-39.707031-99.011719-92.886719-106.113282l-58.371093-7.796874c-15.878907-2.121094-27.734376-15.667969-27.734376-31.6875zm0 0" fill="#ffc265"/><path d="m118.5625 484.191406h-18.863281c-8.570313 0-15.519531-6.945312-15.519531-15.515625v27.808594c0 8.570313 6.949218 15.515625 15.519531 15.515625h18.863281c8.570312 0 15.515625-6.945312 15.515625-15.515625v-27.808594c0 8.570313-6.945313 15.515625-15.515625 15.515625zm0 0" fill="#ffb541"/><path d="m347.449219 484.191406h-18.863281c-8.570313 0-15.515626-6.945312-15.515626-15.515625v27.808594c0 8.570313 6.945313 15.515625 15.515626 15.515625h18.863281c8.570312 0 15.515625-6.945312 15.515625-15.515625v-27.808594c0 8.570313-6.945313 15.515625-15.515625 15.515625zm0 0" fill="#ffb541"/><path d="m223.570312 484.191406h-18.859374c-8.570313 0-15.519532-6.945312-15.519532-15.515625v27.808594c0 8.570313 6.949219 15.515625 15.519532 15.515625h18.859374c8.570313 0 15.519532-6.945312 15.519532-15.515625v-27.808594c0 8.570313-6.949219 15.515625-15.519532 15.515625zm0 0" fill="#ffb541"/><path d="m90.507812 118.765625c-8.792968 0-15.679687 8.554687-15.679687 19.472656 0 10.921875 6.886719 19.476563 15.679687 19.476563 8.789063 0 15.675782-8.554688 15.675782-19.476563 0-10.917969-6.886719-19.472656-15.675782-19.472656zm0 0" fill="#433f43"/><path d="m178.75 118.765625c-8.789062 0-15.675781 8.554687-15.675781 19.472656 0 10.921875 6.886719 19.476563 15.675781 19.476563 8.792969 0 15.679688-8.554688 15.679688-19.476563 0-10.917969-6.886719-19.472656-15.679688-19.472656zm0 0" fill="#433f43"/><g fill="#ad5e2e"><path d="m110.019531 182.390625c-4.269531 0-7.726562 3.457031-7.726562 7.722656v7.449219c0 4.265625 3.460937 7.722656 7.726562 7.722656s7.722657-3.457031 7.722657-7.722656v-7.449219c0-4.265625-3.457032-7.722656-7.722657-7.722656zm0 0"/><path d="m155.59375 182.390625c-4.269531 0-7.726562 3.457031-7.726562 7.722656v7.449219c0 4.265625 3.457031 7.722656 7.726562 7.722656 4.265625 0 7.722656-3.457031 7.722656-7.722656v-7.449219c0-4.265625-3.457031-7.722656-7.722656-7.722656zm0 0"/><path d="m183.976562 241.699219s-40.6875 9.089843-35.132812 46.988281c3.332031 22.710938 20.820312 30.125 38.886719 28.988281-2.402344-4.496093-3.753907-9.621093-3.753907-15.027343zm0 0"/><path d="m132.210938 339.238281c-10.296876-16.636719-31.144532-18.628906-48.03125-16.984375v95.261719c53.117187-2.941406 64.332031-51.945313 48.03125-78.277344zm0 0"/><path d="m234.445312 397.371094c0-15.554688-26.222656-28.164063-41.777343-28.164063-15.554688 0-22.0625 7.914063-22.0625 23.46875 0 15.554688 13.550781 34.265625 29.105469 34.265625 15.554687 0 34.734374-14.015625 34.734374-29.570312zm0 0"/><path d="m289.460938 430.847656c3.851562 9.835938 23.558593 11.320313 33.398437 7.46875 9.839844-3.851562 11.996094-10.472656 8.144531-20.308594-3.851562-9.839843-17.054687-18.320312-26.894531-14.46875-9.839844 3.851563-18.5 17.46875-14.648437 27.308594zm0 0"/><path d="m270.082031 342.132812-31.839843-4.253906c1.9375 21.800782 10.804687 44.0625 38.101562 47.769532 20.320312 2.757812 33.328125-8.792969 41.664062-24.59375-13.808593-9.847657-30.105468-16.542969-47.925781-18.921876zm0 0"/></g></svg>