<svg height="511pt" viewBox="-37 0 511 511.99951" width="511pt" xmlns="http://www.w3.org/2000/svg"><path d="m91.589844 353.078125c-2.636719-2.726563-3.871094-6.519531-3.339844-10.277344.929688-6.570312-3.519531-12.695312-10.058594-13.839843-3.734375-.65625-6.960937-3-8.742187-6.351563-3.109375-5.863281-10.308594-8.203125-16.269531-5.289063-3.410157 1.667969-7.398438 1.667969-10.808594 0-5.960938-2.914062-13.160156-.574218-16.269532 5.289063-1.78125 3.351563-5.007812 5.695313-8.746093 6.351563-6.535157 1.144531-10.984375 7.269531-10.054688 13.839843.53125 3.757813-.699219 7.550781-3.339843 10.277344-4.613282 4.769531-4.613282 12.339844 0 17.109375 2.636718 2.730469 3.871093 6.519531 3.339843 10.28125-.929687 6.570312 3.519531 12.691406 10.054688 13.839844 3.738281.65625 6.964843 3 8.746093 6.351562 3.109376 5.863282 10.308594 8.203125 16.269532 5.289063 3.410156-1.667969 7.398437-1.667969 10.808594 0 5.960937 2.914062 13.160156.574219 16.269531-5.289063 1.78125-3.351562 5.003906-5.695312 8.742187-6.351562 6.539063-1.148438 10.988282-7.269532 10.058594-13.839844-.53125-3.757812.699219-7.550781 3.339844-10.28125 4.613281-4.769531 4.613281-12.339844 0-17.109375zm0 0" fill="#e9e9e9"/><path d="m78.191406 394.308594c6.539063-1.148438 10.988282-7.269532 10.058594-13.839844-.53125-3.757812.699219-7.550781 3.339844-10.28125 4.613281-4.769531 4.613281-12.339844 0-17.109375-2.636719-2.726563-3.871094-6.519531-3.339844-10.277344.835938-5.90625-2.683594-11.441406-8.152344-13.332031-2.304687 1.976562-4.550781 4.054688-6.71875 6.222656-19.414062 19.414063-31.25 44.359375-34.042968 71.265625 1.03125-.203125 2.050781-.527343 3.035156-1.007812 3.410156-1.667969 7.398437-1.667969 10.808594 0 5.960937 2.914062 13.160156.574219 16.269531-5.289063 1.78125-3.351562 5.007812-5.695312 8.742187-6.351562zm0 0" fill="#d3d2d8"/><path d="m265.417969 512c13.261719 0 21.457031-14.382812 14.785156-25.84375-4.859375-8.34375-12.261719-15.480469-23.375-15.480469 36.464844-21.878906 48.976563-64.339843 48.976563-64.339843l-66.863282-30.289063c-15.550781-29.316406-46.378906-49.285156-81.875-49.285156-51.109375-.003907-92.625 41.511719-92.625 92.621093.003906 51.148438 41.46875 92.617188 92.621094 92.617188zm0 0" fill="#a6adb9"/><path d="m221.339844 48.765625c34.210937 82.273437 45.882812 155.644531 26.0625 163.886719-19.816406 8.242187-63.617188-51.773438-97.828125-134.039063-34.210938-82.269531 37.554687-112.117187 71.765625-29.847656zm0 0" fill="#a6adb9"/><path d="m356.214844 48.765625c-34.214844 82.273437-45.882813 155.644531-26.066406 163.886719 19.820312 8.242187 63.617187-51.773438 97.832031-134.039063 34.210937-82.269531-37.554688-112.117187-71.765625-29.847656zm0 0" fill="#a6adb9"/><path d="m247.40625 212.652344c11.683594-4.859375 12.417969-32.371094 4.039062-70.996094-21.929687 4.144531-41.003906 12.179688-57.078124 24.039062 21.421874 33.027344 41.378906 51.804688 53.039062 46.957032zm0 0" fill="#8895a2"/><path d="m330.148438 212.652344c11.65625 4.847656 31.617187-13.929688 53.035156-46.957032-16.070313-11.859374-35.144532-19.894531-57.078125-24.039062-8.375 38.625-7.640625 66.136719 4.042969 70.996094zm0 0" fill="#8895a2"/><path d="m238.941406 376.042969c-15.550781-29.3125-46.378906-49.28125-81.875-49.285157-4.800781 0-9.515625.367188-14.117187 1.074219.433593 15.308594 3.296875 40.875 22.121093 62.996094 23.882813 28.0625 64.347657 41.707031 123.707032 41.707031 1.65625 0 3.292968-.015625 4.917968-.039062 8.628907-14.363282 12.109376-26.160156 12.109376-26.160156zm0 0" fill="#8895a2"/><path d="m288.777344 406.777344c-117.375 0-120.152344-58.339844-120.152344-86.121094s-10.417969-151.40625 120.152344-151.40625c130.570312 0 120.152344 123.625 120.152344 151.40625s-2.777344 86.121094-120.152344 86.121094zm0 0" fill="#a6adb9"/><g fill="#424952"><path d="m228.753906 282.578125c-4.269531 0-7.726562 3.460937-7.726562 7.726563v10.863281c0 4.265625 3.457031 7.726562 7.726562 7.726562 4.269532 0 7.726563-3.460937 7.726563-7.726562v-10.863281c0-4.265626-3.457031-7.726563-7.726563-7.726563zm0 0"/><path d="m348.796875 282.578125c-4.265625 0-7.726563 3.460937-7.726563 7.726563v10.863281c0 4.265625 3.460938 7.726562 7.726563 7.726562 4.269531 0 7.726563-3.460937 7.726563-7.726562v-10.863281c0-4.265626-3.457032-7.726563-7.726563-7.726563zm0 0"/><path d="m274.515625 304.878906c4.335937 1.867188 9.167969 2.910156 14.261719 2.910156s9.925781-1.042968 14.261718-2.910156c4.550782-1.960937 3.160157-8.746094-1.792968-8.746094h-24.9375c-4.957032 0-6.34375 6.785157-1.792969 8.746094zm0 0"/><path d="m320.421875 315.734375c-3.214844-2.808594-8.09375-2.480469-10.902344.734375-1.792969 2.054688-4.515625 3.230469-7.460937 3.230469-2.945313 0-5.667969-1.179688-7.464844-3.234375-1.441406-1.652344-3.628906-2.632813-5.816406-2.632813-2.203125 0-4.367188.976563-5.820313 2.636719-1.792969 2.054688-4.515625 3.230469-7.460937 3.230469-2.945313 0-5.667969-1.179688-7.464844-3.234375-2.808594-3.210938-7.691406-3.539063-10.902344-.730469-3.210937 2.808594-3.542968 7.691406-.730468 10.902344 4.730468 5.414062 11.691406 8.519531 19.097656 8.519531 4.773437 0 9.355468-1.296875 13.28125-3.664062 3.925781 2.367187 8.507812 3.664062 13.28125 3.664062 7.40625 0 14.367187-3.105469 19.097656-8.519531 2.808594-3.214844 2.480469-8.097657-.734375-10.902344zm0 0"/></g><path d="m205.34375 511.992188c-.046875 0-.089844.007812-.136719.007812h23.144531c2.957032-7.148438 2.4375-15.164062-1.546874-22.011719-6.710938-11.523437-14.917969-16.476562-22.191407-18.339843-.273437-9.617188-2.460937-26.445313-13.398437-38.5-8.289063-9.140626-19.78125-13.777344-34.152344-13.777344-4.265625 0-7.726562 3.460937-7.726562 7.726562 0 4.269532 3.460937 7.726563 7.726562 7.726563 9.941406 0 17.355469 2.832031 22.667969 8.660156 11.214843 12.304687 9.347656 33.960937 9.332031 34.160156-.210938 2.167969.5 4.328125 1.964844 5.941407 1.464844 1.613281 3.542968 2.535156 5.722656 2.535156 6.675781 0 12.136719 3.808594 16.699219 11.640625 1.738281 2.984375 1.75 6.542969.039062 9.523437-.8125 1.414063-3.238281 4.707032-8.144531 4.707032zm0 0" fill="#8895a2"/></svg>