<?xml version="1.0" encoding="iso-8859-1"?>
<!-- Generator: Adobe Illustrator 19.0.0, SVG Export Plug-In . SVG Version: 6.00 Build 0)  -->
<svg version="1.1" id="Layer_1" xmlns="http://www.w3.org/2000/svg" xmlns:xlink="http://www.w3.org/1999/xlink" x="0px" y="0px"
	 viewBox="0 0 512.003 512.003" style="enable-background:new 0 0 512.003 512.003;" xml:space="preserve">
<path style="fill:#5F7585;" d="M207.728,438.564c-1.29-9.12-9.079-16.142-18.528-16.247V292.546
	c0-10.162-8.313-18.475-18.477-18.475H115.3c-10.162,0-18.475,8.313-18.475,18.475v130.57c0,10.006,8.111,18.115,18.118,18.115
	h90.732c1.172,0,2.125-0.952,2.125-2.125C207.798,438.919,207.775,438.738,207.728,438.564z"/>
<path style="opacity:0.3;fill:#7D868C;enable-background:new    ;" d="M171.627,392.521c-2.156,0-3.9-1.747-3.9-3.901
	s1.745-3.9,3.9-3.9H189.2v7.801H171.627z"/>
<path style="fill:#D1D3D3;" d="M201.103,426.711c3.512,2.934,5.955,7.105,6.625,11.853c0.047,0.173,0.071,0.354,0.071,0.542
	c0,1.173-0.954,2.125-2.125,2.125h-9.806v-4.645C195.868,432.479,197.945,428.857,201.103,426.711z"/>
<path style="fill:#5F7585;" d="M370.539,438.564c-1.289-9.12-9.079-16.142-18.528-16.247V292.546
	c0-10.162-8.312-18.475-18.476-18.475h-55.423c-10.16,0-18.474,8.313-18.474,18.475v130.57c0,10.006,8.11,18.115,18.115,18.115
	h90.731c1.174,0,2.127-0.952,2.127-2.125C370.612,438.919,370.586,438.738,370.539,438.564z"/>
<path style="opacity:0.3;fill:#7D868C;enable-background:new    ;" d="M334.438,392.521c-2.155,0-3.899-1.747-3.899-3.901
	s1.744-3.9,3.899-3.9h17.574v7.801H334.438z"/>
<path style="fill:#D1D3D3;" d="M363.914,426.711c3.515,2.934,5.956,7.105,6.626,11.853c0.047,0.173,0.072,0.354,0.072,0.542
	c0,1.173-0.954,2.125-2.127,2.125h-9.803v-4.645C358.68,432.479,360.757,428.857,363.914,426.711z"/>
<g>
	<path style="fill:#7C98AB;" d="M262.12,133.513c62.379,0,112.945,50.568,112.945,112.944S324.498,359.401,262.12,359.401H129.772
		c-62.378,0-112.944-50.568-112.944-112.944s50.567-112.944,112.944-112.944C129.772,133.513,262.12,133.513,262.12,133.513z"/>
	<path style="fill:#7C98AB;" d="M160.943,438.564c-1.289-9.12-9.079-16.142-18.53-16.247V304.421
		c0-10.161-8.312-18.474-18.474-18.474H68.516c-10.162,0-18.477,8.313-18.477,18.474v118.693c0,10.006,8.113,18.115,18.115,18.115
		h90.734c1.174,0,2.124-0.952,2.124-2.125C161.011,438.919,160.987,438.738,160.943,438.564z"/>
</g>
<path style="fill:#D1D3D3;" d="M154.317,426.711c3.514,2.934,5.957,7.105,6.626,11.853c0.044,0.173,0.068,0.354,0.068,0.542
	c0,1.173-0.951,2.125-2.124,2.125h-9.803v-4.645C149.084,432.479,151.16,428.857,154.317,426.711z"/>
<path style="opacity:0.3;fill:#7D868C;enable-background:new    ;" d="M124.842,392.521c-2.156,0-3.902-1.747-3.902-3.901
	s1.746-3.9,3.902-3.9h17.572v7.801H124.842z"/>
<path style="fill:#7C98AB;" d="M323.754,438.564c-1.289-9.12-9.078-16.142-18.529-16.247V304.421
	c0-10.161-8.312-18.474-18.474-18.474h-55.424c-10.162,0-18.476,8.313-18.476,18.474v118.693c0,10.006,8.112,18.115,18.118,18.115
	h90.732c1.173,0,2.123-0.952,2.123-2.125C323.824,438.919,323.798,438.738,323.754,438.564z"/>
<path style="fill:#D1D3D3;" d="M317.131,426.711c3.51,2.934,5.956,7.105,6.625,11.853c0.044,0.173,0.068,0.354,0.068,0.542
	c0,1.173-0.951,2.125-2.123,2.125h-9.805v-4.645C311.895,432.479,313.971,428.857,317.131,426.711z"/>
<path style="opacity:0.3;fill:#7D868C;enable-background:new    ;" d="M287.653,392.521c-2.156,0-3.899-1.747-3.899-3.901
	s1.744-3.9,3.899-3.9h17.572v7.801H287.653z"/>
<path style="fill:#7C98AB;" d="M393.459,103.394c-5.981,0-10.848-4.867-10.848-10.849c0-0.392,0.022-0.791,0.064-1.185l0.019-0.171
	l0.025-0.17c1.708-11.543,11.801-20.247,23.481-20.247c11.681,0,21.776,8.705,23.479,20.248l0.02,0.135l0.018,0.136
	c0.048,0.416,0.073,0.837,0.073,1.253c0,5.981-4.868,10.849-10.849,10.849C418.94,103.394,393.459,103.394,393.459,103.394z"/>
<path style="fill:#FF9C9F;" d="M418.94,94.507c1.083,0,1.96-0.879,1.96-1.962c0-0.077-0.002-0.152-0.012-0.227
	c-1.057-7.163-7.229-12.66-14.689-12.66c-7.457,0-13.629,5.497-14.687,12.66c-0.01,0.075-0.016,0.15-0.016,0.227
	c0,1.083,0.879,1.962,1.963,1.962H418.94z"/>
<path style="fill:#7C98AB;" d="M436.323,140.118h-11.861C412.092,101.704,376.07,73.9,333.547,73.9
	c-52.752,0-95.512,42.762-95.512,95.51v59.15c0,25.491,20.666,46.157,46.157,46.157h152.132c37.171,0,67.301-30.131,67.301-67.301
	C503.624,170.248,473.495,140.118,436.323,140.118z"/>
<g>
	<path style="fill:#FBE298;" d="M425.852,229.032v17.586c0,3.069-2.511,5.583-5.582,5.583h-17.585c-3.072,0-5.584-2.514-5.584-5.583
		v-17.586H425.852z"/>
	<path style="fill:#FBE298;" d="M500.051,229.032v17.586c0,3.069-2.51,5.583-5.582,5.583h-17.585c-3.072,0-5.586-2.514-5.586-5.583
		v-17.586H500.051z"/>
</g>
<path style="fill:#7C98AB;" d="M252.177,103.394c-5.984,0-10.848-4.867-10.848-10.849c0-0.392,0.021-0.791,0.064-1.185l0.019-0.171
	l0.026-0.17c1.705-11.543,11.801-20.247,23.48-20.247c11.679,0,21.775,8.705,23.48,20.248l0.021,0.135l0.015,0.136
	c0.049,0.416,0.074,0.837,0.074,1.253c0,5.981-4.865,10.849-10.849,10.849C277.658,103.394,252.177,103.394,252.177,103.394z"/>
<path style="fill:#FF9C9F;" d="M277.656,94.507c1.085,0,1.962-0.879,1.962-1.962c0-0.077-0.004-0.152-0.012-0.227
	c-1.058-7.163-7.233-12.66-14.689-12.66c-7.457,0-13.631,5.497-14.689,12.66c-0.007,0.075-0.012,0.15-0.012,0.227
	c0,1.083,0.877,1.962,1.963,1.962H277.656z"/>
<path style="fill:#1E252B;" d="M436.323,131.739h-5.946c-2.766-7.133-6.271-13.824-10.391-20.019
	c10.115-0.55,18.18-8.926,18.18-19.174c0-0.732-0.044-1.477-0.141-2.314l-0.018-0.136c-0.009-0.07-0.019-0.14-0.029-0.209
	l-0.013-0.089c-2.305-15.623-15.961-27.404-31.769-27.404c-10.696,0-20.528,5.412-26.426,13.916
	c-14.026-6.947-29.757-10.787-46.225-10.787c-15.299,0-29.988,3.304-43.269,9.364c-6.008-7.702-15.36-12.494-25.361-12.494
	c-15.804,0-29.46,11.78-31.769,27.4l-0.026,0.17c-0.017,0.107-0.03,0.216-0.041,0.323l-0.02,0.177
	c-0.074,0.686-0.112,1.388-0.112,2.082c0,8.984,6.205,16.529,14.547,18.627c-2.966,4.401-5.631,9.056-7.937,13.96H129.769
	c-33.107,0-63.153,13.335-85.067,34.909C26.656,160.441,10.02,170.33,1.09,186.094c-2.281,4.026-0.866,9.14,3.159,11.42
	c1.305,0.74,2.724,1.09,4.122,1.09c2.919,0,5.756-1.528,7.298-4.251c2.733-4.823,6.538-8.828,11.012-11.796
	c-11.548,18.571-18.233,40.468-18.233,63.9c0,31.299,11.767,60.778,33.211,83.4v93.259c0,14.61,11.886,26.494,26.494,26.494h137.52
	c3.966,0,7.423-2.209,9.21-5.461c4.463,3.422,10.039,5.461,16.084,5.461h137.516c5.794,0,10.506-4.712,10.506-10.504
	c0-0.697-0.07-1.392-0.208-2.075c-1.586-10.215-8.923-18.502-18.392-21.688v-97.809c7.55-10.41,13.478-22.021,17.417-34.436h58.515
	c0,0,0,0,0.002,0c20.19,0,39.663-8.19,53.828-22.519h4.317c7.699,0,13.961-6.263,13.961-13.962v-16.211
	c2.361-7.411,3.573-15.135,3.573-22.989C512.003,165.688,478.054,131.739,436.323,131.739z M406.198,79.151
	c7.559,0,14.089,5.628,15.197,13.137l0.002,0.015c0.008,0.08,0.012,0.162,0.012,0.242c0,1.362-1.108,2.47-2.47,2.47h-12.795
	c-3.731-3.647-7.729-6.998-11.957-10.035C397.049,81.394,401.443,79.151,406.198,79.151z M249.722,92.262l0.003-0.019
	c1.102-7.464,7.633-13.092,15.191-13.092c3.915,0,7.625,1.538,10.421,4.124c-5.129,3.468-9.95,7.391-14.396,11.741h-8.764
	c-1.362,0-2.469-1.108-2.469-2.47C249.708,92.45,249.712,92.353,249.722,92.262z M168.175,432.851
	c-2.691-8.259-9.243-14.77-17.382-17.508v-47.565h30.029v54.537c0,4.592,3.696,8.328,8.286,8.379
	c2.318,0.026,4.491,0.823,6.246,2.156H168.175z M204.472,418.82c-2.113-1.465-4.427-2.647-6.893-3.476V367.78h6.893V418.82z
	 M330.986,432.851c-2.691-8.258-9.243-14.77-17.381-17.508v-59.01c11.036-5.184,21.137-11.992,30.028-20.078v86.061
	c0,4.592,3.696,8.328,8.286,8.379c2.319,0.026,4.492,0.823,6.247,2.156L330.986,432.851L330.986,432.851z M491.672,243.821h-11.994
	v-6.41h11.994V243.821z M493.744,220.653H383.388c-4.629,0-8.379,3.752-8.379,8.379s3.75,8.379,8.379,8.379h5.335v9.207
	c0,7.699,6.263,13.962,13.963,13.962h17.585c7.699,0,13.96-6.263,13.96-13.962v-9.207h28.69v9.207c0,4.233,1.901,8.026,4.888,10.588
	c-9.349,5.899-20.276,9.135-31.485,9.134H371.5c-3.822,0-7.16,2.586-8.114,6.288c-8.154,31.638-31.092,57.995-61.36,70.503
	c-3.135,1.296-5.179,4.353-5.179,7.744v71.442c0,4.592,3.696,8.328,8.286,8.379c2.319,0.026,4.492,0.823,6.247,2.156h-80.412
	c-5.37,0-9.739-4.368-9.739-9.736v-63.714c0-4.627-3.75-8.379-8.379-8.379h-70.438c-4.629,0-8.379,3.752-8.379,8.379v62.916
	c0,4.592,3.696,8.328,8.286,8.379c2.319,0.026,4.492,0.823,6.248,2.156H68.152c-5.369,0-9.736-4.368-9.736-9.736V326.45
	c0-2.227-0.887-4.363-2.463-5.935c-19.826-19.765-30.745-46.066-30.745-74.059c0-57.657,46.908-104.565,104.565-104.565h115.266
	c3.411,0,6.481-2.067,7.763-5.227c13.412-33.038,45.107-54.384,80.745-54.384c30.257,0,57.553,15.422,73.288,39.963
	c-0.211-0.016-0.422-0.032-0.637-0.032c-4.785,0-8.665,3.878-8.665,8.663c0,4.784,3.88,8.663,8.665,8.663
	c3.201,0,5.989-1.742,7.49-4.325c1.033,2.432,1.976,4.919,2.799,7.474c1.115,3.463,4.337,5.811,7.976,5.811h11.861
	c12.067,0,23.294,3.651,32.646,9.899c-3.253,1.55-5.631,4.643-6.176,8.335c-0.008,0.056-0.011,0.112-0.011,0.168
	c0,0.805,0.654,1.458,1.457,1.458h16.147c9.236,10.406,14.861,24.086,14.861,39.061
	C495.245,211.906,494.734,216.335,493.744,220.653z M417.473,237.411v6.41h-11.992v-6.41H417.473z M406.383,157.326
	c-5.542,0-10.127,4.083-10.915,9.406c-0.006,0.056-0.008,0.112-0.008,0.168c0,0.805,0.652,1.458,1.457,1.458h18.929
	c0.806,0,1.458-0.652,1.458-1.458c0-0.057-0.002-0.113-0.01-0.168C416.509,161.409,411.921,157.326,406.383,157.326z M340.89,122.21
	c-4.785,0-8.664,3.878-8.664,8.663c0,4.784,3.879,8.663,8.664,8.663c4.783,0,8.662-3.879,8.662-8.663
	C349.552,126.088,345.674,122.21,340.89,122.21z"/>
<g>
</g>
<g>
</g>
<g>
</g>
<g>
</g>
<g>
</g>
<g>
</g>
<g>
</g>
<g>
</g>
<g>
</g>
<g>
</g>
<g>
</g>
<g>
</g>
<g>
</g>
<g>
</g>
<g>
</g>
</svg>
