<svg id="Capa_1" enable-background="new 0 0 512 512" height="512" viewBox="0 0 512 512" width="512" xmlns="http://www.w3.org/2000/svg"><circle cx="37.156" cy="232.32" fill="#d2996f" r="37.156"/><path d="m308.619 440.039c-10.197 0-20.191-4.977-26.195-14.143-10.615-16.204-29.352-32.36-42.521-43.102-13.388-10.92-15.388-30.624-4.468-44.011 10.919-13.386 30.625-15.388 44.011-4.467 16.386 13.365 39.947 33.846 55.31 57.299 9.467 14.451 5.426 33.84-9.025 43.307-5.286 3.461-11.234 5.117-17.112 5.117z" fill="#d2996f"/><path d="m304.546 309.289c0-67.362-63.346-121.97-141.488-121.97s-141.488 54.607-141.488 121.97 63.346 108.177 141.488 108.177 141.488-40.815 141.488-108.177z" fill="#e1b89a"/><path d="m304.546 309.289c0-67.362-63.346-121.97-141.488-121.97-16.033 0-31.442 2.303-45.81 6.539 5.077 41.14 24.216 77.785 55.168 104.839 32.888 28.747 77.199 45.141 125.382 46.543 4.376-10.927 6.748-22.942 6.748-35.951z" fill="#d2996f"/><ellipse cx="159.347" cy="90.318" fill="#d2996f" rx="62.256" ry="56.936"/><path d="m138.579 62.965c-15.118 0-28.94 5.045-39.592 13.379-1.234 4.472-1.896 9.152-1.896 13.974 0 31.445 27.873 56.936 62.256 56.936 13.942 0 26.813-4.193 37.19-11.273 1.937-5.439 2.997-11.24 2.997-17.271 0-30.787-27.29-55.745-60.955-55.745z" fill="#fcf2d0"/><ellipse cx="449.744" cy="90.318" fill="#d2996f" rx="62.256" ry="56.936"/><path d="m470.512 62.965c15.118 0 28.94 5.045 39.592 13.379 1.234 4.472 1.896 9.152 1.896 13.974 0 31.445-27.873 56.936-62.256 56.936-13.942 0-26.813-4.193-37.19-11.273-1.937-5.439-2.997-11.24-2.997-17.271.001-30.787 27.291-55.745 60.955-55.745z" fill="#fcf2d0"/><path d="m467.146 171.506c0-89.802-72.799-128.952-162.6-128.952-89.802 0-162.6 39.151-162.6 128.952s72.799 147.776 162.6 147.776 162.6-57.975 162.6-147.776z" fill="#e1b89a"/><path d="m304.546 293.612c29.06 0 53.994-20.71 59.327-49.277l5.531-29.627c6.931-37.127-21.558-71.426-59.327-71.426h-11.061c-37.769 0-66.257 34.299-59.327 71.426l5.53 29.627c5.333 28.566 30.267 49.277 59.327 49.277z" fill="#fcf2d0"/><path d="m304.546 231.396c-4.143 0-7.5-3.358-7.5-7.5v-24.547c0-4.142 3.357-7.5 7.5-7.5s7.5 3.358 7.5 7.5v24.547c0 4.142-3.357 7.5-7.5 7.5z" fill="#e1b89a"/><ellipse cx="197.498" cy="189.83" fill="#fff" rx="38.15" ry="30.381"/><ellipse cx="411.594" cy="189.83" fill="#fff" rx="38.15" ry="30.381"/><g fill="#4e5660"><path d="m219.731 167.023c-4.143 0-7.5-3.358-7.5-7.5v-13.472c0-4.142 3.357-7.5 7.5-7.5s7.5 3.358 7.5 7.5v13.472c0 4.142-3.357 7.5-7.5 7.5z"/><path d="m389.359 167.023c-4.143 0-7.5-3.358-7.5-7.5v-13.472c0-4.142 3.357-7.5 7.5-7.5s7.5 3.358 7.5 7.5v13.472c0 4.142-3.357 7.5-7.5 7.5z"/><path d="m332.137 242.549c0-17.052-12.353-18.654-27.591-18.654s-27.591 1.602-27.591 18.654 12.353 30.875 27.591 30.875 27.591-13.823 27.591-30.875z"/><path d="m321.566 167.175c-11.159-2.921-22.882-2.921-34.041 0-4.621 1.21-8.648 4.053-11.334 8.004-3.628 5.335-1.542 12.652 4.352 15.274l16.352 7.272c4.87 2.166 10.43 2.166 15.301 0l16.352-7.272c5.895-2.621 7.98-9.939 4.352-15.274-2.686-3.951-6.712-6.794-11.334-8.004z"/></g><path d="m53.299 470.122c-7.712 0-15.438-2.834-21.484-8.55-12.554-11.868-13.11-31.666-1.241-44.22 10.256-10.849 20.605-31.118 20.604-51.943-.001-17.275 14.004-31.281 31.279-31.281s31.281 14.003 31.282 31.28c.001 40.58-19.476 75.642-37.705 94.923-6.151 6.508-14.436 9.791-22.735 9.791z" fill="#d2996f"/><path d="m218.591 478.619c-1.277 0-2.567-.078-3.867-.238-17.146-2.114-29.332-17.727-27.218-34.873 2.329-18.892.634-45.827-4.533-72.052-3.339-16.95 7.694-33.398 24.643-36.738 16.958-3.342 33.398 7.693 36.737 24.643 6.57 33.339 8.431 65.941 5.243 91.802-1.952 15.846-15.437 27.456-31.005 27.456z" fill="#d2996f"/></svg>