<?xml version="1.0" standalone="no"?>
<!DOCTYPE svg PUBLIC "-//W3C//DTD SVG 20010904//EN"
 "http://www.w3.org/TR/2001/REC-SVG-20010904/DTD/svg10.dtd">
<svg version="1.0" xmlns="http://www.w3.org/2000/svg"
 width="242.000000pt" height="242.000000pt" viewBox="0 0 242.000000 242.000000"
 preserveAspectRatio="xMidYMid meet">
<metadata>
Created by potrace 1.15, written by Peter Selinger 2001-2017
</metadata>
<g transform="translate(0.000000,242.000000) scale(0.100000,-0.100000)"
fill="#000000" stroke="none">
<path d="M535 1911 c-210 -42 -386 -81 -393 -85 -7 -4 -12 -20 -12 -36 0 -26
22 -48 175 -176 97 -81 175 -150 173 -154 -2 -4 -63 -75 -137 -156 -73 -82
-138 -159 -144 -172 -16 -34 4 -48 165 -112 l143 -57 3 -171 c2 -119 6 -173
15 -180 21 -17 562 -192 594 -192 28 0 708 158 779 181 19 6 34 19 38 32 3 12
6 111 6 219 0 179 2 197 18 202 9 3 67 17 127 31 61 14 134 32 163 40 49 15
52 17 52 48 0 30 -12 42 -164 162 l-165 129 142 95 c115 78 143 101 145 122 2
14 -3 31 -11 38 -14 11 -592 171 -620 171 -7 0 -74 -38 -147 -85 -74 -47 -140
-84 -147 -83 -7 2 -84 63 -172 136 -152 126 -161 132 -203 131 -23 -1 -214
-36 -423 -78z m560 -123 c68 -57 124 -105 124 -108 1 -3 -140 -38 -312 -79
-171 -41 -317 -76 -323 -78 -14 -5 -297 227 -288 236 8 9 602 129 642 130 28
1 53 -15 157 -101z m788 -63 l218 -58 -110 -73 -111 -73 -202 68 c-112 37
-210 70 -218 73 -19 6 169 130 190 125 8 -3 113 -30 233 -62z m-1075 -390
c116 -38 212 -71 212 -75 0 -5 -197 -229 -245 -279 -12 -12 -44 -3 -227 69
-117 46 -215 85 -217 86 -11 9 239 276 253 271 6 -2 107 -35 224 -72z m1205
-27 c70 -56 124 -105 120 -109 -10 -8 -600 -149 -626 -149 -21 0 -280 200
-271 209 8 9 594 149 624 150 17 1 65 -31 153 -101z m-683 -258 c155 -124 121
-117 315 -70 92 22 174 40 181 40 11 0 14 -32 14 -168 l0 -168 -247 -59 c-137
-32 -290 -69 -340 -81 l-93 -22 0 330 0 330 38 -28 c20 -15 80 -62 132 -104z
m-273 -516 c-2 -2 -105 30 -230 72 l-227 76 0 119 c0 65 4 119 9 119 4 0 41
-14 82 -30 41 -17 83 -29 94 -26 11 3 77 68 145 145 l125 140 3 -306 c1 -168
1 -308 -1 -309z"/>
<path d="M1502 795 c-145 -35 -266 -65 -268 -68 -8 -7 -8 -106 -1 -114 10 -9
530 117 539 131 10 15 10 116 1 115 -5 0 -126 -29 -271 -64z"/>
</g>
</svg>
