<?xml version="1.0" standalone="no"?>
<!DOCTYPE svg PUBLIC "-//W3C//DTD SVG 20010904//EN"
 "http://www.w3.org/TR/2001/REC-SVG-20010904/DTD/svg10.dtd">
<svg version="1.0" xmlns="http://www.w3.org/2000/svg"
 width="26.000000pt" height="26.000000pt" viewBox="0 0 26.000000 26.000000"
 preserveAspectRatio="xMidYMid meet">
<metadata>
Created by potrace 1.15, written by Peter Selinger 2001-2017
</metadata>
<g transform="translate(0.000000,26.000000) scale(0.100000,-0.100000)"
fill="#000000" stroke="none">
<path d="M60 249 c0 -5 -4 -8 -9 -5 -13 8 -38 -3 -45 -19 -9 -24 12 -127 30
-146 35 -39 82 -10 55 33 -10 16 -9 23 5 39 10 11 15 28 12 44 -4 17 -1 25 8
25 8 0 14 9 14 20 0 29 -37 27 -43 -2 l-4 -23 -2 23 c-1 21 -21 33 -21 11z"/>
<path d="M133 184 c-3 -8 -1 -20 6 -27 6 -6 11 -20 11 -31 0 -11 8 -28 17 -38
13 -14 14 -21 5 -30 -7 -7 -12 -22 -12 -35 0 -19 5 -23 30 -23 36 0 55 31 63
104 4 39 1 51 -14 64 -27 23 -59 26 -60 4 0 -13 -2 -12 -9 6 -11 26 -28 29
-37 6z"/>
</g>
</svg>
