<?xml version="1.0" standalone="no"?>
<!DOCTYPE svg PUBLIC "-//W3C//DTD SVG 20010904//EN"
 "http://www.w3.org/TR/2001/REC-SVG-20010904/DTD/svg10.dtd">
<svg version="1.0" xmlns="http://www.w3.org/2000/svg"
 width="55.000000pt" height="77.000000pt" viewBox="0 0 55.000000 77.000000"
 preserveAspectRatio="xMidYMid meet">
<metadata>
Created by potrace 1.15, written by Peter Selinger 2001-2017
</metadata>
<g transform="translate(0.000000,77.000000) scale(0.100000,-0.100000)"
fill="#000000" stroke="none">
<path d="M210 189 c0 -21 5 -39 10 -39 6 0 10 6 10 14 0 7 9 16 20 19 15 4 20
0 20 -14 0 -10 5 -19 10 -19 6 0 10 8 10 18 1 16 1 16 11 0 8 -15 24 -18 89
-18 54 0 80 4 83 13 3 9 9 9 27 -1 29 -18 31 -14 13 31 -18 44 -39 48 -48 8
-6 -29 -7 -29 -26 -10 -23 23 -24 30 -4 23 8 -4 15 -1 15 5 0 6 -11 11 -25 11
-18 0 -25 -5 -25 -20 0 -11 7 -23 15 -26 26 -10 16 -20 -20 -21 -19 -1 -35 3
-35 8 0 5 7 9 15 9 8 0 15 5 15 10 0 6 -7 10 -15 10 -21 0 -19 18 3 23 10 3 6
5 -10 6 -26 1 -28 -2 -28 -35 0 -20 -4 -33 -10 -29 -5 3 -7 19 -4 35 l6 29
-61 0 -61 -1 0 -39z"/>
</g>
</svg>
