<?xml version="1.0" standalone="no"?>
<!DOCTYPE svg PUBLIC "-//W3C//DTD SVG 20010904//EN"
 "http://www.w3.org/TR/2001/REC-SVG-20010904/DTD/svg10.dtd">
<svg version="1.0" xmlns="http://www.w3.org/2000/svg"
 width="26.000000pt" height="26.000000pt" viewBox="0 0 26.000000 26.000000"
 preserveAspectRatio="xMidYMid meet">
<metadata>
Created by potrace 1.15, written by Peter Selinger 2001-2017
</metadata>
<g transform="translate(0.000000,26.000000) scale(0.100000,-0.100000)"
fill="#000000" stroke="none">
<path d="M76 214 c-3 -8 -11 -12 -16 -9 -6 4 -22 4 -36 1 -23 -6 -24 -10 -24
-84 0 -47 5 -83 12 -90 18 -18 222 -16 237 2 7 9 11 41 9 83 -3 63 -5 69 -30
81 -16 7 -28 17 -28 23 0 5 -27 9 -59 9 -44 0 -60 -4 -65 -16z"/>
</g>
</svg>
