<?xml version="1.0" standalone="no"?>
<!DOCTYPE svg PUBLIC "-//W3C//DTD SVG 20010904//EN"
 "http://www.w3.org/TR/2001/REC-SVG-20010904/DTD/svg10.dtd">
<svg version="1.0" xmlns="http://www.w3.org/2000/svg"
 width="32.000000pt" height="32.000000pt" viewBox="0 0 32.000000 32.000000"
 preserveAspectRatio="xMidYMid meet">
<metadata>
Created by potrace 1.15, written by Peter Selinger 2001-2017
</metadata>
<g transform="translate(0.000000,32.000000) scale(0.100000,-0.100000)"
fill="#000000" stroke="none">
<path d="M40 240 c0 -5 6 -10 13 -10 14 0 47 -109 47 -154 0 -22 4 -26 30 -26
27 0 30 3 30 30 0 20 5 30 15 30 10 0 15 -10 15 -30 0 -27 3 -30 30 -30 26 0
30 4 30 28 0 15 7 49 15 76 8 27 15 53 15 58 0 5 -40 8 -90 6 -78 -3 -90 -1
-94 15 -4 18 -56 25 -56 7z"/>
</g>
</svg>
