<?xml version="1.0" standalone="no"?>
<!DOCTYPE svg PUBLIC "-//W3C//DTD SVG 20010904//EN"
 "http://www.w3.org/TR/2001/REC-SVG-20010904/DTD/svg10.dtd">
<svg version="1.0" xmlns="http://www.w3.org/2000/svg"
 width="64.000000pt" height="64.000000pt" viewBox="0 0 64.000000 64.000000"
 preserveAspectRatio="xMidYMid meet">
<metadata>
Created by potrace 1.15, written by Peter Selinger 2001-2017
</metadata>
<g transform="translate(0.000000,64.000000) scale(0.100000,-0.100000)"
fill="#000000" stroke="none">
<path d="M183 570 c-77 -16 -141 -59 -169 -112 -8 -15 -14 -50 -14 -78 0 -45
4 -55 40 -94 46 -50 47 -56 20 -81 -50 -45 5 -61 84 -24 29 13 67 21 117 22
211 6 319 174 193 300 -57 56 -178 86 -271 67z m150 -62 c57 -17 117 -76 117
-116 0 -36 -38 -85 -84 -109 -31 -17 -219 -35 -210 -21 3 4 -6 12 -18 19 -13
6 -35 23 -50 37 -112 104 68 243 245 190z"/>
<path d="M540 400 c0 -68 -19 -108 -72 -155 -55 -48 -125 -75 -195 -75 -29 0
-53 -4 -53 -8 0 -19 81 -45 160 -52 47 -5 111 -18 143 -29 32 -12 62 -19 67
-16 16 10 11 31 -10 50 -25 23 -25 41 -1 55 51 27 79 136 50 193 -15 29 -49
66 -71 78 -16 9 -18 4 -18 -41z"/>
</g>
</svg>
