<?xml version="1.0" standalone="no"?>
<!DOCTYPE svg PUBLIC "-//W3C//DTD SVG 20010904//EN"
 "http://www.w3.org/TR/2001/REC-SVG-20010904/DTD/svg10.dtd">
<svg version="1.0" xmlns="http://www.w3.org/2000/svg"
 width="160.000000pt" height="161.000000pt" viewBox="0 0 160.000000 161.000000"
 preserveAspectRatio="xMidYMid meet">
<metadata>
Created by potrace 1.15, written by Peter Selinger 2001-2017
</metadata>
<g transform="translate(0.000000,161.000000) scale(0.100000,-0.100000)"
fill="#000000" stroke="none">
<path d="M0 805 l0 -805 95 0 95 0 0 110 c0 181 28 364 86 569 6 21 5 23 -17
18 -35 -9 -97 8 -125 34 l-24 23 57 24 c46 19 69 22 111 18 50 -6 52 -5 42 13
-5 11 -20 27 -33 36 -19 13 -20 17 -7 25 30 19 48 11 61 -27 10 -33 13 -35 20
-18 4 11 8 35 8 53 1 32 12 39 45 26 12 -5 14 -10 6 -19 -6 -7 -15 -27 -20
-44 -8 -29 -6 -33 18 -42 35 -13 68 -44 98 -91 16 -25 43 -46 87 -68 63 -31
64 -32 58 -63 -6 -28 -11 -32 -41 -34 -66 -2 -65 -1 -45 -23 26 -29 7 -26
-109 14 -58 21 -104 44 -116 58 -23 27 -27 12 -5 -19 8 -11 26 -24 41 -27 25
-7 26 -10 20 -49 -27 -174 -15 -301 41 -430 l28 -67 277 0 277 0 -20 35 c-18
30 -20 45 -14 92 5 43 3 65 -11 95 -15 33 -16 44 -5 73 10 29 9 38 -4 58 -8
13 -13 32 -9 41 4 10 1 28 -6 41 -12 22 -15 23 -34 10 -32 -23 -121 -20 -146
5 -11 11 -20 25 -20 31 0 6 45 31 100 56 l100 47 -6 46 c-6 42 -4 49 17 64 13
9 31 16 40 16 10 0 20 11 23 25 9 34 37 48 72 35 22 -9 31 -7 49 10 28 27 61
25 90 -4 14 -14 27 -20 30 -15 9 13 49 11 63 -3 7 -7 12 -22 12 -35 0 -15 6
-23 18 -23 37 0 57 -51 30 -78 -8 -8 8 -20 70 -48 45 -20 82 -41 82 -45 0 -5
-9 -18 -21 -30 -16 -16 -30 -20 -62 -17 -23 3 -50 8 -60 13 -17 7 -18 6 -6
-13 10 -16 10 -26 1 -47 -18 -38 -15 -69 8 -83 11 -7 20 -18 20 -26 0 -7 13
-16 30 -19 20 -5 31 -14 36 -30 3 -14 16 -29 30 -36 13 -6 24 -17 24 -26 0 -9
9 -15 25 -15 l25 0 0 705 0 705 -445 0 -445 0 0 -34 c0 -33 -1 -33 -54 -39
-55 -5 -123 -34 -145 -61 -11 -13 -7 -20 23 -47 47 -41 71 -117 57 -179 -12
-56 -52 -96 -128 -131 -42 -19 -69 -38 -82 -59 -20 -33 -37 -26 -26 10 8 24 3
25 -37 4 -30 -16 -31 -16 -25 8 6 21 -1 29 -37 55 -92 65 -115 197 -46 268 18
18 46 39 61 46 37 15 37 38 -2 75 -17 16 -37 41 -45 57 -14 27 -15 27 -119 27
l-105 0 0 -805z m1420 792 c0 -2 -11 -32 -25 -67 l-25 -64 35 -34 c62 -60 88
-214 60 -341 -13 -53 -14 -76 -6 -84 34 -34 -7 -92 -61 -85 -19 3 -49 -3 -76
-15 -30 -13 -57 -18 -83 -14 -38 5 -39 5 -17 -12 20 -17 17 -17 -76 -4 -54 7
-105 17 -113 22 -10 5 -25 3 -41 -5 -55 -28 -107 32 -73 84 5 9 1 34 -11 65
-15 38 -20 76 -20 139 0 103 20 178 61 234 l29 41 -29 67 c-16 38 -29 70 -29
72 0 2 113 4 250 4 138 0 250 -1 250 -3z"/>
</g>
</svg>
