<?xml version="1.0" standalone="no"?>
<!DOCTYPE svg PUBLIC "-//W3C//DTD SVG 20010904//EN"
 "http://www.w3.org/TR/2001/REC-SVG-20010904/DTD/svg10.dtd">
<svg version="1.0" xmlns="http://www.w3.org/2000/svg"
 width="169.000000pt" height="169.000000pt" viewBox="0 0 169.000000 169.000000"
 preserveAspectRatio="xMidYMid meet">
<metadata>
Created by potrace 1.15, written by Peter Selinger 2001-2017
</metadata>
<g transform="translate(0.000000,169.000000) scale(0.100000,-0.100000)"
fill="#000000" stroke="none">
<path d="M0 845 l0 -845 160 0 160 0 39 60 c72 111 88 238 42 327 -23 44 -79
100 -138 137 -99 61 -116 111 -115 331 1 218 41 442 101 570 51 108 49 107
116 44 32 -30 89 -101 127 -159 l69 -105 292 -6 c161 -3 308 -9 328 -14 l36
-7 58 88 c62 95 161 201 212 228 l32 16 16 -31 c9 -17 22 -71 28 -120 18 -144
-16 -651 -53 -787 -18 -68 -119 -146 -317 -246 -40 -20 -73 -42 -73 -49 1 -25
60 -151 101 -213 l41 -64 214 0 214 0 0 845 0 845 -845 0 -845 0 0 -845z"/>
<path d="M456 1019 c-80 -63 -70 -171 21 -211 78 -35 159 8 170 91 7 49 -10
94 -45 121 -34 28 -110 27 -146 -1z"/>
<path d="M993 1006 c-89 -40 -97 -178 -13 -221 51 -26 105 -20 145 18 104 95
-4 260 -132 203z"/>
<path d="M660 821 c-34 -10 -30 -46 11 -128 l31 -62 -22 -35 c-46 -75 -102
-87 -154 -33 -17 18 -41 46 -52 62 -18 24 -25 28 -35 18 -17 -16 -2 -49 46
-102 70 -77 145 -76 212 5 l37 44 36 -34 c62 -59 107 -70 175 -42 40 17 135
102 135 121 0 28 -29 22 -61 -12 -49 -52 -88 -73 -137 -73 -36 0 -49 6 -84 38
l-40 38 56 66 c31 37 56 71 56 77 0 33 -152 70 -210 52z"/>
<path d="M704 331 c-48 -30 -64 -59 -64 -118 0 -44 5 -58 31 -88 39 -44 93
-62 142 -46 104 35 135 161 57 236 -40 38 -119 46 -166 16z"/>
</g>
</svg>
