<?xml version="1.0" standalone="no"?>
<!DOCTYPE svg PUBLIC "-//W3C//DTD SVG 20010904//EN"
 "http://www.w3.org/TR/2001/REC-SVG-20010904/DTD/svg10.dtd">
<svg version="1.0" xmlns="http://www.w3.org/2000/svg"
 width="48.000000pt" height="48.000000pt" viewBox="0 0 48.000000 48.000000"
 preserveAspectRatio="xMidYMid meet">
<metadata>
Created by potrace 1.15, written by Peter Selinger 2001-2017
</metadata>
<g transform="translate(0.000000,48.000000) scale(0.100000,-0.100000)"
fill="#000000" stroke="none">
<path d="M30 400 c0 -14 7 -20 24 -20 21 0 27 -9 45 -62 12 -34 21 -87 21
-120 0 -47 4 -59 20 -68 13 -7 20 -21 20 -40 0 -27 3 -30 30 -30 27 0 30 3 30
30 0 29 2 30 45 30 43 0 45 -1 45 -30 0 -27 3 -30 30 -30 29 0 30 1 30 50 l0
50 -93 0 c-87 0 -117 8 -117 32 0 4 47 9 106 10 l105 3 38 85 39 85 -156 3
c-142 2 -157 4 -169 22 -10 14 -26 20 -54 20 -32 0 -39 -3 -39 -20z"/>
</g>
</svg>
