<?xml version="1.0" standalone="no"?>
<!DOCTYPE svg PUBLIC "-//W3C//DTD SVG 20010904//EN"
 "http://www.w3.org/TR/2001/REC-SVG-20010904/DTD/svg10.dtd">
<svg version="1.0" xmlns="http://www.w3.org/2000/svg"
 width="32.000000pt" height="32.000000pt" viewBox="0 0 32.000000 32.000000"
 preserveAspectRatio="xMidYMid meet">
<metadata>
Created by potrace 1.15, written by Peter Selinger 2001-2017
</metadata>
<g transform="translate(0.000000,32.000000) scale(0.100000,-0.100000)"
fill="#000000" stroke="none">
<path d="M20 267 c0 -8 8 -17 18 -19 21 -6 42 -67 42 -121 0 -20 6 -40 13 -44
6 -4 12 -15 12 -23 0 -8 10 -16 23 -18 17 -3 22 2 22 17 0 16 6 21 29 21 21 0
28 -5 27 -17 0 -12 7 -19 22 -21 19 -3 22 1 22 32 l0 36 -70 0 c-40 0 -70 4
-70 10 0 6 30 10 69 10 l68 0 27 59 c31 70 31 71 8 71 -12 0 -26 -17 -42 -50
-23 -50 -24 -50 -71 -50 l-47 0 -19 58 c-18 52 -22 57 -51 60 -23 2 -32 -1
-32 -11z"/>
</g>
</svg>
