<?xml version="1.0" standalone="no"?>
<!DOCTYPE svg PUBLIC "-//W3C//DTD SVG 20010904//EN"
 "http://www.w3.org/TR/2001/REC-SVG-20010904/DTD/svg10.dtd">
<svg version="1.0" xmlns="http://www.w3.org/2000/svg"
 width="48.000000pt" height="48.000000pt" viewBox="0 0 48.000000 48.000000"
 preserveAspectRatio="xMidYMid meet">
<metadata>
Created by potrace 1.15, written by Peter Selinger 2001-2017
</metadata>
<g transform="translate(0.000000,48.000000) scale(0.100000,-0.100000)"
fill="#000000" stroke="none">
<path d="M180 410 c0 -37 -30 -56 -61 -40 -29 16 -45 7 -69 -40 l-21 -41 25
-20 c33 -26 33 -52 -1 -77 l-27 -20 19 -37 c28 -52 41 -60 71 -46 36 16 64 -1
64 -39 0 -30 0 -30 60 -30 60 0 60 0 60 30 0 37 30 56 61 40 29 -16 45 -7 70
41 l21 43 -26 19 c-33 24 -33 46 1 73 l27 22 -19 37 c-28 52 -41 60 -71 46
-36 -16 -64 1 -64 39 0 30 0 30 -60 30 -60 0 -60 0 -60 -30z"/>
</g>
</svg>
