<?xml version="1.0" standalone="no"?>
<!DOCTYPE svg PUBLIC "-//W3C//DTD SVG 20010904//EN"
 "http://www.w3.org/TR/2001/REC-SVG-20010904/DTD/svg10.dtd">
<svg version="1.0" xmlns="http://www.w3.org/2000/svg"
 width="48.000000pt" height="48.000000pt" viewBox="0 0 48.000000 48.000000"
 preserveAspectRatio="xMidYMid meet">
<metadata>
Created by potrace 1.15, written by Peter Selinger 2001-2017
</metadata>
<g transform="translate(0.000000,48.000000) scale(0.100000,-0.100000)"
fill="#000000" stroke="none">
<path d="M30 360 l0 -50 130 0 130 0 0 50 0 50 -130 0 -130 0 0 -50z"/>
<path d="M30 175 c0 -50 2 -55 23 -55 14 0 26 -9 32 -22 8 -18 18 -23 45 -23
27 0 37 5 45 23 8 19 17 22 62 22 l53 0 0 55 0 55 -130 0 -130 0 0 -55z"/>
</g>
</svg>
