<?xml version="1.0" standalone="no"?>
<!DOCTYPE svg PUBLIC "-//W3C//DTD SVG 20010904//EN"
 "http://www.w3.org/TR/2001/REC-SVG-20010904/DTD/svg10.dtd">
<svg version="1.0" xmlns="http://www.w3.org/2000/svg"
 width="32.000000pt" height="32.000000pt" viewBox="0 0 32.000000 32.000000"
 preserveAspectRatio="xMidYMid meet">
<metadata>
Created by potrace 1.15, written by Peter Selinger 2001-2017
</metadata>
<g transform="translate(0.000000,32.000000) scale(0.100000,-0.100000)"
fill="#000000" stroke="none">
<path d="M20 266 c0 -7 8 -16 18 -18 21 -6 42 -67 42 -121 0 -20 6 -40 13 -44
6 -4 12 -15 12 -23 0 -8 10 -16 23 -18 17 -3 22 2 22 17 0 16 6 21 29 21 21 0
28 -5 27 -17 0 -12 7 -19 22 -21 19 -3 22 1 22 32 l0 36 -70 0 c-40 0 -70 4
-70 10 0 6 30 10 69 10 l68 0 27 59 c14 32 26 61 26 65 0 3 -47 6 -104 6 -59
0 -108 4 -111 10 -10 16 -65 12 -65 -4z"/>
</g>
</svg>
