<?xml version="1.0" standalone="no"?>
<!DOCTYPE svg PUBLIC "-//W3C//DTD SVG 20010904//EN"
 "http://www.w3.org/TR/2001/REC-SVG-20010904/DTD/svg10.dtd">
<svg version="1.0" xmlns="http://www.w3.org/2000/svg"
 width="26.000000pt" height="26.000000pt" viewBox="0 0 26.000000 26.000000"
 preserveAspectRatio="xMidYMid meet">
<metadata>
Created by potrace 1.15, written by Peter Selinger 2001-2017
</metadata>
<g transform="translate(0.000000,26.000000) scale(0.100000,-0.100000)"
fill="#000000" stroke="none">
<path d="M0 142 l0 -120 31 -12 c25 -11 38 -11 65 -1 27 10 41 10 68 0 27 -10
40 -10 65 1 l31 12 0 119 c0 66 -2 119 -5 119 -2 0 -16 -5 -30 -12 -19 -9 -28
-9 -37 0 -14 14 -64 16 -72 3 -6 -10 -58 -8 -93 4 -23 7 -23 7 -23 -113z m122
6 c12 -27 24 -48 28 -48 10 0 50 89 50 113 0 16 3 18 9 8 5 -7 14 -10 20 -7 8
5 11 -18 11 -78 0 -76 -2 -86 -21 -96 -23 -13 -22 -13 -38 17 -6 13 -24 26
-39 29 -15 4 -41 18 -58 31 -17 12 -38 23 -47 23 -13 0 -17 9 -17 39 l0 40 35
-6 c26 -4 35 -2 36 8 1 8 3 5 6 -6 2 -11 13 -41 25 -67z"/>
</g>
</svg>
