<?xml version="1.0" standalone="no"?>
<!DOCTYPE svg PUBLIC "-//W3C//DTD SVG 20010904//EN"
 "http://www.w3.org/TR/2001/REC-SVG-20010904/DTD/svg10.dtd">
<svg version="1.0" xmlns="http://www.w3.org/2000/svg"
 width="169.000000pt" height="169.000000pt" viewBox="0 0 169.000000 169.000000"
 preserveAspectRatio="xMidYMid meet">
<metadata>
Created by potrace 1.15, written by Peter Selinger 2001-2017
</metadata>
<g transform="translate(0.000000,169.000000) scale(0.100000,-0.100000)"
fill="#000000" stroke="none">
<path d="M0 845 l0 -845 130 0 c72 0 130 3 130 6 0 3 -10 52 -22 107 -18 85
-22 134 -22 292 0 163 3 202 22 278 12 49 22 91 22 94 0 2 -51 3 -112 1 l-113
-3 -3 32 c-5 46 41 129 109 195 61 60 164 116 250 137 38 9 59 24 115 82 93
97 193 161 313 200 84 28 110 32 211 33 141 1 224 -22 319 -89 71 -50 82 -52
134 -30 47 19 101 19 121 -1 32 -32 12 -130 -47 -228 -17 -28 -62 -93 -101
-144 -39 -52 -75 -100 -81 -108 -7 -10 9 -50 57 -146 37 -73 71 -151 77 -173
23 -84 6 -173 -34 -189 -22 -8 -49 8 -115 66 -65 58 -142 98 -187 98 -18 0
-33 -2 -33 -5 0 -2 5 -26 10 -52 17 -84 28 -256 19 -312 -10 -66 -31 -91 -75
-91 -42 0 -90 41 -146 123 -22 32 -41 57 -43 55 -5 -5 -111 -182 -124 -206
l-12 -22 461 0 460 0 0 845 0 845 -845 0 -845 0 0 -845z"/>
<path d="M1085 1211 c-64 -28 -82 -114 -32 -157 39 -33 99 -33 132 1 69 68
-12 194 -100 156z"/>
</g>
</svg>
