<?xml version="1.0" standalone="no"?>
<!DOCTYPE svg PUBLIC "-//W3C//DTD SVG 20010904//EN"
 "http://www.w3.org/TR/2001/REC-SVG-20010904/DTD/svg10.dtd">
<svg version="1.0" xmlns="http://www.w3.org/2000/svg"
 width="169.000000pt" height="169.000000pt" viewBox="0 0 169.000000 169.000000"
 preserveAspectRatio="xMidYMid meet">
<metadata>
Created by potrace 1.15, written by Peter Selinger 2001-2017
</metadata>
<g transform="translate(0.000000,169.000000) scale(0.100000,-0.100000)"
fill="#000000" stroke="none">
<path d="M0 845 l0 -845 286 0 286 0 -16 22 c-30 41 -56 102 -56 133 0 17 6
63 14 103 15 79 11 110 -22 166 -34 57 -35 82 -6 146 l27 60 -32 36 c-30 34
-32 39 -26 89 5 38 3 60 -9 81 -30 56 -28 55 -90 24 -97 -49 -230 -39 -280 21
-47 55 -43 59 162 154 103 48 195 96 204 107 16 18 16 21 -2 51 -11 18 -20 45
-20 60 0 65 67 124 128 115 28 -4 32 -2 32 18 0 62 45 114 98 114 39 0 102
-27 102 -44 1 -6 10 6 21 26 21 41 63 68 105 68 37 0 89 -35 104 -70 l12 -29
36 20 c44 23 64 24 102 4 32 -17 45 -50 37 -94 -5 -25 -4 -27 22 -23 42 6 91
-39 91 -86 0 -19 -7 -44 -16 -54 -22 -23 -6 -44 56 -70 25 -11 89 -40 143 -65
105 -50 107 -53 70 -110 -36 -55 -198 -55 -261 0 -31 27 -44 8 -17 -25 14 -16
25 -41 25 -54 0 -36 -26 -81 -51 -89 l-21 -7 21 -15 c25 -17 27 -50 5 -81 -15
-21 -14 -22 16 -22 45 0 83 -41 78 -84 -4 -33 -3 -33 19 -19 47 31 108 -21
106 -90 -1 -31 1 -33 31 -29 40 5 70 -26 70 -72 0 -33 1 -33 23 -19 18 12 29
13 53 5 l30 -11 0 665 0 664 -845 0 -845 0 0 -845z"/>
<path d="M625 1091 c-58 -24 -81 -103 -46 -158 44 -71 150 -63 186 14 42 88
-49 181 -140 144z"/>
<path d="M992 1087 c-62 -36 -75 -119 -25 -168 98 -99 248 38 156 141 -32 36
-94 49 -131 27z"/>
<path d="M875 833 c-19 -8 -50 -11 -85 -8 l-55 5 39 -34 c31 -29 37 -40 32
-60 -7 -29 -49 -45 -75 -29 -9 5 -23 31 -31 56 -10 32 -21 47 -32 47 -14 0
-16 -6 -11 -32 14 -75 43 -107 101 -115 35 -5 42 -2 62 24 l22 30 28 -29 c66
-66 170 -4 170 102 0 23 -4 30 -20 30 -17 0 -20 -7 -20 -40 0 -74 -67 -107
-109 -54 -26 33 -26 42 0 70 11 12 19 29 17 36 -2 13 -7 13 -33 1z"/>
</g>
</svg>
