<?xml version="1.0" standalone="no"?>
<!DOCTYPE svg PUBLIC "-//W3C//DTD SVG 20010904//EN"
 "http://www.w3.org/TR/2001/REC-SVG-20010904/DTD/svg10.dtd">
<svg version="1.0" xmlns="http://www.w3.org/2000/svg"
 width="169.000000pt" height="169.000000pt" viewBox="0 0 169.000000 169.000000"
 preserveAspectRatio="xMidYMid meet">
<metadata>
Created by potrace 1.15, written by Peter Selinger 2001-2017
</metadata>
<g transform="translate(0.000000,169.000000) scale(0.100000,-0.100000)"
fill="#000000" stroke="none">
<path d="M0 845 l0 -845 214 0 215 0 34 58 c19 31 46 88 59 125 l23 68 -45 41
c-257 232 -301 285 -319 383 -12 62 2 141 36 210 15 32 58 82 115 136 l90 86
-16 47 c-30 89 -15 191 39 262 37 48 117 84 187 84 75 0 115 -17 178 -76 27
-26 50 -43 50 -38 0 5 6 -3 14 -18 9 -17 12 -42 9 -67 -3 -22 -2 -56 1 -76 8
-43 68 -113 113 -132 67 -27 152 -11 203 39 14 14 35 27 47 30 20 5 21 3 13
-12 -9 -16 -2 -24 45 -55 144 -96 217 -242 193 -389 -19 -125 -92 -224 -253
-346 -52 -40 -95 -76 -95 -81 0 -4 29 -68 64 -143 l65 -136 205 0 206 0 0 845
0 845 -845 0 -845 0 0 -845z m1160 644 c91 -41 140 -112 140 -203 0 -30 -5
-67 -10 -81 -10 -27 -10 -27 -28 -7 -20 24 -344 202 -367 202 -22 0 -19 13 13
42 75 71 163 88 252 47z m-206 -174 c20 -14 23 -22 19 -60 -5 -37 -2 -47 20
-69 36 -36 98 -36 132 0 23 25 24 25 50 8 24 -16 25 -18 9 -35 -23 -26 -77
-49 -114 -49 -96 0 -179 103 -156 194 7 30 9 31 40 11z"/>
<path d="M600 1302 c-135 -75 -175 -102 -175 -117 0 -12 8 -21 20 -24 11 -2
37 -18 57 -37 88 -79 235 -48 288 61 18 38 22 58 17 106 -3 32 -1 62 4 65 5 3
9 14 9 25 0 35 -40 20 -220 -79z m180 -30 c0 -116 -125 -196 -226 -144 -22 11
-46 27 -53 36 -10 12 -8 17 17 30 28 14 31 14 52 -9 33 -35 92 -34 126 0 21
21 25 34 23 71 -3 40 0 48 21 59 30 16 40 6 40 -43z"/>
<path d="M986 1022 c-3 -4 -13 -42 -22 -83 -13 -57 -24 -81 -49 -106 -61 -61
-119 -36 -185 80 -17 31 -36 57 -41 57 -35 0 -4 -83 58 -150 58 -65 142 -73
200 -18 39 37 84 215 56 225 -6 2 -14 0 -17 -5z"/>
</g>
</svg>
