<?xml version="1.0" standalone="no"?>
<!DOCTYPE svg PUBLIC "-//W3C//DTD SVG 20010904//EN"
 "http://www.w3.org/TR/2001/REC-SVG-20010904/DTD/svg10.dtd">
<svg version="1.0" xmlns="http://www.w3.org/2000/svg"
 width="50.000000pt" height="50.000000pt" viewBox="0 0 50.000000 50.000000"
 preserveAspectRatio="xMidYMid meet">
<metadata>
Created by potrace 1.15, written by Peter Selinger 2001-2017
</metadata>
<g transform="translate(0.000000,50.000000) scale(0.100000,-0.100000)"
fill="#000000" stroke="none">
<path d="M119 447 c-55 -37 -79 -81 -79 -147 0 -101 68 -170 169 -170 31 0 63
5 71 10 11 7 30 -5 78 -53 l62 -61 27 27 27 27 -59 60 c-55 55 -58 61 -47 85
7 14 12 50 12 79 0 61 -25 107 -79 143 -47 32 -135 32 -182 0z m176 -62 c51
-52 51 -118 0 -170 -31 -31 -42 -35 -85 -35 -43 0 -54 4 -85 35 -31 32 -35 42
-35 87 0 45 4 54 36 84 30 29 43 34 84 34 43 0 54 -5 85 -35z"/>
</g>
</svg>
