<?xml version="1.0" standalone="no"?>
<!DOCTYPE svg PUBLIC "-//W3C//DTD SVG 20010904//EN"
 "http://www.w3.org/TR/2001/REC-SVG-20010904/DTD/svg10.dtd">
<svg version="1.0" xmlns="http://www.w3.org/2000/svg"
 width="26.000000pt" height="26.000000pt" viewBox="0 0 26.000000 26.000000"
 preserveAspectRatio="xMidYMid meet">
<metadata>
Created by potrace 1.15, written by Peter Selinger 2001-2017
</metadata>
<g transform="translate(0.000000,26.000000) scale(0.100000,-0.100000)"
fill="#000000" stroke="none">
<path d="M80 145 c0 -25 5 -45 10 -45 6 0 10 -16 10 -35 0 -28 -4 -35 -20 -35
-11 0 -20 5 -20 10 0 6 7 10 15 10 8 0 15 7 15 15 0 17 -23 20 -51 5 -25 -14
-25 -46 0 -60 25 -13 157 -13 182 0 25 14 25 46 0 60 -28 15 -51 12 -51 -5 0
-8 7 -15 15 -15 8 0 15 -4 15 -10 0 -5 -9 -10 -20 -10 -16 0 -20 7 -20 35 0
19 5 35 10 35 6 0 10 20 10 45 l0 45 -50 0 -50 0 0 -45z"/>
</g>
</svg>
