<?xml version="1.0" standalone="no"?>
<!DOCTYPE svg PUBLIC "-//W3C//DTD SVG 20010904//EN"
 "http://www.w3.org/TR/2001/REC-SVG-20010904/DTD/svg10.dtd">
<svg version="1.0" xmlns="http://www.w3.org/2000/svg"
 width="26.000000pt" height="26.000000pt" viewBox="0 0 26.000000 26.000000"
 preserveAspectRatio="xMidYMid meet">
<metadata>
Created by potrace 1.15, written by Peter Selinger 2001-2017
</metadata>
<g transform="translate(0.000000,26.000000) scale(0.100000,-0.100000)"
fill="#000000" stroke="none">
<path d="M119 239 c-13 -13 -19 -30 -17 -49 2 -24 -7 -40 -50 -83 -40 -41 -53
-60 -50 -78 2 -19 10 -25 33 -27 25 -2 37 6 75 52 40 48 48 53 76 49 43 -7 74
24 74 74 l0 36 -24 -22 c-47 -44 -89 -2 -45 45 l22 24 -36 0 c-24 0 -44 -7
-58 -21z"/>
</g>
</svg>
