<?xml version="1.0" standalone="no"?>
<!DOCTYPE svg PUBLIC "-//W3C//DTD SVG 20010904//EN"
 "http://www.w3.org/TR/2001/REC-SVG-20010904/DTD/svg10.dtd">
<svg version="1.0" xmlns="http://www.w3.org/2000/svg"
 width="168.000000pt" height="169.000000pt" viewBox="0 0 168.000000 169.000000"
 preserveAspectRatio="xMidYMid meet">
<metadata>
Created by potrace 1.15, written by Peter Selinger 2001-2017
</metadata>
<g transform="translate(0.000000,169.000000) scale(0.100000,-0.100000)"
fill="#000000" stroke="none">
<path d="M0 845 l0 -845 165 0 164 0 11 43 c31 119 94 230 185 324 39 40 51
59 42 65 -6 4 -15 8 -19 8 -4 0 -23 14 -43 31 -58 51 -69 81 -69 189 0 79 4
106 27 163 15 39 32 109 38 160 12 99 31 152 83 231 44 66 59 79 131 113 49
23 73 28 135 28 90 -1 136 -20 233 -100 113 -94 155 -176 164 -320 3 -49 11
-109 19 -133 18 -55 18 -166 0 -225 -15 -50 -94 -160 -128 -178 -21 -11 -20
-13 22 -33 70 -32 177 -142 255 -260 l70 -106 98 0 97 0 0 845 0 845 -840 0
-840 0 0 -845z m609 689 c12 -15 21 -31 21 -36 0 -5 16 -41 35 -79 l34 -69
-32 -16 c-18 -9 -49 -32 -69 -52 l-38 -36 -16 39 c-34 81 -27 213 13 258 21
23 28 22 52 -9z m751 -134 c13 -24 -1 -94 -30 -151 -31 -61 -110 -132 -110
-100 0 5 -23 35 -51 66 -29 30 -50 57 -48 59 2 2 18 11 35 19 17 9 55 36 85
60 54 44 88 66 101 67 4 0 12 -9 18 -20z m-850 -224 c0 -2 -7 -22 -15 -45 -8
-23 -18 -71 -21 -106 -6 -59 -9 -65 -38 -77 -48 -20 -144 -16 -191 9 -40 21
-133 109 -124 117 4 4 365 104 382 105 4 1 7 -1 7 -3z m941 -96 c91 -16 169
-30 173 -30 25 0 -45 -103 -89 -130 -56 -35 -133 -45 -197 -26 l-55 16 -7 66
c-4 37 -13 82 -21 102 -19 44 -19 43 8 37 12 -2 97 -18 188 -35z"/>
<path d="M698 1038 c-3 -28 -8 -33 -38 -39 -47 -10 -70 -41 -70 -96 0 -62 32
-93 95 -93 36 0 51 6 72 26 22 22 25 32 21 79 -4 48 -2 54 19 64 31 14 30 35
-2 29 -22 -5 -24 -2 -19 18 7 28 -7 31 -27 8 -12 -15 -14 -14 -19 6 -9 37 -28
35 -32 -2z"/>
<path d="M1066 1033 c-3 -3 -6 -19 -6 -35 0 -23 -4 -28 -26 -28 -40 0 -84 -50
-84 -97 0 -49 21 -78 64 -93 76 -25 148 44 126 121 -5 18 -9 33 -7 34 1 1 12
8 25 14 30 16 28 35 -3 29 -21 -4 -23 -3 -15 13 16 29 -10 35 -31 8 l-19 -24
0 27 c0 27 -12 43 -24 31z"/>
<path d="M780 720 c0 -6 12 -22 27 -34 24 -21 26 -27 18 -52 -13 -37 -51 -44
-72 -15 -16 24 -33 19 -33 -8 0 -47 82 -69 119 -32 19 19 20 19 37 0 9 -10 28
-19 41 -19 29 0 73 42 73 69 0 33 -19 34 -38 1 -21 -38 -52 -37 -66 2 -8 23
-6 32 12 51 29 31 29 51 0 41 -13 -5 -34 -8 -48 -8 -14 0 -35 3 -47 8 -15 5
-23 3 -23 -4z"/>
</g>
</svg>
