<?xml version="1.0" standalone="no"?>
<!DOCTYPE svg PUBLIC "-//W3C//DTD SVG 20010904//EN"
 "http://www.w3.org/TR/2001/REC-SVG-20010904/DTD/svg10.dtd">
<svg version="1.0" xmlns="http://www.w3.org/2000/svg"
 width="50.000000pt" height="50.000000pt" viewBox="0 0 50.000000 50.000000"
 preserveAspectRatio="xMidYMid meet">
<metadata>
Created by potrace 1.15, written by Peter Selinger 2001-2017
</metadata>
<g transform="translate(0.000000,50.000000) scale(0.100000,-0.100000)"
fill="#000000" stroke="none">
<path d="M143 459 c-91 -45 -128 -118 -119 -229 10 -114 10 -122 1 -169 l-8
-44 49 8 c27 4 63 7 79 5 17 -2 66 -3 111 -4 72 -1 85 2 122 27 23 15 54 46
69 69 25 37 28 50 28 128 0 78 -3 91 -28 128 -45 69 -97 96 -186 100 -62 2
-84 -1 -118 -19z"/>
</g>
</svg>
