<?xml version="1.0" encoding="UTF-8"?>
<!DOCTYPE svg PUBLIC "-//W3C//DTD SVG 1.1//EN" "http://www.w3.org/Graphics/SVG/1.1/DTD/svg11.dtd">
<!-- Creator: CorelDRAW 2018 (64 Bit) -->
<svg xmlns="http://www.w3.org/2000/svg" xml:space="preserve" width="4088px" height="2872px" version="1.1" style="shape-rendering:geometricPrecision; text-rendering:geometricPrecision; image-rendering:optimizeQuality; fill-rule:evenodd; clip-rule:evenodd"
viewBox="0 0 15786.96 11091.73"
 xmlns:xlink="http://www.w3.org/1999/xlink">
 <defs>
  <style type="text/css">
   <![CDATA[
    .fil0 {fill:#FEFEFE}
    .fil1 {fill:#FEFEFE;fill-rule:nonzero}
   ]]>
  </style>
 </defs>
 <g id="Capa_x0020_1">
  <metadata id="CorelCorpID_0Corel-Layer"/>
  <g id="_1831168448000">
   <g>
    <path class="fil0" d="M12862.7 1461.26l0 -646.33 -684.46 0 0 -814.93 -4389.95 814.93 -5040.44 0 0 646.33 -370.6 0 0 6953.07 10856.52 0 0 -6953.07 -371.07 0zm-9753.39 0l0 -284.46 4514.91 0 0 284.46 0 6319.9 -4514.91 0 0 -6319.9zm6662.57 -646.33l2044.13 -379.57 0 379.57 0 180.93 0 180.94 0 284.46 0 5571.26 -3829.86 711.1 0 -6282.41 0 -284.47 0 -30.39 810.89 -150.6 974.84 -180.82zm2729.06 646.33l0 6319.9 -2729.06 0 2406.06 -446.02 0 -5873.58 0 -284.47 323 0 0 284.17 0 0zm-3995.63 4646.66l-95.45 -349.23 2862.64 -777.91 95.15 349.05 -2862.34 778.09zm-32.85 976.07l-95.15 -349.52 2862.63 -777.92 95.15 349.23 -2862.63 778.21zm71.73 -4693.79l-97.61 -348.41 2081.61 -580.53 709.58 -197.97 55.16 197.97 41.34 150.61 -2790.08 778.33zm0 923.72l-97.61 -348.58 2791.19 -778.04 97.61 348.41 -2791.19 778.21zm-5.09 923.08l-97.91 -348.59 2797.28 -778.21 97.15 348.59 -2796.52 778.21zm0 923.84l-97.91 -348.59 2797.28 -777.91 97.15 348.58 -2796.52 777.92zm-4927.08 683.69l3547.26 0 0 361.94 -3547.26 0 0 -361.94zm-32.68 977.6l3547.27 0 0 361.94 -3547.27 0 0 -361.94zm3546.98 -2485.7l-3481.45 0 0 -361.77 3481.45 0 0 361.77zm0 923.83l-3481.45 0 0 -361.93 3481.45 0.06 0 361.87zm-3040.99 -1858.97l0 -429.92c71.08,-1.41 155.87,-2.46 253.6,-1.41 137.9,0 242.48,-34.55 314.51,-102.12 71.55,-68.04 107.39,-167.18 107.39,-296.7 0,-123.62 -36.25,-218.3 -107.39,-282.13 -72.03,-64.12 -176.78,-96.67 -314.51,-96.67l-380.32 0.06 -125.78 0 0 1209.36 127.01 0 125.66 0 0 -0.47 -0.17 0zm0 -1001.31l210.39 0c70.97,0 123.78,14.11 159.45,43.51 35.3,28.63 52.81,71.73 52.81,129.52 0,63.07 -17.8,110.03 -52.81,141.3 -35.49,31.44 -88.77,46.96 -159.45,46.96l-210.39 0 0 -361.29zm1368.69 1001.31c173.38,0 304.72,-53.58 394.78,-161.44 89.88,-107.98 134.62,-265.38 134.62,-473.49 0,-188.55 -43.22,-330.78 -129.52,-428.86 -86.14,-98.08 -212.39,-145.81 -378.8,-145.81l-391.57 0.06 -125.95 0 0 1209.36 125.95 0 370.49 0 0 0.18zm-244.65 -1001.31l233.75 0c95.74,0 167.76,31.91 215.67,94.98 47.89,62.88 71.73,157.1 71.73,282.12 0,138.95 -25.89,242.77 -77.01,312.51 -51.41,68.81 -128.12,104.29 -230.53,104.29l-213.61 -0.06 0 -793.84zm1091.31 1001.31l-126.42 0 0 -1209.36 860.47 0 0 106.75 0 108.15 -607.93 -0.06 0 274.4 530 0 0 103.64 0 104.58 -530 0 0 511.72 -126.12 0 0 0.18z"/>
   </g>
   <g>
   </g>
   <g>
   </g>
   <g>
   </g>
   <g>
   </g>
   <g>
   </g>
   <g>
   </g>
   <g>
   </g>
   <g>
   </g>
   <g>
   </g>
   <g>
   </g>
   <g>
   </g>
   <g>
   </g>
   <g>
   </g>
   <g>
   </g>
   <g>
   </g>
  </g>
  <path class="fil1" d="M1419.24 10396.21l251.08 63.43c-52.42,205.71 -146.68,362.08 -282.79,470 -136.11,107.91 -302.61,162.09 -499.51,162.09 -203.5,0 -369.13,-41.4 -496.87,-124.65 -127.74,-82.81 -224.64,-203.06 -291.16,-360.32 -66.51,-157.69 -99.99,-326.4 -99.99,-507 0,-196.89 37.44,-368.68 112.77,-515.36 75.32,-146.68 182.35,-258.12 321.11,-334.33 138.75,-76.21 291.6,-114.09 458.1,-114.09 189.41,0 348.43,48.02 477.05,144.48 129.06,96.47 218.92,231.7 269.58,406.13l-245.8 58.14c-43.6,-137.43 -107.48,-237.86 -190.73,-300.41 -83.25,-62.99 -188.08,-94.26 -314.5,-94.26 -144.92,0 -266.49,34.8 -363.84,104.39 -97.35,69.6 -166.07,163.42 -205.27,280.6 -39.64,117.6 -59.47,238.74 -59.47,363.39 0,160.78 23.35,301.3 70.04,421.1 46.69,120.26 119.38,209.67 218.05,269.14 98.66,59.47 205.26,88.98 320.23,88.98 140.07,0 258.12,-40.53 355.03,-121.13 96.9,-81.05 162.53,-200.87 196.89,-360.32z"/>
  <path id="1" class="fil1" d="M1772.51 11060.02l725.92 -1892.32 275.3 0 770.41 1892.32 -285 0 -218.92 -573.51 -796.83 0 -205.27 573.51 -265.61 0zm544.44 -777.01l644.87 0 -197.34 -524.62c-59.47,-159.46 -104.39,-291.16 -135.67,-395.11 -25.99,123.33 -60.78,244.46 -104.39,364.27l-207.47 555.46z"/>
  <polygon id="2" class="fil1" points="4027.79,11060.02 4027.79,9389.7 3404.06,9389.7 3404.06,9167.7 4902.59,9167.7 4902.59,9389.7 4278.87,9389.7 4278.87,11060.02 "/>
  <path id="3" class="fil1" d="M4757.67 11060.02l725.92 -1892.32 275.3 0 770.41 1892.32 -285 0 -218.92 -573.51 -796.83 0 -205.27 573.51 -265.61 0zm544.44 -777.01l644.87 0 -197.34 -524.62c-59.46,-159.46 -104.39,-291.16 -135.67,-395.11 -25.99,123.33 -60.78,244.46 -104.39,364.27l-207.47 555.46z"/>
  <polygon id="4" class="fil1" points="6717.39,11060.02 6717.39,9167.7 6968.46,9167.7 6968.46,10838.02 7898.76,10838.02 7898.76,11060.02 "/>
  <path id="5" class="fil1" d="M8121.21 10138.97c0,-313.63 84.57,-559.42 253.27,-736.93 168.71,-177.52 386.31,-266.06 653.25,-266.06 174.87,0 332.12,41.85 472.63,125.1 140.08,83.25 247.12,199.54 320.68,348.86 73.56,148.89 110.56,318.03 110.56,507 0,191.61 -38.77,363.4 -116.29,514.49 -77.52,151.53 -187.21,266.05 -329.04,343.58 -142.28,77.96 -295.56,116.72 -459.87,116.72 -178.39,0 -337.41,-43.16 -477.92,-129.06 -140.07,-85.89 -246.67,-203.06 -318.91,-351.95 -72.24,-148.44 -108.36,-305.69 -108.36,-471.75zm259 4.4c0,227.73 61.23,407.01 183.69,537.83 122.45,130.83 276.18,196.46 461.18,196.46 188.53,0 343.14,-66.08 465.15,-198.22 121.58,-132.14 182.37,-319.79 182.37,-562.94 0,-153.73 -25.99,-288.07 -77.97,-402.6 -51.98,-114.52 -128.18,-203.51 -228.17,-266.49 -100.43,-62.99 -212.76,-94.71 -337.41,-94.71 -177.08,0 -329.48,60.79 -457.23,182.36 -127.74,121.58 -191.61,324.2 -191.61,608.31z"/>
  <path id="6" class="fil1" d="M11138.97 10317.37l0 -222.01 800.8 0 0 701.25c-122.89,97.79 -249.76,171.79 -380.58,221.12 -130.83,49.34 -265.17,74 -402.6,74 -185.89,0 -354.59,-39.64 -506.56,-119.37 -151.53,-79.28 -266.49,-194.69 -343.58,-344.89 -77.52,-150.65 -116.28,-318.92 -116.28,-504.36 0,-184.12 38.31,-355.91 115.4,-515.81 77.09,-159.45 187.65,-277.94 332.13,-355.03 144.48,-77.52 310.98,-116.29 499.5,-116.29 136.55,0 260.33,22.03 370.89,66.52 110.57,44.49 197.34,106.15 259.89,185 62.99,79.29 110.56,182.8 143.16,310.1l-225.97 61.67c-28.63,-96.03 -63.87,-171.79 -105.72,-227.29 -42.28,-55.06 -102.19,-99.11 -180.6,-132.15 -77.96,-33.03 -164.74,-49.77 -260.32,-49.77 -114.09,0 -212.76,17.62 -296.45,52.42 -83.25,34.8 -150.2,80.6 -201.74,137.87 -51.1,56.82 -90.74,119.37 -118.93,187.2 -48.02,117.61 -72.24,244.48 -72.24,381.46 0,169.15 29.07,310.55 86.77,424.63 58.15,113.65 142.72,198.22 253.28,253.28 111,55.06 228.61,82.81 353.27,82.81 108.36,0 214.08,-21.14 317.15,-62.99 103.08,-42.29 181.04,-86.77 234.34,-134.79l0 -354.58 -555.01 0z"/>
  <path id="7" class="fil1" d="M12232.69 10138.97c0,-313.63 84.57,-559.42 253.28,-736.93 168.7,-177.52 386.31,-266.06 653.24,-266.06 174.87,0 332.12,41.85 472.64,125.1 140.07,83.25 247.11,199.54 320.67,348.86 73.56,148.89 110.56,318.03 110.56,507 0,191.61 -38.76,363.4 -116.28,514.49 -77.53,151.53 -187.21,266.05 -329.05,343.58 -142.27,77.96 -295.56,116.72 -459.86,116.72 -178.4,0 -337.42,-43.16 -477.93,-129.06 -140.07,-85.89 -246.67,-203.06 -318.91,-351.95 -72.24,-148.44 -108.36,-305.69 -108.36,-471.75zm259.01 4.4c0,227.73 61.22,407.01 183.68,537.83 122.45,130.83 276.18,196.46 461.19,196.46 188.52,0 343.13,-66.08 465.15,-198.22 121.57,-132.14 182.36,-319.79 182.36,-562.94 0,-153.73 -25.99,-288.07 -77.97,-402.6 -51.98,-114.52 -128.18,-203.51 -228.17,-266.49 -100.43,-62.99 -212.76,-94.71 -337.41,-94.71 -177.07,0 -329.48,60.79 -457.22,182.36 -127.74,121.58 -191.61,324.2 -191.61,608.31z"/>
  <path id="8" class="fil1" d="M14283.15 10452.15l235.22 -21.14c11.01,95.14 37,173.11 77.96,234.34 40.97,60.78 104.4,110.12 190.29,148 85.9,37.44 182.8,56.38 290.28,56.38 95.58,0 179.72,-14.09 252.84,-42.73 73.12,-28.63 127.3,-67.83 162.98,-117.61 35.68,-49.77 53.74,-103.95 53.74,-162.09 0,-59.03 -17.18,-110.56 -51.54,-155.05 -34.36,-44.05 -91.18,-81.05 -170.47,-111.45 -50.65,-19.38 -162.98,-50.21 -336.97,-92.06 -173.99,-41.85 -295.56,-81.05 -365.16,-118.05 -90.3,-47.57 -157.25,-106.6 -201.3,-176.63 -44.49,-70.04 -66.51,-148.89 -66.51,-235.66 0,-96.03 27.31,-185.44 81.49,-268.26 54.18,-83.25 133.02,-146.24 237.42,-189.4 103.95,-43.17 219.8,-64.76 347.1,-64.76 140.07,0 263.85,22.47 370.89,67.84 107.04,44.93 189.41,111.44 247.11,199.54 57.7,87.66 88.54,187.2 92.94,298.21l-240.5 18.49c-12.78,-119.37 -56.39,-209.67 -130.83,-270.45 -74.44,-61.23 -184.56,-91.62 -329.92,-91.62 -151.53,0 -262.09,27.75 -331.24,83.25 -69.16,55.5 -103.96,122.45 -103.96,200.86 0,67.84 24.67,123.78 73.56,167.83 48.46,43.61 173.99,88.97 377.5,134.78 203.5,46.26 343.13,86.34 418.9,120.7 109.68,50.65 191.17,114.52 243.58,192.49 52.42,77.52 78.41,166.94 78.41,268.25 0,100.87 -28.63,195.14 -86.34,284.12 -57.7,88.97 -140.07,158.13 -247.99,207.46 -107.91,49.34 -229.05,74 -364.28,74 -170.91,0 -314.06,-25.1 -429.47,-74.88 -115.85,-49.77 -206.15,-124.66 -271.78,-225.09 -66.07,-99.98 -100.43,-213.19 -103.95,-339.61z"/>
 </g>
</svg>
