<svg xmlns="http://www.w3.org/2000/svg" xml:space="preserve" width="60px" height="92px"
                        version="1.1"
                        style="shape-rendering:geometricPrecision; text-rendering:geometricPrecision; image-rendering:optimizeQuality; fill-rule:evenodd; clip-rule:evenodd"
                        viewBox="0 0 1190 1372">
                        <defs>
                          <style type="text/css">
                            <![CDATA[
                            .fil1 {
                              fill: #66BFA1;
                              fill-rule: nonzero
                            }

                            .fil0 {
                              fill: #72CAAF;
                              fill-rule: nonzero
                            }

                            .fil2 {
                              fill: #7DD8BA;
                              fill-rule: nonzero
                            }

                            .fil4 {
                              fill: #8D6C9F;
                              fill-rule: nonzero
                            }

                            .fil3 {
                              fill: #FAEFDE;
                              fill-rule: nonzero
                            }

                            ]]>
                          </style>
                        </defs>
                        <g id="Capa_x0020_1" style="width: 1%;">
                          <path class="fil0"
                            d="M1107 230l-81 -6c-131,-8 -257,-57 -360,-139l-30 -25c-24,-19 -59,-19 -83,0l-31 25c-103,82 -228,131 -359,140l-80 5c-37,2 -65,34 -62,70l15 212c17,240 129,463 310,620l205 179c26,22 63,22 88,0l204 -178c182,-157 294,-380 311,-620l15 -212c2,-18 -4,-35 -16,-49 -12,-13 -28,-21 -46,-22z" />
                          <path class="fil1"
                            d="M1107 230l-81 -6c-131,-8 -257,-57 -360,-139l-30 -25c-12,-9 -26,-14 -41,-14l0 1282c16,0 31,-6 43,-17l205 -178c182,-157 293,-380 310,-620l16 -212c1,-18 -5,-35 -16,-49 -12,-13 -29,-21 -46,-22z" />
                          <polygon class="fil2"
                            points="583,331 612,384 664,412 612,441 583,492 555,441 503,412 555,384 " />
                          <polygon class="fil2"
                            points="237,676 256,712 292,732 256,751 237,787 217,751 181,732 217,712 " />
                          <polygon class="fil2"
                            points="793,814 807,838 831,852 807,865 793,890 780,865 755,852 780,838 " />
                          <path class="fil3"
                            d="M877 476l-328 328 -168 -167c-9,-8 -22,-8 -31,1 -8,8 -9,22 -1,31l184 184c9,9 23,9 32,0l345 -345c7,-9 7,-23 -2,-31 -8,-9 -22,-9 -31,-1l0 0z" />
                          <g id="_2167462612048">
                            <path class="fil4"
                              d="M875 255c-70,-21 -135,-52 -195,-94l-60 -41c-15,-11 -36,-11 -52,0l-59 41c-99,69 -216,111 -337,119l-15 0c-13,0 -23,11 -23,24 1,12 11,22 24,22l17 0c129,-9 254,-53 361,-128l59 -41 59 41c63,45 134,79 208,101 12,3 25,-4 29,-16 3,-12 -4,-25 -16,-29l0 1z" />
                            <path class="fil4"
                              d="M1031 281l-13 0c-18,-1 -35,-3 -53,-5 -12,-2 -24,7 -26,19 -2,13 7,25 20,27 18,2 37,4 56,6l15 0c13,0 23,-10 24,-23 0,-12 -10,-23 -22,-23l-1 -1z" />
                            <path class="fil4"
                              d="M1126 191l-83 -6c-137,-8 -267,-59 -373,-144l-32 -26c-26,-20 -61,-20 -87,0l-32 26c-106,85 -236,136 -372,144l-83 6c-38,2 -66,35 -64,73l16 264c17,249 133,481 322,644l212 183c26,23 64,23 90,0l212 -183c189,-164 305,-395 322,-644l16 -265c2,-37 -27,-70 -64,-72zm2 335c-16,225 -116,435 -281,588l0 -2c0,-12 -10,-22 -23,-22 -12,0 -23,10 -23,22l0 43 -191 167c-9,7 -22,7 -30,0l-192 -167 0 -42c0,-13 -10,-23 -23,-23 -13,0 -23,10 -23,23l0 1c-164,-153 -264,-363 -280,-588l-16 -265c-1,-12 9,-23 21,-24l84 -6c145,-9 284,-63 397,-154l32 -26c9,-7 21,-7 29,0l32 26c114,91 252,145 397,154l84 6c12,1 22,12 21,24l-15 265z" />
                            <path class="fil4"
                              d="M480 1090c-13,0 -23,10 -23,23l0 46c0,12 10,23 23,23 12,0 23,-11 23,-23l0 -46c0,-13 -11,-23 -23,-23z" />
                            <path class="fil4"
                              d="M595 1090c-13,0 -23,10 -23,23l0 46c0,12 10,23 23,23 12,0 23,-11 23,-23l0 -46c0,-13 -11,-23 -23,-23z" />
                            <path class="fil4"
                              d="M710 1090c-13,0 -23,10 -23,23l0 46c0,12 10,23 23,23 12,0 22,-11 22,-23l0 -46c0,-13 -10,-23 -22,-23z" />
                          </g>
                        </g>
                      </svg>