<?xml version="1.0" encoding="UTF-8"?>
<!DOCTYPE svg PUBLIC "-//W3C//DTD SVG 1.1//EN" "http://www.w3.org/Graphics/SVG/1.1/DTD/svg11.dtd">
<!-- Creator: CorelDRAW 2019 (64-Bit) -->
<svg xmlns="http://www.w3.org/2000/svg" xml:space="preserve" width="65px" height="29px" version="1.1" style="shape-rendering:geometricPrecision; text-rendering:geometricPrecision; image-rendering:optimizeQuality; fill-rule:evenodd; clip-rule:evenodd"
viewBox="0 0 11.4 5.13"
 xmlns:xlink="http://www.w3.org/1999/xlink"
 xmlns:xodm="http://www.corel.com/coreldraw/odm/2003">
 <defs>
  <style type="text/css">
   <![CDATA[
    .fil0 {fill:#FEFEFE}
   ]]>
  </style>
 </defs>
 <g id="Capa_x0020_1">
  <metadata id="CorelCorpID_0Corel-Layer"/>
  <g id="_2834996239360">
   <path class="fil0" d="M5.16 1.72l0 -1.07c0.86,0.06 1.59,0.47 2.13,1.07l-2.13 0zm-1.57 -1.12l0.88 0 0 1.12 -2.06 0 0.41 -0.66c0.17,-0.27 0.46,-0.46 0.77,-0.46zm6.61 2.24l0.82 0c-0.13,-0.17 -0.27,-0.33 -0.36,-0.47l0 0c-0.43,-0.4 -2.32,-0.62 -2.5,-0.64 -0.68,-1.07 -1.9,-1.73 -3.2,-1.73l-1.37 0c-0.54,0 -1.05,0.27 -1.35,0.73l-0.63 0.99 -0.9 0c-0.41,0 -0.71,0.31 -0.71,0.72l0 0.4 0.26 0 0 0.51 -0.26 0 0 0.04c0,0.41 0.3,0.74 0.71,0.74l0.58 0 0 0c0,-0.66 0.5,-1.19 1.16,-1.19 0.66,0 1.16,0.53 1.16,1.19l0 0 3.78 0 0 0c0,-0.66 0.55,-1.19 1.21,-1.19 0.66,0 1.2,0.53 1.2,1.19l0 0 1.12 0c0.27,0 0.48,-0.22 0.48,-0.48 0,-0.1 -0.02,-0.21 -0.06,-0.3l-0.75 0 -0.39 -0.51z"/>
   <path class="fil0" d="M2.45 4.53c-0.22,0 -0.4,-0.18 -0.4,-0.4 0,-0.22 0.18,-0.4 0.4,-0.4 0.22,0 0.4,0.18 0.4,0.4 0,0.22 -0.18,0.4 -0.4,0.4zm0 -1.4c-0.55,0 -1,0.45 -1,1 0,0.55 0.45,1 1,1 0.55,0 1,-0.45 1,-1 0,-0.55 -0.45,-1 -1,-1z"/>
   <path class="fil0" d="M8.6 4.53c-0.21,0 -0.39,-0.18 -0.39,-0.4 0,-0.22 0.18,-0.4 0.39,-0.4 0.22,0 0.4,0.18 0.4,0.4 0,0.22 -0.18,0.4 -0.4,0.4zm0 -1.4c-0.54,0 -0.99,0.45 -0.99,1 0,0.55 0.45,1 0.99,1 0.55,0 1,-0.45 1,-1 0,-0.55 -0.45,-1 -1,-1z"/>
  </g>
 </g>
</svg>
