<?xml version="1.0" encoding="UTF-8"?>
<!DOCTYPE svg PUBLIC "-//W3C//DTD SVG 1.1//EN" "http://www.w3.org/Graphics/SVG/1.1/DTD/svg11.dtd">
<!-- Creator: CorelDRAW 2019 (64-Bit) -->
<svg xmlns="http://www.w3.org/2000/svg" xml:space="preserve" width="20px" height="7px" version="1.1" style="shape-rendering:geometricPrecision; text-rendering:geometricPrecision; image-rendering:optimizeQuality; fill-rule:evenodd; clip-rule:evenodd"
viewBox="0 0 112 40"
 xmlns:xlink="http://www.w3.org/1999/xlink"
 xmlns:xodm="http://www.corel.com/coreldraw/odm/2003">
 <defs>
  <style type="text/css">
   <![CDATA[
    .fil0 {fill:#FEFEFE}
   ]]>
  </style>
 </defs>
 <g id="Capa_x0020_1">
  <metadata id="CorelCorpID_0Corel-Layer"/>
  <g id="_1415862527072">
   <g>
    <g>
     <path class="fil0" d="M19 23c-4,0 -8,4 -8,8 0,1 0,1 0,1 1,4 4,8 8,8 5,0 8,-4 9,-8 0,0 0,0 0,-1 0,-4 -4,-8 -9,-8zm-4 5l2 2c0,0 0,0 0,1l-3 0c0,-1 1,-2 1,-3zm-1 4l3 0c0,0 0,1 0,1l-2 1c0,0 -1,-1 -1,-2zm5 5c-1,-1 -2,-1 -3,-1l2 -2c0,0 0,0 1,0l0 3zm0 -9c-1,1 -1,1 -1,1l-2 -2c1,0 2,-1 3,-1l0 2zm1 -2c1,0 2,1 3,1l-2 2c0,0 -1,0 -1,-1l0 -2 0 0zm0 11l0 -3c0,0 1,0 1,0l2 2c-1,0 -2,0 -3,1zm4 -3l-2 -1c0,0 0,-1 0,-1l3 0c0,1 -1,2 -1,2zm-2 -3c0,-1 0,-1 0,-1l2 -2c0,1 1,2 1,3l-3 0 0 0z"/>
     <path class="fil0" d="M89 23c-4,0 -8,4 -8,8 0,1 0,1 0,1 1,4 4,8 8,8 5,0 8,-4 9,-8 0,0 0,0 0,-1 0,-4 -4,-8 -9,-8zm-4 5l2 2c0,0 0,0 0,1l-3 0c0,-1 1,-2 1,-3zm-1 4l3 0c0,0 0,1 0,1l-2 1c0,0 -1,-1 -1,-2zm5 5c-1,-1 -2,-1 -3,-1l2 -2c0,0 0,0 1,0l0 3zm0 -9c-1,1 -1,1 -1,1l-2 -2c1,0 2,-1 3,-1l0 2zm1 -2c1,0 2,1 3,1l-2 2c0,0 -1,0 -1,-1l0 -2zm0 11l0 -3c0,0 1,0 1,0l2 2c-1,0 -2,0 -3,1zm4 -3l-2 -1c0,0 0,-1 0,-1l3 0c-1,1 -1,2 -1,2zm-2 -3c0,-1 0,-1 0,-1l2 -2c0,1 0,2 1,3l-3 0 0 0z"/>
     <path class="fil0" d="M110 19l0 -7c0,-1 -1,-2 -2,-2 -2,0 -7,-1 -9,-1 -2,-1 -13,-6 -16,-6 -4,-1 -20,-6 -36,0 -3,1 -15,6 -22,9 -2,0 -22,5 -23,7 -1,3 -2,5 -2,6 0,0 0,4 2,6 1,1 4,2 8,2 0,0 -1,0 -1,0 0,-1 0,-1 0,-2 0,-5 5,-10 10,-10 6,0 11,5 11,10 0,1 0,1 0,1 -1,1 -1,1 -1,2 0,0 0,0 0,0l50 -1c0,0 0,0 0,0 0,-1 0,-1 0,-2 0,-5 5,-10 10,-10 6,0 11,5 11,10 0,0 0,0 0,0l0 0 8 -1c0,0 4,-2 4,-7 0,-3 -2,-4 -2,-4zm-50 -6l-19 0c0,-3 -1,-3 -1,-3 7,-7 22,-7 22,-7l-2 10zm21 -1l-17 0 1 -9c9,0 14,2 14,2l3 4 -1 3zm9 0l-4 0 -5 -7c4,2 6,3 8,4 1,0 2,2 1,3z"/>
    </g>
   </g>
   <g>
   </g>
   <g>
   </g>
   <g>
   </g>
   <g>
   </g>
   <g>
   </g>
   <g>
   </g>
   <g>
   </g>
   <g>
   </g>
   <g>
   </g>
   <g>
   </g>
   <g>
   </g>
   <g>
   </g>
   <g>
   </g>
   <g>
   </g>
   <g>
   </g>
  </g>
 </g>
</svg>
