<?xml version="1.0" encoding="UTF-8"?>
<!DOCTYPE svg PUBLIC "-//W3C//DTD SVG 1.1//EN" "http://www.w3.org/Graphics/SVG/1.1/DTD/svg11.dtd">
<!-- Creator: CorelDRAW 2019 (64-Bit) -->
<svg xmlns="http://www.w3.org/2000/svg" xml:space="preserve" width="2965px" height="4129px" version="1.1" style="shape-rendering:geometricPrecision; text-rendering:geometricPrecision; image-rendering:optimizeQuality; fill-rule:evenodd; clip-rule:evenodd"
viewBox="0 0 512.88 714.27"
 xmlns:xlink="http://www.w3.org/1999/xlink"
 xmlns:xodm="http://www.corel.com/coreldraw/odm/2003">
 <defs>
  <style type="text/css">
   <![CDATA[
    .fil5 {fill:#847C3F}
    .fil1 {fill:#1F212B;fill-rule:nonzero}
    .fil0 {fill:#60BE92;fill-rule:nonzero}
    .fil3 {fill:#EDDC67;fill-rule:nonzero}
    .fil2 {fill:#F9E65C;fill-rule:nonzero}
    .fil4 {fill:#FEFDEF;fill-rule:nonzero}
    .fnt0 {font-weight:normal;font-size:104.06px;font-family:'Arial'}
   ]]>
  </style>
 </defs>
 <g id="Capa_x0020_1">
  <metadata id="CorelCorpID_0Corel-Layer"/>
  <g>
   <path class="fil0" d="M146.56 293.06l-137.35 357.12 86.99 -18.32 50.36 73.26 137.36 -357.12 -137.36 -54.94zm0 0l0 0 0 0z"/>
  </g>
  <path class="fil1" d="M177.38 540.3c-0.56,0 -1.1,-0.1 -1.65,-0.31 -2.37,-0.9 -3.54,-3.56 -2.63,-5.91l76.62 -199.21c0.91,-2.36 3.54,-3.54 5.92,-2.63 2.36,0.9 3.53,3.56 2.63,5.91l-76.62 199.21c-0.69,1.82 -2.43,2.94 -4.27,2.94z"/>
  <path class="fil1" d="M159.77 586.08c-0.55,0 -1.1,-0.1 -1.65,-0.31 -2.36,-0.9 -3.53,-3.55 -2.63,-5.91l10.57 -27.47c0.9,-2.35 3.53,-3.52 5.92,-2.62 2.36,0.9 3.53,3.55 2.62,5.91l-10.56 27.47c-0.69,1.81 -2.43,2.93 -4.27,2.93z"/>
  <path class="fil1" d="M146.56 714.27c-2.99,0 -5.82,-1.46 -7.54,-3.97l-46.9 -68.23 -81.02 17.06c-3.28,0.7 -6.69,-0.47 -8.86,-3.02 -2.18,-2.55 -2.78,-6.1 -1.57,-9.22l137.35 -357.12c1.8,-4.72 7.1,-7.08 11.84,-5.25 4.71,1.81 7.06,7.1 5.24,11.83l-131.3 341.39 70.51 -14.84c3.62,-0.76 7.33,0.73 9.43,3.77l40.51 58.93 131.11 -340.9c1.81,-4.71 7.1,-7.07 11.84,-5.25 4.71,1.81 7.06,7.11 5.25,11.83l-137.35 357.11c-1.23,3.17 -4.09,5.41 -7.47,5.8 -0.35,0.07 -0.71,0.08 -1.07,0.08z"/>
  <path class="fil1" d="M142.17 631.86c-0.55,0 -1.1,-0.1 -1.65,-0.3 -2.36,-0.9 -3.53,-3.56 -2.63,-5.91l7.06 -18.32c0.9,-2.35 3.53,-3.53 5.91,-2.62 2.36,0.9 3.54,3.55 2.63,5.91l-7.05 18.31c-0.7,1.82 -2.43,2.93 -4.27,2.93z"/>
  <g>
   <path class="fil0" d="M366.33 293.06l137.35 357.12 -86.99 -18.32 -50.36 73.26 -137.35 -357.12 137.35 -54.94zm0 0l0 0 0 0z"/>
  </g>
  <path class="fil1" d="M366.33 714.27c-0.36,0 -0.72,-0.01 -1.08,-0.06 -3.38,-0.39 -6.25,-2.64 -7.46,-5.8l-137.35 -357.11c-1.82,-4.73 0.54,-10.03 5.24,-11.84 4.74,-1.79 10.03,0.55 11.84,5.26l131.11 340.89 40.51 -58.93c2.1,-3.04 5.85,-4.52 9.43,-3.76l70.51 14.84 -131.3 -341.4c-1.82,-4.72 0.54,-10.02 5.25,-11.83 4.73,-1.8 10.03,0.54 11.84,5.26l137.35 357.11c1.2,3.14 0.6,6.68 -1.58,9.23 -2.17,2.55 -5.56,3.72 -8.86,3.02l-81.01 -17.06 -46.91 68.23c-1.71,2.49 -4.54,3.95 -7.53,3.95z"/>
  <path class="fil1" d="M425.32 540.3c-1.84,0 -3.59,-1.12 -4.29,-2.94l-21.13 -54.94c-0.9,-2.36 0.27,-5.01 2.63,-5.91 2.39,-0.9 5.02,0.27 5.91,2.63l21.14 54.94c0.91,2.36 -0.27,5.01 -2.63,5.91 -0.52,0.21 -1.09,0.31 -1.63,0.31z"/>
  <path class="fil1" d="M449.97 604.39c-1.84,0 -3.58,-1.12 -4.27,-2.93l-14.09 -36.63c-0.9,-2.36 0.27,-5 2.63,-5.91 2.39,-0.9 5.02,0.27 5.92,2.63l14.08 36.63c0.91,2.36 -0.26,5.01 -2.62,5.91 -0.55,0.2 -1.1,0.3 -1.65,0.3z"/>
  <path class="fil2" d="M493.87 279.65c-7.96,-14.44 -7.96,-31.97 0,-46.41l3.81 -6.92c12.44,-22.61 4.84,-51.03 -17.26,-64.4l-6.77 -4.1c-14.11,-8.55 -22.87,-23.71 -23.21,-40.18l-0.17 -7.92c-0.52,-25.8 -21.32,-46.6 -47.15,-47.13l-7.9 -0.18c-16.5,-0.33 -31.67,-9.09 -40.19,-23.2l-4.09 -6.77c-13.37,-22.1 -41.79,-29.7 -64.4,-17.26l-6.93 3.81c-14.44,7.95 -31.96,7.95 -46.41,0l-6.9 -3.8c-22.61,-12.44 -51.02,-4.83 -64.38,17.26l-4.11 6.77c-8.55,14.11 -23.7,22.86 -40.17,23.2l-7.92 0.18c-25.8,0.52 -46.61,21.32 -47.13,47.13l-0.18 7.92c-0.33,16.49 -9.09,31.66 -23.2,40.18l-6.77 4.1c-22.08,13.37 -29.7,41.78 -17.26,64.4l3.81 6.92c7.95,14.44 7.95,31.97 0,46.41l-3.8 6.9c-12.44,22.62 -4.85,51.04 17.26,64.4l6.76 4.11c14.12,8.55 22.87,23.7 23.21,40.18l0.18 7.91c0.52,25.81 21.32,46.61 47.13,47.13l7.92 0.18c16.49,0.33 31.66,9.1 40.18,23.21l4.1 6.77c13.37,22.07 41.78,29.69 64.4,17.25l6.92 -3.8c14.44,-7.95 31.97,-7.95 46.41,0l6.92 3.8c22.61,12.44 51.03,4.85 64.4,-17.25l4.11 -6.77c8.54,-14.11 23.7,-22.87 40.17,-23.21l7.92 -0.18c25.8,-0.52 46.61,-21.31 47.13,-47.13l0.18 -7.91c0.33,-16.49 9.09,-31.67 23.2,-40.18l6.77 -4.11c22.08,-13.36 29.7,-41.78 17.26,-64.4l-3.85 -6.91z"/>
  <path class="fil3" d="M448.74 256.44c0,106.19 -86.1,192.29 -192.29,192.29 -106.2,0 -192.3,-86.1 -192.3,-192.29 0,-106.2 86.1,-192.29 192.3,-192.29 106.19,0 192.29,86.09 192.29,192.29z"/>
  <path class="fil4" d="M247.29 352.58c-0.1,0 -0.21,0 -0.31,0 -5.33,-0.09 -10.35,-2.49 -13.76,-6.58l-68.67 -82.41c-6.48,-7.78 -5.42,-19.31 2.34,-25.8 7.77,-6.46 19.32,-5.42 25.8,2.35l55.08 66.11 100.32 -112.37c6.74,-7.54 18.32,-8.2 25.86,-1.47 7.55,6.74 8.2,18.31 1.47,25.86l-114.46 128.2c-3.49,3.89 -8.46,6.11 -13.67,6.11z"/>
  <path class="fil1" d="M309.84 512.88c-9.37,0 -18.88,-2.3 -27.67,-7.15l-6.93 -3.81c-11.77,-6.49 -25.8,-6.48 -37.57,0l-6.92 3.81c-27.04,14.88 -60.68,5.83 -76.66,-20.54l-4.09 -6.76c-6.96,-11.5 -19.12,-18.53 -32.55,-18.79l-7.92 -0.19c-30.82,-0.63 -55.46,-25.27 -56.1,-56.1l-0.18 -7.91c-0.27,-13.41 -7.31,-25.58 -18.8,-32.55l-6.76 -4.1c-26.37,-15.95 -35.39,-49.61 -20.53,-76.64l3.8 -6.92c6.47,-11.76 6.47,-25.8 0,-37.57l-3.81 -6.92c-14.86,-27.02 -5.85,-60.68 20.53,-76.65l6.77 -4.11c11.5,-6.95 18.52,-19.11 18.79,-32.53l0.18 -7.93c0.61,-30.82 25.27,-55.46 56.11,-56.09l7.89 -0.18c13.42,-0.27 25.59,-7.31 32.57,-18.8l4.09 -6.76c15.96,-26.37 49.62,-35.38 76.62,-20.54l6.91 3.8c11.76,6.48 25.81,6.48 37.58,0l6.92 -3.81c27.04,-14.85 60.7,-5.83 76.65,20.54l4.1 6.76c6.95,11.5 19.11,18.53 32.54,18.8l7.93 0.18c30.82,0.63 55.47,25.27 56.08,56.11l0.18 7.88c0.29,13.43 7.33,25.6 18.82,32.56l6.75 4.11c26.38,15.93 35.4,49.61 20.53,76.64l-3.81 6.92c-6.47,11.76 -6.47,25.78 -0.02,37.55l3.86 6.91c14.87,27.05 5.86,60.72 -20.52,76.69l-6.77 4.1c-11.5,6.95 -18.52,19.11 -18.78,32.53l-0.19 7.94c-0.62,30.81 -25.26,55.45 -56.1,56.08l-7.9 0.18c-13.42,0.28 -25.59,7.31 -32.57,18.8l-4.08 6.76c-10.75,17.8 -29.58,27.7 -48.97,27.7zm-53.39 -34.14c9.49,0 18.98,2.38 27.63,7.14l6.93 3.81c18.36,10.12 41.29,3.98 52.14,-13.97l4.09 -6.77c10.24,-16.88 28.12,-27.21 47.83,-27.63l7.9 -0.17c21,-0.42 37.76,-17.19 38.18,-38.17l0.19 -7.93c0.39,-19.72 10.72,-37.59 27.62,-47.81l6.77 -4.1c17.95,-10.86 24.08,-33.77 13.97,-52.15l-3.85 -6.92c-9.53,-17.3 -9.53,-37.94 0,-55.24l3.81 -6.93c10.11,-18.38 3.97,-41.29 -13.97,-52.14l-6.77 -4.11c-16.88,-10.23 -27.2,-28.11 -27.63,-47.82l-0.18 -7.9c-0.42,-21 -17.19,-37.76 -38.17,-38.18l-7.93 -0.18c-19.71,-0.4 -37.58,-10.73 -47.81,-27.62l-4.1 -6.76c-10.85,-17.95 -33.74,-24.09 -52.16,-13.98l-6.91 3.81c-17.29,9.52 -37.95,9.52 -55.23,0l-6.92 -3.79c-18.39,-10.13 -41.28,-3.98 -52.13,13.96l-4.09 6.77c-10.24,16.88 -28.12,27.21 -47.83,27.64l-7.9 0.16c-21,0.43 -37.76,17.19 -38.18,38.17l-0.19 7.93c-0.39,19.72 -10.72,37.59 -27.62,47.81l-6.77 4.1c-17.95,10.87 -24.08,33.77 -13.97,52.16l3.81 6.92c9.52,17.3 9.52,37.94 0,55.24l-3.8 6.91c-10.12,18.38 -3.97,41.29 13.97,52.15l6.77 4.1c16.88,10.23 27.21,28.11 27.63,47.83l0.17 7.9c0.43,20.99 17.2,37.75 38.18,38.17l7.92 0.18c19.71,0.4 37.59,10.72 47.82,27.63l4.09 6.76c10.87,17.93 33.77,24.09 52.17,13.97l6.91 -3.81c8.64,-4.76 18.13,-7.14 27.61,-7.14z"/>
  <path class="fil1" d="M256.45 448.73c-106.03,0 -192.3,-86.26 -192.3,-192.29 0,-106.04 86.27,-192.29 192.3,-192.29 31.3,0 61.28,7.39 89.11,21.98 2.23,1.17 3.11,3.94 1.92,6.17 -1.18,2.26 -3.96,3.09 -6.18,1.94 -26.49,-13.9 -55.04,-20.94 -84.85,-20.94 -100.99,0 -183.14,82.15 -183.14,183.14 0,100.98 82.15,183.13 183.14,183.13 100.14,0 180.48,-78.48 182.9,-178.66 0.07,-2.52 2.29,-4.54 4.69,-4.47 2.52,0.06 4.54,2.16 4.46,4.68 -2.54,105.2 -86.9,187.61 -192.05,187.61z"/>
  <path class="fil1" d="M404.99 146.56c-1.36,0 -2.72,-0.62 -3.62,-1.78 -10.46,-13.54 -22.76,-25.57 -36.58,-35.74 -2.03,-1.5 -2.48,-4.37 -0.97,-6.4 1.5,-2.04 4.37,-2.46 6.4,-0.97 14.51,10.68 27.43,23.3 38.39,37.52 1.55,2 1.18,4.87 -0.82,6.43 -0.82,0.62 -1.81,0.94 -2.8,0.94z"/>
  <path class="fil1" d="M434.37 201.5c-1.92,0 -3.7,-1.21 -4.35,-3.12 -3.13,-9.38 -6.96,-18.39 -11.37,-26.79 -1.18,-2.25 -0.32,-5.02 1.92,-6.19 2.22,-1.16 5.01,-0.32 6.18,1.92 4.66,8.84 8.67,18.31 11.97,28.15 0.8,2.4 -0.5,4.99 -2.9,5.79 -0.48,0.17 -0.97,0.24 -1.45,0.24z"/>
  <path class="fil1" d="M247.29 357.16c-0.06,0 -0.44,0 -0.5,-0.01 -6.57,-0.1 -12.83,-3.1 -17.08,-8.23l-68.68 -82.41c-8.08,-9.7 -6.77,-24.17 2.93,-32.24 9.73,-8.07 24.19,-6.75 32.23,2.94l51.7 62.02 96.78 -108.4c4.07,-4.56 9.68,-7.26 15.79,-7.61 6.2,-0.26 11.98,1.72 16.53,5.78 4.56,4.07 7.26,9.68 7.61,15.79 0.35,6.1 -1.71,11.97 -5.77,16.53l-114.46 128.2c-4.34,4.86 -10.57,7.64 -17.08,7.64zm-68.69 -119.03c-3.1,0 -6.22,1.05 -8.79,3.18 -5.81,4.84 -6.6,13.53 -1.75,19.35l68.68 82.41c2.55,3.07 6.32,4.87 10.32,4.94l0.23 4.57 0 -4.58c3.91,0 7.64,-1.67 10.25,-4.58l114.46 -128.2c2.44,-2.73 3.66,-6.26 3.46,-9.92 -0.21,-3.67 -1.83,-7.02 -4.56,-9.47 -2.75,-2.44 -6.3,-3.63 -9.92,-3.47 -3.67,0.2 -7.03,1.83 -9.47,4.57l-100.32 112.36c-0.89,0.98 -2.14,1.58 -3.5,1.52 -1.33,-0.02 -2.58,-0.62 -3.43,-1.65l-55.09 -66.1c-2.71,-3.25 -6.62,-4.93 -10.57,-4.93z"/>
  <text x="89.39" y="337.35"  class="fil5 fnt0"><tspan rotate="55">A</tspan></text>
  <text x="130.25" y="395"  class="fil5 fnt0"><tspan rotate="30">M</tspan></text>
  <text x="228.06" y="440.27"  class="fil5 fnt0"><tspan rotate="359">E</tspan></text>
  <text x="318.38" y="431.99"  class="fil5 fnt0"><tspan rotate="331">R</tspan></text>
  <text x="399.46" y="374.69"  class="fil5 fnt0"><tspan rotate="301">T</tspan></text>
 </g>
</svg>
