<?xml version="1.0" encoding="UTF-8"?>
<!DOCTYPE svg PUBLIC "-//W3C//DTD SVG 1.1//EN" "http://www.w3.org/Graphics/SVG/1.1/DTD/svg11.dtd">
<!-- Creator: CorelDRAW 2019 (64-Bit) -->
<svg xmlns="http://www.w3.org/2000/svg" xml:space="preserve" width="200px" height="48px" version="1.1" style="shape-rendering:geometricPrecision; text-rendering:geometricPrecision; image-rendering:optimizeQuality; fill-rule:evenodd; clip-rule:evenodd"
viewBox="0 0 18916 4583"
 xmlns:xlink="http://www.w3.org/1999/xlink"
 xmlns:xodm="http://www.corel.com/coreldraw/odm/2003">
 <defs>
  <style type="text/css">
   <![CDATA[
    .fil0 {fill:#00AFEF}
    .fil1 {fill:#284D92}
    .fil2 {fill:#2C407E}
   ]]>
  </style>
 </defs>
 <g id="Capa_x0020_1">
  <metadata id="CorelCorpID_0Corel-Layer"/>
  <g id="_2958043714704">
   <g>
    <path class="fil0" d="M1650 1079l1293 0c694,0 955,351 915,868 -66,852 -582,1323 -1265,1323l-345 0c-94,0 -157,62 -182,231l-148 977c-10,63 -43,100 -94,105l-810 0c-76,0 -104,-59 -84,-185l495 -3134c20,-126 89,-185 225,-185z"/>
    <path class="fil1" d="M7262 1021c436,0 839,236 784,826 -66,699 -442,1088 -1035,1090l-517 0c-75,0 -110,61 -130,185l-100 637c-15,96 -64,143 -137,143l-481 0c-77,0 -104,-49 -87,-159l398 -2550c20,-126 68,-172 153,-172l1152 0zm-784 1365l0 0 392 0c245,-9 408,-179 425,-485 10,-190 -118,-325 -321,-324l-370 2 -126 807zm2876 1321l0 0c44,-40 89,-61 83,-12l-16 118c-8,62 16,95 74,95l428 0c72,0 107,-29 124,-141l264 -1654c13,-83 -7,-124 -70,-124l-470 0c-43,0 -63,24 -74,89l-18 102c-9,53 -33,62 -56,8 -80,-189 -283,-273 -568,-267 -660,13 -1105,514 -1153,1156 -36,497 320,887 789,887 340,0 492,-102 663,-257zm-358 -255l0 0c-284,0 -481,-226 -440,-504 41,-277 306,-504 590,-504 284,0 482,227 441,504 -41,278 -307,504 -591,504zm2153 -1468l0 0 -432 0c-90,0 -126,65 -98,149l539 1577 -531 750c-44,62 -10,120 52,120l488 0c73,0 108,-19 145,-72l1656 -2375c51,-73 27,-150 -57,-150l-461 -1c-79,0 -111,32 -156,97l-691 1003 -307 -1004c-19,-62 -64,-94 -147,-94z"/>
    <path class="fil0" d="M14691 1021c437,0 839,236 784,826 -65,699 -442,1088 -1035,1090l-517 0c-74,0 -110,61 -130,185l-99 637c-15,96 -65,143 -138,143l-481 0c-77,0 -104,-49 -87,-159l398 -2550c20,-126 68,-172 153,-172l1152 0zm-784 1365l0 0 392 0c246,-9 409,-179 425,-485 10,-190 -118,-325 -321,-324l-369 2 -127 807zm2877 1321l0 0c44,-40 89,-61 82,-12l-16 118c-8,62 17,95 74,95l428 0c72,0 107,-29 125,-141l263 -1654c14,-83 -6,-124 -70,-124l-470 0c-42,0 -63,24 -74,89l-17 102c-9,53 -34,62 -56,8 -80,-189 -284,-273 -569,-267 -660,13 -1105,514 -1152,1156 -37,497 319,887 788,887 340,0 492,-102 664,-257zm-358 -255l0 0c-284,0 -482,-226 -441,-504 42,-277 307,-504 591,-504 284,0 482,227 440,504 -41,278 -306,504 -590,504zm1973 459l0 0 -494 0c-39,0 -66,-31 -61,-68l435 -2748c6,-38 43,-69 82,-69l493 0c40,0 67,31 61,69l-434 2748c-6,37 -43,68 -82,68z"/>
    <path class="fil1" d="M842 0l1294 0c365,0 797,12 1086,267 193,170 295,442 271,733 -79,988 -670,1542 -1463,1542l-638 0c-109,0 -181,71 -211,266l-178 1133c-12,74 -44,117 -102,122l-797 0c-88,0 -120,-67 -97,-214l574 -3634c23,-146 103,-215 261,-215z"/>
    <path class="fil2" d="M1199 2694l226 -1430c20,-126 89,-185 225,-185l1293 0c214,0 387,33 523,95 -130,879 -699,1368 -1444,1368l-638 0c-84,0 -147,42 -185,152z"/>
   </g>
  </g>
 </g>
</svg>
