<?xml version="1.0" encoding="UTF-8"?>
<!DOCTYPE svg PUBLIC "-//W3C//DTD SVG 1.1//EN" "http://www.w3.org/Graphics/SVG/1.1/DTD/svg11.dtd">
<!-- Creator: CorelDRAW 2019 (64-Bit) -->
<svg xmlns="http://www.w3.org/2000/svg" xml:space="preserve" width="150px" height="38px" version="1.1" style="shape-rendering:geometricPrecision; text-rendering:geometricPrecision; image-rendering:optimizeQuality; fill-rule:evenodd; clip-rule:evenodd"
viewBox="0 0 26847 6717"
 xmlns:xlink="http://www.w3.org/1999/xlink"
 xmlns:xodm="http://www.corel.com/coreldraw/odm/2003">
 <defs>
  <style type="text/css">
   <![CDATA[
    .fil1 {fill:#00AFEF;fill-rule:nonzero}
    .fil0 {fill:#324B98;fill-rule:nonzero}
   ]]>
  </style>
 </defs>
 <g id="Capa_x0020_1">
  <metadata id="CorelCorpID_0Corel-Layer"/>
  <path class="fil0" d="M5908 448c-303,-297 -789,-448 -1447,-448l-2558 0c-656,0 -1143,151 -1446,448 -302,296 -457,796 -457,1349l0 4920 1193 0 0 -2732 3268 0c658,0 1145,-151 1447,-448 303,-297 457,-796 457,-1486l0 -118c0,-689 -154,-1189 -457,-1485zm-736 1649l0 0c0,440 -173,636 -562,636l-3417 0 0 -845c0,-440 173,-636 563,-636l2854 0c389,0 562,196 562,636l0 209zm7082 -1649l0 0c-302,-297 -790,-448 -1447,-448l-3407 0 0 1252 3556 0c389,0 562,196 562,636l0 844 -3267 0c-658,0 -1145,151 -1448,449 -302,296 -457,796 -457,1485l0 118c0,689 155,1189 457,1486 303,296 790,447 1448,447l2556 0c657,0 1145,-151 1447,-447 303,-297 457,-797 457,-1349l0 -2851c0,-825 -154,-1326 -457,-1622zm-736 4382l0 0c0,440 -173,635 -562,635l-2855 1c-390,0 -562,-196 -562,-636l0 -210c0,-440 172,-635 562,-635l3417 0 0 845zm8211 -4830l0 0 0 4648c0,688 -155,1326 -457,1621 -303,298 -790,448 -1447,448l-3408 0 0 -1252 3557 0c389,0 562,-196 562,-635l0 -845 -3267 0c-658,0 -1146,-150 -1448,-448 -303,-296 -457,-796 -457,-1485l0 -2052 1193 0 0 2097c0,440 173,636 562,636l3417 0 0 -2733 1193 0z"/>
  <path class="fil1" d="M26847 0l0 4784c0,689 -155,1189 -457,1486 -303,296 -790,447 -1447,447l-2557 0c-657,0 -1145,-151 -1447,-447 -302,-297 -457,-797 -457,-1486l0 -4784 1193 0 0 4830c0,440 173,635 562,635l2855 0c389,0 562,-195 562,-635l0 -4830 1193 0z"/>
 </g>
</svg>
