<?xml version="1.0" encoding="UTF-8"?>
<!DOCTYPE svg PUBLIC "-//W3C//DTD SVG 1.1//EN" "http://www.w3.org/Graphics/SVG/1.1/DTD/svg11.dtd">
<!-- Creator: CorelDRAW 2019 (64-Bit) -->
<svg xmlns="http://www.w3.org/2000/svg" xml:space="preserve" width="233px" height="50px" version="1.1" style="shape-rendering:geometricPrecision; text-rendering:geometricPrecision; image-rendering:optimizeQuality; fill-rule:evenodd; clip-rule:evenodd"
viewBox="0 0 320.97 68.91"
 xmlns:xlink="http://www.w3.org/1999/xlink"
 xmlns:xodm="http://www.corel.com/coreldraw/odm/2003">
 <defs>
  <style type="text/css">
   <![CDATA[
    .str1 {stroke:#2A2F56;stroke-width:0.82;stroke-miterlimit:22.9256}
    .str0 {stroke:#FEFEFE;stroke-width:0.16;stroke-miterlimit:22.9256}
    .fil3 {fill:none}
    .fil1 {fill:#FEFEFE}
    .fil5 {fill:#FEFEFE}
    .fil6 {fill:#ED3237}
    .fil2 {fill:#B0AFB0}
    .fil4 {fill:#2A2F56}
    .fil7 {fill:#201E1E}
    .fil0 {fill:#01154D}
    .fnt0 {font-weight:100;font-size:12.35px;font-family:'Cleargothic-MediumIta'}
   ]]>
  </style>
    <clipPath id="id0">
     <path d="M43.08 0.93l50.65 0 0 46.06 -50.65 0 0 -46.06z"/>
    </clipPath>
    <clipPath id="id1">
     <path d="M91.27 40.74c1.3,0.22 2.22,1.41 2.05,2.65 -0.15,1.1 -1.11,1.87 -2.23,1.87l-0.39 0.57 -0.08 0.01 -0.43 -0.74c-1.06,-0.39 -1.75,-1.43 -1.6,-2.52 0.17,-1.24 1.37,-2.06 2.68,-1.84z"/>
    </clipPath>
 </defs>
 <g id="Capa_x0020_1">
  <metadata id="CorelCorpID_0Corel-Layer"/>
  <path class="fil0" d="M131.72 23.3l-0.02 -20.36c7.68,-0.39 15.58,0.75 15.89,10 0.3,9.23 -8.36,11.12 -15.87,10.36zm-4.37 23.99l4.49 0.05 -0.16 -21.86c1.47,0.87 11.62,13.21 14.57,16.27 1.68,1.74 3.13,3.82 4.73,5.54l6.18 0.04c-0.17,-0.33 -4.15,-4.32 -4.83,-5.14 -3.36,-4.06 -12.85,-14.17 -14.57,-16.76 0.86,-0.47 3.67,-0.57 6.38,-1.5 11.05,-3.76 10.92,-19.22 -1.59,-22.48 -3.25,-0.84 -11.66,-0.84 -15.23,-0.56l0.03 46.4z"/>
  <path class="fil0" d="M0 46.69l0 0.31 5.47 0.11 10.86 -14.5 19.56 0.1c-0.1,8.12 0.01,9.6 -0.18,14.34l4.6 -0.1 -0.02 -18.53 -20.5 0.01c0.64,-2.05 17,-23.58 19.64,-27.35l-5.85 -0.03c-1.49,0.3 -31.97,44.4 -33.58,45.64z"/>
  <path class="fil0" d="M233 5.9l9 23.65 -17.4 0.05c0.24,-1.66 7.57,-22.31 8.4,-23.7zm-16.89 41.44l2.26 -0.02c0.53,-2.36 4.39,-14.02 5.42,-15.66l19.13 -0.12c1.44,5.14 4.38,10.61 5.39,15.71l5.04 0.08c-0.08,-0.55 -1.73,-4.49 -2.06,-5.42l-10.82 -29.31c-1.38,-3.78 -2.77,-8.07 -4.24,-11.73l-3.79 -0.02c-0.57,1.25 -1.37,4.24 -1.91,5.74 -0.72,1.98 -1.43,3.92 -2.13,5.89 -1.81,5.15 -12.28,33.88 -12.29,34.86z"/>
  <path class="fil0" d="M300.76 0.06c-0.75,-0.09 -6.31,-0.07 -7.14,0.01 -1.54,1.16 -10.65,0.79 -15.91,10.03 -3.63,6.37 -4.1,14.61 -2.44,21.77 3.41,14.71 19.42,20.42 32.26,13.12l-0.06 -4.32c-1.49,0.56 -3.05,3.92 -8.79,4.61 -25.18,3.07 -26.88,-45.1 -0.28,-42.68 5.39,0.49 7.19,3.3 9.12,3.99l-0.03 -4.3c-1.77,-0.95 -5.65,-1.39 -6.73,-2.23z"/>
  <path class="fil0" d="M100.9 3c2.39,-0.32 6.22,-0.1 8.77,-0.1 1.87,0 6.82,0.33 8.18,0.15l-0.06 -2.21 -21.36 0.05 0.01 46.44 21.49 -0.02 -0.08 -2.73c-2.78,0.58 -14.04,0.68 -17,0.31l-0.01 -20.38 17.16 0.09 -0.13 -2.37c-2.31,0.6 -14.17,0.57 -17.02,0.31l0.05 -19.54z"/>
  <path class="fil0" d="M168.67 3.3l-0.08 44 4.63 0.04c-0.68,-6.72 -0.23,-15.29 -0.23,-22.21 0,-3.97 -0.19,-19.33 0.09,-22l13.84 0.24 -0.08 -2.53 -32.11 0.12 -0.01 2.28 13.95 0.06z"/>
  <path class="fil0" d="M187.24 54.53c1,-1.65 5.92,-9.68 6.19,-10.93l-3.94 -1.37 -4.98 11.43c0.81,0.6 1.64,0.9 2.73,0.87z"/>
  <path class="fil0" d="M320.97 45.99l0 -1.48c-1.35,-1.28 -1.77,-2.09 -4.05,-1.75 -4.04,0.61 -2.87,5.16 0.79,5.09 1.9,-0.04 2.13,-0.91 3.26,-1.86z"/>
  <path class="fil0" d="M266.32 45.96c0.32,-4.53 -5.72,-3.72 -6.3,-1.49 -0.87,3.32 4.15,4.91 6.3,1.49z"/>
  <g id="_2835055118688">
   <polygon class="fil1" points="43.08,0.93 93.73,0.93 93.73,46.99 43.08,46.99 "/>
   <g style="clip-path:url(#id0)">
    <g>
     <polygon id="1" class="fil2" points="40.3,-2.33 41.65,-3.35 50.67,10.41 51.54,-3.1 53.17,-2.97 52.15,12.68 66.49,34.57 69,-9.89 70.64,-9.94 69.79,5.05 94,46.59 94.64,48 91.92,48.4 69.65,7.47 67.99,36.86 75.77,48.74 74.42,49.76 51.97,15.49 49.85,48.2 48.22,48.07 50.48,13.21 "/>
     <rect class="fil2" transform="matrix(0.436464 -0.495221 0.555994 0.572844 70.5771 -7.34066)" width="2.62" height="74.07"/>
     <polygon class="fil2" points="90.93,-3.71 92.09,-2.43 48.8,49.46 47.64,48.18 "/>
     <polygon class="fil2" points="81.91,-12.3 83.07,-11.02 39.78,40.87 38.62,39.59 "/>
     <polygon class="fil2" points="66.73,-21.79 67.89,-20.51 24.6,31.39 23.44,30.11 "/>
     <polygon class="fil2" points="98.85,4.12 100.01,5.4 56.72,57.29 55.56,56.01 "/>
     <polygon class="fil2" points="92.45,-16.67 93.61,-15.39 50.32,36.5 49.16,35.22 "/>
     <polygon class="fil2" points="120.49,65.53 119.17,66.59 80.25,10.57 81.57,9.51 "/>
     <polygon class="fil2" points="72.36,-15.78 73.52,-14.5 30.23,37.4 29.07,36.12 "/>
    </g>
   </g>
   <polygon class="fil3 str0" points="43.08,0.93 93.73,0.93 93.73,46.99 43.08,46.99 "/>
   <polygon class="fil4" points="50.08,42.74 48.64,42.74 50.65,10.42 66.5,34.68 68.36,2.55 92.32,43.89 90.25,45.35 69.66,7.65 67.82,39.6 51.99,15.58 "/>
   <path class="fil1" d="M48.66 42.22c0.06,-0.27 0.26,-0.41 0.53,-0.47 0.15,-0.02 0.29,-0.02 0.43,0 0.32,0.07 0.56,0.22 0.62,0.6 -0.16,0.03 -0.32,0.07 -0.47,0.11 -0.37,-0.08 -0.74,-0.16 -1.11,-0.24z"/>
   <path class="fil5" d="M48.69 45.31c-0.01,-0.07 -0.03,-1.36 -0.03,-1.36l0.06 -1.09 0.6 -0.32 0.9 0.37 -0.01 0.7 -0.04 1.65 -0.23 0.77 -0.95 0c0,0 -0.26,-0.43 -0.3,-0.47 -0.05,-0.04 0,-0.25 0,-0.25z"/>
   <path class="fil6" d="M49.44 45.9c-0.16,0 -0.34,-0.02 -0.47,-0.1 -0.11,-0.07 -0.09,-0.16 -0.09,-0.28 0,-0.06 0.01,-0.08 0.01,-0.15 0,-0.36 -0.01,-0.27 0.26,-0.22 0.24,0.04 0.47,0.03 0.7,-0.02 0.05,-0.01 0.1,-0.04 0.13,-0.02 0.03,0.01 0.02,0.03 0.03,0.11 0,0.06 0,0.13 0,0.19 0,0.1 0.04,0.25 -0.03,0.33 -0.1,0.11 -0.34,0.16 -0.54,0.16zm-0.7 -0.76c0,-0.12 -0.01,-0.24 -0.01,-0.36 0,-0.13 -0.01,-0.24 -0.01,-0.38 0.05,0.01 0.07,0.05 0.11,0.06l0 0.18c0,0.06 -0.01,0.14 -0.02,0.19 -0.01,0.06 -0.01,0.11 -0.02,0.16l-0.04 0.14c-0.01,0.02 0,0 -0.01,0.01zm1.4 0c-0.01,-0.02 -0.01,-0.01 -0.01,-0.03 -0.07,-0.17 -0.07,-0.5 -0.07,-0.67 0.04,-0.01 0.06,-0.04 0.11,-0.05l-0.03 0.75zm-1.2 -0.86c0,-0.06 0.02,-0.18 0.03,-0.25 0.01,-0.08 0.01,-0.18 0.09,-0.18l0.74 0c0.09,0 0.09,0.14 0.11,0.3 0.01,0.08 0.06,0.22 -0.07,0.22l-0.81 0c-0.05,0 -0.09,-0.03 -0.09,-0.09zm1.22 0.1c-0.05,0.01 -0.06,0.04 -0.11,0.04 0,-0.29 0.02,-0.75 0.08,-1.03 0.01,-0.04 0.03,-0.08 0.03,-0.13l0.01 0c0,0.19 0,0.37 0,0.56 0,0.19 -0.01,0.36 -0.01,0.56zm-1.45 -1.12l0.01 0c0,0.06 0.01,0.08 0.02,0.13 0.05,0.21 0.08,0.51 0.08,0.72 0,0.11 0,0.2 0,0.32 -0.04,-0.01 -0.05,-0.04 -0.1,-0.05 0,-0.2 -0.01,-0.36 -0.01,-0.55 0,-0.19 0,-0.38 0,-0.57zm0.03 -0.23c0.09,-0.07 0.12,-0.11 0.27,-0.15 0.3,-0.09 0.72,-0.08 1,0.07 0.11,0.06 0.1,0.12 0.1,0.24 0,0.17 -0.08,0.37 -0.12,0.53 -0.13,0 -0.33,-0.08 -0.57,-0.09 -0.04,-0.01 -0.04,-0.02 -0.08,-0.01 -0.02,0 -0.03,0 -0.07,0.01 -0.05,0 -0.11,0.01 -0.15,0.01l-0.27 0.07c-0.05,-0.12 -0.09,-0.64 -0.11,-0.68zm1.35 -0.96c0.06,0 0.04,0.07 0.04,0.09 -0.01,0.03 0,0.04 0,0.07 -0.05,-0.04 -0.03,-0.05 -0.08,-0.09 0.01,-0.03 0,-0.07 0.04,-0.07zm-1.38 0.15l0 -0.13c0.02,-0.01 0.08,-0.03 0.08,0.02l0 0.01c0,0.04 -0.06,0.08 -0.08,0.1zm1.26 -0.24c0,-0.04 0,-0.04 0.04,-0.04 0.04,0 0.02,0.08 0.02,0.16 -0.02,-0.02 -0.06,-0.08 -0.06,-0.12zm-1.15 0.12c0,-0.03 0,-0.06 0,-0.09 0,-0.06 -0.01,-0.07 0.04,-0.07 0.06,0 -0.01,0.13 -0.04,0.16zm-0.24 0.55c0,0.17 0.02,0.2 0.02,0.4 0,0.08 0.01,0.12 0.01,0.19 0,0.07 0,0.14 0,0.21 -0.03,0 -0.04,0.01 -0.06,0.04 -0.02,0.03 -0.05,0.1 -0.01,0.1 0.03,0 0.02,-0.02 0.06,-0.02 0,0.15 0.01,0.28 0.01,0.44l0.01 1.2c0,0.05 0.01,0.06 0.01,0.11 0,0.07 0,0.15 0,0.22 0,0.08 0.05,0.28 0.07,0.37 0.01,0.09 0.01,0.1 0.06,0.15 0.11,0.12 0.3,0.16 0.45,0.18 0.04,0 0.07,0 0.1,0 0.23,0.02 0.56,-0.01 0.73,-0.18 0.09,-0.08 0.09,-0.18 0.12,-0.32 0.03,-0.13 0.06,-0.23 0.05,-0.39l0 -1.69c0,-0.05 0.01,-0.07 0.01,-0.11 0.05,0.01 0.12,0.07 0.12,-0.02 0,-0.01 0,-0.04 -0.01,-0.05 -0.02,-0.03 -0.06,-0.04 -0.09,-0.05 0,-0.23 0.02,-0.42 0.02,-0.65 0,-0.28 0.01,-0.58 -0.17,-0.79 -0.04,-0.07 -0.12,-0.13 -0.19,-0.16 -0.06,-0.03 -0.2,-0.07 -0.28,-0.07 0.01,0.02 0.01,0.04 0.02,0.06l-0.23 0.02 -0.23 -0.02c0,-0.03 0.01,-0.02 0.01,-0.06 -0.09,0.01 -0.2,0.06 -0.27,0.09 -0.25,0.14 -0.34,0.45 -0.34,0.8z"/>
   <path class="fil1" d="M91.27 40.74c1.3,0.22 2.22,1.41 2.05,2.65 -0.15,1.1 -1.11,1.87 -2.23,1.87l-0.39 0.57 -0.08 0.01 -0.43 -0.74c-1.06,-0.39 -1.75,-1.43 -1.6,-2.52 0.17,-1.24 1.37,-2.06 2.68,-1.84z"/>
   <g style="clip-path:url(#id1)">
    <g>
     <path id="1" class="fil7" d="M89.12 44.02c0.05,0 0.11,0.05 0.16,0.07 0.07,0.03 0.25,0.09 0.33,0.1 0.07,0 0.11,0.01 0.17,0.01l-0.06 0.27c-0.01,0.04 -0.02,0.05 -0.03,0.09 -0.01,0.03 -0.01,0.05 -0.02,0.08l-0.09 0.28c-0.1,0 -0.37,-0.05 -0.48,-0.1 -0.18,-0.08 -0.22,-0.09 -0.13,-0.36l0.11 -0.35c0.01,-0.02 0.01,-0.03 0.01,-0.04 0.02,-0.06 0.01,-0.02 0.03,-0.05zm3.85 0.39l0 0 -0.96 3.37 -0.13 0.48c-0.02,0.05 -0.02,0.05 -0.04,0.09l-0.13 0.47c-0.02,0.07 -0.03,0.12 -0.05,0.19l-0.05 0.18c-0.02,0.07 -0.04,0.12 -0.06,0.19 -0.02,0.06 -0.03,0.12 -0.05,0.17l-0.01 0.01c-0.04,0 -0.15,-0.04 -0.17,-0.07 -0.04,-0.05 0.01,-0.14 0.03,-0.2l0.37 -1.28c0.06,-0.27 0.16,-0.52 0.22,-0.79 0.04,-0.16 0.1,-0.32 0.14,-0.48 0,-0.02 0,-0.03 0.01,-0.04l0 0 0.13 -0.44 -0.01 0c0.01,-0.02 0.01,-0.04 0.03,-0.07l0.09 -0.32c0.01,-0.07 -0.05,-0.19 -0.07,-0.25 -0.15,-0.36 -0.39,-0.67 -0.73,-0.79 -0.08,-0.02 -0.15,-0.02 -0.23,-0.04l-0.25 0c-0.08,0 -0.15,0.01 -0.23,0.01 -0.05,0.01 -0.09,0.02 -0.14,0.02 -0.58,0.07 -1.31,0.34 -1.78,-0.07 -0.27,-0.24 -0.39,-0.37 -0.51,-0.73 -0.05,-0.14 -0.05,-0.14 -0.01,-0.27l0.15 -0.52c0.03,-0.09 0.05,-0.17 0.08,-0.26 0.08,-0.26 0.14,-0.52 0.22,-0.78l0.52 -1.81c0.02,-0.07 0.05,-0.2 0.09,-0.25l0.26 0.51c0.32,0.56 0.82,0.54 1.32,0.48 0.05,0 0.07,0 0.12,-0.01 0.04,-0.01 0.07,-0.01 0.12,-0.02 0.24,-0.04 0.5,-0.09 0.74,-0.11 0.33,-0.02 0.62,-0.01 0.9,0.2 0.37,0.28 0.35,0.46 0.54,0.78 0.07,-0.04 0.15,0 0.19,0.05 0,0.13 -0.07,0.29 -0.1,0.42 -0.02,0.06 -0.02,0.07 -0.04,0.13l-0.26 0.95c-0.05,0.2 -0.16,0.53 -0.22,0.74l-0.04 0.16zm-2.56 0.38c-0.01,-0.09 0,-0.08 0.03,-0.16l0.09 -0.36c0.02,-0.06 0.04,-0.12 0.04,-0.18 -0.17,0.03 -0.63,0.14 -0.75,0.08 0,-0.07 0.02,-0.11 0.04,-0.18l0.1 -0.35c0.02,-0.07 0.03,-0.12 0.04,-0.18 -0.09,-0.04 -0.29,-0.01 -0.51,-0.13 -0.07,-0.03 -0.12,-0.05 -0.17,-0.07l-0.17 0.53c-0.01,0.06 -0.03,0.14 -0.05,0.19 -0.1,-0.11 -0.19,-0.16 -0.29,-0.34 -0.08,-0.13 -0.14,-0.32 -0.21,-0.45 0.04,-0.09 0.16,-0.6 0.22,-0.73 0.22,0.49 0.08,0.35 0.48,0.77 0.07,-0.08 0.17,-0.57 0.23,-0.71 0.06,0 0.1,0.04 0.16,0.07 0.12,0.05 0.14,0.05 0.26,0.08 0.05,0.02 0.16,0.01 0.26,0.06l-0.07 0.26c-0.04,0.12 -0.08,0.31 -0.14,0.45 0.07,0.03 0.69,-0.06 0.78,-0.09 -0.01,0.08 -0.07,0.28 -0.1,0.36l-0.05 0.19c-0.02,0.06 -0.04,0.13 -0.03,0.19 0.13,-0.02 0.25,-0.04 0.38,-0.06 0.07,-0.01 0.31,-0.03 0.36,-0.01l-0.19 0.68c-0.04,0.02 -0.28,0.03 -0.37,0.04 -0.13,0.02 -0.26,0.05 -0.37,0.05zm1.65 -0.56c0.12,0.13 0.18,0.14 0.31,0.37 0.05,0.09 0.11,0.22 0.14,0.29 0.05,0.16 -0.02,0.31 -0.08,0.53l-0.08 0.25 -0.16 -0.32c-0.12,-0.21 -0.2,-0.27 -0.34,-0.42 0.01,-0.03 0.01,-0.04 0.02,-0.08l0.19 -0.62zm-1.24 -0.9c0,-0.12 0.1,-0.4 0.13,-0.53 0.02,-0.06 0.04,-0.12 0.05,-0.18 -0.07,-0.02 -0.56,0.08 -0.76,0.08 0.01,-0.11 0.05,-0.19 0.07,-0.27 0.01,-0.04 0.01,-0.06 0.02,-0.1 0.03,-0.08 0.09,-0.29 0.1,-0.36 -0.11,-0.05 -0.19,-0.03 -0.26,-0.05l-0.24 -0.08c-0.07,-0.02 -0.11,-0.06 -0.17,-0.08 -0.07,0.13 -0.16,0.53 -0.25,0.7 -0.14,-0.06 -0.44,-0.56 -0.46,-0.73 -0.01,-0.09 0.13,-0.62 0.19,-0.74 0.14,0.26 0.08,0.27 0.32,0.57 0.06,0.07 0.1,0.13 0.16,0.17 0.1,-0.08 0.16,-0.6 0.25,-0.71 0.05,0.05 0.25,0.14 0.32,0.16l0.34 0.04c0,0.08 -0.02,0.11 -0.04,0.18l-0.1 0.35c-0.01,0.03 -0.05,0.18 -0.05,0.19 0.07,0.03 0.28,0 0.37,-0.02l0.39 -0.06c-0.01,0.11 -0.07,0.27 -0.09,0.36 -0.02,0.12 -0.08,0.25 -0.09,0.37 0.07,-0.01 0.12,-0.02 0.2,-0.03 0.09,-0.01 0.49,-0.09 0.56,-0.02 -0.02,0.03 -0.06,0.19 -0.08,0.25 -0.01,0.04 -0.01,0.06 -0.02,0.09 -0.02,0.07 -0.1,0.31 -0.08,0.36 0.05,0.02 0.1,0.02 0.17,0.03 0.15,0.03 0.37,0.08 0.49,0.2 -0.06,0.07 -0.14,0.62 -0.25,0.71 -0.14,-0.07 -0.02,-0.05 -0.3,-0.13 -0.06,-0.02 -0.09,-0.04 -0.16,-0.05 -0.06,-0.01 -0.1,0 -0.17,-0.03 0.01,-0.08 0.09,-0.36 0.12,-0.45 0.02,-0.05 0.02,-0.05 0.03,-0.1 0.02,-0.07 0.04,-0.11 0.05,-0.18l-0.57 0.06c-0.05,0.01 -0.15,0.02 -0.19,0.03zm1.68 -0.6c0.14,0.15 0.18,0.16 0.31,0.4 0.05,0.08 0.18,0.33 0.15,0.43 -0.01,0.04 -0.01,0.03 -0.02,0.06 -0.05,0.16 -0.1,0.41 -0.18,0.59 -0.06,-0.11 -0.09,-0.21 -0.16,-0.35 -0.1,-0.17 -0.22,-0.3 -0.32,-0.42 0.01,-0.03 0.01,-0.04 0.02,-0.08l0.08 -0.27c0.01,-0.06 0.03,-0.11 0.05,-0.17 0.04,-0.15 0.02,-0.1 0.07,-0.19zm-1.26 -0.9c0,-0.06 0.02,-0.11 0.04,-0.18 0.19,-0.53 0.01,-0.53 0.55,-0.59l0.35 -0.04c0.01,0.06 -0.05,0.29 -0.07,0.36 -0.03,0.07 -0.03,0.11 -0.05,0.18 -0.01,0.03 -0.05,0.17 -0.05,0.18 0.02,0.02 0.57,0.07 0.65,0.23 0.02,0.03 -0.03,0.18 -0.05,0.27l-0.08 0.27c-0.02,0.05 -0.04,0.14 -0.09,0.18 -0.04,-0.04 -0.25,-0.13 -0.31,-0.15 -0.15,-0.04 -0.27,-0.02 -0.32,-0.07 0,-0.04 0,-0.04 0.01,-0.08 0.02,-0.04 0.02,-0.05 0.03,-0.1 0.01,-0.04 0.01,-0.04 0.03,-0.08l0.07 -0.27c0.02,-0.07 0.04,-0.11 0.04,-0.19 -0.25,0.01 -0.31,0.03 -0.56,0.06 -0.07,0 -0.12,0.02 -0.19,0.02zm1.69 -0.59c0.13,0.14 0.38,0.49 0.43,0.7 0.04,0.2 -0.08,0.45 -0.12,0.65 -0.01,0.04 -0.03,0.09 -0.05,0.13 -0.11,-0.19 -0.11,-0.32 -0.31,-0.57 -0.07,-0.07 -0.12,-0.11 -0.18,-0.18l0.05 -0.17c0.04,-0.16 0.11,-0.42 0.18,-0.56z"/>
    </g>
   </g>
   <path class="fil3" d="M91.27 40.74c1.3,0.22 2.22,1.41 2.05,2.65 -0.15,1.1 -1.11,1.87 -2.23,1.87l-0.39 0.57 -0.08 0.01 -0.43 -0.74c-1.06,-0.39 -1.75,-1.43 -1.6,-2.52 0.17,-1.24 1.37,-2.06 2.68,-1.84z"/>
   <polygon class="fil5" points="51.89,7.92 51.52,7.91 51.55,6.85 51.16,6.84 51.46,6.36 51.76,5.88 52.03,6.38 52.3,6.87 51.91,6.86 "/>
   <polygon class="fil5" points="56.13,5.18 55.87,4.9 56.54,4.14 56.27,3.83 56.78,3.71 57.29,3.58 57.18,4.15 57.08,4.72 56.8,4.42 "/>
   <polygon class="fil5" points="44.43,19.27 44.18,18.99 44.85,18.23 44.57,17.93 45.08,17.8 45.59,17.68 45.48,18.25 45.38,18.81 45.1,18.51 "/>
   <polygon class="fil5" points="54,30.92 53.74,30.64 54.41,29.88 54.14,29.58 54.65,29.45 55.16,29.33 55.05,29.89 54.95,30.46 54.67,30.16 "/>
   <polygon class="fil5" points="65.31,17.55 65.05,17.26 65.72,16.5 65.45,16.2 65.96,16.08 66.47,15.95 66.36,16.52 66.26,17.09 65.98,16.79 "/>
   <polygon class="fil5" points="65.83,45.23 65.57,44.95 66.24,44.19 65.96,43.89 66.47,43.76 66.98,43.63 66.88,44.2 66.77,44.77 66.5,44.47 "/>
   <polygon class="fil5" points="89.3,17.07 89.04,16.79 89.71,16.03 89.44,15.73 89.95,15.6 90.46,15.48 90.35,16.05 90.25,16.62 89.97,16.31 "/>
   <polygon class="fil5" points="83,7.06 83.26,7.35 82.59,8.1 82.86,8.41 82.35,8.53 81.84,8.66 81.95,8.09 82.05,7.52 82.33,7.82 "/>
   <polygon class="fil5" points="58.9,35.72 59.16,36.01 58.49,36.77 58.77,37.07 58.26,37.19 57.75,37.32 57.85,36.75 57.96,36.18 58.23,36.48 "/>
   <polygon class="fil5" points="62.72,11.85 62.98,12.13 62.31,12.89 62.58,13.2 62.07,13.32 61.56,13.45 61.67,12.88 61.77,12.31 62.05,12.61 "/>
   <polygon class="fil5" points="77.47,31.31 77.21,31.02 77.88,30.27 77.6,29.96 78.11,29.84 78.62,29.71 78.52,30.28 78.41,30.85 78.14,30.55 "/>
   <polygon class="fil5" points="46.42,5.87 46.7,5.62 47.31,6.44 47.61,6.16 47.67,6.74 47.73,7.32 47.23,7.14 46.73,6.97 47.03,6.69 "/>
   <polygon class="fil5" points="71.09,43.68 71.37,43.42 71.98,44.24 72.27,43.97 72.33,44.54 72.39,45.12 71.9,44.95 71.4,44.77 71.7,44.5 "/>
   <polygon class="fil5" points="88.53,9.91 88.25,10.16 87.64,9.34 87.34,9.62 87.28,9.04 87.22,8.46 87.72,8.64 88.22,8.81 87.92,9.09 "/>
   <polygon class="fil5" points="75.12,5.84 74.86,5.56 75.53,4.8 75.26,4.5 75.77,4.37 76.28,4.25 76.17,4.82 76.07,5.38 75.79,5.08 "/>
   <polygon class="fil5" points="45.73,32.26 45.99,32.54 45.31,33.3 45.59,33.6 45.08,33.73 44.57,33.85 44.68,33.28 44.78,32.71 45.06,33.02 "/>
   <polygon class="fil5" points="83.74,14.57 84.02,14.32 84.63,15.14 84.93,14.86 84.99,15.44 85.05,16.02 84.55,15.84 84.05,15.67 84.35,15.39 "/>
   <polygon class="fil5" points="71.63,20.51 71.88,20.79 71.21,21.55 71.49,21.85 70.98,21.98 70.47,22.1 70.57,21.53 70.68,20.97 70.95,21.27 "/>
   <rect class="fil3 str1" x="43.17" y="0.97" width="50.56" height="45.95"/>
  </g>
  <text x="2.44" y="66.41"  class="fil4 fnt0">Asociación Mexicana de Empresarios de Redes y Transportes</text>
 </g>
</svg>
