<?xml version="1.0" encoding="UTF-8"?>
<!DOCTYPE svg PUBLIC "-//W3C//DTD SVG 1.1//EN" "http://www.w3.org/Graphics/SVG/1.1/DTD/svg11.dtd">
<!-- Creator: CorelDRAW 2019 (64-Bit) -->
<svg xmlns="http://www.w3.org/2000/svg" xml:space="preserve" width="400px" height="86px" version="1.1" style="shape-rendering:geometricPrecision; text-rendering:geometricPrecision; image-rendering:optimizeQuality; fill-rule:evenodd; clip-rule:evenodd"
viewBox="0 0 102.43 21.99"
 xmlns:xlink="http://www.w3.org/1999/xlink"
 xmlns:xodm="http://www.corel.com/coreldraw/odm/2003">
 <defs>
  <style type="text/css">
   <![CDATA[
    .str1 {stroke:#2A2F56;stroke-width:0.26;stroke-miterlimit:22.9256}
    .str0 {stroke:#FEFEFE;stroke-width:0.05;stroke-miterlimit:22.9256}
    .fil3 {fill:none}
    .fil1 {fill:#FEFEFE}
    .fil0 {fill:#FEFEFE}
    .fil5 {fill:#ED3237}
    .fil2 {fill:#B0AFB0}
    .fil4 {fill:#2A2F56}
    .fil6 {fill:#201E1E}
    .fnt0 {font-weight:100;font-size:3.94px;font-family:'Cleargothic-MediumIta'}
   ]]>
  </style>
    <clipPath id="id0">
     <path d="M13.75 0.3l16.16 0 0 14.7 -16.16 0 0 -14.7z"/>
    </clipPath>
    <clipPath id="id1">
     <path d="M29.13 13c0.41,0.07 0.71,0.45 0.65,0.85 -0.05,0.35 -0.35,0.59 -0.71,0.59l-0.12 0.19 -0.03 0 -0.14 -0.24c-0.33,-0.12 -0.56,-0.45 -0.51,-0.8 0.06,-0.4 0.44,-0.66 0.86,-0.59z"/>
    </clipPath>
 </defs>
 <g id="Capa_x0020_1">
  <metadata id="CorelCorpID_0Corel-Layer"/>
  <path class="fil0" d="M42.04 7.44l-0.01 -6.5c2.45,-0.13 4.97,0.24 5.07,3.19 0.1,2.94 -2.67,3.55 -5.06,3.31zm-1.4 7.65l1.43 0.02 -0.05 -6.98c0.47,0.28 3.71,4.22 4.65,5.19 0.54,0.56 1,1.22 1.51,1.77l1.97 0.01c-0.05,-0.1 -1.32,-1.37 -1.54,-1.63 -1.07,-1.3 -4.1,-4.53 -4.65,-5.35 0.28,-0.16 1.17,-0.19 2.04,-0.48 3.53,-1.2 3.48,-6.14 -0.51,-7.18 -1.03,-0.27 -3.72,-0.26 -4.86,-0.18l0.01 14.81z"/>
  <path class="fil0" d="M0 14.9l0 0.1 1.74 0.03 3.47 -4.62 6.24 0.03c-0.03,2.59 0.01,3.06 -0.05,4.57l1.46 -0.03 0 -5.91 -6.54 0c0.2,-0.65 5.42,-7.52 6.26,-8.72l-1.86 -0.02c-0.48,0.1 -10.21,14.17 -10.72,14.57z"/>
  <path class="fil0" d="M74.36 1.88l2.87 7.55 -5.55 0.02c0.07,-0.53 2.41,-7.12 2.68,-7.57zm-5.39 13.23l0.72 -0.01c0.17,-0.75 1.4,-4.47 1.73,-5l6.11 -0.03c0.45,1.63 1.39,3.38 1.71,5.01l1.61 0.02c-0.02,-0.17 -0.55,-1.43 -0.66,-1.72l-3.45 -9.36c-0.44,-1.2 -0.88,-2.57 -1.35,-3.74l-1.21 -0.01c-0.18,0.4 -0.44,1.35 -0.61,1.83 -0.23,0.63 -0.46,1.26 -0.68,1.88 -0.58,1.65 -3.92,10.82 -3.92,11.13z"/>
  <path class="fil0" d="M95.98 0.02c-0.24,-0.03 -2.01,-0.02 -2.28,0 -0.49,0.37 -3.39,0.25 -5.07,3.2 -1.16,2.04 -1.31,4.67 -0.78,6.95 1.09,4.69 6.19,6.52 10.29,4.19l-0.02 -1.38c-0.47,0.18 -0.97,1.25 -2.8,1.47 -8.04,0.98 -8.58,-14.39 -0.09,-13.62 1.72,0.16 2.29,1.05 2.91,1.27l-0.01 -1.37c-0.56,-0.3 -1.8,-0.44 -2.15,-0.71z"/>
  <path class="fil0" d="M32.2 0.96c0.76,-0.1 1.98,-0.03 2.8,-0.03 0.6,0 2.18,0.1 2.61,0.04l-0.02 -0.7 -6.82 0.01 0.01 14.82 6.86 0 -0.03 -0.87c-0.89,0.18 -4.48,0.21 -5.43,0.1l0 -6.51 5.48 0.03 -0.04 -0.76c-0.74,0.2 -4.53,0.19 -5.44,0.1l0.02 -6.23z"/>
  <path class="fil0" d="M53.83 1.05l-0.03 14.04 1.48 0.02c-0.22,-2.15 -0.07,-4.88 -0.07,-7.09 0,-1.27 -0.06,-6.17 0.03,-7.02l4.41 0.07 -0.02 -0.8 -10.25 0.04 0 0.73 4.45 0.01z"/>
  <path class="fil0" d="M59.75 17.4c0.32,-0.52 1.89,-3.09 1.98,-3.49l-1.26 -0.43 -1.59 3.64c0.26,0.2 0.53,0.29 0.87,0.28z"/>
  <path class="fil0" d="M102.43 14.68l0 -0.47c-0.43,-0.41 -0.56,-0.67 -1.29,-0.56 -1.29,0.19 -0.92,1.64 0.25,1.62 0.61,-0.01 0.68,-0.29 1.04,-0.59z"/>
  <path class="fil0" d="M84.99 14.67c0.1,-1.45 -1.82,-1.19 -2.01,-0.48 -0.28,1.06 1.33,1.57 2.01,0.48z"/>
  <g id="_2068994250912">
   <polygon class="fil1" points="13.75,0.3 29.91,0.3 29.91,15 13.75,15 "/>
   <g style="clip-path:url(#id0)">
    <g>
     <polygon id="1" class="fil2" points="12.86,-0.74 13.29,-1.07 16.17,3.32 16.45,-0.99 16.97,-0.95 16.64,4.05 21.22,11.03 22.02,-3.16 22.54,-3.17 22.27,1.61 30,14.87 30.2,15.32 29.33,15.45 22.23,2.38 21.7,11.76 24.18,15.55 23.75,15.88 16.59,4.94 15.91,15.38 15.39,15.34 16.11,4.22 "/>
     <rect class="fil2" transform="matrix(0.436464 -0.495221 0.555994 0.572844 22.5236 -2.34265)" width="0.84" height="23.64"/>
     <polygon class="fil2" points="29.02,-1.19 29.39,-0.78 15.57,15.78 15.2,15.38 "/>
     <polygon class="fil2" points="26.14,-3.93 26.51,-3.52 12.69,13.04 12.32,12.63 "/>
     <polygon class="fil2" points="21.3,-6.95 21.67,-6.54 7.85,10.02 7.48,9.61 "/>
     <polygon class="fil2" points="31.55,1.31 31.92,1.72 18.1,18.28 17.73,17.88 "/>
     <polygon class="fil2" points="29.5,-5.32 29.87,-4.91 16.06,11.65 15.69,11.24 "/>
     <polygon class="fil2" points="38.45,20.91 38.03,21.25 25.61,3.37 26.03,3.03 "/>
     <polygon class="fil2" points="23.09,-5.04 23.46,-4.63 9.65,11.93 9.28,11.53 "/>
    </g>
   </g>
   <polygon class="fil3 str0" points="13.75,0.3 29.91,0.3 29.91,15 13.75,15 "/>
   <polygon class="fil4" points="15.98,13.64 15.52,13.64 16.17,3.33 21.22,11.07 21.82,0.81 29.46,14.01 28.8,14.47 22.23,2.44 21.64,12.64 16.59,4.97 "/>
   <path class="fil1" d="M15.53 13.47c0.02,-0.08 0.08,-0.13 0.17,-0.15 0.05,0 0.09,0 0.14,0 0.1,0.03 0.18,0.07 0.19,0.19 -0.05,0.02 -0.1,0.03 -0.15,0.04 -0.12,-0.03 -0.23,-0.05 -0.35,-0.08z"/>
   <path class="fil0" d="M15.54 14.46c0,-0.02 -0.01,-0.44 -0.01,-0.44l0.02 -0.34 0.19 -0.11 0.29 0.12 -0.01 0.23 -0.01 0.52 -0.07 0.25 -0.3 0c0,0 -0.09,-0.14 -0.1,-0.15 -0.02,-0.01 0,-0.08 0,-0.08z"/>
   <path class="fil5" d="M15.78 14.65c-0.05,0 -0.11,-0.01 -0.15,-0.03 -0.04,-0.03 -0.03,-0.05 -0.03,-0.09 0,-0.02 0,-0.03 0,-0.05 0,-0.12 0,-0.09 0.09,-0.07 0.07,0.01 0.15,0.01 0.22,-0.01 0.02,0 0.03,-0.01 0.04,0 0.01,0 0.01,0.01 0.01,0.03 0,0.02 0,0.04 0,0.06 0,0.03 0.01,0.08 -0.01,0.11 -0.03,0.03 -0.11,0.05 -0.17,0.05zm-0.22 -0.24c0,-0.04 -0.01,-0.08 -0.01,-0.12 0,-0.04 0,-0.08 0,-0.12 0.01,0 0.02,0.01 0.03,0.02l0 0.06c0,0.01 0,0.04 0,0.06 -0.01,0.02 -0.01,0.03 -0.01,0.05l-0.01 0.04c0,0.01 0,0 0,0.01zm0.44 -0.01c0,0 0,0 0,0 -0.02,-0.06 -0.02,-0.16 -0.02,-0.22 0.01,0 0.01,-0.01 0.03,-0.01l-0.01 0.23zm-0.38 -0.27c0,-0.02 0,-0.06 0.01,-0.08 0,-0.02 0,-0.05 0.03,-0.05l0.23 0c0.03,0 0.03,0.04 0.04,0.09 0,0.03 0.02,0.07 -0.03,0.07l-0.25 0c-0.02,0 -0.03,-0.01 -0.03,-0.03zm0.39 0.03c-0.02,0.01 -0.02,0.02 -0.04,0.02 0,-0.1 0.01,-0.24 0.03,-0.33 0,-0.02 0.01,-0.03 0.01,-0.04l0 0c0,0.05 0,0.11 0,0.17 0,0.07 0,0.12 0,0.18zm-0.47 -0.35l0.01 0c0,0.01 0,0.02 0,0.04 0.02,0.06 0.03,0.16 0.03,0.23 0,0.03 0,0.06 0,0.1 -0.01,0 -0.02,-0.01 -0.03,-0.02 0,-0.06 -0.01,-0.11 -0.01,-0.17 0,-0.06 0,-0.12 0,-0.18zm0.02 -0.08c0.02,-0.02 0.03,-0.03 0.08,-0.05 0.1,-0.03 0.23,-0.02 0.32,0.03 0.03,0.01 0.03,0.03 0.03,0.07 0,0.06 -0.03,0.12 -0.04,0.17 -0.04,0 -0.1,-0.02 -0.18,-0.03 -0.01,0 -0.01,0 -0.02,0 -0.01,0 -0.01,0 -0.03,0 -0.01,0 -0.03,0.01 -0.04,0.01l-0.09 0.02c-0.02,-0.04 -0.03,-0.2 -0.03,-0.22zm0.43 -0.3c0.02,0 0.01,0.02 0.01,0.03 0,0.01 0,0.01 0,0.02 -0.02,-0.01 -0.01,-0.02 -0.03,-0.03 0.01,-0.01 0,-0.02 0.02,-0.02zm-0.45 0.04l0 -0.04c0.01,0 0.03,-0.01 0.03,0.01l0 0c0,0.01 -0.02,0.03 -0.03,0.03zm0.41 -0.07c0,-0.02 0,-0.01 0.01,-0.01 0.01,0 0.01,0.02 0.01,0.04 -0.01,0 -0.02,-0.02 -0.02,-0.03zm-0.37 0.03c0,-0.01 0,-0.01 0,-0.02 0,-0.02 0,-0.02 0.01,-0.02 0.02,0 0,0.04 -0.01,0.04zm-0.08 0.18c0,0.06 0.01,0.07 0.01,0.13 0,0.02 0,0.04 0,0.06 0,0.02 0,0.04 0,0.07 -0.01,0 -0.01,0 -0.02,0.01 0,0.01 -0.01,0.03 0,0.03 0.01,0 0.01,0 0.02,-0.01 0,0.05 0,0.09 0,0.15l0.01 0.38c0,0.01 0,0.02 0,0.03 0,0.03 0,0.05 0,0.07 0,0.03 0.01,0.09 0.02,0.12 0.01,0.03 0.01,0.03 0.02,0.05 0.04,0.04 0.1,0.05 0.15,0.06 0.01,0 0.02,0 0.03,0 0.07,0 0.18,-0.01 0.23,-0.06 0.03,-0.03 0.03,-0.06 0.04,-0.1 0.01,-0.04 0.02,-0.08 0.02,-0.13l0 -0.54c0,-0.01 0,-0.02 0,-0.03 0.01,0 0.04,0.02 0.04,-0.01 0,0 -0.01,-0.01 -0.01,-0.01 0,-0.01 -0.02,-0.02 -0.03,-0.02 0,-0.07 0.01,-0.13 0.01,-0.21 0,-0.09 0,-0.18 -0.05,-0.25 -0.02,-0.02 -0.04,-0.04 -0.07,-0.05 -0.02,-0.01 -0.06,-0.02 -0.08,-0.02 0,0 0,0.01 0,0.02l-0.07 0 -0.08 0c0.01,-0.01 0.01,-0.01 0.01,-0.02 -0.03,0 -0.07,0.01 -0.09,0.03 -0.08,0.04 -0.11,0.14 -0.11,0.25z"/>
   <path class="fil1" d="M29.13 13c0.41,0.07 0.71,0.45 0.65,0.85 -0.05,0.35 -0.35,0.59 -0.71,0.59l-0.12 0.19 -0.03 0 -0.14 -0.24c-0.33,-0.12 -0.56,-0.45 -0.51,-0.8 0.06,-0.4 0.44,-0.66 0.86,-0.59z"/>
   <g style="clip-path:url(#id1)">
    <g>
     <path id="1" class="fil6" d="M28.44 14.05c0.02,0 0.04,0.01 0.05,0.02 0.03,0.01 0.08,0.03 0.11,0.03 0.02,0 0.03,0.01 0.05,0l-0.02 0.09c0,0.01 0,0.02 -0.01,0.03 0,0.01 0,0.02 0,0.03l-0.03 0.09c-0.03,0 -0.12,-0.02 -0.16,-0.04 -0.05,-0.02 -0.06,-0.02 -0.04,-0.11l0.04 -0.11c0,-0.01 0,-0.01 0,-0.02 0.01,-0.01 0,0 0.01,-0.01zm1.23 0.12l0 0 -0.31 1.08 -0.04 0.15c0,0.02 -0.01,0.02 -0.01,0.03l-0.04 0.15c-0.01,0.02 -0.01,0.04 -0.02,0.06l-0.01 0.06c-0.01,0.02 -0.02,0.04 -0.02,0.06 -0.01,0.02 -0.01,0.04 -0.02,0.05l0 0.01c-0.02,0 -0.05,-0.02 -0.06,-0.03 -0.01,-0.01 0.01,-0.04 0.01,-0.06l0.12 -0.41c0.02,-0.08 0.05,-0.16 0.07,-0.25 0.01,-0.05 0.03,-0.1 0.05,-0.16 0,0 0,0 0,-0.01l0 0 0.04 -0.14 0 0c0,0 0,-0.01 0.01,-0.02l0.03 -0.1c0,-0.02 -0.02,-0.06 -0.03,-0.08 -0.04,-0.12 -0.12,-0.22 -0.23,-0.25 -0.03,-0.01 -0.05,-0.01 -0.07,-0.01l-0.08 -0.01c-0.03,0.01 -0.05,0.01 -0.08,0.01 -0.01,0 -0.02,0 -0.04,0.01 -0.19,0.01 -0.42,0.1 -0.57,-0.03 -0.09,-0.07 -0.12,-0.12 -0.16,-0.23 -0.02,-0.05 -0.02,-0.05 0,-0.09l0.04 -0.16c0.01,-0.03 0.02,-0.06 0.03,-0.09 0.02,-0.08 0.04,-0.16 0.07,-0.24l0.17 -0.58c0,-0.03 0.01,-0.07 0.02,-0.08l0.09 0.16c0.1,0.18 0.26,0.17 0.42,0.15 0.01,0 0.02,0 0.04,0 0.01,0 0.02,0 0.03,-0.01 0.08,-0.01 0.16,-0.03 0.24,-0.03 0.1,-0.01 0.2,-0.01 0.29,0.06 0.12,0.09 0.11,0.15 0.17,0.25 0.02,-0.01 0.05,0 0.06,0.02 0,0.04 -0.02,0.09 -0.03,0.13 -0.01,0.02 -0.01,0.02 -0.01,0.04l-0.09 0.3c-0.01,0.07 -0.05,0.17 -0.07,0.24l-0.01 0.05zm-0.82 0.13c0,-0.03 0,-0.03 0.01,-0.06l0.03 -0.11c0.01,-0.02 0.01,-0.04 0.01,-0.06 -0.05,0.01 -0.2,0.04 -0.24,0.03 0.01,-0.03 0.01,-0.04 0.02,-0.06l0.03 -0.11c0,-0.02 0.01,-0.04 0.01,-0.06 -0.03,-0.01 -0.09,0 -0.16,-0.04 -0.02,-0.01 -0.04,-0.02 -0.06,-0.03l-0.05 0.18c0,0.01 -0.01,0.04 -0.02,0.06 -0.03,-0.04 -0.06,-0.06 -0.09,-0.11 -0.02,-0.05 -0.04,-0.1 -0.07,-0.15 0.02,-0.03 0.06,-0.19 0.07,-0.23 0.08,0.16 0.03,0.11 0.16,0.25 0.02,-0.03 0.05,-0.19 0.07,-0.23 0.02,0 0.03,0.01 0.05,0.02 0.04,0.02 0.05,0.02 0.08,0.03 0.02,0 0.06,0 0.09,0.02l-0.02 0.08c-0.02,0.04 -0.03,0.1 -0.05,0.14 0.02,0.01 0.22,-0.02 0.25,-0.03 0,0.03 -0.02,0.09 -0.03,0.12l-0.02 0.06c0,0.02 -0.01,0.04 -0.01,0.06 0.04,0 0.08,-0.01 0.12,-0.02 0.03,0 0.1,-0.01 0.12,0l-0.06 0.22c-0.01,0 -0.09,0 -0.12,0.01 -0.04,0 -0.08,0.01 -0.12,0.02zm0.53 -0.18c0.04,0.04 0.06,0.04 0.1,0.11 0.01,0.03 0.03,0.07 0.04,0.1 0.02,0.05 0,0.09 -0.02,0.16l-0.03 0.09 -0.05 -0.11c-0.04,-0.06 -0.06,-0.08 -0.11,-0.13 0.01,-0.01 0.01,-0.01 0.01,-0.03l0.06 -0.19zm-0.4 -0.29c0.01,-0.04 0.04,-0.13 0.05,-0.17 0,-0.02 0.01,-0.04 0.01,-0.06 -0.02,-0.01 -0.18,0.03 -0.24,0.03 0,-0.04 0.01,-0.06 0.02,-0.09 0,-0.01 0,-0.02 0.01,-0.03 0.01,-0.03 0.03,-0.09 0.03,-0.12 -0.04,-0.01 -0.06,-0.01 -0.08,-0.01l-0.08 -0.03c-0.02,-0.01 -0.04,-0.02 -0.06,-0.02 -0.02,0.04 -0.04,0.17 -0.07,0.22 -0.05,-0.02 -0.14,-0.18 -0.15,-0.23 0,-0.03 0.04,-0.2 0.06,-0.24 0.05,0.08 0.03,0.09 0.1,0.18 0.02,0.03 0.03,0.04 0.05,0.06 0.03,-0.03 0.05,-0.19 0.08,-0.23 0.02,0.02 0.08,0.04 0.1,0.05l0.11 0.02c0,0.02 0,0.03 -0.01,0.05l-0.03 0.11c0,0.01 -0.02,0.06 -0.02,0.06 0.02,0.01 0.09,0 0.12,0l0.12 -0.02c0,0.03 -0.02,0.09 -0.02,0.11 -0.01,0.04 -0.03,0.09 -0.03,0.12 0.02,0 0.04,0 0.06,-0.01 0.03,0 0.16,-0.03 0.18,0 -0.01,0.01 -0.02,0.06 -0.03,0.08 0,0.01 0,0.01 0,0.03 -0.01,0.02 -0.03,0.09 -0.03,0.11 0.02,0.01 0.04,0 0.06,0.01 0.04,0.01 0.12,0.02 0.15,0.06 -0.01,0.02 -0.04,0.2 -0.08,0.23 -0.04,-0.02 0,-0.02 -0.09,-0.04 -0.02,-0.01 -0.03,-0.01 -0.05,-0.02 -0.02,0 -0.04,0 -0.06,-0.01 0,-0.02 0.03,-0.11 0.04,-0.14 0.01,-0.02 0.01,-0.02 0.01,-0.03 0.01,-0.03 0.01,-0.04 0.02,-0.06l-0.18 0.02c-0.02,0 -0.05,0 -0.07,0.01zm0.54 -0.19c0.05,0.05 0.06,0.05 0.1,0.12 0.01,0.03 0.06,0.11 0.05,0.14 -0.01,0.01 -0.01,0.01 -0.01,0.02 -0.02,0.05 -0.03,0.13 -0.06,0.19 -0.02,-0.04 -0.02,-0.07 -0.05,-0.11 -0.03,-0.06 -0.07,-0.1 -0.1,-0.14 0,-0.01 0,-0.01 0.01,-0.02l0.02 -0.09c0.01,-0.02 0.01,-0.03 0.02,-0.05 0.01,-0.05 0,-0.03 0.02,-0.06zm-0.4 -0.29c0,-0.02 0,-0.04 0.01,-0.06 0.06,-0.17 0,-0.17 0.17,-0.19l0.12 -0.01c0,0.02 -0.02,0.09 -0.03,0.12 0,0.02 0,0.03 -0.01,0.05 0,0.01 -0.02,0.06 -0.02,0.06 0.01,0.01 0.18,0.02 0.21,0.07 0.01,0.01 -0.01,0.06 -0.02,0.09l-0.02 0.09c-0.01,0.01 -0.01,0.04 -0.03,0.05 -0.01,-0.01 -0.08,-0.04 -0.1,-0.04 -0.04,-0.02 -0.09,-0.01 -0.1,-0.03 0,-0.01 0,-0.01 0,-0.02 0.01,-0.02 0.01,-0.02 0.01,-0.03 0.01,-0.02 0.01,-0.02 0.01,-0.03l0.02 -0.09c0.01,-0.02 0.02,-0.03 0.02,-0.06 -0.08,0.01 -0.1,0.01 -0.18,0.02 -0.02,0 -0.04,0.01 -0.06,0.01zm0.54 -0.19c0.04,0.05 0.12,0.16 0.13,0.23 0.02,0.06 -0.02,0.14 -0.04,0.2 0,0.02 0,0.03 -0.01,0.04 -0.03,-0.06 -0.03,-0.1 -0.1,-0.18 -0.02,-0.02 -0.04,-0.04 -0.06,-0.05l0.02 -0.06c0.01,-0.05 0.03,-0.13 0.06,-0.18z"/>
    </g>
   </g>
   <path class="fil3" d="M29.13 13c0.41,0.07 0.71,0.45 0.65,0.85 -0.05,0.35 -0.35,0.59 -0.71,0.59l-0.12 0.19 -0.03 0 -0.14 -0.24c-0.33,-0.12 -0.56,-0.45 -0.51,-0.8 0.06,-0.4 0.44,-0.66 0.86,-0.59z"/>
   <polygon class="fil0" points="16.56,2.53 16.44,2.52 16.45,2.19 16.33,2.18 16.42,2.03 16.52,1.88 16.6,2.03 16.69,2.19 16.57,2.19 "/>
   <polygon class="fil0" points="17.91,1.65 17.83,1.56 18.05,1.32 17.96,1.22 18.12,1.18 18.28,1.14 18.25,1.33 18.22,1.51 18.13,1.41 "/>
   <polygon class="fil0" points="14.18,6.15 14.1,6.06 14.31,5.82 14.22,5.72 14.39,5.68 14.55,5.64 14.52,5.82 14.48,6 14.39,5.91 "/>
   <polygon class="fil0" points="17.23,9.87 17.15,9.78 17.36,9.54 17.28,9.44 17.44,9.4 17.6,9.36 17.57,9.54 17.54,9.72 17.45,9.63 "/>
   <polygon class="fil0" points="20.84,5.6 20.76,5.51 20.97,5.27 20.89,5.17 21.05,5.13 21.21,5.09 21.18,5.27 21.15,5.45 21.06,5.36 "/>
   <polygon class="fil0" points="21.01,14.43 20.93,14.34 21.14,14.1 21.05,14.01 21.21,13.97 21.38,13.93 21.34,14.11 21.31,14.29 21.22,14.19 "/>
   <polygon class="fil0" points="28.5,5.45 28.42,5.36 28.63,5.12 28.54,5.02 28.71,4.98 28.87,4.94 28.83,5.12 28.8,5.3 28.71,5.21 "/>
   <polygon class="fil0" points="26.49,2.25 26.57,2.34 26.36,2.59 26.44,2.68 26.28,2.72 26.12,2.76 26.15,2.58 26.19,2.4 26.27,2.5 "/>
   <polygon class="fil0" points="18.8,11.4 18.88,11.49 18.67,11.73 18.75,11.83 18.59,11.87 18.43,11.91 18.46,11.73 18.5,11.55 18.58,11.64 "/>
   <polygon class="fil0" points="20.02,3.78 20.1,3.87 19.88,4.11 19.97,4.21 19.81,4.25 19.65,4.29 19.68,4.11 19.71,3.93 19.8,4.02 "/>
   <polygon class="fil0" points="24.72,9.99 24.64,9.9 24.85,9.66 24.77,9.56 24.93,9.52 25.09,9.48 25.06,9.66 25.02,9.85 24.94,9.75 "/>
   <polygon class="fil0" points="14.81,1.87 14.9,1.79 15.1,2.05 15.19,1.97 15.21,2.15 15.23,2.34 15.07,2.28 14.91,2.22 15.01,2.14 "/>
   <polygon class="fil0" points="22.69,13.94 22.78,13.86 22.97,14.12 23.07,14.03 23.08,14.22 23.1,14.4 22.94,14.34 22.79,14.29 22.88,14.2 "/>
   <polygon class="fil0" points="28.25,3.16 28.16,3.24 27.97,2.98 27.87,3.07 27.86,2.89 27.84,2.7 28,2.76 28.15,2.81 28.06,2.9 "/>
   <polygon class="fil0" points="23.97,1.86 23.89,1.77 24.11,1.53 24.02,1.44 24.18,1.4 24.34,1.35 24.31,1.54 24.28,1.72 24.19,1.62 "/>
   <polygon class="fil0" points="14.59,10.29 14.68,10.38 14.46,10.63 14.55,10.72 14.39,10.76 14.22,10.8 14.26,10.62 14.29,10.44 14.38,10.54 "/>
   <polygon class="fil0" points="26.72,4.65 26.81,4.57 27.01,4.83 27.1,4.74 27.12,4.93 27.14,5.11 26.98,5.06 26.82,5 26.92,4.91 "/>
   <polygon class="fil0" points="22.86,6.54 22.94,6.63 22.73,6.88 22.81,6.97 22.65,7.01 22.49,7.05 22.52,6.87 22.56,6.69 22.64,6.79 "/>
   <rect class="fil3 str1" x="13.78" y="0.31" width="16.14" height="14.67"/>
  </g>
  <text x="0.78" y="21.2"  class="fil0 fnt0">Asociación Mexicana de Empresarios de Redes y Transportes</text>
 </g>
</svg>
