<?xml version="1.0" encoding="UTF-8"?>
<!DOCTYPE svg PUBLIC "-//W3C//DTD SVG 1.1//EN" "http://www.w3.org/Graphics/SVG/1.1/DTD/svg11.dtd">
<!-- Creator: CorelDRAW 2019 (64-Bit) -->
<svg xmlns="http://www.w3.org/2000/svg" xml:space="preserve" width="100px" height="91px" version="1.1" style="shape-rendering:geometricPrecision; text-rendering:geometricPrecision; image-rendering:optimizeQuality; fill-rule:evenodd; clip-rule:evenodd"
viewBox="0 0 3.84 3.49"
 xmlns:xlink="http://www.w3.org/1999/xlink"
 xmlns:xodm="http://www.corel.com/coreldraw/odm/2003">
 <defs>
  <style type="text/css">
   <![CDATA[
    .str1 {stroke:#2A2F56;stroke-width:0.06;stroke-miterlimit:22.9256}
    .str0 {stroke:#FEFEFE;stroke-width:0.01;stroke-miterlimit:22.9256}
    .fil2 {fill:none}
    .fil0 {fill:#FEFEFE}
    .fil4 {fill:#FEFEFE}
    .fil5 {fill:#ED3237}
    .fil1 {fill:#B0AFB0}
    .fil3 {fill:#2A2F56}
    .fil6 {fill:#201E1E}
   ]]>
  </style>
    <clipPath id="id0">
     <path d="M0.02 0.03l3.79 0 0 3.44 -3.79 0 0 -3.44z"/>
    </clipPath>
    <clipPath id="id1">
     <path d="M3.62 3c0.1,0.02 0.17,0.11 0.16,0.2 -0.02,0.08 -0.09,0.14 -0.17,0.14l-0.03 0.04 -0.01 0 -0.03 -0.05c-0.08,-0.03 -0.13,-0.11 -0.12,-0.19 0.02,-0.09 0.1,-0.16 0.2,-0.14z"/>
    </clipPath>
 </defs>
 <g id="Capa_x0020_1">
  <metadata id="CorelCorpID_0Corel-Layer"/>
  <g id="_2068968039248">
   <polygon class="fil0" points="0.02,0.03 3.81,0.03 3.81,3.47 0.02,3.47 "/>
   <g style="clip-path:url(#id0)">
    <g>
     <polygon id="1" class="fil1" points="-0.18,-0.22 -0.08,-0.29 0.59,0.74 0.66,-0.27 0.78,-0.26 0.7,0.91 1.77,2.54 1.96,-0.78 2.08,-0.78 2.02,0.34 3.83,3.44 3.87,3.54 3.67,3.57 2.01,0.52 1.88,2.71 2.46,3.6 2.36,3.67 0.69,1.11 0.53,3.56 0.41,3.55 0.58,0.95 "/>
     <rect class="fil1" transform="matrix(0.436464 -0.495221 0.555994 0.572844 2.07724 -0.590151)" width="0.2" height="5.53"/>
     <polygon class="fil1" points="3.6,-0.32 3.68,-0.22 0.45,3.65 0.36,3.56 "/>
     <polygon class="fil1" points="2.92,-0.96 3.01,-0.87 -0.22,3.01 -0.31,2.92 "/>
     <polygon class="fil1" points="1.79,-1.67 1.88,-1.57 -1.36,2.3 -1.44,2.21 "/>
     <polygon class="fil1" points="4.19,0.27 4.28,0.36 1.04,4.24 0.96,4.14 "/>
     <polygon class="fil1" points="3.71,-1.29 3.8,-1.19 0.56,2.68 0.48,2.59 "/>
     <polygon class="fil1" points="5.81,4.85 5.71,4.93 2.8,0.75 2.9,0.67 "/>
     <polygon class="fil1" points="2.21,-1.22 2.3,-1.12 -0.94,2.75 -1.02,2.66 "/>
    </g>
   </g>
   <polygon class="fil2 str0" points="0.02,0.03 3.81,0.03 3.81,3.47 0.02,3.47 "/>
   <polygon class="fil3" points="0.55,3.15 0.44,3.15 0.59,0.74 1.77,2.55 1.91,0.15 3.7,3.24 3.55,3.35 2.01,0.53 1.87,2.92 0.69,1.12 "/>
   <path class="fil0" d="M0.44 3.11c0,-0.02 0.02,-0.03 0.04,-0.03 0.01,-0.01 0.02,-0.01 0.03,0 0.03,0 0.04,0.01 0.05,0.04 -0.01,0 -0.03,0.01 -0.04,0.01 -0.02,-0.01 -0.05,-0.01 -0.08,-0.02z"/>
   <path class="fil4" d="M0.44 3.34c0,0 0,-0.1 0,-0.1l0 -0.08 0.05 -0.03 0.07 0.03 0 0.06 -0.01 0.12 -0.01 0.06 -0.07 0c0,0 -0.02,-0.04 -0.03,-0.04 0,0 0,-0.02 0,-0.02z"/>
   <path class="fil5" d="M0.5 3.39c-0.01,0 -0.03,-0.01 -0.04,-0.01 0,-0.01 0,-0.01 0,-0.02 0,-0.01 0,-0.01 0,-0.01 0,-0.03 0,-0.02 0.02,-0.02 0.01,0 0.03,0 0.05,0 0,0 0.01,0 0.01,0 0,0 0,0 0,0.01 0,0 0,0.01 0,0.01 0,0.01 0,0.02 0,0.02 -0.01,0.01 -0.03,0.02 -0.04,0.02zm-0.05 -0.06c0,-0.01 0,-0.02 0,-0.03 0,-0.01 -0.01,-0.02 -0.01,-0.03 0.01,0 0.01,0.01 0.01,0.01l0 0.01c0,0.01 0,0.01 0,0.02 0,0 0,0 0,0.01l0 0.01c0,0 0,0 0,0zm0.1 0c0,0 0,0 0,0 -0.01,-0.02 -0.01,-0.04 -0.01,-0.05 0.01,0 0.01,-0.01 0.01,-0.01l0 0.06zm-0.09 -0.06c0,-0.01 0,-0.02 0,-0.02 0,-0.01 0,-0.02 0.01,-0.02l0.06 0c0,0 0,0.01 0,0.03 0,0 0.01,0.01 0,0.01l-0.06 0c-0.01,0 -0.01,0 -0.01,0zm0.09 0c0,0 0,0.01 -0.01,0.01 0,-0.03 0.01,-0.06 0.01,-0.08 0,0 0,-0.01 0,-0.01l0 0c0,0.01 0,0.03 0,0.04 0,0.02 0,0.03 0,0.04zm-0.11 -0.08l0 0c0,0 0.01,0.01 0.01,0.01 0,0.01 0,0.04 0,0.05 0,0.01 0,0.02 0,0.03 0,0 0,-0.01 -0.01,-0.01 0,-0.01 0,-0.02 0,-0.04 0,-0.01 0,-0.03 0,-0.04zm0.01 -0.02c0,0 0.01,-0.01 0.02,-0.01 0.02,-0.01 0.05,-0.01 0.07,0.01 0.01,0 0.01,0 0.01,0.01 0,0.02 -0.01,0.03 -0.01,0.04 -0.01,0 -0.03,0 -0.04,0 -0.01,0 -0.01,0 -0.01,0 0,0 0,0 0,0 -0.01,0 -0.01,0 -0.02,0l-0.02 0c0,-0.01 0,-0.05 0,-0.05zm0.1 -0.07c0,0 0,0.01 0,0.01 0,0 0,0 0,0 0,0 0,0 -0.01,0 0.01,-0.01 0,-0.01 0.01,-0.01zm-0.11 0.01l0 -0.01c0.01,0 0.01,0 0.01,0l0 0c0,0.01 0,0.01 -0.01,0.01zm0.1 -0.02c0,0 0,0 0,0 0,0 0,0.01 0,0.01 0,0 0,0 0,-0.01zm-0.09 0.01c0,0 0,0 0,0 0,-0.01 0,-0.01 0.01,-0.01 0,0 -0.01,0.01 -0.01,0.01zm-0.02 0.04c0,0.02 0.01,0.02 0.01,0.03 0,0.01 0,0.01 0,0.02 0,0 0,0.01 0,0.01 -0.01,0 -0.01,0 -0.01,0.01 0,0 0,0 0,0 0,0 0,0 0.01,0 0,0.01 0,0.02 0,0.04l0 0.08c0,0.01 0,0.01 0,0.01 0,0.01 0,0.01 0,0.02 0,0.01 0,0.02 0,0.03 0,0 0,0 0.01,0.01 0.01,0.01 0.02,0.01 0.03,0.01 0,0 0.01,0 0.01,0 0.02,0 0.04,0 0.05,-0.01 0.01,-0.01 0.01,-0.02 0.01,-0.03 0,-0.01 0.01,-0.01 0.01,-0.03l0 -0.12c0,0 0,-0.01 0,-0.01 0,0 0.01,0.01 0.01,0 0,0 0,0 -0.01,0 0,-0.01 0,-0.01 0,-0.01 0,-0.02 0,-0.03 0,-0.05 0,-0.02 0,-0.04 -0.01,-0.06 -0.01,0 -0.01,-0.01 -0.02,-0.01 0,0 -0.01,0 -0.02,0 0,0 0,0 0,0l-0.01 0 -0.02 0c0,0 0,0 0,0 -0.01,0 -0.02,0 -0.02,0 -0.02,0.01 -0.03,0.04 -0.03,0.06z"/>
   <path class="fil0" d="M3.62 3c0.1,0.02 0.17,0.11 0.16,0.2 -0.02,0.08 -0.09,0.14 -0.17,0.14l-0.03 0.04 -0.01 0 -0.03 -0.05c-0.08,-0.03 -0.13,-0.11 -0.12,-0.19 0.02,-0.09 0.1,-0.16 0.2,-0.14z"/>
   <g style="clip-path:url(#id1)">
    <g>
     <path id="1" class="fil6" d="M3.46 3.25c0.01,0 0.01,0 0.01,0 0.01,0 0.02,0.01 0.03,0.01 0,0 0.01,0 0.01,0l0 0.02c0,0 0,0 -0.01,0.01 0,0 0,0 0,0l0 0.02c-0.01,0 -0.03,0 -0.04,0 -0.01,-0.01 -0.02,-0.01 -0.01,-0.03l0.01 -0.03c0,0 0,0 0,0 0,0 0,0 0,0zm0.29 0.02l0 0 -0.07 0.26 -0.01 0.03c0,0.01 0,0.01 0,0.01l-0.01 0.03c-0.01,0.01 -0.01,0.01 -0.01,0.02l0 0.01c0,0.01 -0.01,0.01 -0.01,0.02 0,0 0,0.01 0,0.01l0 0c0,0 -0.01,0 -0.01,-0.01 -0.01,0 0,-0.01 0,-0.01l0.03 -0.1c0,-0.02 0.01,-0.04 0.01,-0.05 0.01,-0.02 0.01,-0.03 0.01,-0.04 0,0 0,0 0,0l0 0 0.01 -0.04 0 0c0,0 0,0 0,0l0.01 -0.03c0,0 0,-0.01 0,-0.01 -0.01,-0.03 -0.03,-0.05 -0.06,-0.06 0,-0.01 -0.01,-0.01 -0.02,-0.01l-0.01 0c-0.01,0 -0.01,0 -0.02,0 0,0 -0.01,0.01 -0.01,0.01 -0.04,0 -0.1,0.02 -0.13,-0.01 -0.02,-0.02 -0.03,-0.03 -0.04,-0.05 -0.01,-0.01 -0.01,-0.01 0,-0.02l0.01 -0.04c0,-0.01 0,-0.02 0,-0.02 0.01,-0.02 0.01,-0.04 0.02,-0.06l0.04 -0.14c0,0 0,-0.01 0.01,-0.02l0.02 0.04c0.02,0.05 0.06,0.04 0.09,0.04 0.01,0 0.01,0 0.01,0 0.01,0 0.01,0 0.01,0 0.02,-0.01 0.04,-0.01 0.06,-0.01 0.02,0 0.04,0 0.06,0.01 0.03,0.02 0.03,0.04 0.04,0.06 0.01,0 0.02,0 0.02,0.01 0,0.01 -0.01,0.02 -0.01,0.03 0,0 0,0 0,0.01l-0.02 0.07c0,0.01 -0.01,0.04 -0.02,0.05l0 0.01zm-0.19 0.03c0,0 0,0 0,-0.01l0.01 -0.03c0,0 0,0 0,-0.01 -0.01,0 -0.05,0.01 -0.06,0.01 0,-0.01 0.01,-0.01 0.01,-0.02l0 -0.02c0.01,-0.01 0.01,-0.01 0.01,-0.02 -0.01,0 -0.02,0 -0.04,-0.01 -0.01,0 -0.01,0 -0.01,0l-0.02 0.04c0,0 0,0.01 0,0.01 -0.01,-0.01 -0.01,-0.01 -0.02,-0.02 -0.01,-0.01 -0.01,-0.03 -0.02,-0.04 0.01,0 0.02,-0.04 0.02,-0.05 0.02,0.04 0.01,0.03 0.04,0.06 0,-0.01 0.01,-0.05 0.01,-0.06 0.01,0 0.01,0.01 0.01,0.01 0.01,0 0.02,0 0.02,0.01 0.01,0 0.02,0 0.02,0l0 0.02c0,0.01 -0.01,0.02 -0.01,0.03 0,0 0.05,0 0.06,0 0,0 -0.01,0.02 -0.01,0.02l-0.01 0.02c0,0 0,0.01 0,0.01 0.01,0 0.02,0 0.03,0 0.01,0 0.02,-0.01 0.03,0l-0.02 0.05c0,0 -0.02,0 -0.02,0 -0.01,0 -0.02,0 -0.03,0zm0.12 -0.04c0.01,0.01 0.01,0.01 0.02,0.03 0.01,0.01 0.01,0.02 0.02,0.02 0,0.01 -0.01,0.02 -0.01,0.04l-0.01 0.02 -0.01 -0.02c-0.01,-0.02 -0.01,-0.02 -0.02,-0.04 0,0 0,0 0,0l0.01 -0.05zm-0.09 -0.07c0,0 0.01,-0.03 0.01,-0.04 0,0 0,0 0,-0.01 0,0 -0.04,0.01 -0.05,0.01 0,-0.01 0,-0.02 0,-0.02 0,-0.01 0,-0.01 0,-0.01 0,-0.01 0.01,-0.02 0.01,-0.03 -0.01,0 -0.01,0 -0.02,0l-0.02 -0.01c0,0 -0.01,0 -0.01,0 -0.01,0.01 -0.01,0.04 -0.02,0.05 -0.01,-0.01 -0.03,-0.04 -0.03,-0.05 0,-0.01 0.01,-0.05 0.01,-0.06 0.01,0.02 0.01,0.02 0.02,0.04 0.01,0.01 0.01,0.01 0.02,0.01 0,0 0.01,-0.04 0.02,-0.05 0,0.01 0.01,0.01 0.02,0.01l0.03 0.01c-0.01,0 -0.01,0 -0.01,0.01l-0.01 0.03c0,0 0,0.01 0,0.01 0.01,0 0.02,0 0.03,0l0.03 -0.01c0,0.01 -0.01,0.02 -0.01,0.03 0,0.01 -0.01,0.02 -0.01,0.03 0.01,0 0.01,0 0.02,0 0.01,0 0.04,-0.01 0.04,0 0,0 0,0.01 -0.01,0.01 0,0.01 0,0.01 0,0.01 0,0.01 0,0.02 0,0.03 0,0 0.01,0 0.01,0 0.01,0 0.03,0.01 0.04,0.02 -0.01,0 -0.01,0.04 -0.02,0.05 -0.01,-0.01 0,-0.01 -0.02,-0.01 -0.01,0 -0.01,0 -0.02,-0.01 0,0 0,0 -0.01,0 0,0 0.01,-0.02 0.01,-0.03 0,0 0,-0.01 0,-0.01 0,0 0.01,-0.01 0.01,-0.01l-0.05 0c0,0 -0.01,0 -0.01,0zm0.12 -0.04c0.02,0.01 0.02,0.01 0.03,0.03 0,0.01 0.01,0.02 0.01,0.03 0,0 0,0 0,0.01 -0.01,0.01 -0.01,0.03 -0.02,0.04 0,-0.01 0,-0.02 -0.01,-0.03 -0.01,-0.01 -0.01,-0.02 -0.02,-0.03 0,0 0,0 0,0l0.01 -0.02c0,-0.01 0,-0.01 0,-0.02 0,-0.01 0,0 0,-0.01zm-0.09 -0.07c0,0 0,-0.01 0,-0.01 0.02,-0.04 0,-0.04 0.04,-0.05l0.03 0c0,0.01 0,0.02 0,0.03 -0.01,0 -0.01,0.01 -0.01,0.01 0,0 0,0.01 0,0.02 0,0 0.04,0 0.05,0.01 0,0 -0.01,0.02 -0.01,0.02l0 0.02c0,0.01 -0.01,0.01 -0.01,0.02 0,-0.01 -0.02,-0.01 -0.02,-0.01 -0.01,-0.01 -0.02,-0.01 -0.03,-0.01 0,0 0,0 0,-0.01 0.01,0 0.01,0 0.01,0 0,-0.01 0,-0.01 0,-0.01l0 -0.02c0,0 0.01,-0.01 0.01,-0.01 -0.02,0 -0.03,0 -0.05,0 0,0 0,0 -0.01,0zm0.13 -0.04c0.01,0.01 0.03,0.03 0.03,0.05 0,0.02 -0.01,0.03 -0.01,0.05 0,0 0,0.01 0,0.01 -0.01,-0.02 -0.01,-0.03 -0.03,-0.04 0,-0.01 -0.01,-0.01 -0.01,-0.02l0 -0.01c0.01,-0.01 0.01,-0.03 0.02,-0.04z"/>
    </g>
   </g>
   <path class="fil2" d="M3.62 3c0.1,0.02 0.17,0.11 0.16,0.2 -0.02,0.08 -0.09,0.14 -0.17,0.14l-0.03 0.04 -0.01 0 -0.03 -0.05c-0.08,-0.03 -0.13,-0.11 -0.12,-0.19 0.02,-0.09 0.1,-0.16 0.2,-0.14z"/>
   <polygon class="fil4" points="0.68,0.55 0.65,0.55 0.66,0.47 0.63,0.47 0.65,0.43 0.67,0.4 0.69,0.43 0.71,0.47 0.68,0.47 "/>
   <polygon class="fil4" points="1,0.34 0.98,0.32 1.03,0.27 1.01,0.24 1.05,0.24 1.08,0.23 1.08,0.27 1.07,0.31 1.05,0.29 "/>
   <polygon class="fil4" points="0.12,1.4 0.11,1.38 0.16,1.32 0.13,1.3 0.17,1.29 0.21,1.28 0.2,1.32 0.2,1.36 0.17,1.34 "/>
   <polygon class="fil4" points="0.84,2.27 0.82,2.25 0.87,2.19 0.85,2.17 0.89,2.16 0.93,2.15 0.92,2.19 0.91,2.23 0.89,2.21 "/>
   <polygon class="fil4" points="1.68,1.27 1.66,1.25 1.71,1.19 1.69,1.17 1.73,1.16 1.77,1.15 1.76,1.19 1.75,1.23 1.73,1.21 "/>
   <polygon class="fil4" points="1.72,3.34 1.7,3.32 1.75,3.26 1.73,3.24 1.77,3.23 1.81,3.22 1.8,3.26 1.79,3.3 1.77,3.28 "/>
   <polygon class="fil4" points="3.48,1.23 3.46,1.21 3.51,1.16 3.49,1.13 3.52,1.12 3.56,1.11 3.55,1.16 3.55,1.2 3.53,1.18 "/>
   <polygon class="fil4" points="3.01,0.49 3.02,0.51 2.97,0.56 2.99,0.59 2.96,0.6 2.92,0.6 2.93,0.56 2.93,0.52 2.95,0.54 "/>
   <polygon class="fil4" points="1.21,2.63 1.22,2.65 1.17,2.7 1.2,2.73 1.16,2.74 1.12,2.75 1.13,2.7 1.13,2.66 1.16,2.68 "/>
   <polygon class="fil4" points="1.49,0.84 1.51,0.86 1.46,0.92 1.48,0.94 1.44,0.95 1.4,0.96 1.41,0.92 1.42,0.88 1.44,0.9 "/>
   <polygon class="fil4" points="2.59,2.3 2.57,2.28 2.62,2.22 2.6,2.2 2.64,2.19 2.68,2.18 2.67,2.22 2.66,2.26 2.64,2.24 "/>
   <polygon class="fil4" points="0.27,0.4 0.29,0.38 0.34,0.44 0.36,0.42 0.37,0.46 0.37,0.5 0.33,0.49 0.3,0.48 0.32,0.46 "/>
   <polygon class="fil4" points="2.12,3.22 2.14,3.2 2.18,3.26 2.2,3.24 2.21,3.28 2.21,3.33 2.18,3.32 2.14,3.3 2.16,3.28 "/>
   <polygon class="fil4" points="3.42,0.7 3.4,0.72 3.35,0.66 3.33,0.68 3.33,0.63 3.32,0.59 3.36,0.6 3.4,0.62 3.37,0.64 "/>
   <polygon class="fil4" points="2.42,0.39 2.4,0.37 2.45,0.32 2.43,0.29 2.46,0.28 2.5,0.28 2.5,0.32 2.49,0.36 2.47,0.34 "/>
   <polygon class="fil4" points="0.22,2.37 0.24,2.39 0.19,2.45 0.21,2.47 0.17,2.48 0.13,2.49 0.14,2.44 0.15,2.4 0.17,2.42 "/>
   <polygon class="fil4" points="3.06,1.05 3.08,1.03 3.13,1.09 3.15,1.07 3.15,1.11 3.16,1.15 3.12,1.14 3.08,1.13 3.11,1.11 "/>
   <polygon class="fil4" points="2.16,1.49 2.17,1.51 2.12,1.57 2.15,1.59 2.11,1.6 2.07,1.61 2.08,1.57 2.08,1.52 2.11,1.55 "/>
   <rect class="fil2 str1" x="0.03" y="0.03" width="3.78" height="3.43"/>
  </g>
 </g>
</svg>
