<?xml version="1.0" encoding="UTF-8"?>
<!DOCTYPE svg PUBLIC "-//W3C//DTD SVG 1.1//EN" "http://www.w3.org/Graphics/SVG/1.1/DTD/svg11.dtd">
<!-- Creator: CorelDRAW 2019 (64-Bit) -->
<svg xmlns="http://www.w3.org/2000/svg" xml:space="preserve" width="65px" height="27px" version="1.1" style="shape-rendering:geometricPrecision; text-rendering:geometricPrecision; image-rendering:optimizeQuality; fill-rule:evenodd; clip-rule:evenodd"
viewBox="0 0 56.21 23.4"
 xmlns:xlink="http://www.w3.org/1999/xlink"
 xmlns:xodm="http://www.corel.com/coreldraw/odm/2003">
 <defs>
  <style type="text/css">
   <![CDATA[
    .fil0 {fill:#FEFEFE}
   ]]>
  </style>
 </defs>
 <g id="Capa_x0020_1">
  <metadata id="CorelCorpID_0Corel-Layer"/>
  <path class="fil0" d="M21.91 7.63l-10.96 -0.34 -0.6 -3.32 11.55 -0.71 0.01 4.37zm14.4 0.45l-11.3 -0.35 -0.05 -4.64c3.64,0.08 8.14,1.44 11.35,3.51l0 1.48zm16.14 6.82l-1.82 -2.53 4.88 -0.01c-0.28,-0.89 -0.54,-1.52 -0.54,-1.52l-11.83 -3c-3.81,-4.3 -10.82,-7.14 -16.52,-7.68 -0.06,0 -0.13,-0.01 -0.19,-0.01 -0.22,-0.02 -0.43,-0.04 -0.64,-0.05 -0.08,0 -0.17,-0.01 -0.25,-0.01 -0.24,-0.01 -0.47,-0.05 -0.71,-0.05 -0.03,0 -0.06,-0.04 -0.08,-0.04 -0.02,0 -0.03,0 -0.04,0l-17.73 1.14 0 0.02 -2.38 0.14 -3.63 8.04c-0.22,0.25 -0.44,0.53 -0.59,0.83l1.91 0 0 2.54 -2.29 0 0 2.24c0.01,1.76 1.33,3.21 3.04,3.41 0.2,-2.89 2.61,-5.19 5.55,-5.19 2.94,0 5.35,2.3 5.54,5.19l22.09 -0.04c0.22,-2.87 2.62,-5.15 5.55,-5.15 2.92,0 5.31,2.26 5.54,5.13l6.69 -0.02c0,0 2.22,-1 2.21,-2.22 0,-0.37 -0.03,-0.77 -0.09,-1.16l-3.67 0z"/>
  <path class="fil0" d="M10.44 18.74c0,1.02 -0.83,1.86 -1.85,1.86 -1.03,0 -1.86,-0.84 -1.86,-1.86 0,-1.03 0.83,-1.86 1.86,-1.86 1.02,0 1.85,0.83 1.85,1.86zm-1.85 -4.66c-2.57,0 -4.66,2.09 -4.66,4.66 0,2.57 2.09,4.66 4.66,4.66 2.56,0 4.65,-2.09 4.65,-4.66 0,-2.57 -2.09,-4.66 -4.65,-4.66z"/>
  <path class="fil0" d="M43.62 18.74c0,1.02 -0.83,1.86 -1.85,1.86 -1.03,0 -1.86,-0.84 -1.86,-1.86 0,-1.03 0.83,-1.86 1.86,-1.86 1.02,0 1.85,0.83 1.85,1.86zm-1.85 -4.66c-2.57,0 -4.66,2.09 -4.66,4.66 0,2.57 2.09,4.66 4.66,4.66 2.57,0 4.65,-2.09 4.65,-4.66 0,-2.57 -2.08,-4.66 -4.65,-4.66z"/>
 </g>
</svg>
