<?xml version="1.0" encoding="UTF-8"?>
<!DOCTYPE svg PUBLIC "-//W3C//DTD SVG 1.1//EN" "http://www.w3.org/Graphics/SVG/1.1/DTD/svg11.dtd">
<!-- Creator: CorelDRAW 2019 (64-Bit) -->
<svg xmlns="http://www.w3.org/2000/svg" xml:space="preserve" width="60px" height="82px" version="1.1" style="shape-rendering:geometricPrecision; text-rendering:geometricPrecision; image-rendering:optimizeQuality; fill-rule:evenodd; clip-rule:evenodd"
viewBox="0 0 18.32 24.92"
 xmlns:xlink="http://www.w3.org/1999/xlink"
 xmlns:xodm="http://www.corel.com/coreldraw/odm/2003">
 <defs>
  <style type="text/css">
   <![CDATA[
    .fil0 {fill:#FEFEFE}
   ]]>
  </style>
 </defs>
 <g id="Capa_x0020_1">
  <metadata id="CorelCorpID_0Corel-Layer"/>
  <g id="_2834995096816">
   <path class="fil0" d="M4.4 8.52c0.61,0.36 1.3,0.54 1.98,0.54 0.68,0 1.36,-0.18 1.97,-0.54 1.45,-0.86 2.24,-2.56 2.16,-4.67 -0.1,-2.55 -2.2,-3.78 -4.11,-3.85 -0.02,0 -0.03,0 -0.04,0 -1.91,0.07 -4.02,1.3 -4.11,3.85 -0.08,2.11 0.71,3.81 2.15,4.67zm1.98 -7.4c1.42,0.06 2.89,0.93 2.99,2.69l-0.42 0c-0.65,-0.73 -1.57,-1.13 -2.57,-1.13 0,0 0,0 0,0 -1,0 -1.93,0.4 -2.57,1.13l-0.42 0c0.1,-1.76 1.56,-2.63 2.99,-2.69zm-2.3 3.83c0.18,0 0.35,-0.08 0.46,-0.23 0.43,-0.59 1.1,-0.92 1.84,-0.92 0.74,0 1.41,0.33 1.84,0.92 0.11,0.15 0.28,0.23 0.46,0.23l0.64 0c-0.17,1.19 -0.71,2.09 -1.55,2.59 -0.86,0.51 -1.93,0.51 -2.79,-0.01 -0.83,-0.49 -1.37,-1.39 -1.54,-2.58l0.64 0zm14.24 13.62c0,3.5 -2.85,6.35 -6.35,6.35 -0.32,0 -0.57,-0.25 -0.57,-0.56 0,-0.32 0.25,-0.57 0.57,-0.57 2.87,0 5.22,-2.34 5.22,-5.22 0,-0.32 0.25,-0.57 0.56,-0.57 0.32,0 0.57,0.25 0.57,0.57zm-2.35 -0.12c0,-0.26 -0.03,-0.51 -0.07,-0.76 0,-0.01 -0.01,-0.02 -0.01,-0.03 -0.37,-1.89 -2.04,-3.32 -4.04,-3.32 -2.27,0 -4.11,1.84 -4.11,4.11 0,2.27 1.84,4.12 4.11,4.12 2.27,0 4.12,-1.85 4.12,-4.12zm-1.16 0.13c-0.06,1.39 -1.05,2.54 -2.41,2.8l0 -2.37c0.85,-0.05 1.66,-0.19 2.41,-0.43zm-2.96 -3.11c1.29,0 2.39,0.82 2.8,1.97 -0.84,0.29 -1.8,0.45 -2.8,0.45 -1,0 -1.95,-0.16 -2.8,-0.45 0.42,-1.15 1.52,-1.97 2.8,-1.97zm-0.59 5.91c-1.3,-0.26 -2.35,-1.41 -2.41,-2.8 0.75,0.24 1.56,0.38 2.41,0.43l0 2.37zm-8.79 -7.26l-1.22 6.56 4.8 0c0.31,0 0.56,0.26 0.56,0.57 0,0.32 -0.25,0.57 -0.56,0.57l-5.48 0c-0.17,0 -0.33,-0.08 -0.44,-0.21 -0.11,-0.13 -0.15,-0.3 -0.12,-0.47l1.34 -7.23c0.32,-1.72 1.58,-2.98 3.46,-3.47 1,-0.26 2.1,-0.26 3.1,-0.01 1.08,0.27 1.98,0.82 2.61,1.58 0.21,0.24 0.17,0.6 -0.07,0.8 -0.24,0.2 -0.6,0.17 -0.8,-0.08 -0.96,-1.15 -2.83,-1.64 -4.55,-1.19 -0.55,0.14 -1.02,0.36 -1.42,0.65l2.93 2.93c0.22,0.23 0.22,0.59 0,0.81 -0.22,0.22 -0.58,0.22 -0.8,0l-2.91 -2.91c-0.21,0.33 -0.36,0.7 -0.43,1.1z"/>
   <g>
   </g>
   <g>
   </g>
   <g>
   </g>
   <g>
   </g>
   <g>
   </g>
   <g>
   </g>
   <g>
   </g>
   <g>
   </g>
   <g>
   </g>
   <g>
   </g>
   <g>
   </g>
   <g>
   </g>
   <g>
   </g>
   <g>
   </g>
   <g>
   </g>
  </g>
 </g>
</svg>
