<?xml version="1.0" encoding="UTF-8"?>
<!DOCTYPE svg PUBLIC "-//W3C//DTD SVG 1.1//EN" "http://www.w3.org/Graphics/SVG/1.1/DTD/svg11.dtd">
<!-- Creator: CorelDRAW 2019 (64-Bit) -->
<svg xmlns="http://www.w3.org/2000/svg" xml:space="preserve" width="65px" height="65px" version="1.1" style="shape-rendering:geometricPrecision; text-rendering:geometricPrecision; image-rendering:optimizeQuality; fill-rule:evenodd; clip-rule:evenodd"
viewBox="0 0 29.96 29.96"
 xmlns:xlink="http://www.w3.org/1999/xlink"
 xmlns:xodm="http://www.corel.com/coreldraw/odm/2003">
 <defs>
  <style type="text/css">
   <![CDATA[
    .fil0 {fill:#FEFEFE}
   ]]>
  </style>
 </defs>
 <g id="Capa_x0020_1">
  <metadata id="CorelCorpID_0Corel-Layer"/>
  <g id="_2871104069344">
   <g>
    <g id="Shape_29_2_">
     <g>
      <path class="fil0" d="M14.98 0c-8.26,0 -14.98,6.72 -14.98,14.98 0,8.26 6.72,14.98 14.98,14.98 8.26,0 14.98,-6.72 14.98,-14.98 0,-8.26 -6.72,-14.98 -14.98,-14.98zm0 28.89c-7.67,0 -13.91,-6.24 -13.91,-13.91 0,-7.67 6.24,-13.91 13.91,-13.91 7.67,0 13.91,6.24 13.91,13.91 0,7.67 -6.24,13.91 -13.91,13.91zm0 -26.96c-7.2,0 -13.05,5.85 -13.05,13.05 0,7.19 5.85,13.05 13.05,13.05 7.19,0 13.04,-5.86 13.04,-13.05 0,-7.2 -5.85,-13.05 -13.04,-13.05zm11.97 12.61l-3.89 0 0 -1.6 3.72 0c0.09,0.52 0.15,1.05 0.17,1.6zm-11.97 -11.54c5.53,0 10.2,3.77 11.57,8.87l-3.62 0c-0.4,-1.53 -1.8,-2.67 -3.46,-2.67l-9.07 0c-1.66,0 -3.06,1.14 -3.47,2.67l-3.52 0c1.37,-5.1 6.04,-8.87 11.57,-8.87zm7.01 9.79l0 4.84 -3.43 1.12c-2.34,0.77 -4.91,0.77 -7.26,0l-3.43 -1.12 0 -4.84c0,-1.39 1.14,-2.52 2.53,-2.52l9.07 0c1.39,0 2.52,1.13 2.52,2.52zm-18.82 0.15l3.64 0 0 1.6 -3.8 0c0.02,-0.55 0.07,-1.08 0.16,-1.6zm-0.16 2.66l3.8 0 0 2.8 4.16 1.36c0.64,0.21 1.28,0.37 1.94,0.47l-1.73 6.11c-4.56,-1.53 -7.91,-5.73 -8.17,-10.74zm11.97 11.36c-0.96,0 -1.89,-0.12 -2.78,-0.33l1.78 -6.27c0.32,0.02 0.64,0.03 0.95,0.03 0.36,0 0.72,-0.01 1.08,-0.04l1.79 6.27c-0.91,0.22 -1.85,0.34 -2.82,0.34zm3.84 -0.64l-1.74 -6.11c0.61,-0.11 1.22,-0.25 1.82,-0.45l4.16 -1.36 0 -2.8 3.88 0c-0.25,4.99 -3.58,9.18 -8.12,10.72zm-3.84 -14.91c-1.97,0 -3.57,1.6 -3.57,3.57 0,1.97 1.6,3.57 3.57,3.57 1.97,0 3.57,-1.6 3.57,-3.57 0,-1.97 -1.6,-3.57 -3.57,-3.57zm0 6.07c-1.38,0 -2.51,-1.12 -2.51,-2.5 0,-1.38 1.13,-2.5 2.51,-2.5 1.38,0 2.5,1.12 2.5,2.5 0,1.38 -1.12,2.5 -2.5,2.5z"/>
     </g>
    </g>
   </g>
   <g>
   </g>
   <g>
   </g>
   <g>
   </g>
   <g>
   </g>
   <g>
   </g>
   <g>
   </g>
   <g>
   </g>
   <g>
   </g>
   <g>
   </g>
   <g>
   </g>
   <g>
   </g>
   <g>
   </g>
   <g>
   </g>
   <g>
   </g>
   <g>
   </g>
  </g>
 </g>
</svg>
