<svg height="512pt" viewBox="0 -7 512.00021 512" width="512pt" xmlns="http://www.w3.org/2000/svg"><g fill="#8c808a"><path d="m175.863281 72.800781 58.003907 114.25h47.179687c-3.996094-2.308593-47.210937-129.820312-108.066406-158.039062 6.402343 20.433593 2.882812 43.789062 2.882812 43.789062zm0 0"/><path d="m63.621094 86.980469 69.453125-35.050781.328125-28.652344c-39.140625 1.179687-57.660156 13.339844-82.417969-.566406-4.855469-2.726563-10.871094.769531-10.855469 6.339843.042969 16.179688 3.410156 43.226563 23.492188 57.929688zm0 0"/><path d="m503.003906 295.394531c1.078125-67.261719-62.566406-87.203125-62.570312-87.203125 21.484375 15.011719 33.652344 38.894532 38.34375 74.363282 2.898437 21.914062 2.527344 53.171874.632812 84.800781 9 4.753906 16.765625 6.445312 22.929688 6.71875 6.773437.300781 11.585937-6.511719 8.90625-12.742188-4.257813-9.878906-8.828125-29.121093-8.242188-65.9375zm0 0"/></g><path d="m133.074219 51.933594-123.226563 62.1875c-7.320312 3.695312-11.171875 11.871094-9.433594 19.882812 3.699219 17.082032 13.949219 44.175782 42.019532 48.851563 41.542968 6.925781 79.40625-4.863281 79.40625-4.863281s68.085937 125.070312 68.085937 157.878906v134.601562c0 15.371094 12.460938 27.832032 27.832031 27.832032 15.371094 0 27.828126-12.460938 27.828126-27.832032v-134.601562h130.074218s11.714844 28.710937 40.425782 39.84375v96.722656c0 14.285156 11.582031 25.867188 25.867187 25.867188 12.539063 0 23.257813-8.988282 25.46875-21.328126 6.617187-36.957031 18.257813-142.210937 11.355469-194.421874-9.375-70.894532-48.628906-95.5-132.414063-95.5-83.785156 0-112.496093 0-112.496093 0l-58.003907-114.253907s9.453125-62.679687-30.773437-72.53125c-5.824219-1.425781-11.460938 2.960938-11.527344 8.957031zm0 0" fill="#dd8858"/><path d="m147.605469 72.800781 45.210937 89.054688c7.847656 15.457031 23.714844 25.195312 41.050782 25.195312l-58.003907-114.25s9.4375-62.582031-30.683593-72.507812c-5.855469-1.449219-11.550782 2.898437-11.617188 8.933593l-.007812.308594c20.511718 20.40625 14.050781 63.265625 14.050781 63.265625zm0 0" fill="#d97f4a"/><path d="m478.777344 282.554688c-9.375-70.894532-48.628906-95.503907-132.414063-95.503907-10.226562 0-19.625 0-28.257812 0 83.785156 0 123.039062 24.609375 132.414062 95.503907 6.902344 52.210937-4.738281 157.460937-11.359375 194.421874-1.296875 7.246094-5.542968 13.316407-11.355468 17.109376 4.066406 2.664062 8.925781 4.214843 14.148437 4.214843 12.535156 0 23.257813-8.984375 25.464844-21.324219 6.621093-36.960937 18.261719-142.210937 11.359375-194.421874zm0 0" fill="#d97f4a"/><path d="m217.328125 470.472656c0 10.210938-5.503906 19.132813-13.699219 23.972656 4.140625 2.449219 8.96875 3.855469 14.128906 3.855469 15.367188 0 27.828126-12.457031 27.828126-27.828125v-134.601562c-15.605469 0-28.257813 12.652344-28.257813 28.257812zm0 0" fill="#d97f4a"/><path d="m116.523438 93.351562c-8.933594 0-15.933594 8.691407-15.933594 19.789063 0 11.09375 7 19.789063 15.933594 19.789063 8.933593 0 15.929687-8.695313 15.929687-19.789063 0-11.097656-6.996094-19.789063-15.929687-19.789063zm0 0" fill="#433f43"/><path d="m42.457031 140.765625-2.265625-7.460937c-1.261718-4.148438-5.644531-6.492188-9.792968-5.230469-4.148438 1.261719-6.488282 5.644531-5.230469 9.792969l2.269531 7.460937c1.027344 3.390625 4.140625 5.570313 7.507812 5.570313.753907 0 1.523438-.109376 2.285157-.339844 4.144531-1.261719 6.488281-5.644532 5.226562-9.792969zm0 0" fill="#ca6d36"/></svg>