<svg enable-background="new 0 0 256 256" height="512" viewBox="0 0 256 256" width="512" xmlns="http://www.w3.org/2000/svg"><path d="m65.352 131.549c-10.687 30.804 3.248 51.396 20.994 59.22-.164 9.636-1.425 25.802-4.678 40.561-.442 2.005-1.805 3.704-3.696 4.503-3.607 1.524-9.474 5.295-10.798 13.958-.297 1.945 1.185 3.71 3.152 3.71h29.144c1.721 0 3.132-1.366 3.188-3.087l.374-11.588c.028-.866.23-1.71.595-2.496 1.841-3.959 7.824-21.927 10.798-40.481 20.487.976 45.779-1.711 60.516-10.2 3.365 6.576 8.528 13.149 16.208 19.28.785.627 1.111 1.668.793 2.621l-3.722 25.099c-.233 1.312-1.113 2.428-2.35 2.927-3.83 1.545-11.954 5.974-11.846 15.713.014 1.217.979 2.212 2.197 2.212h29.648c1.162 0 2.104-.942 2.104-2.104v-7.216c0-4.689.724-9.349 2.179-13.806 1.939-5.943 5.203-18.43 9.913-25.22 2.178-3.14 2.352-7.299.295-10.52-2.748-4.303-5.448-10.968-3.085-18.645 3.388-11.01 15.103-46.309-11.486-62.109-10.216-6.071-22.697-6.894-33.899-2.926-14.03 4.97-36.072 12.522-52.659.597-10.635-7.645-12.736-19.593-12.692-19.49-.585-2.383-.901-4.83-.964-7.284-.875-34.148-17.372-46.863-21.752-49.645-.625-.397-.889-1.155-.699-1.871 5.794-21.729-14.938-39.165-19.197-26.466-2.985 8.9.062 16.762 2.256 20.805.631 1.162-.252 2.543-1.572 2.475-14.374-.744-28.364 11.056-34.606 30.394-6.732 20.857-13.139 16.33-21.438 28.076-5.024 7.111-1.47 14.122 2.117 18.548 2.398 2.959 6.404 4.074 10 2.82 8.984 3.146 15.489-2.663 20.77-10.138s23.063-7.718 23.063-7.718 9.62 14.17.835 39.491z" fill="#e3e4e5"/><path d="m74.314 31.744c2.613-22.917-10.854-23.154-10.909-23.155-2.05 8.153.732 15.242 2.777 19.011.251.462.255.956.095 1.383z" fill="#fd605b"/><path d="m174.025 251.272c-.099-9.738 8.034-14.162 11.857-15.702 1.229-.495 2.105-1.604 2.336-2.909l3.724-25.112c.318-.953-.008-1.994-.793-2.621-7.679-6.13-12.843-12.703-16.208-19.28-4.581 2.638-10.191 4.708-16.35 6.29 3.122 4.443 7.179 8.819 12.405 12.99.785.627 1.111 1.668.793 2.621l-3.724 25.112c-.232 1.305-1.107 2.414-2.336 2.909-3.823 1.54-11.956 5.964-11.857 15.702.012 1.225.974 2.228 2.199 2.228h20.153c-1.226 0-2.187-1.003-2.199-2.228z" fill="#e3e4e5"/><path d="m77.972 235.832c1.891-.799 3.254-2.498 3.696-4.503 3.253-14.758 4.514-30.925 4.678-40.561-5.45-2.403-10.473-5.994-14.533-10.709l-8.065 18.863c-2.347 5.49-1.951 11.767 1.067 16.918l10.206 21.553c1.052-.679 2.069-1.189 2.951-1.561z" fill="#e3e4e5"/><path d="m242.334 196.287c-2.073-4.471-2.985-17.833-3.777-33.673-.902-18.041-11.725-25.654-18.742-32.613 3.111 7.678 3.393 16.2 2.527 23.979 3.859 1.043 8.919 3.232 8.784 18.033-.124 13.609 3.744 23.323 6.229 27.081.677 1.024 1.923 1.505 3.112 1.197 1.743-.452 2.625-2.369 1.867-4.004z" fill="#e3e4e5"/><g fill="#52565b"><path d="m207.974 251.39v-7.209c0-2.091.155-4.174.445-6.238-9.432-4.635-19.265-3.201-21.947-2.681-.187.118-.381.225-.59.309-3.823 1.54-11.956 5.964-11.857 15.702.012 1.225.974 2.228 2.199 2.228h29.647c1.165-.001 2.103-.946 2.103-2.111z"/><path d="m174.025 251.272c-.086-8.483 6.073-12.932 10.19-14.956-8.048-2.605-15.598-1.501-17.896-1.056-.187.118-.381.225-.59.309-3.823 1.54-11.956 5.964-11.857 15.702.012 1.225.974 2.228 2.199 2.228h20.153c-1.226.001-2.187-1.002-2.199-2.227z"/><path d="m79.972 234.459c-.565.576-1.237 1.051-2 1.373-3.608 1.524-9.477 5.297-10.799 13.964-.296 1.942 1.188 3.704 3.153 3.704h29.144c1.721 0 3.132-1.366 3.188-3.087l.374-11.588c.005-.162.023-.323.04-.483-8.954-5.301-18.8-4.567-23.1-3.883z"/><path d="m41.454 99.777c.152-.215.317-.423.489-.627 2.603-10.844-2.596-13.244-7.386-15.06-1.624-.616-2.374-2.437-1.689-4.033 3.185-7.414-1.131-19.417-2.075-21.864-.274.748-.54 1.504-.789 2.277-6.731 20.857-13.138 16.33-21.437 28.076-5.024 7.111-1.47 14.122 2.117 18.548 2.398 2.958 6.404 4.074 10 2.82 8.984 3.146 15.489-2.663 20.77-10.137z"/><path d="m60.169 92.35c2.582-.266 4.347-.291 4.347-.291s2.866-.498 6.553-1.862c-3.391-4.273-7.991-9.018-13.409-11.944-.904-.488-1.915.479-1.455 1.398 1.361 2.72 3.221 7.242 3.964 12.699z"/><path d="m78.983 86.156c2.871-2.003 5.447-4.618 6.903-8.01-3.142-2.866-6.833-5.594-10.867-7.36-.941-.412-1.869.636-1.335 1.513 1.727 2.842 4.224 7.778 5.299 13.857z"/><path d="m105.576 84.778c-.212-8.262-1.343-15.259-2.991-21.175-1.262 6.945-4.917 20.737-14.863 29.695-.772.696-.066 1.95.923 1.629 4.36-1.414 10.919-3.717 17.204-6.596-.15-1.178-.242-2.365-.273-3.553z"/><path d="m249.011 209.527c.9-2.22 1.535-5.055-.092-6.694-4.547-4.579-.551-8.136-7.113-7.986.168.541.342 1.039.529 1.44.758 1.634-.124 3.552-1.868 4.004-1.189.308-2.434-.173-3.112-1.197-.395-.597-.827-1.362-1.27-2.252l-.075.026c-.511.529-.923 1.142-1.169 1.841-.452 1.288-.425 2.886.819 4.704 3.318 4.848-2.757 9.273 3.231 12.479 4.489 2.404 7.916 2.944 8.614 5.259.208.692 1.306.674 1.588-.013.677-1.649 1.06-3.784.065-5.94-.825-1.788-.906-3.802-.147-5.671z"/><path d="m238.557 162.614c-.19-3.802-.825-7.137-1.768-10.104-2.102 3.546-4.255 7.062-6.444 10.555.521 2.308.815 5.23.781 8.948-.006.676.005 1.334.018 1.99.805-.743 1.585-1.528 2.394-2.252 1.623-1.452 3.416-2.673 5.302-3.752-.098-1.757-.191-3.552-.283-5.385z"/><path d="m237.354 199.093c.677 1.024 1.923 1.505 3.112 1.198 1.744-.452 2.626-2.369 1.868-4.004-.986-2.127-1.708-6.284-2.281-11.747-2.539.419-5.078.838-7.616 1.257 1.323 6.378 3.383 10.976 4.917 13.296z"/><path d="m206.026 216.043c-5.348-.045-10.598 1.286-15.75 2.744l-1.008 6.799c7.296-.718 14.697-.368 21.886 1.067.05.01.1.022.15.032.85-2.777 1.87-6.093 3.061-9.425-2.708-.778-5.521-1.194-8.339-1.217z"/><path d="m218.489 191.2c-2.364 1.921-5.373 3.275-8.219 4.46-4.726 1.967-9.451 3.935-14.177 5.902 8.228 2.065 16.882 2.399 25.248.996.84-2.625.548-5.533-.979-7.925-.65-1.016-1.295-2.169-1.873-3.433z"/><path d="m212.815 182.981c1.18-.467 2.369-.909 3.562-1.343.026-1.719.281-3.518.826-5.377-3.198.79-6.27 2.442-9.445 3.479-5.532 1.807-11.536 1.745-17.081 3.51-4.816 1.534-9.264 4.433-14.234 5.118 1.875 3.177 4.191 6.339 7.035 9.437 6.206-1.304 12.018-4.512 17.3-8.132 1.887-1.294 3.738-2.649 5.726-3.782 2.014-1.148 4.155-2.057 6.311-2.91z"/><path d="m207.057 156.231c-10.325 2.839-19.999 8.017-28.088 15.033 4.449-1.539 8.929-3.086 13.585-3.783 5.909-.885 11.931-.376 17.896-.717 3.351-.191 6.78-.697 9.938-1.801.949-3.984 1.796-8.527 2.173-13.293-4.803 2.189-10.338 3.14-15.504 4.561z"/><path d="m220.592 132.105c-1.497.826-3.106 1.482-4.729 1.994-3.802 1.199-7.778 1.796-11.549 3.087-9.741 3.335-17.297 10.963-24.475 18.344 7.318-4.14 14.792-8.332 23.028-10.023 5.537-1.137 11.267-1.108 16.789-2.316.989-.217 1.98-.486 2.956-.807-.267-3.473-.905-6.939-2.02-10.279z"/><path d="m205.79 113.88c-6.619-3.934-14.189-5.651-21.745-5.302-.143 1.21-.286 2.419-.429 3.629-.205 1.731-.427 3.517-1.298 5.026-1.075 1.863-2.987 3.056-4.808 4.199-5.17 3.243-10.358 6.824-13.67 11.95-4.555 7.049-4.907 15.92-5.118 24.31-.116 4.618-.232 9.237-.349 13.855 1.023-9.063 2.209-18.568 7.524-25.98 5.622-7.84 14.887-12.012 23.461-16.435 6.868-3.543 13.915-7.892 18.174-14.13-.57-.379-1.135-.761-1.742-1.122z"/><path d="m155.599 190.853c-3.492-7.357-9.717-13.168-13.072-20.588-3.32-7.341-3.532-16.028-.576-23.523 1.946-4.933 5.145-9.253 8.309-13.51 4.94-6.647 9.881-13.295 14.821-19.942-6.393 2.08-13.726 4.04-21.164 4.518-2.074 5.139-5.16 10.081-8.119 14.754-5.785 9.138-11.546 19.838-8.609 30.247 2.096 7.43 8.188 12.908 13.63 18.385 3.653 3.677 7.254 7.883 9.193 12.586 2.138-.374 4.24-.797 6.288-1.272-.208-.566-.447-1.119-.701-1.655z"/><path d="m125.798 196.006c1.088-8.779-.209-17.858-3.816-25.94-2.726-6.109-6.774-11.868-7.395-18.529-1.18-12.663 10.212-23.63 13.523-35.492-3.072-1.01-6.055-2.464-8.878-4.493-2.068-1.487-3.81-3.137-5.279-4.828-.198.813-.366 1.634-.482 2.463-.697 4.958.048 10.085-1.115 14.956-1.426 5.974-5.556 10.918-7.854 16.614-3.971 9.842-1.846 21.863 5.259 29.746 2.653 2.944 5.911 5.327 8.337 8.46 3.744 4.836 5.127 10.896 5.795 17.07.633-.007 1.268-.015 1.905-.027z"/><path d="m108.758 98.63c-1.745-3.792-2.239-6.618-2.217-6.568-.108-.44-.197-.885-.287-1.33-2.08 1.316-3.819 3.259-5.058 5.405-2.036 3.523-2.947 7.565-3.831 11.537-1.292 5.806-2.585 11.613-3.878 17.419-.501 2.249-1.043 4.588-2.498 6.374-2.245 2.757-6.073 3.545-9.062 5.471-4.828 3.111-7.077 8.864-9.522 14.061-2.15 4.57-5.156 9.344-9.667 11.254 1.114 4.941 3.02 9.349 5.507 13.196 3.39-2.023 6.304-5.267 8.324-8.696 3.701-6.283 5.757-13.576 10.454-19.153 3.594-4.266 8.631-7.393 11.178-12.355 2.182-4.253 2.212-9.231 2.788-13.976.969-7.98 3.647-15.741 7.769-22.639z"/><path d="m76.969 112.396c-2.675 1.079-5.426 2.046-8.112 3.127-.365 4.387-1.308 9.35-3.121 14.859 2.852-1.425 5.678-2.901 8.471-4.437 3.231-1.776 6.487-3.677 8.899-6.465 2.356-2.722 3.76-6.117 5.126-9.448 1.314-3.205 2.628-6.41 3.942-9.615-2.856 5.958-9.078 9.508-15.205 11.979z"/><path d="m85.236 208.416c.19-1.865.352-3.678.49-5.43-2.022-1.139-4.348-1.761-6.562-2.531-4.704-1.634-9.108-4.113-12.967-7.259l-2.448 5.726c-.545 1.276-.936 2.595-1.187 3.931 2.566.917 5.06 2.033 7.428 3.38 1.562.889 3.094 1.877 4.811 2.406 3.353 1.035 6.906.203 10.435-.223z"/><path d="m64.862 215.942 4.137 8.737c1.083-.457 2.129-1.011 3.117-1.64 2.823-1.797 5.251-4.138 7.658-6.462-4.676-1.766-9.869-.796-14.912-.635z"/><path d="m191.535 210.298.408-2.749c.318-.953-.008-1.994-.793-2.621-.391-.312-.771-.626-1.149-.941-2.56 1.836-5.074 3.743-8.104 4.469-3.331.798-7.036.099-10.335.632l-1.787 12.048c3.033-.266 6-.862 8.666-2.289 2.64-1.414 4.806-3.554 7.234-5.307 1.814-1.31 3.791-2.388 5.86-3.242z"/><path d="m174.942 185.649c-4.581 2.638-10.191 4.708-16.35 6.29 2.466 3.51 5.528 6.977 9.277 10.335.311-.144.619-.291.923-.448 4.1-2.108 7.547-5.628 11.563-7.71-2.176-2.799-3.963-5.633-5.413-8.467z"/><path d="m174.025 251.272c-.099-9.738 8.034-14.162 11.857-15.702 1.229-.495 2.105-1.604 2.336-2.909l1.055-7.113c-4.588-.576-9.33.044-13.587 1.853-1.209.513-2.385 1.12-3.651 1.471-1.135.315-2.295.406-3.463.366l-.508 3.423c-.232 1.304-1.107 2.414-2.336 2.909-3.823 1.54-11.956 5.964-11.857 15.702.013 1.225.974 2.228 2.199 2.228h20.153c-1.225 0-2.186-1.003-2.198-2.228z"/><path d="m108.607 221.542c-2.792-.147-5.59-.195-8.385-.133-1.876.041-3.782.135-5.556.749-1.773.614-3.422 1.822-4.16 3.547 1.776 1.021 3.879 1.241 5.88 1.677 3.257.709 6.318 2.027 9.283 3.57.869-2.538 1.886-5.745 2.938-9.41z"/><path d="m113.388 201.697c-2.088-.006-4.308.352-6.376.121-3.761-.418-6.964-2.816-10.476-4.227-3.318-1.333-7.164-1.932-10.284-3.494-.089 2.385-.235 5.033-.447 7.875 3.621 3.843 7.698 7.121 12.671 8.725 4.051 1.306 8.375 1.378 12.64 1.378.808-3.316 1.582-6.808 2.272-10.378z"/></g><path d="m83.125 33.262c-.191.715.074 1.474.699 1.87 4.38 2.782 20.878 15.497 21.752 49.645.063 2.453.379 4.9.964 7.284-.039-.091 1.59 9.167 9.245 16.599-6.491-28.139 11.058-65.007-14.65-86.568-6.417-5.382-13.623-8.936-21.043-11.184 3.419 5.665 5.351 13.663 3.033 22.354z" fill="#e3e4e5"/><path d="m66.183 27.6c-2.105-3.879-4.98-11.277-2.574-19.731-16.454-1.33-31.893 1.908-40.078 4.114-2.442.658-3.09 3.812-1.115 5.392 10.917 8.734 15.119 19.05 16.739 25.706 6.989-8.695 16.141-13.487 25.457-13.006 1.319.069 2.201-1.313 1.571-2.475z" fill="#e3e4e5"/><path d="m56.758 30.924c2.574-.683 5.206-.986 7.852-.849 1.321.068 2.203-1.313 1.572-2.475-2.105-3.879-4.98-11.277-2.574-19.731-5.313-.43-10.515-.378-15.407-.044 2.952 4.746 6.784 12.558 8.557 23.099z" fill="#52565b"/><path d="m101.135 22.092c-.269-.225-.547-.429-.818-.648-1.059 5.198-3.499 12.784-9.102 20.214 2.542 2.895 5.289 6.803 7.7 11.951 3.805-2.306 9.253-6.334 14.464-12.771-2.066-6.959-5.792-13.335-12.244-18.746z" fill="#52565b"/><path d="m103.114 65.599c1.062 4.283 1.844 9.111 2.228 14.522 3.252.192 6.45-.021 9.397-.442.323-5.036.709-10.098.878-15.086-4.78.757-9.26.974-12.503 1.006z" fill="#52565b"/><path d="m205.87 256h-29.646c-2.565 0-4.673-2.109-4.699-4.702-.116-11.361 9.349-16.405 13.423-18.047.072-.028.134-.068.196-.107.261-.164.549-.277.852-.336 2.967-.576 13.432-2.069 23.526 2.891.97.477 1.523 1.522 1.373 2.592-.279 1.985-.42 3.967-.42 5.89v7.21c-.001 2.541-2.066 4.609-4.605 4.609zm-29.346-5h28.95v-6.82c0-1.549.082-3.128.243-4.717-7.782-3.226-15.544-2.321-18.371-1.821-.18.096-.356.178-.533.248-3.835 1.546-10.235 5.296-10.289 13.11z"/><path d="m176.224 256h-20.154c-2.565 0-4.673-2.109-4.699-4.702-.116-11.361 9.349-16.405 13.423-18.047.417-.167.727-.561.809-1.025l3.712-25.044c.017-.113.042-.227.074-.337-5.117-4.092-9.438-8.623-12.844-13.469-.472-.672-.584-1.532-.3-2.303s.929-1.352 1.724-1.556c6.284-1.615 11.575-3.646 15.724-6.035.593-.342 1.3-.426 1.957-.231s1.205.649 1.517 1.259c3.478 6.796 8.707 13.009 15.542 18.464 1.535 1.226 2.191 3.255 1.68 5.118l-3.698 24.938c-.4 2.251-1.844 4.042-3.875 4.86-3.841 1.547-10.248 5.303-10.292 13.128 1.239.148 2.199 1.203 2.199 2.482.001 1.381-1.119 2.5-2.499 2.5zm-19.853-5h15.153c.051-11.151 9.385-16.122 13.423-17.749.416-.167.726-.561.809-1.026l3.712-25.043c.017-.113.042-.227.074-.337-6.62-5.292-11.861-11.275-15.61-17.812-3.23 1.634-6.958 3.084-11.134 4.333 2.752 3.406 6.022 6.628 9.757 9.608 1.536 1.227 2.192 3.256 1.68 5.119l-3.698 24.937c-.399 2.251-1.843 4.041-3.875 4.86-3.837 1.546-10.237 5.296-10.291 13.11z"/><path d="m176.224 256h-20.154c-2.565 0-4.673-2.109-4.699-4.702-.116-11.361 9.349-16.405 13.423-18.047.072-.028.134-.068.197-.107.261-.163.549-.277.851-.336 2.295-.446 10.458-1.68 19.143 1.13.969.314 1.65 1.184 1.724 2.199s-.477 1.974-1.391 2.423c-4.005 1.97-8.756 5.725-8.793 12.458 1.239.148 2.199 1.203 2.199 2.482 0 1.381-1.12 2.5-2.5 2.5zm-19.853-5h15.153c.029-6.354 3.083-10.698 6.406-13.545-4.863-.653-8.958-.128-10.738.188-.179.095-.355.177-.532.247-3.835 1.546-10.235 5.296-10.289 13.11z"/><path d="m174.944 188.148c-.86 0-1.697-.443-2.162-1.24-7.756-13.298-2.004-28.259-1.755-28.889.508-1.285 1.961-1.915 3.243-1.408 1.283.506 1.914 1.955 1.41 3.238-.052.133-5.092 13.373 1.422 24.539.695 1.192.292 2.724-.9 3.419-.397.232-.83.341-1.258.341z"/><path d="m99.47 256h-29.144c-1.657 0-3.227-.722-4.308-1.979-1.089-1.269-1.569-2.945-1.316-4.602 1.517-9.945 8.355-14.225 12.297-15.89.435-.184.834-.46 1.188-.82.375-.383.863-.635 1.393-.719 4.189-.667 14.987-1.589 24.766 4.2.844.5 1.318 1.447 1.211 2.423-.011.098-.023.195-.027.295l-.374 11.586c-.099 3.087-2.597 5.506-5.686 5.506zm-18.375-19.18c-.655.547-1.375.987-2.151 1.314-3.639 1.538-8.207 4.875-9.3 12.038-.044.293.085.495.167.59.093.108.258.237.515.237h29.144c.374 0 .677-.293.689-.667l.341-10.56c-7.515-3.888-15.564-3.473-19.405-2.952z"/><path d="m75.02 239.894c-.229 0-.46-.031-.685-.096-.692-.197-1.266-.684-1.574-1.334l-10.16-21.457c-3.352-5.792-3.784-12.911-1.151-19.066l8.065-18.863c.339-.794 1.064-1.356 1.917-1.488.854-.131 1.713.186 2.276.84 3.664 4.255 8.383 7.731 13.647 10.053.92.405 1.508 1.323 1.491 2.33-.174 10.249-1.51 26.417-4.737 41.056-.622 2.821-2.553 5.165-5.165 6.268-.889.376-1.752.833-2.568 1.359-.408.262-.88.398-1.356.398zm2.952-4.062h.01zm-5.355-51.292-6.57 15.365c-2.027 4.74-1.681 10.225.925 14.672.037.063.071.128.102.193l9.065 19.145c.285-.136.572-.264.861-.386 1.121-.474 1.953-1.497 2.227-2.738 2.982-13.528 4.308-28.406 4.584-38.443-4.131-2.014-7.93-4.666-11.194-7.808z"/><path d="m86.347 193.269c-.008 0-.015 0-.023 0-1.38-.013-2.49-1.142-2.478-2.522l.192-21.497c.012-1.373 1.129-2.478 2.5-2.478h.023c1.38.013 2.49 1.142 2.478 2.522l-.192 21.497c-.013 1.373-1.13 2.478-2.5 2.478z"/><path d="m114.428 198.349c-.109 0-.219-.007-.33-.021-1.369-.181-2.333-1.437-2.152-2.806l1.051-7.975c.181-1.369 1.438-2.339 2.805-2.151 1.369.181 2.333 1.437 2.152 2.806l-1.051 7.975c-.165 1.257-1.239 2.172-2.475 2.172z"/><path d="m205.87 256h-29.648c-2.561 0-4.667-2.102-4.697-4.684-.126-11.366 9.337-16.416 13.411-18.06.423-.171.739-.572.824-1.047l3.71-25.027c.017-.114.042-.228.074-.338-6.62-5.292-11.861-11.274-15.609-17.812-15.458 7.841-39.097 10.023-57.406 9.403-3.11 17.968-8.797 34.997-10.635 38.947-.224.481-.346.994-.363 1.521l-.374 11.589c-.099 3.087-2.597 5.506-5.686 5.506h-29.145c-1.657 0-3.227-.722-4.307-1.979-1.09-1.27-1.57-2.949-1.317-4.608 1.52-9.943 8.356-14.22 12.297-15.884 1.121-.474 1.954-1.497 2.227-2.738 2.981-13.528 4.308-28.406 4.584-38.443-16.994-8.275-32.137-29-20.82-61.618l2.362.819-2.362-.819c4.301-12.398 3.919-21.877 2.842-27.645-.771-4.125-1.997-6.995-2.744-8.474-5.403.293-16.215 1.828-19.591 6.607-4.59 6.496-11.914 14.64-22.84 11.316-4.364 1.152-9.057-.34-11.916-3.867-6.012-7.419-6.799-15.077-2.216-21.564 3.309-4.683 6.395-6.999 9.118-9.043 4.29-3.221 7.995-6.002 11.984-18.358 6.271-19.429 20.497-32.16 35.706-32.16h.009c-2.237-4.59-4.794-12.571-1.785-21.541 1.627-4.853 5.547-6.992 10.234-5.583 8.466 2.546 17.962 16.586 13.892 32.942 5.674 3.795 21.524 17.426 22.393 51.354.06 2.308.36 4.579.893 6.752.022.088.039.177.05.265.132.673 2.34 11.082 11.673 17.791 15.764 11.332 37.424 3.66 50.365-.924 12.239-4.338 25.364-3.193 36.011 3.134 27.631 16.42 16.513 52.341 12.86 64.145l-.262.849c-2.09 6.791.371 12.756 2.803 16.563 2.583 4.045 2.447 9.262-.348 13.29-3.661 5.277-6.532 14.654-8.432 20.858-.428 1.397-.814 2.657-1.159 3.713-1.364 4.181-2.056 8.565-2.056 13.03v7.216c0 2.541-2.065 4.606-4.604 4.606zm-29.346-5h28.95v-6.82c0-4.993.775-9.898 2.303-14.581.336-1.031.713-2.262 1.131-3.626 1.991-6.501 5-16.326 9.104-22.244 1.642-2.367 1.737-5.408.242-7.749-3-4.698-6.02-12.106-3.368-20.726l.265-.855c3.721-12.023 13.606-43.962-10.638-58.368-9.365-5.566-20.951-6.557-31.786-2.72-13.863 4.91-37.066 13.129-54.954.271-9.342-6.717-13.071-17.123-13.61-20.938l-.05.013c-.619-2.52-.967-5.149-1.035-7.814-.834-32.559-15.974-44.665-20.594-47.6-1.539-.976-2.251-2.835-1.773-4.626 3.72-13.952-4.593-25.677-10.359-27.41-2.043-.618-3.295.119-4.054 2.384-2.702 8.055.145 15.247 2.083 18.817.721 1.328.67 2.944-.133 4.219-.807 1.279-2.25 1.995-3.766 1.945-13.428-.707-26.338 10.824-32.097 28.665-4.476 13.867-8.976 17.245-13.74 20.821-2.664 2-5.181 3.889-8.036 7.93-3.266 4.624-2.587 9.85 2.018 15.531 1.721 2.125 4.631 2.941 7.235 2.034.534-.186 1.116-.187 1.649.001 6.399 2.242 11.752-.518 17.902-9.221 5.847-8.275 23.12-8.748 25.07-8.775.864.025 1.63.4 2.103 1.096.421.621 10.22 15.509 1.128 41.714-6.587 18.986-5.396 45.074 19.641 56.113.92.405 1.508 1.323 1.491 2.33-.174 10.249-1.51 26.417-4.737 41.056-.622 2.821-2.553 5.165-5.165 6.268-3.638 1.537-8.205 4.872-9.3 12.033-.045.296.085.5.167.596.093.107.257.236.514.236h29.145c.374 0 .677-.293.689-.667l.374-11.589c.039-1.204.317-2.371.827-3.469 1.83-3.932 7.668-21.55 10.598-39.822.201-1.258 1.312-2.153 2.587-2.102 17.902.853 44.135-1.221 59.149-9.869.594-.341 1.301-.424 1.957-.231.657.194 1.205.649 1.517 1.259 3.478 6.796 8.707 13.009 15.542 18.464 1.535 1.226 2.191 3.255 1.68 5.118l-3.695 24.923c-.401 2.259-1.85 4.056-3.887 4.879-3.837 1.547-10.23 5.297-10.284 13.106z"/><path d="m20.687 112.414c-.8 0-1.587-.383-2.07-1.095-.775-1.142-.479-2.694.66-3.471.098-.068 4.363-3.05 8.512-8.923.797-1.128 2.358-1.396 3.484-.6 1.128.797 1.396 2.356.6 3.484-4.734 6.701-9.579 10.033-9.783 10.172-.431.293-.92.433-1.403.433z"/><path d="m74.317 34.244c-.094 0-.19-.005-.286-.016-1.372-.157-2.357-1.396-2.201-2.768.911-7.989-.152-14.013-3.073-17.418-2.406-2.805-5.297-2.949-5.419-2.954-1.367-.054-2.454-1.197-2.417-2.565.037-1.355 1.13-2.434 2.482-2.434h.036c.206.003 5.089.122 8.992 4.558 3.998 4.543 5.467 11.736 4.368 21.38-.147 1.276-1.228 2.217-2.482 2.217z"/><path d="m64.514 94.559c-1.195 0-2.251-.859-2.461-2.076-.234-1.361.68-2.653 2.04-2.888.129-.022 13.268-2.396 18.462-10.489 2.168-3.378 2.643-7.223 1.452-11.754-.351-1.336.447-2.702 1.782-3.054 1.34-.349 2.703.447 3.054 1.782 1.547 5.886.843 11.184-2.091 15.744-6.4 9.946-21.185 12.591-21.811 12.698-.144.025-.286.037-.427.037z"/><path d="m14.091 101.354c-1.375 0-2.492-1.11-2.5-2.487-.011-2.14.912-4.169 2.531-5.567 1.621-1.398 3.764-2.01 5.876-1.692l.227.035c1.364.212 2.299 1.489 2.088 2.854s-1.48 2.297-2.854 2.088l-.221-.034c-.911-.146-1.549.275-1.849.535-.3.259-.804.832-.799 1.757.007 1.381-1.106 2.506-2.487 2.513-.003-.002-.007-.002-.012-.002z"/><path d="m47.487 67.93c-1.377 0-2.495-1.113-2.5-2.491-.008-2.283.875-4.433 2.483-6.053 1.609-1.619 3.752-2.515 6.036-2.522h.028c2.272 0 4.411.881 6.023 2.483 1.62 1.609 2.516 3.753 2.523 6.036.004 1.381-1.111 2.503-2.492 2.508-.002 0-.005 0-.008 0-1.377 0-2.496-1.114-2.5-2.492-.003-.947-.375-1.837-1.047-2.505-.669-.664-1.557-1.03-2.5-1.03-.004 0-.007 0-.012 0-.947.003-1.836.375-2.504 1.047-.667.672-1.034 1.563-1.03 2.511.004 1.381-1.111 2.504-2.492 2.509-.002-.001-.005-.001-.008-.001z"/><path d="m115.786 111.16c-.635 0-1.264-.241-1.743-.706-6.294-6.112-9.418-14.268-9.868-17.812l-.063.016c-.619-2.52-.967-5.149-1.035-7.815-.834-32.558-15.974-44.664-20.594-47.599-1.538-.976-2.251-2.834-1.773-4.624 1.862-6.987.857-14.43-2.758-20.419-.535-.886-.469-2.01.167-2.827.635-.816 1.709-1.157 2.699-.857 8.332 2.524 15.708 6.447 21.924 11.66 17.501 14.679 16.085 35.819 14.716 56.264-.724 10.802-1.471 21.972.763 31.659.249 1.08-.243 2.194-1.208 2.739-.384.216-.807.321-1.227.321zm-6.768-19.43c.073.372.767 3.677 2.929 7.694-.53-7.617.002-15.56.522-23.319 1.345-20.083 2.615-39.052-12.94-52.099-4.293-3.6-9.204-6.533-14.652-8.756 1.998 5.723 2.306 12.052.805 18.109 5.673 3.794 21.525 17.423 22.394 51.353.06 2.309.36 4.58.893 6.753.021.089.037.178.049.265zm-25.893-58.467h.01z"/><path d="m39.153 45.581c-.181 0-.363-.02-.543-.06-.929-.207-1.661-.924-1.886-1.849-1.606-6.599-5.664-16.179-15.872-24.346-1.656-1.325-2.416-3.437-1.983-5.512.432-2.068 1.968-3.695 4.01-4.246 7.997-2.154 23.944-5.562 40.931-4.192.746.061 1.426.452 1.853 1.067s.555 1.389.35 2.109c-2.192 7.702.542 14.492 2.367 17.854.721 1.328.67 2.944-.133 4.219-.807 1.279-2.25 1.995-3.766 1.945-8.33-.427-16.864 3.97-23.379 12.075-.48.6-1.201.936-1.949.936zm16.615-35.521c-13.266 0-25.125 2.596-31.588 4.338-.228.062-.368.209-.416.439-.034.163-.024.396.212.586 9.203 7.363 13.902 15.798 16.298 22.647 6.7-6.772 14.867-10.523 23.068-10.527-1.859-3.819-3.985-10.1-2.805-17.368-1.604-.078-3.197-.115-4.769-.115zm8.217 18.733h.01z"/><path d="m56.758 33.424c-.476 0-.947-.136-1.354-.398-.591-.381-.994-.993-1.111-1.687-1.712-10.179-5.412-17.688-8.214-22.193-.463-.745-.502-1.679-.102-2.46.399-.78 1.18-1.295 2.055-1.354 5.472-.374 10.779-.357 15.779.046.746.061 1.426.452 1.853 1.067s.555 1.389.35 2.109c-2.192 7.702.542 14.492 2.367 17.854.721 1.328.67 2.944-.133 4.219-.807 1.279-2.25 1.995-3.766 1.945-2.323-.123-4.707.139-7.083.769-.212.055-.427.083-.641.083zm-4.362-23.307c2.334 4.417 4.815 10.403 6.346 17.82 1.538-.261 3.076-.393 4.601-.395-1.859-3.819-3.985-10.099-2.805-17.367-2.641-.128-5.362-.148-8.142-.058z"/><path d="m98.916 56.109c-.243 0-.487-.035-.724-.107-.679-.205-1.239-.689-1.54-1.332-2.018-4.31-4.479-8.132-7.315-11.362-.782-.891-.831-2.208-.117-3.154 5.361-7.109 7.662-14.369 8.648-19.208.174-.855.782-1.558 1.604-1.854.822-.294 1.737-.141 2.417.407l.306.24c.183.143.366.285.545.435.001.001.002.002.003.003 6.371 5.345 10.635 11.87 13.034 19.95.235.79.065 1.645-.454 2.285-5.489 6.778-11.248 10.993-15.111 13.335-.396.239-.844.362-1.296.362zm-4.532-14.565c2.049 2.545 3.897 5.373 5.522 8.448 3.083-2.118 6.913-5.263 10.681-9.701-1.849-5.565-4.755-10.263-8.829-14.262-1.303 4.505-3.54 10.002-7.374 15.515z"/><path d="m107.785 82.691c-.878 0-1.742-.025-2.59-.075-1.253-.074-2.257-1.066-2.346-2.319-.355-5.008-1.082-9.751-2.16-14.097-.185-.742-.019-1.527.45-2.133.468-.604 1.188-.961 1.953-.969 2.903-.028 7.365-.22 12.136-.976.738-.118 1.488.102 2.047.597.559.494.868 1.212.843 1.958-.133 3.917-.401 7.922-.66 11.796l-.222 3.365c-.076 1.182-.97 2.147-2.142 2.314-2.511.36-4.96.539-7.309.539zm-.135-5.001c1.519.035 3.109-.076 4.73-.241l.086-1.31c.191-2.851.386-5.773.527-8.662-2.469.293-4.782.455-6.769.54.635 3.082 1.112 6.319 1.426 9.673z"/><path d="m25.616 113.305c-1.563 0-3.216-.239-4.959-.77-4.367 1.152-9.057-.34-11.916-3.867-6.012-7.419-6.799-15.077-2.216-21.564 3.309-4.683 6.395-7 9.118-9.043 4.29-3.221 7.995-6.002 11.983-18.357.259-.804.536-1.59.82-2.368.357-.979 1.284-1.632 2.326-1.642h.022c1.033 0 1.959.635 2.332 1.6 1.36 3.521 5.526 15.638 2.041 23.75-.082.19-.05.344-.01.439.054.127.151.218.288.271 4.243 1.608 12.141 4.604 8.93 17.979-.091.38-.27.732-.521 1.03-.126.148-.247.3-.358.457-3.857 5.459-9.644 12.085-17.88 12.085zm-4.932-5.891c.279 0 .559.047.826.141 6.399 2.242 11.752-.518 17.902-9.221 0 0 0 0 0-.001.072-.103.147-.203.224-.304 1.91-8.615-1.746-10.002-5.965-11.602-1.421-.539-2.528-1.603-3.118-2.993-.586-1.382-.579-2.973.019-4.365 1.416-3.295 1.086-8.189.041-12.873-3.896 9.803-7.833 12.758-11.969 15.862-2.664 2-5.181 3.889-8.036 7.93-3.266 4.624-2.587 9.85 2.018 15.531 1.721 2.125 4.631 2.941 7.235 2.034.266-.092.545-.139.823-.139z"/><path d="m60.874 48.304c-1.104 0-2.167-.477-2.912-1.354-3.767-4.438-8.431-7.673-11.68-9.605-.734-.437-1.194-1.217-1.221-2.07-.026-.854.385-1.662 1.09-2.144 3.814-2.603 7.871-4.318 12.058-5.102.992-.188 1.999.243 2.552 1.089 3.565 5.452 4.128 11.434 3.973 15.491-.061 1.592-1.077 2.959-2.589 3.48-.419.145-.848.215-1.271.215zm-8.562-13.024c2.342 1.624 4.935 3.677 7.368 6.147-.194-2.487-.796-5.354-2.241-8.105-1.738.456-3.451 1.111-5.127 1.958z"/><path d="m60.167 94.85c-1.235 0-2.304-.912-2.474-2.162-.693-5.084-2.407-9.288-3.723-11.92-.695-1.389-.411-3.051.708-4.135 1.122-1.09 2.797-1.322 4.172-.58 4.864 2.627 9.635 6.863 14.179 12.59.498.627.665 1.456.449 2.228s-.789 1.393-1.54 1.671c-3.857 1.427-6.867 1.959-6.993 1.98-.129.022-.262.035-.393.037-.017 0-1.703.027-4.126.277-.087.01-.174.014-.259.014zm.196-11.88c.722 1.951 1.403 4.206 1.893 6.693.96-.065 1.661-.09 2-.1.358-.07 1.267-.26 2.51-.604-2.112-2.363-4.251-4.364-6.403-5.989z"/><path d="m78.982 88.656c-.324 0-.65-.062-.958-.19-.789-.327-1.355-1.034-1.504-1.875-1.043-5.904-3.563-10.675-4.973-12.992-.808-1.328-.66-3.009.366-4.182 1.029-1.177 2.679-1.549 4.109-.921 3.819 1.673 7.705 4.298 11.548 7.802.787.718 1.033 1.855.613 2.834-1.485 3.46-4.1 6.514-7.77 9.074-.426.298-.927.45-1.431.45zm-.876-13.381c.868 1.856 1.712 3.996 2.393 6.369.908-.921 1.668-1.891 2.278-2.904-1.565-1.327-3.125-2.484-4.671-3.465z"/><path d="m88.333 97.478c-1.203 0-2.337-.63-2.969-1.726-.826-1.432-.544-3.204.687-4.312 9.297-8.374 12.809-21.314 14.075-28.283.208-1.146 1.181-1.996 2.345-2.05 1.152-.077 2.21.704 2.523 1.826 1.844 6.62 2.881 13.948 3.082 21.781.028 1.092.114 2.202.255 3.299.14 1.085-.443 2.136-1.438 2.591-6.382 2.925-13.025 5.259-17.475 6.701-.36.117-.726.173-1.085.173zm13.944-22.854c-1.798 5.18-4.498 10.89-8.533 15.914 2.935-1.06 6.195-2.324 9.435-3.748-.051-.651-.085-1.302-.102-1.948 0 0 0 0 0-.001-.09-3.526-.358-6.939-.8-10.217z"/><path d="m239.75 202.882c-1.773 0-3.469-.881-4.48-2.408-3.141-4.751-6.766-15.061-6.644-28.483.125-13.688-4.296-14.883-6.937-15.598-1.19-.322-1.968-1.464-1.832-2.689.981-8.819.188-16.478-2.359-22.764-.446-1.1-.057-2.362.932-3.02.988-.658 2.303-.53 3.146.306.888.88 1.837 1.771 2.82 2.692 7.05 6.614 15.823 14.845 16.659 31.571.491 9.83 1.406 28.128 3.548 32.746v.001c.677 1.462.673 3.133-.013 4.583-.68 1.438-1.954 2.492-3.496 2.892-.447.115-.898.171-1.344.171zm-14.727-50.643c4.6 1.868 8.726 6.298 8.603 19.796-.12 13.149 3.598 22.329 5.814 25.68.088.135.246.194.4.156.039-.011.16-.042.229-.189.036-.075.064-.196-.004-.344-2.133-4.601-3.084-16.17-4.005-34.599-.604-12.098-5.867-19.083-11.458-24.692.707 4.363.848 9.106.421 14.192z"/><path d="m248.26 224.16c-.057 0-.113-.001-.17-.004-1.413-.069-2.583-.967-2.98-2.286-.139-.462-1.878-1.219-3.276-1.827-1.215-.528-2.592-1.128-4.123-1.947-4.935-2.643-4.233-6.464-3.768-8.992.349-1.9.505-3.036-.346-4.279-1.941-2.836-1.678-5.341-1.115-6.943.352-1.001.934-1.926 1.729-2.75.27-.279.601-.492.966-.621 1.191-.418 2.582.088 3.145 1.217.393.79.78 1.477 1.118 1.987.089.134.246.195.4.157.039-.011.16-.042.229-.189.036-.075.064-.196-.004-.344-.212-.458-.418-1.014-.647-1.748-.233-.749-.101-1.564.357-2.202s1.189-1.022 1.973-1.04c4.894-.122 6.256 1.707 6.981 4.885.283 1.242.551 2.416 1.963 3.839 1.44 1.45 2.719 4.258.635 9.395-.483 1.19-.447 2.498.099 3.683 1.121 2.43 1.112 5.174-.022 7.938-.516 1.255-1.766 2.071-3.144 2.071zm1.636-3.734v.003c.001-.001 0-.002 0-.003zm-11.78-17.799c1.59 2.778 1.104 5.417.744 7.381-.42 2.284-.507 2.76 1.21 3.68 1.352.724 2.63 1.28 3.758 1.771 1.219.531 2.367 1.03 3.343 1.643-.062-.296-.157-.582-.284-.857-1.132-2.451-1.201-5.171-.193-7.656.885-2.181.864-3.576.451-3.992-1.558-1.569-2.33-3.078-2.774-4.359-.716 1.225-1.888 2.115-3.277 2.476-1.006.257-2.035.215-2.978-.087z"/><path d="m231.143 176.502c-.331 0-.663-.065-.979-.2-.905-.385-1.5-1.266-1.52-2.25-.014-.679-.024-1.361-.018-2.062.03-3.306-.212-6.124-.72-8.375-.145-.644-.03-1.318.321-1.878 2.315-3.694 4.413-7.129 6.412-10.501.502-.848 1.456-1.329 2.434-1.209.979.111 1.8.787 2.099 1.726 1.06 3.333 1.693 6.945 1.883 10.737.091 1.828.185 3.619.281 5.371.052.944-.434 1.838-1.254 2.308-1.915 1.096-3.51 2.223-4.876 3.445-.443.396-.878.814-1.314 1.231-.348.333-.697.667-1.05.994-.473.434-1.082.663-1.699.663zm1.851-12.959c.276 1.491.463 3.146.559 4.951.839-.644 1.738-1.264 2.708-1.868-.068-1.276-.135-2.572-.201-3.887-.061-1.229-.174-2.433-.338-3.609-.88 1.438-1.786 2.906-2.728 4.413z"/><path d="m239.749 202.883c-1.773 0-3.469-.882-4.48-2.41-2.136-3.229-4.109-8.525-5.28-14.168-.138-.667.001-1.36.386-1.922s.983-.941 1.654-1.053l7.616-1.257c.682-.112 1.375.062 1.923.479.548.418.899 1.043.971 1.728.585 5.582 1.279 9.268 2.062 10.956.678 1.463.674 3.133-.011 4.583-.68 1.438-1.955 2.493-3.497 2.893-.446.114-.897.171-1.344.171zm-4.273-15.054c1.204 4.656 2.778 8.092 3.964 9.886.089.135.245.195.399.156.039-.011.161-.042.23-.189.036-.075.064-.196-.004-.343-.89-1.919-1.599-5.1-2.198-9.904z"/><path d="m211.306 229.185c-.158 0-.318-.015-.479-.046-.024-.005-.125-.026-.148-.031-6.946-1.388-14.064-1.732-21.167-1.033-.768.075-1.525-.207-2.056-.765s-.775-1.329-.663-2.091l1.008-6.799c.145-.973.846-1.771 1.792-2.038 5.169-1.463 10.686-2.886 16.452-2.839 3.032.025 6.062.468 9.008 1.314.664.19 1.219.647 1.534 1.262s.362 1.332.129 1.982c-1.203 3.366-2.256 6.805-3.024 9.315-.324 1.067-1.307 1.769-2.386 1.769zm-14.66-6.462c4.339 0 8.66.365 12.924 1.094.453-1.46.968-3.088 1.531-4.769-1.686-.321-3.392-.491-5.097-.505-4.597-.044-9.133 1.018-13.495 2.216l-.31 2.092c1.485-.086 2.967-.128 4.447-.128z"/><path d="m211.126 205.903c-5.282 0-10.565-.642-15.643-1.916-1.045-.263-1.804-1.165-1.884-2.239-.08-1.075.538-2.08 1.533-2.493l14.177-5.902c2.546-1.06 5.444-2.337 7.604-4.093.601-.487 1.393-.669 2.146-.494.753.177 1.382.691 1.704 1.396.488 1.067 1.062 2.12 1.705 3.127 1.89 2.96 2.347 6.616 1.253 10.033-.285.891-1.044 1.548-1.967 1.703-3.499.586-7.063.878-10.628.878zm-6.183-5.317c4.757.491 9.593.414 14.322-.239.162-1.538-.185-3.073-1.011-4.367-.231-.362-.456-.729-.671-1.102-2.084 1.27-4.323 2.246-6.353 3.091z"/><path d="m183.477 200.305c-.692 0-1.363-.288-1.841-.81-2.841-3.094-5.313-6.41-7.347-9.856-.425-.721-.461-1.605-.097-2.358.364-.754 1.081-1.274 1.909-1.389 2.712-.374 5.341-1.531 8.124-2.758 1.826-.804 3.714-1.636 5.693-2.266 2.933-.934 5.935-1.382 8.838-1.815 2.894-.433 5.628-.841 8.225-1.688 1.237-.404 2.466-.912 3.767-1.45 1.875-.774 3.812-1.575 5.855-2.079.87-.22 1.786.052 2.404.697.619.646.846 1.574.594 2.433-.457 1.562-.701 3.146-.726 4.711-.016 1.036-.669 1.956-1.643 2.311-1.17.427-2.339.861-3.498 1.318-1.962.777-4.046 1.648-5.994 2.758-1.464.834-2.853 1.801-4.324 2.824l-1.226.848c-6.736 4.617-12.519 7.323-18.2 8.517-.17.034-.342.052-.513.052zm-3.029-10.3c1.182 1.725 2.486 3.405 3.902 5.027 4.593-1.195 9.406-3.579 15.014-7.422l1.197-.828c1.497-1.042 3.045-2.118 4.704-3.063.961-.548 1.933-1.037 2.9-1.484-2.879.898-5.822 1.338-8.671 1.764-2.833.423-5.508.822-8.059 1.634-1.725.55-3.41 1.292-5.194 2.078-1.872.823-3.784 1.666-5.793 2.294z"/><path d="m178.969 173.764c-.873 0-1.708-.459-2.166-1.25-.599-1.037-.378-2.354.527-3.139 8.353-7.244 18.403-12.623 29.063-15.555 1.499-.412 3.038-.788 4.525-1.152 3.627-.886 7.378-1.803 10.607-3.273.805-.366 1.746-.28 2.471.228.725.509 1.127 1.362 1.058 2.245-.338 4.271-1.09 8.873-2.234 13.675-.198.829-.803 1.5-1.607 1.781-3.062 1.069-6.537 1.703-10.62 1.937-2.327.133-4.667.141-6.929.147-3.729.013-7.25.023-10.741.546-4.442.665-8.863 2.194-13.138 3.673-.268.093-.544.137-.816.137zm28.751-15.123c-5.381 1.48-10.596 3.629-15.483 6.359 3.833-.568 7.685-.58 11.411-.593 2.196-.007 4.467-.015 6.66-.14 3.033-.173 5.654-.585 7.965-1.254.581-2.593 1.037-5.114 1.365-7.539-2.483.817-5.035 1.44-7.532 2.051-1.475.361-2.945.719-4.386 1.116z"/><path d="m179.84 158.03c-.753 0-1.493-.34-1.981-.973-.76-.985-.68-2.379.187-3.271 7.003-7.202 14.94-15.365 25.458-18.967 2.136-.731 4.31-1.246 6.413-1.744 1.808-.428 3.516-.832 5.194-1.361 1.568-.495 3.006-1.1 4.273-1.799.651-.36 1.425-.41 2.117-.141.691.271 1.227.833 1.462 1.537 1.125 3.37 1.845 7.031 2.141 10.881.088 1.148-.619 2.208-1.713 2.566-1.047.344-2.125.638-3.201.874-2.983.652-6.003.959-8.923 1.255-2.744.278-5.336.541-7.897 1.067-7.955 1.634-15.248 5.76-22.3 9.75-.387.221-.811.326-1.23.326zm39.172-22.41c-.77.313-1.57.603-2.397.863-1.852.584-3.729 1.028-5.546 1.459-2.078.491-4.04.956-5.945 1.608-3.867 1.324-7.412 3.411-10.707 5.883 2.573-.991 5.225-1.816 7.948-2.376 2.81-.576 5.651-.865 8.399-1.144 2.908-.295 5.655-.573 8.358-1.165.266-.059.532-.121.798-.188-.209-1.702-.512-3.353-.908-4.94z"/><path d="m158.374 174.047c-.058 0-.116-.002-.174-.006-1.335-.092-2.361-1.219-2.327-2.557l.349-13.855c.199-7.91.446-17.755 5.518-25.604 3.66-5.665 9.374-9.531 14.441-12.711 1.667-1.046 3.213-2.017 3.971-3.331.628-1.088.808-2.604.982-4.07l.429-3.629c.144-1.215 1.146-2.147 2.368-2.203 8.274-.373 16.274 1.572 23.138 5.65.608.361 1.179.742 1.748 1.124l.105.07c.555.371.938.948 1.064 1.603s-.014 1.333-.39 1.884c-4.758 6.97-12.703 11.646-19.093 14.942-.848.438-1.702.872-2.559 1.309-7.523 3.828-15.302 7.788-20.016 14.361-5.07 7.07-6.134 16.491-7.072 24.803-.144 1.272-1.221 2.22-2.482 2.22zm27.898-63.012-.173 1.466c-.211 1.784-.475 4.004-1.617 5.982-1.379 2.39-3.629 3.802-5.614 5.048-4.644 2.913-9.825 6.403-12.93 11.207-2.425 3.754-3.555 8.147-4.113 12.638.608-1.122 1.285-2.214 2.039-3.266 5.424-7.563 13.755-11.803 21.812-15.903.849-.433 1.695-.863 2.535-1.296 5.173-2.669 11.432-6.288 15.668-11.249-5.288-2.993-11.324-4.575-17.607-4.627z"/><path d="m150.01 196.279c-.998 0-1.919-.599-2.31-1.547-1.937-4.698-5.867-8.972-8.655-11.776-.531-.535-1.068-1.069-1.606-1.605-5.205-5.178-10.587-10.532-12.656-17.863-3.122-11.064 2.434-22.045 8.903-32.262 2.606-4.116 5.849-9.239 7.913-14.354.36-.892 1.199-1.498 2.158-1.56 7.851-.505 15.489-2.753 20.551-4.399 1.033-.339 2.168.034 2.804.918.635.884.625 2.077-.024 2.95l-14.821 19.942c-3.024 4.069-6.152 8.278-7.989 12.936-2.692 6.825-2.495 14.891.528 21.575 1.61 3.561 3.933 6.738 6.393 10.103 2.386 3.264 4.853 6.638 6.66 10.443 0 .001.001.002.001.002.314.663.572 1.272.789 1.865.246.673.192 1.419-.149 2.049s-.936 1.084-1.633 1.246c-2.025.47-4.186.907-6.421 1.3-.148.026-.293.037-.436.037zm-4.382-76.096c-2.208 5.016-5.24 9.803-7.718 13.717-5.85 9.239-10.905 19.053-8.315 28.23 1.712 6.069 6.622 10.953 11.37 15.677.545.543 1.089 1.084 1.627 1.625 2.961 2.979 6.537 6.897 8.88 11.539.426-.082.848-.165 1.266-.249-1.536-2.909-3.505-5.603-5.576-8.434-2.502-3.423-5.089-6.961-6.912-10.993-3.623-8.01-3.85-17.293-.624-25.47 2.08-5.274 5.409-9.753 8.628-14.084l10.35-13.926c-3.906 1.023-8.362 1.95-12.976 2.368z"/><path d="m123.892 198.531c-1.275 0-2.348-.961-2.485-2.231-.526-4.859-1.602-11.049-5.286-15.808-1.272-1.643-2.825-3.087-4.469-4.615-1.253-1.166-2.549-2.37-3.749-3.701-7.756-8.608-10.055-21.61-5.72-32.356.997-2.471 2.296-4.771 3.553-6.997 1.76-3.118 3.423-6.062 4.187-9.262.598-2.506.638-5.149.681-7.949.034-2.205.068-4.484.39-6.773.12-.854.293-1.738.529-2.707.221-.908.931-1.617 1.839-1.838.907-.217 1.864.084 2.477.79 1.457 1.679 3.089 3.172 4.852 4.439 2.469 1.774 5.228 3.17 8.199 4.146 1.27.417 1.986 1.76 1.627 3.047-1.366 4.895-3.991 9.582-6.53 14.115-3.889 6.943-7.562 13.503-6.912 20.474.403 4.323 2.463 8.326 4.645 12.563.864 1.678 1.756 3.413 2.544 5.179 3.785 8.483 5.173 17.912 4.014 27.267-.153 1.234-1.191 2.169-2.435 2.192-.646.012-1.29.021-1.933.025-.005 0-.011 0-.018 0zm1.906-2.525h.01zm-10.085-84.035c-.071 1.207-.089 2.44-.109 3.717-.044 2.946-.091 5.993-.817 9.034-.928 3.884-2.844 7.277-4.697 10.559-1.232 2.182-2.396 4.242-3.27 6.41-3.636 9.013-1.708 19.918 4.797 27.138 1.051 1.167 2.211 2.245 3.438 3.387 1.719 1.599 3.497 3.251 5.018 5.217 1.226 1.583 2.209 3.266 3.003 4.989-.633-3.906-1.764-7.718-3.378-11.337-.731-1.639-1.591-3.311-2.423-4.927-2.303-4.475-4.685-9.102-5.178-14.388-.794-8.521 3.437-16.076 7.528-23.382 2.08-3.715 4.064-7.258 5.368-10.826-2.576-1.047-4.997-2.381-7.221-3.979-.705-.509-1.392-1.046-2.059-1.612z"/><path d="m68.246 177.948c-.821 0-1.624-.404-2.101-1.143-2.741-4.239-4.708-8.95-5.847-14.003-.266-1.18.351-2.381 1.464-2.853 3.082-1.304 5.823-4.58 8.379-10.016.257-.546.512-1.099.768-1.653 2.22-4.813 4.736-10.27 9.662-13.444 1.228-.791 2.515-1.384 3.76-1.956 1.876-.864 3.649-1.68 4.717-2.991 1.113-1.367 1.583-3.478 1.997-5.34l3.877-17.419c.873-3.918 1.861-8.357 4.106-12.244 1.516-2.623 3.551-4.79 5.887-6.268.695-.439 1.562-.509 2.318-.186s1.306.997 1.468 1.804c.088.433.168.833.265 1.229.021.087.038.175.05.262.061.308.564 2.712 2.011 5.856.345.749.298 1.619-.125 2.327-3.944 6.601-6.515 14.089-7.434 21.657-.115.948-.208 1.906-.301 2.865-.388 4.003-.79 8.141-2.745 11.951-1.794 3.496-4.576 6.079-7.265 8.578-1.532 1.423-2.979 2.767-4.225 4.246-2.692 3.195-4.468 7.047-6.348 11.124-1.176 2.55-2.392 5.188-3.864 7.688-2.395 4.064-5.661 7.464-9.197 9.573-.399.242-.84.356-1.277.356zm-2.605-14.39c.807 2.925 1.936 5.705 3.371 8.307 2.042-1.652 3.913-3.853 5.402-6.38 1.345-2.284 2.456-4.693 3.632-7.244 1.936-4.199 3.938-8.54 7.065-12.252 1.443-1.713 3.071-3.226 4.645-4.688 2.482-2.307 4.827-4.484 6.22-7.198 1.519-2.96 1.857-6.453 2.216-10.15.097-1 .194-1.998.314-2.986.951-7.826 3.52-15.573 7.447-22.488-.44-1.024-.857-2.095-1.181-3.116-.52.623-.996 1.305-1.414 2.027-1.861 3.221-2.722 7.089-3.555 10.828l-3.877 17.419c-.508 2.284-1.141 5.127-3 7.41-1.8 2.212-4.299 3.362-6.504 4.377-1.137.523-2.211 1.018-3.142 1.617-3.703 2.387-5.801 6.936-7.83 11.335-.261.566-.521 1.131-.784 1.688-1.745 3.708-4.506 8.711-9.025 11.494z"/><path d="m65.736 132.883c-.588 0-1.171-.207-1.635-.608-.764-.66-1.056-1.714-.74-2.673 1.613-4.902 2.624-9.709 3.004-14.285.078-.942.681-1.76 1.558-2.112 1.353-.544 2.722-1.061 4.09-1.576 1.347-.508 2.693-1.016 4.02-1.55 7.389-2.98 11.802-6.394 13.886-10.741.585-1.22 2.033-1.752 3.27-1.203 1.236.549 1.811 1.981 1.298 3.232l-3.942 9.615c-1.359 3.316-2.9 7.076-5.549 10.136-2.667 3.082-6.198 5.158-9.585 7.02-2.719 1.494-5.598 3.003-8.557 4.482-.354.176-.737.263-1.118.263zm5.462-15.595c-.297 2.69-.788 5.441-1.469 8.231 1.114-.589 2.207-1.178 3.274-1.765 3.114-1.711 6.085-3.451 8.213-5.909 1.627-1.88 2.782-4.217 3.809-6.611-2.455 1.491-4.962 2.609-7.121 3.48-1.362.55-2.743 1.07-4.126 1.592-.861.325-1.723.65-2.58.982zm5.771-4.892h.01z"/><path d="m78.406 211.641c-1.432 0-2.881-.16-4.343-.611-1.696-.522-3.136-1.36-4.529-2.171l-.781-.451c-2.146-1.222-4.513-2.298-7.033-3.198-1.157-.414-1.842-1.607-1.616-2.814.289-1.545.742-3.043 1.345-4.455l2.448-5.726c.309-.723.938-1.257 1.701-1.445.761-.188 1.568-.007 2.177.49 3.682 3 7.79 5.3 12.208 6.835.496.172.998.337 1.5.502 1.818.597 3.698 1.214 5.469 2.211.848.478 1.342 1.404 1.266 2.375-.14 1.771-.304 3.603-.495 5.487-.118 1.163-1.027 2.089-2.188 2.229-.619.074-1.238.162-1.857.249-1.727.244-3.487.493-5.272.493zm6.83-3.225h.01zm-19.712-7.106c2.01.816 3.92 1.738 5.702 2.752l.823.476c1.202.699 2.338 1.36 3.488 1.715 2.205.679 4.73.327 7.403-.05.054-.579.105-1.153.154-1.721-.989-.419-2.059-.771-3.17-1.136-.53-.174-1.058-.348-1.581-.529-3.945-1.37-7.669-3.281-11.105-5.696l-1.191 2.785c-.195.455-.37.924-.523 1.404z"/><path d="m69 227.18c-.938 0-1.834-.532-2.26-1.431l-4.137-8.737c-.361-.762-.313-1.654.126-2.374.439-.719 1.211-1.168 2.054-1.195 1.123-.035 2.252-.112 3.382-.189 4.117-.281 8.375-.569 12.493.985.802.303 1.392.995 1.565 1.834s-.096 1.708-.712 2.304c-2.461 2.376-5.005 4.833-8.052 6.772-1.119.712-2.292 1.329-3.487 1.833-.317.133-.647.198-.972.198zm-.289-8.952 1.456 3.073c.204-.119.407-.243.607-.37 1.305-.831 2.545-1.813 3.744-2.861-1.85-.106-3.798.021-5.807.158z"/><path d="m169.774 223.637c-.686 0-1.345-.282-1.82-.786-.525-.557-.766-1.323-.653-2.081l1.787-12.049c.16-1.077.999-1.927 2.074-2.101 1.696-.273 3.408-.261 5.06-.252 1.829.011 3.56.024 5.092-.344 2.362-.565 4.492-2.099 6.748-3.723l.481-.346c.925-.664 2.181-.618 3.056.109.364.304.731.606 1.108.907 1.537 1.227 2.194 3.256 1.682 5.119l-.381 2.573c-.129.87-.707 1.608-1.52 1.944-1.938.799-3.738 1.795-5.351 2.959-.797.575-1.568 1.197-2.383 1.857-1.58 1.276-3.212 2.597-5.133 3.626-2.638 1.411-5.697 2.229-9.628 2.575-.074.01-.146.013-.219.013zm3.973-12.248-1.011 6.814c1.748-.353 3.224-.864 4.524-1.56 1.504-.806 2.887-1.924 4.35-3.106.833-.673 1.693-1.368 2.601-2.023 1.555-1.123 3.25-2.111 5.054-2.95l.163-1.097c-2.083 1.447-4.298 2.785-6.948 3.421-2.123.508-4.242.491-6.291.48-.844-.005-1.662-.012-2.442.021zm17.788-1.091h.01z"/><path d="m167.87 204.773c-.604 0-1.201-.219-1.668-.638-3.751-3.36-7-6.98-9.655-10.76-.472-.672-.584-1.532-.3-2.303s.928-1.352 1.723-1.557c6.284-1.614 11.575-3.645 15.724-6.034.593-.342 1.3-.426 1.957-.231s1.205.649 1.517 1.259c1.424 2.782 3.16 5.497 5.162 8.07.456.586.628 1.345.469 2.07s-.632 1.342-1.291 1.685c-1.806.937-3.525 2.223-5.347 3.586-1.95 1.459-3.967 2.968-6.225 4.129-.334.172-.674.335-1.017.493-.336.156-.694.231-1.049.231zm-5.07-11.408c1.643 2.029 3.477 4.001 5.485 5.896 1.649-.927 3.224-2.104 4.879-3.344 1.146-.857 2.315-1.731 3.538-2.538-.997-1.419-1.922-2.871-2.769-4.347-3.23 1.633-6.956 3.083-11.133 4.333z"/><path d="m176.224 256h-20.154c-2.565 0-4.673-2.109-4.699-4.702-.116-11.361 9.349-16.405 13.423-18.047.417-.167.727-.561.809-1.025l.496-3.353c.186-1.259 1.29-2.205 2.559-2.132 1.022.035 1.911-.057 2.71-.277.745-.206 1.516-.553 2.332-.919.335-.15.671-.301 1.009-.444 4.639-1.971 9.782-2.675 14.877-2.032.667.084 1.273.434 1.679.969.407.536.581 1.213.482 1.879l-1.055 7.113c-.399 2.251-1.843 4.041-3.875 4.86-3.841 1.547-10.248 5.302-10.292 13.128 1.239.148 2.2 1.203 2.2 2.482-.001 1.381-1.121 2.5-2.501 2.5zm-19.853-5h15.153c.051-11.151 9.385-16.122 13.424-17.749.416-.167.726-.561.809-1.025l.649-4.383c-3.367-.049-6.688.563-9.742 1.859-.307.131-.612.268-.917.404-.951.427-1.934.868-3.044 1.176-.631.175-1.282.3-1.961.376l-.203 1.37c-.399 2.252-1.843 4.043-3.875 4.861-3.839 1.547-10.239 5.297-10.293 13.111z"/><path d="m105.67 233.452c-.397 0-.794-.095-1.155-.282-3.286-1.711-6.038-2.774-8.66-3.346-.412-.09-.827-.169-1.242-.249-1.686-.325-3.597-.693-5.353-1.703-1.098-.631-1.551-1.984-1.053-3.149.948-2.218 3.003-4.015 5.64-4.928 2.131-.737 4.29-.842 6.319-.886 2.802-.065 5.686-.017 8.572.137.761.04 1.462.425 1.904 1.045s.578 1.409.367 2.141c-.974 3.395-2.003 6.689-2.975 9.53-.235.688-.76 1.241-1.437 1.512-.297.119-.613.178-.927.178zm-10.42-8.847c.103.021.206.04.309.06.456.088.911.176 1.36.274 2.315.504 4.675 1.314 7.28 2.507.366-1.134.735-2.317 1.102-3.53-1.693-.042-3.375-.044-5.024-.009-1.633.036-3.348.112-4.794.612-.079.028-.156.057-.233.086z"/><path d="m111.053 214.576c-4.592 0-9.067-.119-13.345-1.499-4.778-1.54-9.139-4.523-13.723-9.389-.481-.511-.726-1.201-.674-1.9.2-2.683.349-5.302.442-7.783.032-.85.493-1.624 1.224-2.058.732-.432 1.634-.464 2.393-.084 1.571.785 3.42 1.316 5.378 1.878 1.56.447 3.172.909 4.719 1.53 1.284.517 2.497 1.137 3.67 1.736 2.111 1.079 4.106 2.099 6.15 2.326 1.068.119 2.259.045 3.521-.033.84-.053 1.714-.117 2.585-.104.745.002 1.45.336 1.923.911.474.575.666 1.331.524 2.062-.66 3.417-1.433 6.948-2.298 10.497-.276 1.142-1.311 1.918-2.489 1.91zm-22.675-13.533c3.698 3.763 7.171 6.085 10.865 7.276 3.058.985 6.325 1.204 9.902 1.247.412-1.756.8-3.502 1.161-5.227-1.163.065-2.357.1-3.571-.037-2.953-.328-5.454-1.606-7.873-2.843-1.124-.574-2.185-1.117-3.258-1.549-1.308-.524-2.729-.933-4.234-1.364-.921-.264-1.856-.532-2.783-.834-.061 1.095-.13 2.207-.209 3.331z"/></svg>