<svg height="512pt" viewBox="0 -85 512.00043 512" width="512pt" xmlns="http://www.w3.org/2000/svg"><g fill="#ffcb9d"><path d="m120.378906 235.992188c-5.308594-3.542969-9.828125-7.945313-13.453125-12.941407-5.8125 14.820313-14.988281 42.765625-16.898437 75.464844-1.410156 24.082031 17.800781 44.371094 41.921875 44.371094 19.679687 0 36.691406-13.667969 40.984375-32.871094 2.882812-12.910156 7.96875-28.671875 16.886718-45.511719-32.671874-7.921875-54.824218-18.75-69.441406-28.511718zm0 0"/><path d="m511.8125 297.378906c-4.503906-47.542968-13.679688-93.046875-13.679688-93.046875 2.746094 13.6875-4.164062 27.464844-16.777343 33.453125-13.199219 6.265625-32.648438 14.25-57.863281 21.292969 2.101562 14.140625 3.925781 31.082031 5.339843 46.019531 2.023438 21.414063 19.976563 37.789063 41.484375 37.789063 24.53125 0 43.808594-21.089844 41.496094-45.507813zm0 0"/><path d="m106.925781 223.050781c-8-11.023437-11.640625-24.929687-9.789062-38.890625.914062-6.875 2.199219-14.734375 4-23.238281-38.421875-23.414063-80.644531-38.398437-95.851563-4.695313-25.121094 55.667969 45.214844 99.179688 87.269532 119.433594 3.640624-22.636718 9.96875-41.386718 14.371093-52.609375zm0 0"/></g><path d="m97.136719 184.160156c.914062-6.871094 2.199219-14.734375 4-23.238281-7.984375-4.863281-16.128907-9.363281-24.164063-13.140625-28.191406 75.519531 19.453125 108.679688 19.453125 108.679688l.003907.007812c3.386718-13.996094 7.414062-25.558594 10.496093-33.417969-8-11.023437-11.640625-24.929687-9.789062-38.890625zm0 0" fill="#ffba7e"/><path d="m120.378906 235.992188c-17.023437-11.363282-25.933594-31.546876-23.242187-51.832032 6.925781-52.195312 35.175781-161.035156 150.445312-180.347656 186.574219-31.253906 238.019531 138.027344 250.550781 200.519531 2.746094 13.6875-4.167968 27.464844-16.78125 33.453125-32.792968 15.570313-104.105468 41.75-206.785156 37.699219-82.882812-3.269531-129.375-22.921875-154.1875-39.492187zm0 0" fill="#aee295"/><path d="m189.820312 264.503906c-32.671874-7.921875-54.824218-18.75-69.445312-28.511718-5.308594-3.542969-9.824219-7.945313-13.449219-12.941407-3.085937 7.859375-7.113281 19.414063-10.503906 33.410157 17.125 11.6875 43.261719 24.667968 82.113281 33.925781 2.832032-8.136719 6.503906-16.851563 11.285156-25.882813zm0 0" fill="#ffba7e"/><path d="m481.355469 237.785156c-13.199219 6.265625-32.648438 14.25-57.863281 21.292969 1.277343 8.601563 2.453124 18.242187 3.496093 27.835937 35.355469-8.992187 62.097657-20.085937 79.398438-28.511718.246093-.121094.488281-.25.726562-.375-4.308593-30.535156-8.980469-53.695313-8.980469-53.695313 2.746094 13.6875-4.164062 27.464844-16.777343 33.453125zm0 0" fill="#ffba7e"/><path d="m496.09375 194.820312c-2.875 6.476563-7.976562 11.9375-14.738281 15.148438-32.796875 15.570312-104.109375 41.75-206.785157 37.699219-82.886718-3.269531-129.378906-22.921875-154.191406-39.492188-11.273437-7.53125-18.984375-18.925781-22.128906-31.660156-.421875 2.660156-.789062 5.214844-1.113281 7.640625-2.691407 20.289062 6.222656 40.472656 23.242187 51.835938 24.8125 16.570312 71.304688 36.222656 154.191406 39.492187 102.679688 4.050781 173.988282-22.128906 206.785157-37.699219 12.613281-5.988281 19.523437-19.765625 16.777343-33.453125-.589843-2.945312-1.265624-6.125-2.039062-9.511719zm0 0" fill="#98db7c"/><path d="m486.582031 160.652344-26.882812 16.3125-49.472657-29.085938v-58.859375l28.324219-19.574219c-3.246093-4-6.65625-7.910156-10.234375-11.714843l-26.1875 18.097656-50.214844-28.992187v-37.871094c-4.984374-1.585938-10.136718-2.980469-15.453124-4.167969v42.039063l-50.585938 29.207031-50.585938-29.207031v-40.535157c-5.351562 1.257813-10.5 2.722657-15.453124 4.371094v36.164063l-49.863282 28.789062-21.320312-17.179688c-3.390625 3.949219-6.566406 8.011719-9.542969 12.15625l22.414063 18.0625v58.597657l-63.046876 27.855469c-.515624 3.164062-.960937 6.191406-1.339843 9.039062-.382813 2.894531-.523438 5.785156-.445313 8.648438l72.09375-31.851563 51.050782 29.472656v79.960938c4.960937.765625 10.121093 1.457031 15.457031 2.082031v-82.042969l50.582031-29.207031 50.585938 29.207031v83.871094c5.269531-.421875 10.417968-.917969 15.457031-1.480469v-82.390625l50.546875-29.1875 49.574218 29.148438v59.558593c5.601563-2.03125 10.769532-4.050781 15.453126-6v-53.632812l23.761718-14.417969c-1.382812-4.875-2.933594-9.972656-4.671875-15.242187zm-208.433593-12.816406-50.585938 29.207031-50.585938-29.207031v-58.410157l50.585938-29.207031 50.585938 29.207031zm116.625 0-50.585938 29.207031-50.585938-29.207031v-58.410157l50.585938-29.207031 50.585938 29.207031zm0 0" fill="#82d361"/><path d="m49.863281 162.355469c-8.777343 0-15.652343 8.539062-15.652343 19.433593 0 10.898438 6.875 19.433594 15.652343 19.433594 8.777344 0 15.652344-8.535156 15.652344-19.433594 0-10.894531-6.875-19.433593-15.652344-19.433593zm0 0" fill="#433f43"/></svg>