<?xml version="1.0" encoding="iso-8859-1"?>
<!-- Generator: Adobe Illustrator 19.0.0, SVG Export Plug-In . SVG Version: 6.00 Build 0)  -->
<svg version="1.1" id="Layer_1" xmlns="http://www.w3.org/2000/svg" xmlns:xlink="http://www.w3.org/1999/xlink" x="0px" y="0px"
	 viewBox="0 0 512 512" style="enable-background:new 0 0 512 512;" xml:space="preserve">
<path style="fill:#7D7060;" d="M178.317,433.164c-4.714,0-9.446-0.191-14.179-0.589c-45.308-3.819-84.492-25.827-113.316-63.643
	c-22.088-28.979-35.837-62.136-40.865-98.549c-4.714-34.143-1.225-70.087,10.091-103.949C45.605,89.949,107.704,31.093,186.16,8.994
	c7.889-2.225,16.083,2.371,18.306,10.259c2.222,7.888-2.372,16.084-10.26,18.305c-68.988,19.433-123.572,71.127-146.012,138.28
	c-9.876,29.554-12.932,60.843-8.839,90.484c4.32,31.286,16.119,59.756,35.069,84.618c23.938,31.405,54.961,48.923,92.207,52.062
	c48.624,4.098,91.425-17.436,106.988-31.972c5.989-5.594,15.379-5.275,20.972,0.715s5.274,15.379-0.715,20.972
	C271.327,413.779,225.821,433.164,178.317,433.164z"/>
<path style="opacity:0.1;enable-background:new    ;" d="M294.59,371.745c-5.594-5.989-14.983-6.309-20.972-0.715
	c-10.651,9.949-34.068,23.173-63.374,29.217c2.606,10.681,7.268,19.766,13.554,27.243c29.472-7.272,54.946-20.64,70.077-34.773
	C299.864,387.123,300.184,377.734,294.59,371.745z"/>
<path style="fill:#5D5D5D;" d="M426.968,407.38c-0.836-4.453-1.178-9.07-1.218-13.849c-0.02-4.769,0.272-9.672,1.016-14.624
	c1.425-9.903,4.571-20.092,9.669-29.655c5.046-9.563,12.102-18.462,20.607-25.365c8.474-6.943,18.206-11.951,28.258-14.397
	c8.147-1.982,16.36,3.016,18.342,11.164c1.293,5.316-0.385,10.66-3.971,14.283l-1.089,1.092c-2.763,2.774-5.421,5.308-7.873,7.88
	c-2.45,2.569-4.657,5.184-6.732,7.796c-4.114,5.258-7.56,10.679-10.525,16.699c-2.966,6.01-5.514,12.535-8.113,19.674l-4.031,11.164
	c-1.443,3.87-2.911,7.943-4.936,12.17c-3.718,7.761-13.025,11.039-20.786,7.32c-4.625-2.216-7.658-6.416-8.566-11.092
	L426.968,407.38z"/>
<path style="opacity:0.15;enable-background:new    ;" d="M459.484,369.025c-4.646-9.252-11.781-17.498-20.588-24.092
	c-0.861,1.423-1.693,2.859-2.463,4.318c-5.097,9.563-8.243,19.752-9.669,29.655c-0.186,1.237-0.343,2.472-0.474,3.702
	c0.496,0.786,0.961,1.585,1.37,2.399c3.126,6.224,9.405,9.818,15.925,9.818c2.686,0,5.413-0.61,7.977-1.898
	C460.352,388.514,463.898,377.812,459.484,369.025z"/>
<g>
	<path style="fill:#6E614F;" d="M224.869,366.652c-15.204,0-30.128-4.002-43.197-11.732c-16.712-9.886-29.107-25.208-34.008-42.038
		c-2.75-9.442,2.674-19.325,12.116-22.074c9.443-2.751,19.325,2.674,22.074,12.116c4.938,16.951,27.197,31.947,52.473,27.24
		c9.663-1.796,18.964,4.581,20.762,14.249s-4.58,18.964-14.249,20.762C235.527,366.163,230.18,366.652,224.869,366.652z"/>
	<path style="fill:#6E614F;" d="M445.243,385.677c-6.521,0-12.8-3.594-15.925-9.819c-7.924-15.778-32.533-26.49-56.536-17.292
		c-9.184,3.517-19.479-1.073-22.998-10.256c-3.518-9.183,1.073-19.48,10.256-22.998c19.492-7.469,40.817-7.691,60.046-0.624
		c18.225,6.698,33.189,19.523,41.056,35.188c4.414,8.787,0.868,19.489-7.92,23.903C450.658,385.067,447.93,385.677,445.243,385.677z
		"/>
</g>
<path style="fill:#F8E9B4;" d="M461.141,359.876c-2.708-5.391-6.273-10.434-10.505-15.019
	c-16.965,0.704-24.877,13.218-27.137,23.052c2.412,2.428,4.39,5.104,5.819,7.949c3.126,6.224,9.405,9.819,15.925,9.819
	c2.686,0,5.413-0.61,7.977-1.898C462.009,379.366,465.555,368.664,461.141,359.876z"/>
<path style="fill:#6E614F;" d="M244.652,503.571c-5.659,0-11.224-2.692-14.677-7.704c-14.573-21.147-17.433-44.395-8.053-65.462
	c8.741-19.634,27.873-35.044,46.527-37.477c9.749-1.275,18.687,5.602,19.959,15.354c1.272,9.751-5.602,18.687-15.354,19.958
	c-4.854,0.633-14.27,6.926-18.599,16.648c-4.261,9.571-2.632,19.924,4.844,30.772c5.58,8.097,3.54,19.184-4.558,24.764
	C251.655,502.551,248.136,503.571,244.652,503.571z"/>
<path style="fill:#F8E9B4;" d="M259.299,475.661c-2.074-3.01-3.681-5.98-4.855-8.907c-13.409,0.298-25.789,7.945-32.157,15.399
	c2.033,4.64,4.594,9.225,7.688,13.715c3.454,5.012,9.017,7.704,14.677,7.704c3.484,0,7.003-1.02,10.088-3.146
	C262.837,494.845,264.878,483.757,259.299,475.661z"/>
<path style="opacity:0.1;enable-background:new    ;" d="M288.408,408.281c-1.272-9.752-10.209-16.629-19.959-15.354
	c-13.785,1.798-27.825,10.686-37.747,23.125c6.97,9.858,16.472,17.316,27.684,22.377c4.717-5.991,10.994-9.712,14.666-10.19
	C282.805,426.968,289.679,418.032,288.408,408.281z"/>
<path style="fill:#6E614F;" d="M402.484,477.929c-0.233,0-0.468-0.004-0.703-0.014c-9.827-0.382-17.484-8.657-17.101-18.483
	c0.511-13.164-3.651-22.782-12.372-28.588c-8.859-5.898-20.182-6.177-24.621-4.114c-8.917,4.144-19.506,0.272-23.65-8.646
	c-4.143-8.918-0.272-19.507,8.646-23.651c17.062-7.925,41.47-5.143,59.36,6.767c19.197,12.78,29.219,33.95,28.224,59.613
	C419.891,470.406,411.998,477.929,402.484,477.929z"/>
<g>
	<path style="fill:#F8E9B4;" d="M419.094,443.164c-13.391-3.283-27.059-0.162-35.404,4.571c0.818,3.521,1.154,7.418,0.988,11.698
		c-0.381,9.826,7.274,18.101,17.101,18.483c0.235,0.01,0.47,0.013,0.703,0.013c9.514,0,17.408-7.524,17.78-17.115
		C420.502,454.653,420.1,448.753,419.094,443.164z"/>
	<path style="fill:#F8E9B4;" d="M181.854,302.924c-2.75-9.442-12.632-14.867-22.074-12.116c-9.442,2.75-14.866,12.633-12.116,22.074
		c2.135,7.328,5.692,14.369,10.405,20.801c10-2.845,21.762-10.419,30.4-18.828C185.352,311.176,183.073,307.111,181.854,302.924z"/>
</g>
<path style="opacity:0.1;enable-background:new    ;" d="M255.089,344.413c-1.799-9.668-11.099-16.045-20.762-14.249
	c-4.465,0.832-8.833,1.037-13.031,0.737c-4.979,10.548-8.113,22.33-8.94,34.828c4.128,0.606,8.309,0.924,12.512,0.924
	c5.312,0,10.658-0.489,15.971-1.477C250.508,363.376,256.887,354.08,255.089,344.413z"/>
<path style="fill:#6E614F;" d="M386.156,361.438c0-49.445-36.125-89.529-80.689-89.529c-44.563,0-80.689,40.084-80.689,89.529
	s36.125,74.101,80.689,74.101C350.031,435.54,386.156,410.883,386.156,361.438z"/>
<path style="opacity:0.1;enable-background:new    ;" d="M305.467,271.909c-32.622,0-60.702,21.493-73.42,52.402
	c22.37,13.877,48.083,22.35,74.608,22.35c25.776,0,50.784-8.003,72.704-21.189C366.876,293.941,338.498,271.909,305.467,271.909z"/>
<circle style="fill:#7D7060;" cx="164.754" cy="222.38" r="37.734"/>
<circle style="fill:#F8ECC8;" cx="164.754" cy="222.38" r="12.828"/>
<path style="opacity:0.1;enable-background:new    ;" d="M164.759,184.648c-6.773,0-13.124,1.794-18.618,4.918
	c-0.089,2.18-0.144,4.374-0.144,6.588c0,21.703,7.127,43.835,19.328,63.946c20.578-0.304,37.168-17.069,37.168-37.719
	C202.493,201.543,185.598,184.648,164.759,184.648z"/>
<circle style="fill:#7D7060;" cx="448.552" cy="222.38" r="37.734"/>
<circle style="fill:#F8ECC8;" cx="448.552" cy="222.38" r="12.828"/>
<path style="fill:#6E614F;" d="M306.656,326.636c77.739,0,148.525-72.743,148.525-141.18c0-83.98-64.546-143.225-148.525-143.225
	s-148.525,59.245-148.525,143.225C158.131,253.893,228.917,326.636,306.656,326.636z"/>
<path style="fill:#F8E9B4;" d="M356.279,128.279c-15.915,0.172-30.524,5.776-42.068,15.044c-4.41,3.541-10.7,3.541-15.109,0
	c-11.544-9.267-26.152-14.873-42.068-15.044c-38.741-0.418-69.667,31.989-69.22,70.73c0.498,43.217,15.278,71.186,32.789,97.489
	c24.822,18.429,54.876,30.136,86.053,30.136c31.177,0,61.23-11.707,86.053-30.136c17.511-26.303,32.291-54.273,32.79-97.489
	C425.946,160.269,395.02,127.862,356.279,128.279z"/>
<path style="fill:#EDBCB9;" d="M317.394,272.637c-5.931,0-10.737-4.807-10.737-10.737c0,5.93-4.807,10.737-10.737,10.737
	c-1.685,0-3.274-0.399-4.692-1.09v14.945c0,8.521,6.908,15.429,15.429,15.429s15.429-6.908,15.429-15.429v-14.945
	C320.666,272.238,319.079,272.637,317.394,272.637z"/>
<path style="fill:#D46D59;" d="M306.656,289.243c-5.443,0-10.269,1.947-13.353,4.955c2.668,4.611,7.642,7.722,13.353,7.722
	c5.711,0,10.685-3.111,13.353-7.722C316.925,291.19,312.099,289.243,306.656,289.243z"/>
<path style="fill:#EDBCB9;" d="M315.857,238.028l-2.388,2.844c-4.107,4.891-11.633,4.891-15.741,0l-2.388-2.844
	c-1.23-1.465-0.189-3.7,1.724-3.7h17.067C316.046,234.328,317.087,236.562,315.857,238.028z"/>
<path d="M511.333,318.783c-3.011-12.376-15.531-19.998-27.907-16.986c-11.09,2.698-21.949,8.219-31.376,15.943
	c-3.485,2.828-6.79,6.003-9.884,9.481c-5.916-4.031-12.414-7.414-19.35-9.963c-12.347-4.538-25.652-6.338-38.902-5.326
	c11.249-6.803,21.921-15.03,31.686-24.555c6.993-6.822,13.285-14.06,18.841-21.59c4.531,1.481,9.252,2.246,14.113,2.246
	c25.172,0,45.651-20.478,45.651-45.651c0-19.936-12.802-37.219-31.238-43.314c-1.531-39.949-17.401-76.136-45.101-102.457
	c-28.704-27.277-68.199-42.298-111.21-42.298c-43.01,0-82.505,15.022-111.21,42.298c-27.7,26.321-43.57,62.509-45.101,102.457
	c-18.437,6.095-31.238,23.378-31.238,43.314c0,25.172,20.478,45.651,45.651,45.651c4.861,0,9.581-0.765,14.113-2.246
	c5.556,7.53,11.848,14.768,18.841,21.59c9.712,9.473,20.321,17.666,31.503,24.447c-1.971,3.65-3.711,7.42-5.22,11.287
	c-17.527-0.339-31.305-11.291-34.542-22.4c-1.92-6.597-6.296-12.051-12.318-15.357c-6.022-3.306-12.974-4.067-19.572-2.147
	c-13.617,3.966-21.469,18.272-17.503,31.89c5.459,18.741,19.156,35.739,37.579,46.637c12.151,7.188,25.871,11.464,40.046,12.549
	c0.681,5.276,1.791,10.322,3.32,15.116c-13.84,4.04-32.654,7.491-53.711,5.713c-34.923-2.944-64.051-19.421-86.575-48.972
	c-18.113-23.765-29.392-50.983-33.523-80.902c-3.927-28.441-0.986-58.489,8.505-86.893C77.311,113.682,129.89,63.9,196.352,45.18
	c12.078-3.402,19.136-15.995,15.733-28.074c-1.649-5.85-5.476-10.708-10.777-13.68c-5.304-2.974-11.447-3.701-17.296-2.052
	C103.03,24.184,38.928,84.949,12.539,163.924c-11.7,35.01-15.305,72.198-10.424,107.541c5.217,37.78,19.485,72.188,42.411,102.265
	c30.217,39.645,71.348,62.721,118.948,66.734c4.863,0.41,9.858,0.618,14.843,0.618c10.692,0,21.567-0.96,32.476-2.819
	c-5.377,20.543-1.042,42.208,12.663,62.096c4.802,6.969,12.726,11.13,21.197,11.13c5.225,0,10.267-1.571,14.579-4.543
	c5.657-3.898,9.459-9.767,10.702-16.525c1.244-6.757-0.219-13.595-4.117-19.252c-5.885-8.54-7.236-16.083-4.131-23.059
	c1.944-4.367,5.423-7.942,8.577-10.087c10.641,3.582,22.474,5.435,35.202,5.435c16.208,0,30.961-3.004,43.645-8.767
	c0.665-0.244,1.304-0.497,1.898-0.774c1.706-0.728,10.034-1.056,16.908,3.52c6.357,4.232,9.252,11.327,8.848,21.69
	c-0.55,14.172,10.532,26.15,24.701,26.701c0.34,0.014,0.678,0.02,1.016,0.02c13.868,0,25.153-10.861,25.691-24.725
	c1.107-28.524-10.167-52.144-31.747-66.511c-2.197-1.462-4.499-2.811-6.889-4.043c2.809-8.359,4.326-17.502,4.494-27.306
	c9.381,0.77,19.418,4.647,25.339,11.784c-0.167,0.941-0.314,1.838-0.436,2.688c-0.755,5.034-1.125,10.36-1.102,15.864
	c0.048,5.657,0.49,10.643,1.349,15.217l0.063,0.339c1.413,7.272,6.243,13.523,12.918,16.72c3.266,1.564,6.716,2.306,10.116,2.306
	c8.767,0,17.196-4.925,21.23-13.344c1.998-4.173,3.502-8.216,4.827-11.784l4.44-12.263c2.145-5.895,4.746-12.748,7.776-18.886
	c2.657-5.397,5.816-10.408,9.62-15.271c2.237-2.815,4.226-5.121,6.263-7.258c1.475-1.547,3.056-3.106,4.729-4.756
	c0.991-0.978,2-1.974,3.018-2.995l1.113-1.115C510.988,334.758,513.245,326.636,511.333,318.783z M155.265,310.669
	c-1.524-5.235,1.494-10.735,6.729-12.259c2.538-0.739,5.21-0.445,7.525,0.826s3.997,3.366,4.736,5.904
	c0.838,2.877,2.087,5.73,3.703,8.489c-5.365,4.39-11.297,8.104-16.755,10.497C158.626,319.833,156.618,315.313,155.265,310.669z
	 M216.916,358.327c-11.057-1.13-21.718-4.606-31.213-10.222c-5.374-3.18-10.237-6.98-14.478-11.224
	c5.743-2.91,11.599-6.755,16.97-11.174c8.026,6.857,18.768,11.832,31.09,12.989C217.898,345.085,217.106,351.655,216.916,358.327z
	 M478.369,222.382c0,16.441-13.375,29.817-29.817,29.817c-1.639,0-3.252-0.138-4.839-0.397
	c10.563-17.889,17.066-36.937,18.865-55.743C472.092,201.111,478.369,211.096,478.369,222.382z M164.759,252.199
	c-16.441,0-29.817-13.375-29.817-29.817c0-11.287,6.279-21.272,15.789-26.324c1.799,18.806,8.304,37.854,18.865,55.743
	C168.011,252.06,166.398,252.199,164.759,252.199z M188.709,252.184c-14.471-21.209-22.661-44.797-22.661-66.728
	c0-38.089,14.314-72.667,40.306-97.366c25.749-24.468,61.37-37.942,100.302-37.942s74.553,13.475,100.302,37.942
	c25.992,24.699,40.306,59.277,40.306,97.366c0,21.931-8.191,45.519-22.661,66.727c5.14-15.026,8.574-32.39,8.813-53.082
	c0.243-21.047-8.117-41.623-22.935-56.452c-14.582-14.592-33.853-22.515-54.287-22.287c-17.259,0.186-33.49,5.991-46.938,16.787
	c-1.506,1.208-3.692,1.209-5.197,0c-13.449-10.796-29.68-16.601-46.939-16.787c-20.426-0.225-39.707,7.695-54.288,22.287
	c-14.818,14.829-23.178,35.405-22.934,56.451C180.135,219.792,183.569,237.157,188.709,252.184z M226.437,290.965
	c-18.647-28.215-30.263-53.643-30.705-92.046c-0.194-16.813,6.476-33.242,18.302-45.077c11.544-11.553,26.808-17.791,42.916-17.646
	c13.679,0.148,26.541,4.747,37.198,13.302c7.25,5.82,17.773,5.82,25.023,0c10.656-8.555,23.519-13.154,37.197-13.302
	c16.106-0.149,31.371,6.092,42.916,17.646c11.825,11.834,18.496,28.264,18.302,45.077c-0.443,38.404-12.061,63.832-30.706,92.046
	c-24.445,17.818-52.737,27.753-80.219,27.753C279.173,318.719,250.882,308.784,226.437,290.965z M217.999,420.705
	c-13.338,3.002-26.671,4.541-39.683,4.541c-4.543,0-9.091-0.189-13.514-0.562c-43.017-3.627-80.254-24.566-107.684-60.554
	c-21.251-27.882-34.48-59.787-39.318-94.833c-4.549-32.941-1.175-67.644,9.756-100.356c24.726-73.995,84.82-130.939,160.753-152.327
	c1.776-0.502,3.644-0.281,5.256,0.623c1.613,0.905,2.777,2.383,3.279,4.162c1.035,3.674-1.112,7.503-4.785,8.538
	C120.546,50.082,63.957,103.685,40.684,173.328c-10.26,30.702-13.431,63.234-9.172,94.077c4.509,32.654,16.828,62.375,36.616,88.335
	c25.351,33.26,58.269,51.817,97.839,55.152c20.047,1.689,41.141-0.694,61.423-6.876c0.436,0.76,0.906,1.497,1.368,2.239
	C224.586,410.675,220.958,415.543,217.999,420.705z M225.995,468.4c-2.805-11.788-1.791-23.656,3.16-34.776
	c2.351-5.279,5.615-10.29,9.57-14.803c1.462,1.468,2.972,2.901,4.575,4.256c3.439,2.908,7.167,5.498,11.128,7.8
	c-2.785,2.982-5.331,6.581-7.206,10.792c-2.087,4.686-3.653,10.947-2.679,18.422C237.475,461.737,231.163,464.835,225.995,468.4z
	 M254.362,487.553c-0.478,2.597-1.939,4.854-4.115,6.353c-1.659,1.143-3.593,1.747-5.595,1.747c-3.262,0-6.312-1.6-8.158-4.28
	c-1.723-2.501-3.258-5.032-4.613-7.585c4.534-3.82,10.923-7.299,17.832-8.588c0.893,1.618,1.906,3.268,3.067,4.952
	C254.278,482.328,254.84,484.955,254.362,487.553z M305.467,427.623c-35.18,0-72.772-17.386-72.772-66.183
	c0-14.982,3.594-29.377,10.432-42.055c20.387,9.855,42.143,15.168,63.528,15.168c20.721,0,41.792-4.989,61.626-14.264
	c6.525,12.464,9.957,26.547,9.957,41.15C378.239,410.236,340.648,427.623,305.467,427.623z M412.353,460.507
	c-0.207,5.329-4.542,9.504-9.869,9.505c-0.13,0-0.261-0.002-0.395-0.007c-5.449-0.212-9.71-4.817-9.499-10.265
	c0.101-2.604,0.031-5.036-0.173-7.322c5.278-1.963,12.225-3.251,19.604-2.459C412.362,453.368,412.493,456.879,412.353,460.507z
	 M408.345,433.892c-7.431-0.097-14.36,1.232-20.166,3.229c-3.146-6.117-7.488-10.206-11.485-12.867
	c-2.077-1.383-4.27-2.53-6.508-3.463c5.029-4.671,9.288-9.959,12.758-15.79c1.628,0.867,3.207,1.79,4.709,2.79
	C397.312,414.222,404.301,423.147,408.345,433.892z M420.046,355.294c-7.794-4.709-17.188-7.581-26.907-7.979
	c-0.895-6.779-2.439-13.402-4.598-19.79c9.85-0.32,19.657,1.23,28.815,4.595c6.187,2.274,11.946,5.323,17.095,8.982
	C427.988,344.531,423.24,349.708,420.046,355.294z M447.398,353.178c2.612,3.219,4.86,6.649,6.668,10.251
	c1.185,2.36,1.381,5.041,0.55,7.548c-0.831,2.507-2.588,4.54-4.95,5.727c-1.395,0.701-2.882,1.056-4.422,1.056
	c-3.77,0-7.16-2.09-8.85-5.454c-1.109-2.211-2.465-4.307-4.018-6.284C434.223,361.418,438.39,354.896,447.398,353.178z
	 M453.887,396.477l-0.393,1.057c-1.268,3.41-2.578,6.937-4.265,10.458c-1.826,3.811-6.413,5.429-10.224,3.601
	c-2.211-1.059-3.747-3.05-4.201-5.387l-0.054-0.289c-0.689-3.669-1.043-7.743-1.082-12.421c-0.003-0.881,0.016-1.752,0.036-2.622
	c3.508,1.753,7.435,2.72,11.54,2.72c3.598,0,7.203-0.783,10.5-2.26L453.887,396.477z M494.066,329.344l-1.097,1.099
	c-0.989,0.993-1.965,1.956-2.922,2.9c-1.763,1.739-3.428,3.38-5.071,5.104c-2.34,2.454-4.695,5.181-7.236,8.38
	c-3.132,4.003-5.875,8.076-8.313,12.318c-0.347-0.955-0.744-1.898-1.208-2.821c-3.473-6.917-8.186-13.316-13.844-18.997
	c2.42-2.676,4.986-5.124,7.685-7.316c7.631-6.251,16.314-10.687,25.112-12.828c3.894-0.946,7.831,1.449,8.779,5.344
	C496.549,324.997,495.836,327.554,494.066,329.344z M330.003,286.491v-10.884c3.705-3.412,6.046-8.285,6.046-13.707
	c0-4.372-3.545-7.917-7.917-7.917c-4.372,0-7.917,3.545-7.917,7.917c0,1.555-1.265,2.82-2.82,2.82s-2.82-1.265-2.82-2.82
	c0-4.372-3.545-7.917-7.917-7.917c-4.372,0-7.917,3.545-7.917,7.917c0,1.555-1.265,2.82-2.82,2.82c-1.555,0-2.82-1.265-2.82-2.82
	c0-4.372-3.545-7.917-7.917-7.917c-4.372,0-7.917,3.545-7.917,7.917c0,5.422,2.339,10.296,6.045,13.706v10.884
	c0,12.874,10.473,23.347,23.347,23.347S330.003,299.364,330.003,286.491z M299.144,286.491v-6.225
	c2.757-0.483,5.311-1.564,7.512-3.119c2.201,1.555,4.755,2.636,7.512,3.119v6.225c0,4.142-3.37,7.512-7.512,7.512
	C302.514,294.003,299.144,290.633,299.144,286.491z M364.313,256.96c4.372,0,7.917-3.545,7.917-7.917c0-1.406,1.144-2.55,2.55-2.55
	c1.406,0,2.55,1.144,2.55,2.55c0,4.372,3.545,7.917,7.917,7.917c4.372,0,7.917-3.545,7.917-7.917
	c0-10.137-8.248-18.385-18.385-18.385s-18.385,8.248-18.385,18.385C356.396,253.416,359.94,256.96,364.313,256.96z M238.531,230.658
	c-10.137,0-18.385,8.248-18.385,18.385c0,4.372,3.545,7.917,7.917,7.917c4.372,0,7.917-3.545,7.917-7.917
	c0-1.406,1.144-2.55,2.55-2.55s2.55,1.144,2.55,2.55c0,4.372,3.545,7.917,7.917,7.917c4.372,0,7.917-3.545,7.917-7.917
	C256.916,238.906,248.669,230.658,238.531,230.658z"/>
<g>
</g>
<g>
</g>
<g>
</g>
<g>
</g>
<g>
</g>
<g>
</g>
<g>
</g>
<g>
</g>
<g>
</g>
<g>
</g>
<g>
</g>
<g>
</g>
<g>
</g>
<g>
</g>
<g>
</g>
</svg>
