<?xml version="1.0" standalone="no"?>
<!DOCTYPE svg PUBLIC "-//W3C//DTD SVG 20010904//EN"
 "http://www.w3.org/TR/2001/REC-SVG-20010904/DTD/svg10.dtd">
<svg version="1.0" xmlns="http://www.w3.org/2000/svg"
 width="26.000000pt" height="26.000000pt" viewBox="0 0 26.000000 26.000000"
 preserveAspectRatio="xMidYMid meet">
<metadata>
Created by potrace 1.15, written by Peter Selinger 2001-2017
</metadata>
<g transform="translate(0.000000,26.000000) scale(0.100000,-0.100000)"
fill="#000000" stroke="none">
<path d="M52 239 l-33 -21 3 -92 3 -91 33 -3 32 -3 2 63 2 63 5 -75 c6 -73 7
-75 34 -78 18 -2 43 6 68 22 l39 26 0 80 c0 50 -4 80 -11 80 -6 0 -25 -11 -42
-24 -50 -36 -65 -42 -43 -18 11 12 25 22 33 22 7 0 13 9 13 21 0 15 -5 19 -15
15 -9 -3 -15 0 -15 9 0 18 -5 18 -31 5 -15 -8 -19 -7 -19 5 0 21 -19 19 -58
-6z"/>
</g>
</svg>
