<?xml version="1.0" standalone="no"?>
<!DOCTYPE svg PUBLIC "-//W3C//DTD SVG 20010904//EN"
 "http://www.w3.org/TR/2001/REC-SVG-20010904/DTD/svg10.dtd">
<svg version="1.0" xmlns="http://www.w3.org/2000/svg"
 width="47.000000pt" height="76.000000pt" viewBox="0 0 47.000000 76.000000"
 preserveAspectRatio="xMidYMid meet">
<metadata>
Created by potrace 1.15, written by Peter Selinger 2001-2017
</metadata>
<g transform="translate(0.000000,76.000000) scale(0.100000,-0.100000)"
fill="#000000" stroke="none">
<path d="M170 145 c0 -8 -4 -15 -10 -15 -5 0 -10 -22 -10 -50 0 -38 4 -50 15
-50 9 0 15 9 15 23 l1 22 19 -24 c17 -20 26 -23 60 -17 22 3 60 2 85 -4 53
-12 85 0 85 30 0 11 -4 20 -8 20 -5 0 -17 7 -28 16 -19 15 -18 15 4 11 14 -3
22 0 22 8 0 19 -28 27 -51 15 -28 -15 -24 -49 7 -61 33 -12 26 -22 -9 -14 -14
4 -32 21 -43 41 -10 19 -23 34 -29 34 -6 0 -21 -19 -32 -42 l-22 -43 0 43 c-1
23 -5 42 -11 42 -5 0 -10 6 -10 13 0 7 -11 14 -25 15 -16 1 -25 -3 -25 -13z"/>
</g>
</svg>
