<?xml version="1.0" standalone="no"?>
<!DOCTYPE svg PUBLIC "-//W3C//DTD SVG 20010904//EN"
 "http://www.w3.org/TR/2001/REC-SVG-20010904/DTD/svg10.dtd">
<svg version="1.0" xmlns="http://www.w3.org/2000/svg"
 width="55.000000pt" height="77.000000pt" viewBox="0 0 55.000000 77.000000"
 preserveAspectRatio="xMidYMid meet">
<metadata>
Created by potrace 1.15, written by Peter Selinger 2001-2017
</metadata>
<g transform="translate(0.000000,77.000000) scale(0.100000,-0.100000)"
fill="#000000" stroke="none">
<path d="M405 98 c-11 -12 -25 -31 -31 -42 -10 -17 -12 -17 -18 8 -8 34 -46
37 -47 4 l0 -23 -16 23 c-23 33 -33 27 -32 -20 1 -32 3 -37 8 -20 l6 24 19
-21 c27 -29 36 -26 36 12 l1 32 14 -32 c18 -43 29 -42 48 4 l16 38 0 -37 c1
-37 21 -56 21 -20 1 16 1 16 11 -1 14 -25 66 -23 74 3 3 11 3 29 0 40 -8 26
-59 27 -75 3 -9 -15 -10 -12 -6 15 6 38 -2 41 -29 10z"/>
</g>
</svg>
