<?xml version="1.0" standalone="no"?>
<!DOCTYPE svg PUBLIC "-//W3C//DTD SVG 20010904//EN"
 "http://www.w3.org/TR/2001/REC-SVG-20010904/DTD/svg10.dtd">
<svg version="1.0" xmlns="http://www.w3.org/2000/svg"
 width="169.000000pt" height="169.000000pt" viewBox="0 0 169.000000 169.000000"
 preserveAspectRatio="xMidYMid meet">
<metadata>
Created by potrace 1.15, written by Peter Selinger 2001-2017
</metadata>
<g transform="translate(0.000000,169.000000) scale(0.100000,-0.100000)"
fill="#000000" stroke="none">
<path d="M1 1043 l0 -648 28 86 c15 47 40 108 55 135 l27 49 -33 -32 c-19 -18
-37 -33 -41 -33 -3 0 -4 15 0 33 12 67 68 182 140 289 41 61 72 112 70 115 -3
2 -30 -7 -61 -21 -31 -14 -56 -22 -56 -19 0 15 101 154 152 209 71 76 138 120
205 136 l50 12 11 68 c5 37 24 98 42 136 30 64 32 66 47 47 30 -41 64 -118 75
-171 l11 -55 19 33 c46 76 109 122 187 134 32 5 41 3 41 -7 0 -17 -23 -53 -58
-91 l-26 -28 40 0 c21 1 91 11 154 24 63 13 116 22 118 21 2 -2 -6 -20 -16
-42 -23 -44 -73 -94 -117 -116 -22 -11 -26 -17 -15 -21 24 -8 167 -26 213 -26
l42 0 -25 -20 c-29 -22 -123 -60 -151 -60 -10 0 -19 -4 -19 -8 0 -17 197 -200
235 -219 22 -11 80 -32 129 -48 113 -36 137 -56 155 -131 l13 -59 -42 -38
c-26 -22 -64 -44 -97 -53 -53 -15 -58 -15 -125 7 -38 12 -97 40 -131 61 l-62
39 60 -58 c33 -32 71 -66 85 -75 59 -38 -42 -43 -182 -9 -106 26 -136 26 -216
1 -35 -11 -78 -20 -95 -20 -106 0 -245 155 -265 297 -4 26 -13 48 -21 51 -24
8 -6 -101 27 -171 29 -60 83 -127 130 -159 20 -13 21 -19 12 -44 -21 -53 -24
-193 -6 -267 17 -74 70 -187 112 -243 l26 -34 419 0 419 0 0 845 0 845 -845 0
-845 0 1 -647z"/>
</g>
</svg>
