<?xml version="1.0" standalone="no"?>
<!DOCTYPE svg PUBLIC "-//W3C//DTD SVG 20010904//EN"
 "http://www.w3.org/TR/2001/REC-SVG-20010904/DTD/svg10.dtd">
<svg version="1.0" xmlns="http://www.w3.org/2000/svg"
 width="169.000000pt" height="169.000000pt" viewBox="0 0 169.000000 169.000000"
 preserveAspectRatio="xMidYMid meet">
<metadata>
Created by potrace 1.15, written by Peter Selinger 2001-2017
</metadata>
<g transform="translate(0.000000,169.000000) scale(0.100000,-0.100000)"
fill="#000000" stroke="none">
<path d="M0 845 l0 -845 199 0 199 0 88 93 c49 51 117 130 152 174 l62 81 -47
16 c-116 39 -251 164 -274 252 l-11 41 -23 -22 c-41 -42 -145 -58 -208 -31
-61 25 -117 111 -117 181 0 80 62 156 148 181 51 15 58 15 112 -3 l58 -19 11
76 c27 183 140 313 327 376 185 62 421 14 549 -111 76 -74 125 -196 125 -312
0 -18 2 -33 3 -33 2 0 19 8 38 17 79 39 197 6 247 -70 59 -89 23 -231 -71
-276 -70 -34 -176 -23 -222 23 l-22 22 -11 -42 c-23 -84 -117 -176 -242 -236
-36 -17 -67 -32 -69 -34 -7 -7 91 -120 201 -231 l111 -113 188 0 189 0 0 845
0 845 -845 0 -845 0 0 -845z"/>
<path d="M1002 787 c-32 -77 -79 -119 -139 -124 -32 -3 -62 1 -87 11 -47 19
-66 20 -66 3 0 -17 58 -45 108 -53 92 -15 182 47 222 152 24 66 24 64 2 64
-13 0 -25 -17 -40 -53z"/>
</g>
</svg>
