<?xml version="1.0" standalone="no"?>
<!DOCTYPE svg PUBLIC "-//W3C//DTD SVG 20010904//EN"
 "http://www.w3.org/TR/2001/REC-SVG-20010904/DTD/svg10.dtd">
<svg version="1.0" xmlns="http://www.w3.org/2000/svg"
 width="26.000000pt" height="26.000000pt" viewBox="0 0 26.000000 26.000000"
 preserveAspectRatio="xMidYMid meet">
<metadata>
Created by potrace 1.15, written by Peter Selinger 2001-2017
</metadata>
<g transform="translate(0.000000,26.000000) scale(0.100000,-0.100000)"
fill="#000000" stroke="none">
<path d="M26 239 c-21 -16 -26 -29 -26 -64 0 -24 5 -47 11 -50 6 -4 7 -19 4
-36 -6 -26 -4 -29 17 -29 13 0 29 4 37 9 10 6 22 5 35 -5 11 -8 30 -14 41 -14
12 0 30 -7 41 -15 18 -14 64 -21 64 -9 0 3 -4 14 -10 24 -7 13 -6 21 5 30 8 7
15 27 15 44 0 26 -11 42 -55 84 -50 48 -58 52 -103 52 -35 0 -57 -6 -76 -21z"/>
</g>
</svg>
