<?xml version="1.0" standalone="no"?>
<!DOCTYPE svg PUBLIC "-//W3C//DTD SVG 20010904//EN"
 "http://www.w3.org/TR/2001/REC-SVG-20010904/DTD/svg10.dtd">
<svg version="1.0" xmlns="http://www.w3.org/2000/svg"
 width="169.000000pt" height="169.000000pt" viewBox="0 0 169.000000 169.000000"
 preserveAspectRatio="xMidYMid meet">
<metadata>
Created by potrace 1.15, written by Peter Selinger 2001-2017
</metadata>
<g transform="translate(0.000000,169.000000) scale(0.100000,-0.100000)"
fill="#000000" stroke="none">
<path d="M10 845 l0 -845 840 0 840 0 0 845 0 845 -840 0 -840 0 0 -845z m328
485 c62 -50 81 -50 239 -9 198 51 321 50 545 -7 136 -34 166 -32 211 11 43 42
82 54 105 32 15 -15 14 -21 -8 -74 -33 -81 -36 -142 -10 -248 43 -180 37 -337
-20 -507 -17 -49 -30 -98 -30 -109 0 -11 16 -43 35 -71 68 -99 28 -141 -95
-99 -74 25 -97 25 -200 -4 -87 -24 -235 -38 -349 -33 -83 4 -122 12 -181 33
-91 35 -146 36 -228 5 -51 -19 -67 -21 -87 -12 -36 16 -32 55 10 113 19 27 35
57 35 68 0 10 -11 44 -25 76 -62 139 -70 319 -25 530 25 117 23 178 -10 257
-19 47 -21 60 -10 73 20 24 44 18 98 -25z"/>
<path d="M578 1022 c-38 -23 -62 -76 -54 -120 17 -108 172 -137 221 -42 19 38
19 100 -1 128 -35 50 -115 67 -166 34z"/>
<path d="M918 1024 c-78 -42 -74 -170 7 -208 41 -20 66 -20 110 -2 59 25 82
104 50 166 -28 55 -109 76 -167 44z"/>
</g>
</svg>
