<?xml version="1.0" standalone="no"?>
<!DOCTYPE svg PUBLIC "-//W3C//DTD SVG 20010904//EN"
 "http://www.w3.org/TR/2001/REC-SVG-20010904/DTD/svg10.dtd">
<svg version="1.0" xmlns="http://www.w3.org/2000/svg"
 width="169.000000pt" height="169.000000pt" viewBox="0 0 169.000000 169.000000"
 preserveAspectRatio="xMidYMid meet">
<metadata>
Created by potrace 1.15, written by Peter Selinger 2001-2017
</metadata>
<g transform="translate(0.000000,169.000000) scale(0.100000,-0.100000)"
fill="#000000" stroke="none">
<path d="M0 845 l0 -845 283 0 284 0 63 57 63 57 -65 22 c-88 29 -123 49 -175
97 -67 62 -95 125 -101 224 -5 97 10 151 64 224 37 50 125 119 202 158 l43 22
-50 42 c-119 99 -226 273 -266 433 -28 109 -32 192 -10 233 17 33 64 56 98 47
45 -11 144 -85 223 -168 88 -92 139 -179 204 -351 27 -69 39 -93 40 -73 2 126
118 353 244 476 84 83 151 121 221 123 47 2 58 -1 68 -18 52 -87 27 -280 -58
-450 -58 -117 -102 -175 -175 -232 -33 -25 -60 -49 -60 -53 0 -4 19 -20 42
-36 53 -37 121 -129 147 -199 83 -222 -20 -423 -262 -510 l-62 -23 80 -51 80
-51 263 0 262 0 0 845 0 845 -845 0 -845 0 0 -845z"/>
<path d="M794 615 c-30 -31 -26 -55 19 -102 l31 -33 -17 -35 c-9 -20 -24 -38
-32 -42 -20 -7 -59 29 -75 68 -12 28 -33 38 -44 20 -10 -16 22 -78 55 -105 43
-37 86 -32 115 11 l21 31 26 -26 c51 -50 121 -29 153 47 19 45 18 61 -4 61
-13 0 -22 -12 -31 -40 -8 -28 -19 -42 -35 -46 -29 -7 -61 9 -77 37 -9 18 -7
25 15 48 35 37 35 83 0 110 -37 29 -89 27 -120 -4z"/>
</g>
</svg>
