<?xml version="1.0" standalone="no"?>
<!DOCTYPE svg PUBLIC "-//W3C//DTD SVG 20010904//EN"
 "http://www.w3.org/TR/2001/REC-SVG-20010904/DTD/svg10.dtd">
<svg version="1.0" xmlns="http://www.w3.org/2000/svg"
 width="169.000000pt" height="169.000000pt" viewBox="0 0 169.000000 169.000000"
 preserveAspectRatio="xMidYMid meet">
<metadata>
Created by potrace 1.15, written by Peter Selinger 2001-2017
</metadata>
<g transform="translate(0.000000,169.000000) scale(0.100000,-0.100000)"
fill="#000000" stroke="none">
<path d="M0 845 l0 -845 308 2 307 3 12 80 c15 105 16 297 1 347 -7 25 -28 54
-55 77 -46 41 -52 51 -28 51 32 0 115 93 115 130 0 23 -30 8 -51 -26 -30 -49
-74 -74 -130 -74 -47 0 -72 -17 -98 -67 -16 -30 -14 -109 3 -142 24 -45 82
-90 126 -97 22 -4 43 -10 45 -14 3 -5 -5 -37 -18 -72 -21 -60 -24 -63 -52 -60
-50 6 -131 38 -180 72 -47 32 -121 124 -157 193 -83 164 -76 444 17 632 88
176 253 309 445 356 69 17 231 15 290 -3 45 -14 45 -14 90 21 25 19 70 46 100
60 48 23 68 26 155 26 87 0 107 -3 157 -27 122 -57 198 -171 206 -309 5 -87
-9 -140 -66 -254 -40 -81 -51 -160 -34 -266 16 -101 1 -151 -62 -214 -80 -80
-179 -95 -260 -40 l-35 24 9 -24 c30 -78 97 -184 194 -307 l61 -77 138 -1 137
0 0 845 0 845 -845 0 -845 0 0 -845z"/>
<path d="M635 1015 c-17 -16 -25 -35 -25 -59 0 -48 8 -65 41 -81 43 -23 77
-18 110 14 60 61 24 151 -61 151 -30 0 -47 -6 -65 -25z"/>
</g>
</svg>
