<?xml version="1.0" standalone="no"?>
<!DOCTYPE svg PUBLIC "-//W3C//DTD SVG 20010904//EN"
 "http://www.w3.org/TR/2001/REC-SVG-20010904/DTD/svg10.dtd">
<svg version="1.0" xmlns="http://www.w3.org/2000/svg"
 width="169.000000pt" height="169.000000pt" viewBox="0 0 169.000000 169.000000"
 preserveAspectRatio="xMidYMid meet">
<metadata>
Created by potrace 1.15, written by Peter Selinger 2001-2017
</metadata>
<g transform="translate(0.000000,169.000000) scale(0.100000,-0.100000)"
fill="#000000" stroke="none">
<path d="M0 845 l0 -845 845 0 845 0 0 845 0 845 -845 0 -845 0 0 -845z m1117
290 l331 -157 20 -111 c12 -62 24 -139 27 -172 9 -74 33 -123 82 -164 l38 -32
-29 4 c-27 4 -28 3 -22 -27 l6 -31 -50 50 c-77 76 -88 99 -105 222 -17 129
-30 192 -43 205 -6 6 -42 -7 -96 -34 l-86 -42 0 -118 0 -118 -67 -50 c-81 -60
-207 -123 -282 -140 -115 -27 -242 13 -422 132 l-79 52 0 126 0 126 -130 64
c-72 35 -130 67 -130 70 1 8 684 308 695 305 6 -1 159 -73 342 -160z"/>
</g>
</svg>
