<?xml version="1.0" standalone="no"?>
<!DOCTYPE svg PUBLIC "-//W3C//DTD SVG 20010904//EN"
 "http://www.w3.org/TR/2001/REC-SVG-20010904/DTD/svg10.dtd">
<svg version="1.0" xmlns="http://www.w3.org/2000/svg"
 width="169.000000pt" height="169.000000pt" viewBox="0 0 169.000000 169.000000"
 preserveAspectRatio="xMidYMid meet">
<metadata>
Created by potrace 1.15, written by Peter Selinger 2001-2017
</metadata>
<g transform="translate(0.000000,169.000000) scale(0.100000,-0.100000)"
fill="#000000" stroke="none">
<path d="M0 845 l0 -845 181 0 180 0 22 47 c29 65 35 184 13 251 -21 62 -71
121 -139 162 -134 82 -151 125 -151 375 0 180 18 333 54 464 21 74 71 184 90
196 17 11 161 -145 220 -238 l55 -87 85 6 c124 9 445 10 520 2 l65 -7 63 99
c65 102 156 204 206 230 26 13 29 13 42 -5 29 -40 37 -96 41 -295 8 -326 -20
-631 -61 -693 -30 -45 -136 -122 -256 -187 -56 -30 -105 -61 -107 -68 -7 -17
39 -125 83 -196 l36 -56 224 0 224 0 0 845 0 845 -845 0 -845 0 0 -845z"/>
<path d="M428 1004 c-78 -42 -76 -171 2 -218 85 -50 190 10 190 109 0 99 -104
158 -192 109z"/>
<path d="M973 995 c-43 -19 -73 -69 -73 -123 0 -37 6 -50 33 -77 60 -60 134
-59 186 1 59 66 36 166 -45 200 -41 17 -60 17 -101 -1z"/>
<path d="M617 793 c-15 -14 -5 -54 30 -122 l36 -72 -29 -42 c-42 -59 -74 -73
-119 -51 -20 9 -50 36 -67 60 -30 43 -68 59 -68 30 0 -22 61 -98 100 -124 28
-19 44 -23 80 -19 39 4 51 12 91 56 l46 52 34 -32 c65 -61 133 -72 198 -32 38
24 121 105 121 120 0 29 -25 22 -68 -20 -54 -52 -99 -77 -138 -77 -31 0 -80
30 -105 64 -16 21 -15 24 37 87 29 35 54 70 54 77 0 25 -81 52 -156 52 -39 0
-74 -3 -77 -7z"/>
</g>
</svg>
