<?xml version="1.0" standalone="no"?>
<!DOCTYPE svg PUBLIC "-//W3C//DTD SVG 20010904//EN"
 "http://www.w3.org/TR/2001/REC-SVG-20010904/DTD/svg10.dtd">
<svg version="1.0" xmlns="http://www.w3.org/2000/svg"
 width="32.000000pt" height="32.000000pt" viewBox="0 0 32.000000 32.000000"
 preserveAspectRatio="xMidYMid meet">
<metadata>
Created by potrace 1.15, written by Peter Selinger 2001-2017
</metadata>
<g transform="translate(0.000000,32.000000) scale(0.100000,-0.100000)"
fill="#000000" stroke="none">
<path d="M60 255 c-11 -14 -7 -22 25 -55 l39 -40 -39 -40 c-37 -38 -38 -41
-22 -57 16 -16 19 -15 57 22 l40 39 40 -39 c38 -37 41 -38 57 -22 16 16 15 19
-22 57 l-39 40 39 40 c37 38 38 41 22 57 -16 16 -19 15 -57 -22 l-40 -39 -38
37 c-43 42 -45 43 -62 22z"/>
</g>
</svg>
