<?xml version="1.0" standalone="no"?>
<!DOCTYPE svg PUBLIC "-//W3C//DTD SVG 20010904//EN"
 "http://www.w3.org/TR/2001/REC-SVG-20010904/DTD/svg10.dtd">
<svg version="1.0" xmlns="http://www.w3.org/2000/svg"
 width="277.000000pt" height="276.000000pt" viewBox="0 0 277.000000 276.000000"
 preserveAspectRatio="xMidYMid meet">
<metadata>
Created by potrace 1.15, written by Peter Selinger 2001-2017
</metadata>
<g transform="translate(0.000000,276.000000) scale(0.100000,-0.100000)"
fill="#000000" stroke="none">
<path d="M1575 661 c-66 -27 -80 -146 -22 -186 34 -24 90 -19 116 9 13 14 20
29 16 35 -8 14 -35 14 -35 1 0 -19 -41 -33 -66 -21 -20 9 -24 18 -24 59 0 26
5 53 12 60 17 17 53 15 68 -3 16 -19 50 -19 50 0 0 31 -78 61 -115 46z"/>
<path d="M420 560 l0 -100 54 0 c69 0 83 6 101 41 19 36 19 82 0 118 -18 35
-32 41 -101 41 l-54 0 0 -100z"/>
<path d="M720 560 c0 -93 1 -100 20 -100 17 0 20 7 20 39 l0 40 47 3 c40 3 50
7 63 31 13 24 13 30 0 55 -14 25 -21 27 -83 30 l-67 3 0 -101z"/>
<path d="M920 560 l0 -100 80 0 c64 0 80 3 80 15 0 12 -13 15 -60 15 -60 0
-60 0 -60 29 0 29 2 30 52 33 74 4 77 28 4 28 -53 0 -56 1 -56 25 0 24 3 25
55 25 42 0 55 3 55 15 0 12 -15 15 -75 15 l-75 0 0 -100z"/>
<path d="M1310 578 c0 -46 4 -89 9 -96 11 -17 69 -30 101 -22 36 8 50 45 50
128 0 65 -2 72 -20 72 -18 0 -20 -7 -20 -69 0 -88 -5 -101 -41 -101 -38 0 -49
24 -49 104 0 52 -3 66 -15 66 -12 0 -15 -16 -15 -82z"/>
<path d="M1734 563 c1 -85 3 -98 19 -101 18 -4 21 7 17 61 -1 26 1 27 44 27
l46 0 0 -45 c0 -38 3 -45 20 -45 19 0 20 7 20 100 0 93 -1 100 -20 100 -17 0
-20 -7 -20 -40 l0 -40 -45 0 -45 0 0 40 c0 32 -4 40 -18 40 -17 0 -19 -9 -18
-97z"/>
<path d="M1950 560 l0 -100 80 0 c64 0 80 3 80 15 0 12 -13 15 -60 15 l-60 0
0 30 c0 30 1 30 55 30 42 0 55 3 55 15 0 12 -13 15 -55 15 -52 0 -55 1 -55 25
0 24 3 25 55 25 42 0 55 3 55 15 0 12 -15 15 -75 15 l-75 0 0 -100z"/>
</g>
</svg>
