<?xml version="1.0" standalone="no"?>
<!DOCTYPE svg PUBLIC "-//W3C//DTD SVG 20010904//EN"
 "http://www.w3.org/TR/2001/REC-SVG-20010904/DTD/svg10.dtd">
<svg version="1.0" xmlns="http://www.w3.org/2000/svg"
 width="169.000000pt" height="169.000000pt" viewBox="0 0 169.000000 169.000000"
 preserveAspectRatio="xMidYMid meet">
<metadata>
Created by potrace 1.15, written by Peter Selinger 2001-2017
</metadata>
<g transform="translate(0.000000,169.000000) scale(0.100000,-0.100000)"
fill="#000000" stroke="none">
<path d="M0 845 l0 -845 254 0 254 0 -5 98 c-6 115 20 461 47 618 17 96 107
469 125 516 6 14 0 16 -53 11 -82 -8 -142 3 -189 34 -75 48 -72 55 30 99 80
34 101 39 162 37 39 -1 83 -6 99 -12 16 -7 31 -9 33 -7 11 10 -44 92 -75 113
l-33 22 25 16 c13 9 37 15 51 13 23 -2 31 -13 52 -66 15 -37 29 -60 34 -55 5
5 12 46 16 91 l6 82 33 0 c61 0 66 -7 37 -51 -14 -21 -28 -59 -30 -83 l-5 -45
39 -10 c58 -16 115 -61 153 -122 62 -100 105 -136 221 -184 74 -31 81 -39 73
-80 -12 -65 -9 -63 -99 -66 -46 -2 -87 -8 -92 -12 -4 -5 10 -24 31 -43 22 -19
33 -34 26 -34 -15 0 -342 107 -378 123 -12 6 -32 27 -44 46 -12 20 -23 38 -24
40 -2 1 -7 0 -13 -4 -17 -10 26 -83 61 -105 18 -11 45 -22 60 -26 21 -4 27
-10 24 -22 -39 -125 -50 -435 -22 -577 21 -104 59 -215 99 -290 l32 -60 338
-3 337 -2 0 845 0 845 -845 0 -845 0 0 -845z m1186 647 c-17 -49 -72 -124
-106 -142 -14 -7 -26 -1 -59 30 -23 22 -48 40 -56 40 -8 0 -15 4 -15 10 0 19
62 79 93 89 33 11 149 29 156 25 1 -2 -4 -25 -13 -52z"/>
</g>
</svg>
