<?xml version="1.0" standalone="no"?>
<!DOCTYPE svg PUBLIC "-//W3C//DTD SVG 20010904//EN"
 "http://www.w3.org/TR/2001/REC-SVG-20010904/DTD/svg10.dtd">
<svg version="1.0" xmlns="http://www.w3.org/2000/svg"
 width="169.000000pt" height="169.000000pt" viewBox="0 0 169.000000 169.000000"
 preserveAspectRatio="xMidYMid meet">
<metadata>
Created by potrace 1.15, written by Peter Selinger 2001-2017
</metadata>
<g transform="translate(0.000000,169.000000) scale(0.100000,-0.100000)"
fill="#000000" stroke="none">
<path d="M0 845 l0 -845 163 0 162 0 57 152 56 153 -21 14 c-12 8 -47 40 -78
71 -89 90 -126 212 -136 460 -5 127 -3 158 16 248 12 56 28 121 36 143 14 39
14 42 -10 73 -30 39 -34 104 -9 142 35 53 113 69 169 36 29 -18 30 -18 70 8
95 63 183 79 299 55 43 -9 81 -14 84 -11 3 3 -1 6 -9 6 -17 0 -113 59 -106 66
2 2 82 -5 178 -15 160 -19 256 -40 286 -63 8 -6 25 -1 50 16 65 45 137 31 180
-33 30 -44 29 -75 -3 -130 l-25 -45 26 -57 c59 -133 83 -294 66 -456 -24 -228
-67 -350 -160 -454 l-50 -56 69 -159 69 -159 131 -3 130 -3 0 846 0 845 -845
0 -845 0 0 -845z"/>
<path d="M660 1007 c-53 -27 -63 -110 -17 -142 12 -8 38 -15 58 -15 69 0 104
81 57 134 -28 31 -65 40 -98 23z"/>
<path d="M1023 1001 c-39 -24 -50 -68 -29 -109 17 -34 34 -42 81 -42 66 0 101
92 53 138 -34 31 -68 35 -105 13z"/>
<path d="M813 707 l47 -43 -23 -45 c-22 -40 -27 -44 -66 -47 -52 -4 -76 14
-86 64 -4 26 -11 34 -23 32 -36 -8 -1 -111 44 -128 14 -6 43 -10 66 -10 32 0
47 7 72 33 18 17 36 39 39 47 6 13 8 13 14 0 3 -8 19 -27 34 -42 35 -35 107
-40 138 -9 21 21 37 81 27 106 -11 30 -36 17 -36 -19 0 -42 -22 -66 -61 -66
-22 0 -36 9 -59 42 -16 22 -30 44 -30 47 0 3 16 16 35 29 44 28 49 58 8 46
-33 -10 -93 -10 -148 0 l-40 7 48 -44z"/>
</g>
</svg>
