<?xml version="1.0" standalone="no"?>
<!DOCTYPE svg PUBLIC "-//W3C//DTD SVG 20010904//EN"
 "http://www.w3.org/TR/2001/REC-SVG-20010904/DTD/svg10.dtd">
<svg version="1.0" xmlns="http://www.w3.org/2000/svg"
 width="344.000000pt" height="327.000000pt" viewBox="0 0 344.000000 327.000000"
 preserveAspectRatio="xMidYMid meet">
<metadata>
Created by potrace 1.15, written by Peter Selinger 2001-2017
</metadata>
<g transform="translate(0.000000,327.000000) scale(0.100000,-0.100000)"
fill="#000000" stroke="none">
<path d="M2785 3256 c-88 -28 -240 -127 -269 -176 -18 -31 -18 -32 5 -56 37
-39 53 -38 121 9 78 53 137 71 221 65 124 -8 242 -89 299 -206 33 -68 37 -178
8 -255 -40 -106 -147 -190 -277 -217 -72 -15 -137 3 -302 84 -163 81 -190 83
-340 31 -162 -57 -206 -65 -401 -75 -362 -19 -515 -68 -606 -195 -42 -60 -58
-127 -52 -226 l5 -79 -38 0 c-62 0 -180 -26 -265 -59 -183 -71 -317 -193 -440
-401 -136 -230 -229 -308 -380 -318 -41 -2 -74 -8 -74 -13 0 -16 85 -31 145
-26 52 4 98 19 220 73 6 3 10 -62 10 -183 0 -156 4 -208 23 -303 31 -155 107
-377 194 -570 l72 -160 131 0 131 0 12 88 c35 259 145 473 277 537 59 29 175
28 237 -3 141 -69 285 -290 350 -537 l23 -85 170 0 170 0 2 138 c8 447 125
907 308 1217 52 88 223 311 314 410 l46 50 -78 7 c-48 4 -98 16 -130 31 -50
23 -117 72 -117 86 0 3 50 5 110 3 316 -11 530 90 684 322 155 233 182 534 67
731 -103 176 -268 275 -456 274 -49 0 -108 -6 -130 -13z m-933 -979 c141 -69
208 -175 208 -327 0 -206 -139 -420 -308 -475 -113 -37 -218 -5 -328 98 -51
47 -74 79 -109 151 -84 171 -97 309 -39 415 67 124 194 182 390 178 105 -2
114 -4 186 -40z m627 -11 c51 -27 68 -112 31 -159 -24 -31 -78 -50 -114 -41
-68 17 -103 126 -53 171 50 45 88 53 136 29z"/>
</g>
</svg>
