<?xml version="1.0" standalone="no"?>
<!DOCTYPE svg PUBLIC "-//W3C//DTD SVG 20010904//EN"
 "http://www.w3.org/TR/2001/REC-SVG-20010904/DTD/svg10.dtd">
<svg version="1.0" xmlns="http://www.w3.org/2000/svg"
 width="169.000000pt" height="169.000000pt" viewBox="0 0 169.000000 169.000000"
 preserveAspectRatio="xMidYMid meet">
<metadata>
Created by potrace 1.15, written by Peter Selinger 2001-2017
</metadata>
<g transform="translate(0.000000,169.000000) scale(0.100000,-0.100000)"
fill="#000000" stroke="none">
<path d="M0 845 l0 -845 209 0 209 0 37 58 c37 59 108 201 119 238 5 18 -3 26
-61 55 -90 45 -180 135 -224 224 -28 57 -34 81 -37 155 -7 145 29 237 140 355
l60 65 -67 0 c-121 0 -173 47 -182 164 -10 121 60 197 188 204 59 4 74 1 111
-21 79 -46 111 -152 74 -242 l-15 -35 27 14 c139 72 403 61 557 -22 l53 -29
-10 29 c-18 52 -5 141 26 183 78 102 240 96 323 -12 53 -69 39 -194 -28 -259
-29 -28 -35 -29 -118 -29 l-87 0 33 -55 c53 -86 73 -166 73 -284 0 -169 -35
-264 -135 -361 -54 -53 -142 -105 -212 -126 -24 -7 -43 -15 -43 -18 0 -14 24
-91 52 -168 l30 -83 294 0 294 0 0 845 0 845 -845 0 -845 0 0 -845z"/>
<path d="M1013 991 c-40 -25 -53 -49 -53 -101 0 -68 58 -110 134 -96 38 7 63
31 75 72 26 94 -76 175 -156 125z"/>
<path d="M595 957 c-45 -45 -49 -99 -9 -146 73 -87 218 -10 185 99 -15 50 -41
71 -95 77 -42 5 -48 3 -81 -30z"/>
<path d="M785 788 c-55 -30 -58 -68 -9 -115 42 -39 40 -58 -11 -78 -53 -23
-72 -19 -119 25 -36 33 -45 38 -55 26 -9 -11 -6 -21 15 -45 57 -68 140 -79
208 -27 30 23 35 24 47 10 24 -29 71 -46 107 -40 40 6 82 41 82 68 0 25 -22
22 -50 -7 -31 -33 -62 -32 -102 4 l-32 28 31 17 c61 31 81 88 43 126 -15 15
-33 20 -77 20 -32 0 -67 -6 -78 -12z"/>
</g>
</svg>
