<?xml version="1.0" standalone="no"?>
<!DOCTYPE svg PUBLIC "-//W3C//DTD SVG 20010904//EN"
 "http://www.w3.org/TR/2001/REC-SVG-20010904/DTD/svg10.dtd">
<svg version="1.0" xmlns="http://www.w3.org/2000/svg"
 width="26.000000pt" height="26.000000pt" viewBox="0 0 26.000000 26.000000"
 preserveAspectRatio="xMidYMid meet">
<metadata>
Created by potrace 1.15, written by Peter Selinger 2001-2017
</metadata>
<g transform="translate(0.000000,26.000000) scale(0.100000,-0.100000)"
fill="#000000" stroke="none">
<path d="M30 250 c0 -5 -7 -10 -15 -10 -11 0 -15 -12 -15 -49 0 -28 5 -53 10
-56 6 -3 10 -35 10 -71 l0 -64 120 0 120 0 0 110 c0 102 -1 110 -19 110 -11 0
-22 -6 -24 -12 -3 -7 -6 -3 -6 10 -1 12 -5 22 -11 22 -5 0 -10 -10 -11 -22 0
-13 -3 -17 -6 -10 -2 6 -10 12 -17 12 -7 0 -21 9 -31 20 -13 14 -31 20 -62 20
-23 0 -43 -4 -43 -10z m208 -157 l-3 -68 -95 0 -95 0 -3 43 -3 42 40 0 c31 0
44 6 58 25 14 19 27 24 61 25 l43 0 -3 -67z"/>
</g>
</svg>
