<?xml version="1.0" standalone="no"?>
<!DOCTYPE svg PUBLIC "-//W3C//DTD SVG 20010904//EN"
 "http://www.w3.org/TR/2001/REC-SVG-20010904/DTD/svg10.dtd">
<svg version="1.0" xmlns="http://www.w3.org/2000/svg"
 width="169.000000pt" height="169.000000pt" viewBox="0 0 169.000000 169.000000"
 preserveAspectRatio="xMidYMid meet">
<metadata>
Created by potrace 1.15, written by Peter Selinger 2001-2017
</metadata>
<g transform="translate(0.000000,169.000000) scale(0.100000,-0.100000)"
fill="#000000" stroke="none">
<path d="M0 845 l0 -845 114 0 114 0 32 57 c54 95 104 165 161 222 53 52 131
100 166 102 10 0 -9 8 -42 18 -128 37 -221 105 -264 193 -27 58 -43 199 -30
279 12 77 27 112 79 188 l41 61 -64 0 c-156 0 -234 114 -166 246 48 93 182
157 281 133 85 -20 129 -93 108 -181 -5 -24 -10 -46 -10 -49 0 -3 30 9 68 28
149 73 418 59 561 -30 33 -20 34 -20 27 -1 -34 89 -22 178 33 233 62 62 143
72 229 27 41 -21 119 -126 128 -172 20 -106 -57 -190 -185 -201 l-59 -6 37
-56 c62 -92 74 -132 79 -270 5 -146 -7 -212 -49 -271 -36 -49 -124 -108 -210
-140 l-62 -23 39 -12 c88 -26 119 -65 198 -249 l52 -121 142 -3 142 -3 0 846
0 845 -845 0 -845 0 0 -845z"/>
<path d="M608 1004 c-56 -30 -77 -125 -38 -164 54 -54 150 13 150 105 0 64
-52 92 -112 59z"/>
<path d="M1053 970 c-32 -13 -63 -68 -63 -113 0 -41 35 -87 65 -87 58 0 113
79 101 144 -10 54 -51 77 -103 56z"/>
<path d="M758 753 c-29 -7 -32 -42 -8 -75 16 -22 19 -32 10 -43 -27 -32 -83
-22 -102 20 -11 24 -38 35 -38 15 0 -59 87 -109 140 -80 15 8 25 4 49 -20 18
-18 40 -30 56 -30 35 0 105 37 105 55 0 19 -18 19 -50 0 -38 -21 -76 -19 -94
7 -20 29 -20 48 -1 48 9 0 27 11 41 25 32 32 19 60 -34 75 -38 10 -46 11 -74
3z"/>
</g>
</svg>
