<?xml version="1.0" standalone="no"?>
<!DOCTYPE svg PUBLIC "-//W3C//DTD SVG 20010904//EN"
 "http://www.w3.org/TR/2001/REC-SVG-20010904/DTD/svg10.dtd">
<svg version="1.0" xmlns="http://www.w3.org/2000/svg"
 width="169.000000pt" height="169.000000pt" viewBox="0 0 169.000000 169.000000"
 preserveAspectRatio="xMidYMid meet">
<metadata>
Created by potrace 1.15, written by Peter Selinger 2001-2017
</metadata>
<g transform="translate(0.000000,169.000000) scale(0.100000,-0.100000)"
fill="#000000" stroke="none">
<path d="M0 919 l0 -772 90 7 c183 14 331 70 453 171 37 31 67 60 67 63 0 4
-20 20 -45 35 -170 108 -268 328 -236 529 16 96 43 151 107 219 71 74 123 107
248 159 159 66 227 124 265 225 16 43 20 47 28 30 12 -29 8 -127 -6 -153 -9
-17 -9 -22 1 -22 18 0 134 56 171 82 l30 22 -6 -40 c-4 -21 -20 -58 -37 -81
l-30 -43 31 0 c87 0 250 -141 312 -270 45 -95 61 -176 55 -288 -3 -72 -9 -100
-33 -148 -38 -77 -113 -150 -206 -198 -88 -46 -129 -81 -129 -112 0 -14 32
-57 86 -116 47 -51 105 -121 127 -155 l41 -63 153 0 153 0 0 845 0 845 -845 0
-845 0 0 -771z"/>
<path d="M767 1069 c-24 -14 -47 -62 -47 -100 0 -47 56 -99 107 -99 101 0 148
120 72 184 -33 28 -97 35 -132 15z"/>
<path d="M1178 1011 c-28 -25 -33 -36 -33 -76 0 -40 5 -51 33 -76 45 -40 99
-40 144 0 28 25 33 36 33 76 0 40 -5 51 -33 76 -24 22 -42 29 -72 29 -30 0
-48 -7 -72 -29z"/>
</g>
</svg>
