<?xml version="1.0" standalone="no"?>
<!DOCTYPE svg PUBLIC "-//W3C//DTD SVG 20010904//EN"
 "http://www.w3.org/TR/2001/REC-SVG-20010904/DTD/svg10.dtd">
<svg version="1.0" xmlns="http://www.w3.org/2000/svg"
 width="169.000000pt" height="169.000000pt" viewBox="0 0 169.000000 169.000000"
 preserveAspectRatio="xMidYMid meet">
<metadata>
Created by potrace 1.15, written by Peter Selinger 2001-2017
</metadata>
<g transform="translate(0.000000,169.000000) scale(0.100000,-0.100000)"
fill="#000000" stroke="none">
<path d="M0 845 l0 -845 219 0 219 0 40 63 c46 73 99 175 117 228 l13 37 -41
16 c-55 21 -153 95 -193 146 -18 23 -36 41 -40 41 -4 0 -13 -18 -20 -41 -24
-80 -56 -95 -129 -61 -52 24 -99 76 -115 125 -16 51 -7 152 20 234 40 114 194
318 272 358 31 16 74 18 83 4 3 -5 29 7 58 30 104 78 209 110 361 110 149 0
296 -46 380 -120 l34 -30 10 30 c26 73 130 5 239 -155 58 -87 82 -137 104
-222 44 -172 9 -282 -106 -334 -69 -32 -114 -21 -130 31 -6 18 -12 13 -46 -32
-63 -84 -155 -148 -256 -178 -27 -9 -43 -19 -43 -29 0 -25 19 -89 52 -173 l29
-78 280 0 279 0 0 845 0 845 -845 0 -845 0 0 -845z"/>
<path d="M1024 992 c-84 -67 -42 -191 64 -192 24 0 52 5 63 10 24 13 49 61 49
95 0 34 -25 82 -49 95 -31 16 -103 12 -127 -8z"/>
<path d="M634 981 c-93 -58 -47 -201 65 -201 50 0 101 54 101 109 0 85 -94
138 -166 92z"/>
<path d="M803 790 c-26 -15 -33 -27 -33 -50 0 -30 30 -72 59 -81 19 -7 2 -38
-30 -54 -48 -26 -88 -19 -125 20 -49 52 -84 45 -48 -10 24 -36 76 -65 119 -65
42 0 104 26 112 47 4 11 10 10 27 -5 51 -47 101 -54 154 -22 37 23 50 46 33
63 -8 8 -18 4 -39 -16 -36 -35 -75 -35 -110 0 -25 25 -25 27 -8 37 72 42 92
91 52 130 -33 34 -114 36 -163 6z"/>
<path d="M776 129 c-35 -30 -83 -106 -73 -115 2 -3 68 -3 147 -2 l142 3 -34
49 c-38 58 -71 83 -114 92 -26 5 -38 0 -68 -27z"/>
</g>
</svg>
