<?xml version="1.0" standalone="no"?>
<!DOCTYPE svg PUBLIC "-//W3C//DTD SVG 20010904//EN"
 "http://www.w3.org/TR/2001/REC-SVG-20010904/DTD/svg10.dtd">
<svg version="1.0" xmlns="http://www.w3.org/2000/svg"
 width="169.000000pt" height="169.000000pt" viewBox="0 0 169.000000 169.000000"
 preserveAspectRatio="xMidYMid meet">
<metadata>
Created by potrace 1.15, written by Peter Selinger 2001-2017
</metadata>
<g transform="translate(0.000000,169.000000) scale(0.100000,-0.100000)"
fill="#000000" stroke="none">
<path d="M0 845 l0 -845 140 0 c131 0 140 1 140 19 0 36 89 197 147 266 32 38
82 84 110 104 l53 35 -53 47 c-29 26 -66 71 -82 100 -30 54 -30 54 -29 219 0
149 3 172 26 242 72 218 227 322 453 305 216 -16 351 -184 395 -492 23 -163 0
-260 -82 -350 -42 -46 -49 -59 -37 -66 9 -4 43 -28 77 -53 97 -72 178 -185
219 -306 l22 -65 95 -3 96 -3 0 846 0 845 -845 0 -845 0 0 -845z m234 526 c10
-11 59 -36 109 -55 51 -20 109 -50 130 -67 l38 -31 -20 -22 c-21 -23 -81 -143
-81 -164 0 -20 -79 -4 -130 27 -87 52 -131 177 -101 289 13 46 28 52 55 23z
m1296 -7 c14 -37 12 -159 -3 -197 -33 -78 -113 -137 -186 -137 -38 0 -40 1
-56 49 -8 26 -29 69 -45 95 -17 26 -30 49 -30 51 0 12 95 66 160 90 41 15 89
38 105 51 38 30 43 29 55 -2z"/>
<path d="M611 1042 c-40 -21 -71 -73 -71 -117 0 -36 30 -88 64 -110 32 -21 94
-22 134 -1 88 45 80 193 -13 232 -46 19 -73 18 -114 -4z"/>
<path d="M991 1042 c-103 -55 -85 -211 26 -241 56 -16 123 12 148 59 35 67 5
158 -60 186 -46 19 -73 18 -114 -4z"/>
</g>
</svg>
