<?xml version="1.0" standalone="no"?>
<!DOCTYPE svg PUBLIC "-//W3C//DTD SVG 20010904//EN"
 "http://www.w3.org/TR/2001/REC-SVG-20010904/DTD/svg10.dtd">
<svg version="1.0" xmlns="http://www.w3.org/2000/svg"
 width="169.000000pt" height="168.000000pt" viewBox="0 0 169.000000 168.000000"
 preserveAspectRatio="xMidYMid meet">
<metadata>
Created by potrace 1.15, written by Peter Selinger 2001-2017
</metadata>
<g transform="translate(0.000000,168.000000) scale(0.100000,-0.100000)"
fill="#000000" stroke="none">
<path d="M0 840 l0 -840 845 0 845 0 0 840 0 840 -845 0 -845 0 0 -840z m578
462 c86 -27 168 -86 221 -159 l45 -62 24 37 c111 168 315 241 503 182 152 -48
233 -167 232 -340 0 -105 -23 -171 -99 -287 -114 -173 -340 -357 -587 -479
l-74 -37 -89 46 c-96 50 -279 183 -395 286 -185 166 -291 363 -275 513 16 153
100 260 239 303 63 20 185 18 255 -3z"/>
<path d="M584 979 c-42 -12 -91 -69 -100 -115 -21 -110 87 -208 195 -176 49
15 87 57 102 113 11 43 10 50 -12 95 -18 37 -35 54 -69 72 -47 24 -67 25 -116
11z m-4 -58 c-14 -26 -12 -82 3 -102 34 -45 92 -50 136 -13 34 28 39 19 16
-26 -19 -37 -62 -60 -111 -60 -51 0 -104 53 -104 104 0 42 22 90 47 105 24 14
25 14 13 -8z"/>
<path d="M994 971 c-58 -27 -88 -72 -89 -137 0 -89 60 -149 150 -149 90 0 150
60 150 150 0 65 -23 100 -85 133 -53 27 -73 27 -126 3z m8 -53 c-23 -23 -14
-77 17 -109 37 -37 79 -38 120 -3 34 28 39 19 17 -25 -54 -104 -216 -63 -216
54 0 33 24 81 47 94 22 12 31 5 15 -11z"/>
<path d="M724 657 c-9 -23 14 -93 41 -125 30 -36 83 -49 122 -30 43 20 74 75
71 122 -4 56 -24 57 -33 0 -8 -56 -42 -94 -83 -94 -37 0 -62 28 -77 87 -12 48
-31 66 -41 40z"/>
</g>
</svg>
