<?xml version="1.0" standalone="no"?>
<!DOCTYPE svg PUBLIC "-//W3C//DTD SVG 20010904//EN"
 "http://www.w3.org/TR/2001/REC-SVG-20010904/DTD/svg10.dtd">
<svg version="1.0" xmlns="http://www.w3.org/2000/svg"
 width="26.000000pt" height="26.000000pt" viewBox="0 0 26.000000 26.000000"
 preserveAspectRatio="xMidYMid meet">
<metadata>
Created by potrace 1.15, written by Peter Selinger 2001-2017
</metadata>
<g transform="translate(0.000000,26.000000) scale(0.100000,-0.100000)"
fill="#000000" stroke="none">
<path d="M110 247 c0 -23 -22 -38 -37 -25 -19 16 -53 -16 -36 -33 16 -16 5
-39 -18 -39 -12 0 -19 -7 -19 -20 0 -13 7 -20 19 -20 23 0 34 -23 18 -39 -18
-18 17 -48 37 -32 12 10 17 9 28 -8 14 -24 48 -28 48 -7 0 19 25 27 39 13 8
-8 16 -7 28 6 13 12 14 20 6 28 -16 16 -5 39 18 39 12 0 19 7 19 20 0 13 -7
20 -19 20 -23 0 -34 23 -18 39 8 8 7 16 -6 28 -12 13 -20 14 -28 6 -16 -16
-39 -5 -39 18 0 12 -7 19 -20 19 -11 0 -20 -6 -20 -13z"/>
</g>
</svg>
