<?xml version="1.0" standalone="no"?>
<!DOCTYPE svg PUBLIC "-//W3C//DTD SVG 20010904//EN"
 "http://www.w3.org/TR/2001/REC-SVG-20010904/DTD/svg10.dtd">
<svg version="1.0" xmlns="http://www.w3.org/2000/svg"
 width="26.000000pt" height="26.000000pt" viewBox="0 0 26.000000 26.000000"
 preserveAspectRatio="xMidYMid meet">
<metadata>
Created by potrace 1.15, written by Peter Selinger 2001-2017
</metadata>
<g transform="translate(0.000000,26.000000) scale(0.100000,-0.100000)"
fill="#000000" stroke="none">
<path d="M0 250 c0 -5 8 -10 19 -10 26 0 36 -16 56 -90 10 -36 24 -75 31 -87
8 -12 14 -31 14 -43 0 -13 7 -20 20 -20 13 0 20 7 20 20 0 11 5 20 10 20 6 0
10 -9 10 -20 0 -13 7 -20 20 -20 13 0 20 7 20 20 0 11 5 20 10 20 6 0 10 5 10
10 0 6 -22 10 -49 10 -28 0 -53 5 -56 10 -4 6 11 10 39 10 43 0 47 2 66 40 11
21 20 48 20 60 0 18 -6 20 -83 20 l-83 0 -11 30 c-10 26 -16 30 -47 30 -20 0
-36 -4 -36 -10z"/>
</g>
</svg>
