<?xml version="1.0" standalone="no"?>
<!DOCTYPE svg PUBLIC "-//W3C//DTD SVG 20010904//EN"
 "http://www.w3.org/TR/2001/REC-SVG-20010904/DTD/svg10.dtd">
<svg version="1.0" xmlns="http://www.w3.org/2000/svg"
 width="26.000000pt" height="26.000000pt" viewBox="0 0 26.000000 26.000000"
 preserveAspectRatio="xMidYMid meet">
<metadata>
Created by potrace 1.15, written by Peter Selinger 2001-2017
</metadata>
<g transform="translate(0.000000,26.000000) scale(0.100000,-0.100000)"
fill="#000000" stroke="none">
<path d="M26 209 c-31 -36 -35 -105 -10 -149 48 -81 180 -81 228 0 25 44 21
113 -10 149 -14 17 -30 31 -35 31 -20 0 -20 -31 0 -56 30 -38 27 -80 -8 -115
-37 -37 -79 -38 -120 -3 -38 31 -41 78 -10 118 20 25 20 56 0 56 -5 0 -21 -14
-35 -31z"/>
</g>
</svg>
