<?xml version="1.0" standalone="no"?>
<!DOCTYPE svg PUBLIC "-//W3C//DTD SVG 20010904//EN"
 "http://www.w3.org/TR/2001/REC-SVG-20010904/DTD/svg10.dtd">
<svg version="1.0" xmlns="http://www.w3.org/2000/svg"
 width="26.000000pt" height="26.000000pt" viewBox="0 0 26.000000 26.000000"
 preserveAspectRatio="xMidYMid meet">
<metadata>
Created by potrace 1.15, written by Peter Selinger 2001-2017
</metadata>
<g transform="translate(0.000000,26.000000) scale(0.100000,-0.100000)"
fill="#000000" stroke="none">
<path d="M103 240 c3 -13 0 -20 -10 -20 -8 0 -28 -13 -44 -29 -25 -25 -29 -37
-29 -81 0 -44 4 -56 29 -81 25 -25 37 -29 81 -29 44 0 56 4 81 29 34 34 39 88
15 156 -13 36 -18 40 -44 38 -26 -2 -29 0 -25 17 5 17 0 20 -27 20 -27 0 -32
-3 -27 -20z"/>
</g>
</svg>
