<?xml version="1.0" standalone="no"?>
<!DOCTYPE svg PUBLIC "-//W3C//DTD SVG 20010904//EN"
 "http://www.w3.org/TR/2001/REC-SVG-20010904/DTD/svg10.dtd">
<svg version="1.0" xmlns="http://www.w3.org/2000/svg"
 width="168.000000pt" height="169.000000pt" viewBox="0 0 168.000000 169.000000"
 preserveAspectRatio="xMidYMid meet">
<metadata>
Created by potrace 1.15, written by Peter Selinger 2001-2017
</metadata>
<g transform="translate(0.000000,169.000000) scale(0.100000,-0.100000)"
fill="#000000" stroke="none">
<path d="M0 1186 l0 -503 78 38 c119 60 215 81 362 83 138 1 220 -12 348 -55
l82 -28 27 42 c57 90 66 124 60 216 -3 51 -16 118 -31 164 -42 126 -34 188 33
251 17 17 31 35 31 42 0 19 41 65 68 75 14 5 38 7 54 4 l29 -7 -49 -56 c-61
-72 -92 -113 -92 -121 0 -10 63 -31 94 -31 81 0 132 80 100 159 -9 23 -14 45
-10 48 3 3 27 8 54 11 61 5 110 -18 173 -85 48 -50 94 -112 88 -118 -2 -2 -33
-13 -69 -25 -36 -12 -105 -46 -154 -76 -93 -56 -137 -70 -186 -61 -31 7 -50
-7 -24 -17 25 -10 100 -7 131 5 15 5 73 37 128 69 56 33 116 63 134 66 l32 7
-30 -48 c-17 -27 -33 -65 -36 -84 -17 -107 -27 -148 -56 -212 l-31 -71 18
-102 c12 -67 18 -149 18 -246 0 -124 -4 -154 -22 -204 -29 -79 -104 -199 -166
-263 l-49 -53 272 0 271 0 0 845 0 845 -840 0 -840 0 0 -504z"/>
</g>
</svg>
