<?xml version="1.0" standalone="no"?>
<!DOCTYPE svg PUBLIC "-//W3C//DTD SVG 20010904//EN"
 "http://www.w3.org/TR/2001/REC-SVG-20010904/DTD/svg10.dtd">
<svg version="1.0" xmlns="http://www.w3.org/2000/svg"
 width="169.000000pt" height="169.000000pt" viewBox="0 0 169.000000 169.000000"
 preserveAspectRatio="xMidYMid meet">
<metadata>
Created by potrace 1.15, written by Peter Selinger 2001-2017
</metadata>
<g transform="translate(0.000000,169.000000) scale(0.100000,-0.100000)"
fill="#000000" stroke="none">
<path d="M0 845 l0 -845 845 0 845 0 0 845 0 845 -845 0 -845 0 0 -845z m950
591 c19 -10 45 -28 58 -39 20 -18 26 -19 55 -9 19 7 41 12 49 12 9 0 19 6 21
13 3 6 6 -4 6 -23 2 -64 11 -79 54 -92 32 -10 43 -20 56 -50 12 -28 22 -38 39
-38 12 0 25 -7 28 -15 4 -8 18 -15 34 -15 15 0 33 -7 41 -16 7 -8 25 -22 41
-30 38 -20 35 -37 -12 -68 -33 -22 -40 -32 -40 -59 0 -17 -11 -50 -25 -72 -59
-96 -68 -137 -34 -155 20 -11 20 -12 3 -31 -9 -10 -30 -19 -46 -19 l-28 0 2
-119 c3 -114 2 -120 -21 -145 -43 -46 -125 -79 -177 -73 -61 6 -92 31 -131
103 -34 63 -94 126 -101 105 -5 -14 44 -91 70 -109 43 -31 65 -201 34 -273
-17 -42 -60 -95 -86 -109 -18 -10 -100 -30 -100 -25 0 2 16 22 35 45 27 32 35
51 35 81 0 106 -76 161 -275 198 -66 12 -132 32 -165 49 -47 24 -59 36 -87 91
-37 71 -41 119 -23 328 11 134 28 179 78 200 29 12 33 17 27 40 -16 65 -16 84
-1 138 19 64 81 140 133 161 37 16 110 18 145 5 18 -7 34 -3 68 15 39 21 56
24 125 21 51 -2 93 -10 115 -21z"/>
</g>
</svg>
