<?xml version="1.0" encoding="UTF-8"?>
<!DOCTYPE svg PUBLIC "-//W3C//DTD SVG 1.1//EN" "http://www.w3.org/Graphics/SVG/1.1/DTD/svg11.dtd">
<!-- Creator: CorelDRAW 2019 (64-Bit) -->
<svg xmlns="http://www.w3.org/2000/svg" xml:space="preserve" width="200px" height="52px" version="1.1" style="shape-rendering:geometricPrecision; text-rendering:geometricPrecision; image-rendering:optimizeQuality; fill-rule:evenodd; clip-rule:evenodd"
viewBox="0 0 16164 4211"
 xmlns:xlink="http://www.w3.org/1999/xlink"
 xmlns:xodm="http://www.corel.com/coreldraw/odm/2003">
 <defs>
  <style type="text/css">
   <![CDATA[
    .fil2 {fill:#FEFEFE}
    .fil1 {fill:#00AFEF}
    .fil0 {fill:#19069E}
   ]]>
  </style>
 </defs>
 <g id="Capa_x0020_1">
  <metadata id="CorelCorpID_0Corel-Layer"/>
  <path class="fil0" d="M5919 1936c0,-1067 -1325,-1936 -2959,-1936 -1635,0 -2960,869 -2960,1936 0,27 0,103 0,113 0,1131 1158,2048 2959,2048 1813,0 2960,-916 2960,-2048 0,-39 0,-62 0,-113z"/>
  <path class="fil1" d="M5806 1935c0,1005 -1274,1820 -2846,1820 -1571,0 -2845,-815 -2845,-1820 0,-1006 1274,-1821 2845,-1821 1572,0 2846,815 2846,1821z"/>
  <path class="fil2" d="M2016 1360c-2,3 -30,33 -12,56 45,58 184,91 324,59 83,-19 190,-104 294,-186 113,-89 224,-179 336,-214 119,-38 195,-22 245,-7 55,17 120,53 223,131 195,146 978,829 1113,948 109,-50 593,-258 1251,-403 -57,-351 -270,-672 -594,-935 -451,190 -1002,289 -1541,25 -3,-1 -294,-139 -582,-132 -428,10 -613,195 -809,391l-248 267z"/>
  <path class="fil2" d="M4507 2221c-9,-8 -920,-806 -1127,-961 -119,-90 -186,-112 -255,-121 -37,-5 -87,2 -122,11 -96,26 -222,110 -333,199 -116,92 -224,178 -325,201 -129,29 -287,-5 -359,-54 -29,-19 -50,-42 -59,-65 -27,-62 22,-111 30,-119l252 -272c29,-29 58,-59 88,-87 -81,10 -156,31 -229,51 -91,26 -179,50 -267,50 -37,0 -236,-32 -273,-43 -228,-62 -428,-123 -726,-262 -358,266 -597,599 -666,966 52,13 134,38 169,46 809,180 1061,365 1107,404 49,-55 121,-90 201,-90 89,0 170,45 219,114 46,-36 110,-67 193,-67 37,0 76,6 115,20 92,31 139,92 163,147 31,-14 69,-24 113,-24 43,0 89,10 134,30 150,64 173,210 159,321 11,-1 22,-2 32,-2 177,0 321,144 321,321 0,55 -14,106 -38,151 48,27 171,89 278,75 86,-11 119,-40 131,-57 8,-11 16,-25 8,-34l-228 -254c0,0 -37,-35 -25,-49 13,-14 36,6 52,20 117,97 259,243 259,243 2,2 11,21 64,30 45,8 125,3 180,-42 14,-12 28,-26 40,-41 -1,1 -2,2 -3,2 59,-74 -6,-150 -6,-150l-267 -299c0,0 -38,-35 -25,-50 12,-12 36,7 53,20 84,71 204,191 318,303 22,16 123,78 256,-9 80,-53 97,-118 94,-167 -5,-65 -56,-112 -56,-112l-364 -366c0,0 -39,-32 -25,-49 11,-14 36,6 52,20 116,97 430,385 430,385 5,3 113,80 247,-5 48,-31 79,-77 82,-131 4,-93 -62,-148 -62,-148z"/>
  <path class="fil2" d="M2741 2685c-56,-1 -118,33 -126,28 -4,-3 4,-26 9,-39 5,-13 80,-236 -102,-314 -138,-60 -223,7 -252,38 -8,7 -11,7 -12,-3 -3,-41 -21,-150 -141,-186 -171,-52 -281,67 -309,110 -12,-97 -95,-173 -195,-173 -110,0 -199,89 -199,198 0,110 89,199 198,199 54,0 102,-21 138,-56 1,1 1,3 1,7 -9,49 -24,228 163,300 75,29 138,8 191,-29 16,-11 19,-7 16,8 -6,46 2,144 140,200 105,43 167,-1 207,-38 18,-17 23,-14 24,11 5,133 115,238 249,238 138,1 250,-111 250,-249 0,-138 -112,-249 -250,-250z"/>
  <path class="fil0" d="M2741 3167c-125,-1 -226,-98 -231,-222 0,-10 -1,-38 -25,-38 -10,0 -19,5 -28,14 -28,26 -63,52 -114,52 -23,0 -49,-6 -75,-17 -132,-53 -134,-144 -129,-180 2,-10 2,-20 -4,-28l-9 -7 -8 0c-6,0 -13,2 -23,9 -38,27 -75,40 -112,40 -20,0 -41,-4 -63,-12 -173,-68 -160,-232 -151,-282 1,-10 -1,-17 -8,-23l-12 -10 -12 11c-33,33 -78,51 -124,51 -100,0 -181,-81 -181,-181 0,-100 81,-180 181,-180 90,0 166,67 178,157l6 49 27 -41c3,-5 76,-115 210,-115 26,0 52,4 78,12 107,33 126,130 128,170 2,24 19,25 22,25 9,0 16,-6 21,-11 20,-21 64,-56 133,-56 32,0 65,7 100,22 170,73 93,289 92,291 -15,36 -16,52 -2,61l7 3 5 0c7,0 17,-3 33,-8 23,-8 58,-20 90,-20l1 0c128,1 232,105 232,232 0,128 -105,232 -233,232zm1802 -1042c-281,-245 -930,-809 -1106,-941 -100,-75 -168,-115 -229,-133 -27,-8 -64,-17 -112,-17 -45,0 -93,8 -143,24 -113,35 -227,125 -336,212l-6 5c-102,81 -207,165 -287,183 -35,7 -70,11 -106,11 -89,0 -170,-25 -200,-64 -5,-6 -1,-16 10,-31l2 -2 247 -266c193,-194 376,-376 796,-386 7,0 15,0 21,0 262,0 524,117 553,131 246,119 499,180 754,180 265,0 539,-65 827,-198 -32,-27 -65,-53 -100,-79 -253,110 -494,165 -726,165 -238,0 -475,-57 -706,-170 -12,-6 -301,-142 -601,-142 -8,0 -16,0 -24,0 -353,9 -552,134 -686,244 -130,3 -243,34 -343,62 -89,25 -166,47 -241,47 -31,0 -86,-3 -91,-3 -87,-3 -522,-110 -868,-241 -35,25 -69,51 -102,77 361,149 801,263 940,272 39,3 80,7 121,7 92,0 184,-26 272,-50 53,-15 110,-31 171,-43 -16,16 -32,32 -48,49l-251 271c-20,20 -63,73 -35,139 12,26 34,51 66,73 60,40 167,68 267,68 37,0 73,-4 106,-12 105,-23 215,-111 332,-204 93,-74 226,-168 327,-195 28,-8 63,-13 91,-13 8,0 16,0 24,1 67,9 131,32 247,118 206,155 1117,953 1126,960 1,1 59,51 55,134 -2,47 -28,88 -73,117 -39,24 -79,37 -120,37 -60,0 -102,-29 -105,-31 -3,-2 -316,-289 -431,-385 -18,-15 -36,-29 -54,-29 -9,0 -18,4 -24,12 -18,22 3,53 26,73l365 367c1,0 46,42 51,98 3,61 -27,112 -87,152 -43,28 -87,42 -129,42 -56,0 -96,-25 -104,-31l-53 -52c-95,-94 -194,-191 -266,-251 -18,-15 -37,-29 -55,-29 -9,0 -17,4 -23,10 -8,9 -14,26 7,53 8,11 18,21 18,21l266 299c3,2 55,65 6,127l-9 12c-8,9 -16,17 -25,24 -45,37 -106,41 -130,41 -13,0 -25,-1 -36,-3 -26,-5 -44,-12 -52,-22l-3 -3c-15,-15 -149,-152 -260,-245 -15,-12 -33,-28 -52,-28 -9,0 -18,4 -24,11 -22,24 11,60 25,73l227 251c0,2 -3,7 -9,15 -8,11 -35,39 -118,49 -9,1 -20,2 -30,2 -85,0 -175,-41 -222,-66 21,-45 32,-94 32,-144 0,-187 -151,-339 -338,-339 -4,0 -8,0 -12,0 6,-85 -6,-247 -172,-318 -48,-20 -96,-31 -142,-31 -36,0 -71,6 -104,19 -34,-67 -91,-116 -165,-141 -42,-14 -83,-21 -122,-21 -69,0 -133,20 -189,60 -55,-67 -137,-107 -223,-107 -76,0 -148,30 -202,83 -71,-54 -351,-232 -1102,-402 -36,-8 -120,-32 -171,-47 -8,40 -15,82 -19,123 0,0 139,33 166,39 766,170 1020,347 1062,381 -14,35 -22,72 -22,110 0,159 129,287 288,288 17,0 35,-2 52,-5 24,116 100,205 217,250 34,13 68,20 102,20 22,0 44,-3 66,-8 21,54 70,123 178,167 38,15 76,23 113,23 30,0 59,-5 87,-16 52,127 176,210 313,210 92,0 179,-37 243,-103 55,31 170,86 287,86 15,0 29,-1 43,-3 116,-14 170,-60 195,-95 4,-6 8,-13 12,-19 27,8 57,14 92,14 63,0 123,-22 185,-66 60,-44 103,-106 109,-159 0,-1 0,-2 1,-3 20,5 41,7 61,7 66,0 130,-20 191,-61 118,-77 138,-178 137,-244 20,4 41,6 62,6 61,0 121,-18 179,-55 73,-46 117,-118 124,-201 4,-57 -10,-114 -40,-163 198,-86 650,-251 1183,-371 -4,-41 -9,-82 -17,-122 -644,143 -1125,351 -1245,404z"/>
  <path class="fil0" d="M15739 1470c-51,69 -126,103 -223,103 -96,0 -171,-34 -223,-103 -52,-69 -78,-166 -78,-293 0,-127 26,-225 78,-293 52,-68 127,-103 223,-103 97,0 172,35 223,103 52,68 78,166 78,293 0,127 -26,224 -78,293zm265 -768c-107,-133 -269,-200 -487,-200 -217,0 -379,67 -486,200 -107,134 -160,292 -160,475 0,185 53,344 160,476 107,132 269,198 486,198 218,0 380,-66 487,-198 107,-132 160,-291 160,-476 0,-183 -53,-341 -160,-475z"/>
  <path class="fil0" d="M13106 1314c-3,111 -34,187 -95,229 -62,42 -128,63 -201,63 -46,0 -84,-12 -116,-38 -32,-25 -48,-66 -48,-123 0,-63 26,-110 78,-140 31,-18 82,-33 153,-46l75 -14c38,-7 68,-14 89,-23 22,-8 43,-18 65,-32l0 124zm168 -724c-108,-54 -232,-82 -372,-82 -214,0 -366,56 -454,167 -55,72 -86,163 -94,274l321 0c8,-49 23,-88 47,-116 33,-39 89,-58 169,-58 71,0 124,9 161,29 37,20 55,56 55,108 0,43 -24,74 -72,94 -26,12 -70,22 -132,30l-114 13c-129,17 -227,44 -293,82 -122,70 -182,183 -182,339 0,120 37,213 113,279 75,66 171,93 286,99 725,32 717,-382 724,-469l0 -476c0,-153 -55,-257 -163,-313z"/>
  <path class="fil0" d="M11622 792c83,0 143,25 183,77 27,37 43,80 50,127l357 0c-19,-180 -82,-306 -189,-377 -107,-71 -244,-107 -411,-107 -197,0 -351,60 -463,181 -112,121 -168,290 -168,507 0,192 51,349 152,470 101,121 259,181 474,181 215,0 377,-72 486,-217 69,-90 108,-185 116,-286l-357 0c-7,67 -28,121 -62,163 -35,41 -92,62 -174,62 -116,0 -194,-52 -236,-158 -23,-56 -34,-130 -34,-223 0,-97 11,-175 34,-234 43,-111 124,-166 242,-166z"/>
  <path class="fil0" d="M10885 512c-734,0 -691,650 -691,650l0 660 333 0 0 -619c0,-101 13,-177 39,-225 45,-87 135,-131 268,-131 10,0 23,1 40,2 16,1 34,2 55,4l0 -339c-14,-1 -24,-1 -28,-1 -4,-1 -10,-1 -16,-1z"/>
  <path class="fil0" d="M9213 857c47,-48 113,-72 198,-72 78,0 143,22 196,68 53,45 82,112 88,200l-570 0c12,-83 42,-148 88,-196zm448 620c-14,20 -29,37 -46,51 -47,39 -110,50 -186,50 -71,0 -127,-10 -177,-42 -83,-51 -130,-138 -135,-265l922 0c1,-109 -2,-193 -11,-251 -15,-99 -49,-186 -101,-262 -57,-85 -131,-147 -219,-187 -88,-39 -187,-59 -297,-59 -186,0 -337,58 -453,175 -116,117 -174,285 -174,505 0,234 64,403 193,506 129,104 277,156 446,156 204,0 363,-61 476,-184 61,-65 99,-129 115,-193l-353 0z"/>
  <path class="fil0" d="M8650 1822l-305 0 0 -766c0,-70 -23,-237 -223,-237 -134,0 -231,97 -231,237l0 766 -305 0 0 -766c0,-70 -21,-237 -221,-237 -136,0 -231,97 -231,237l0 766 -305 0 0 -759c0,-316 210,-555 536,-555 161,0 293,67 378,176 90,-109 224,-176 379,-176 332,0 528,229 528,555l0 759z"/>
  <path class="fil0" d="M14372 1473c-49,70 -120,104 -214,104 -93,0 -163,-35 -209,-105 -46,-70 -69,-172 -69,-289 0,-108 22,-199 68,-272 45,-73 116,-110 213,-110 63,0 119,20 167,61 78,66 117,186 117,340 0,111 -24,201 -73,271zm400 -1361c0,0 -336,-36 -336,234l0 356c-37,-59 -86,-106 -145,-139 -60,-34 -128,-51 -205,-51 -166,0 -299,62 -398,186 -100,124 -150,302 -150,518 0,188 51,341 152,461 101,119 299,172 475,172 613,0 606,-526 606,-526l1 -1211z"/>
  <path class="fil1" d="M9821 3036c0,-126 -25,-223 -74,-290 -49,-68 -119,-102 -210,-102 -88,0 -157,34 -206,102 -46,61 -68,158 -68,290 0,122 24,214 73,275 49,68 119,102 211,102 84,0 151,-34 200,-102 49,-68 74,-159 74,-275zm-558 901c0,45 -17,84 -50,116 -32,32 -71,48 -117,48l-167 0 0 -1157c0,-226 76,-367 201,-462 83,-63 206,-123 436,-123 156,0 338,60 436,180 111,135 157,286 157,482 0,203 -49,367 -147,493 -98,123 -224,184 -377,184 -82,0 -154,-15 -216,-44 -65,-32 -117,-82 -156,-150l0 433z"/>
  <path class="fil1" d="M11818 3036c0,222 64,345 192,369 129,24 223,-6 284,-89 29,-35 50,-91 63,-167 13,-75 14,-150 2,-224 -11,-74 -37,-140 -79,-198 -42,-58 -103,-87 -183,-87 -109,0 -183,40 -221,120 -39,81 -58,173 -58,276zm548 555l0 -82c-57,90 -135,146 -233,169 -98,23 -195,15 -291,-24 -96,-39 -179,-110 -248,-215 -69,-105 -103,-242 -103,-413 0,-199 46,-361 137,-485 91,-124 238,-181 440,-186 199,-6 315,40 428,125 124,94 198,239 198,464l0 681c0,217 -151,619 -626,584 -294,-21 -457,-142 -548,-415l351 0c26,45 65,80 118,104 53,24 106,30 158,19 53,-11 101,-43 145,-94 43,-52 68,-129 74,-232z"/>
  <path class="fil1" d="M11038 3170c-3,111 -34,188 -95,230 -62,41 -128,62 -201,62 -46,0 -84,-12 -116,-37 -32,-26 -48,-67 -48,-123 0,-64 26,-111 78,-141 31,-18 82,-33 153,-45l75 -15c38,-7 68,-14 89,-22 22,-8 43,-19 65,-32l0 123zm168 -723c-108,-55 -232,-83 -372,-83 -215,0 -366,56 -454,168 -55,71 -86,162 -94,273l321 0c8,-49 23,-87 47,-116 33,-39 89,-58 169,-58 71,0 125,10 161,29 37,20 55,56 55,108 0,43 -24,74 -72,95 -26,11 -70,21 -132,29l-114 14c-129,16 -227,43 -293,81 -122,70 -182,183 -182,339 0,120 37,213 113,279 75,66 171,93 286,99 725,32 717,-382 723,-468l0 -477c0,-153 -54,-257 -162,-312z"/>
  <path class="fil1" d="M13689 3319c-52,69 -126,103 -223,103 -96,0 -171,-34 -223,-103 -53,-68 -79,-166 -79,-293 0,-127 26,-224 79,-293 52,-68 126,-102 223,-102 97,0 171,34 223,102 52,69 78,166 78,293 0,127 -26,225 -78,293zm265 -767c-107,-134 -269,-201 -487,-201 -217,0 -379,67 -486,201 -107,133 -160,291 -160,474 0,186 53,344 160,476 107,132 269,198 486,198 218,0 380,-66 487,-198 107,-132 160,-290 160,-476 0,-183 -53,-341 -160,-474z"/>
 </g>
</svg>
