<?xml version="1.0" encoding="UTF-8"?>
<!DOCTYPE svg PUBLIC "-//W3C//DTD SVG 1.1//EN" "http://www.w3.org/Graphics/SVG/1.1/DTD/svg11.dtd">
<!-- Creator: CorelDRAW 2019 (64-Bit) -->
<svg xmlns="http://www.w3.org/2000/svg" xml:space="preserve" width="450px" height="519px" version="1.1" style="shape-rendering:geometricPrecision; text-rendering:geometricPrecision; image-rendering:optimizeQuality; fill-rule:evenodd; clip-rule:evenodd"
viewBox="0 0 26 30.02"
 xmlns:xlink="http://www.w3.org/1999/xlink"
 xmlns:xodm="http://www.corel.com/coreldraw/odm/2003">
 <defs>
  <style type="text/css">
   <![CDATA[
    .fil0 {fill:black}
   ]]>
  </style>
 </defs>
 <g id="Capa_x0020_1">
  <metadata id="CorelCorpID_0Corel-Layer"/>
  <path class="fil0" d="M16.6 19.25c-1.32,-0.76 -2.06,-0.23 -2.06,-0.23l0.89 1.32c0,0 -1.58,-0.29 -2.53,1.4 -1.52,2.72 -2.34,4.93 -2.34,4.93 0,0 1.7,-5.5 2.59,-7.2 1.12,-2.15 2.14,-3.71 2.04,-4.52 -0.1,-0.82 -0.47,-1.85 -0.47,-1.85 0,0 1.42,2.14 2.65,2.76 -0.72,0.3 -1.12,0.93 -0.77,3.39zm-8.89 1.02l-1.18 0.04 0.92 -1.26c0,0 -0.32,-0.35 -1.81,0.43 0.46,-0.62 1.68,-3.29 1.81,-3.7 1.23,-1.04 1.36,-1.4 1.94,-2.24 0,0 -0.72,1.98 -0.87,3.21 -0.15,1.22 2.26,9.29 2.02,9.94 -0.16,-1.7 -2.83,-6.42 -2.83,-6.42zm15.18 -2.25c0.61,0.1 -2.44,-1.45 -3.2,-1.71 1.14,-0.65 2.13,-1.78 2.18,-3.97 -2.27,2.17 -3.07,-1.6 -3.48,-6.93 -0.25,-3.17 -2.4,-4.52 -3.94,-5 -1.21,-0.49 -2.6,-0.47 -3.42,-0.3 -1.72,0.36 -3.92,1.17 -4.31,4.05 -0.28,1.28 -0.28,2.84 -0.37,3.55 -0.74,5.82 -1.74,6.24 -2.86,5.22 0,0.82 0.08,1.72 1.59,2.89 0.39,0.31 0.86,0.47 1.38,0.5 -1.33,0.61 -2.95,1.98 -3.43,1.98 -0.82,0 -1.75,0.38 -2.01,2.49 -0.13,1.06 -0.72,4.97 -1.02,9.23l26 -0.09c-0.58,-5.67 -1.37,-10.98 -1.53,-11.21 -0.54,-0.81 -1.66,-0.71 -1.58,-0.7z"/>
 </g>
</svg>
