<?xml version="1.0" encoding="UTF-8"?>
<!DOCTYPE svg PUBLIC "-//W3C//DTD SVG 1.1//EN" "http://www.w3.org/Graphics/SVG/1.1/DTD/svg11.dtd">
<!-- Creator: CorelDRAW 2019 (64-Bit) -->
<svg xmlns="http://www.w3.org/2000/svg" xml:space="preserve" width="450px" height="502px" version="1.1" style="shape-rendering:geometricPrecision; text-rendering:geometricPrecision; image-rendering:optimizeQuality; fill-rule:evenodd; clip-rule:evenodd"
viewBox="0 0 40.1 44.74"
 xmlns:xlink="http://www.w3.org/1999/xlink"
 xmlns:xodm="http://www.corel.com/coreldraw/odm/2003">
 <defs>
  <style type="text/css">
   <![CDATA[
    .fil0 {fill:black}
   ]]>
  </style>
 </defs>
 <g id="Capa_x0020_1">
  <metadata id="CorelCorpID_0Corel-Layer"/>
  <path class="fil0" d="M40.1 44.74c-0.6,-7.63 -1.46,-14.88 -2.77,-16.48 -1.79,-2.21 -11.5,-4.94 -11.5,-4.94 0,0 -2.52,6.59 -2.66,7.06 -0.08,0.23 -1.48,-1.01 -1.56,-0.78 -0.9,3.47 -2.91,9.38 -3.55,12.83l-0.02 -12.49 1.37 -1.78 -1.64 -1.48 5.66 -5.43c-0.01,-0.01 -0.19,-0.91 -0.19,-0.91 -0.13,-2.09 0.35,-3.87 0.55,-4.5 0.74,0.23 1.56,-2.35 1.85,-3.22 0.29,-0.87 -0.29,-1.52 -0.29,-1.52 0.04,-0.15 0,-0.17 0.43,-0.87 0.37,-0.58 -0.21,-4.79 -0.65,-6.1 -0.43,-1.3 -1.52,-2.1 -3.41,-2.82 -1.88,-0.73 -4.42,-1.31 -5.66,-1.31 -1.23,0 -1.66,0.65 -2.03,1.02 0,0 -0.87,0.14 -1.52,0.14 -0.65,0 -1.62,0.97 -2.26,1.88 -1.01,1.46 -1.01,4.65 -0.91,5.59 0.22,2.28 0.56,2.69 0.75,2.72 -0.15,0.05 -0.39,0.15 -0.54,0.29 -0.54,0.49 0.65,3.49 0.87,3.85 0.21,0.36 0.42,0.4 0.42,0.4 0,0 0.34,0.95 0.51,1.45 0.28,0.82 1.09,1.35 1.09,1.37 0.03,0.33 0.71,1.93 0.92,3.66 -0.1,0.07 -0.22,0.17 -0.35,0.28l0.01 0.08 3.27 4.08 -1.46 1.4 0.87 1.73 -1.69 12.29 -1.54 -12.43 -1.06 0.86 -0.5 -6.36 -0.44 0.33c-2.03,1.05 -8.61,4.36 -9.17,6.32 -0.32,1.12 -0.92,7.42 -1.3,13.79l40.1 0zm-16.82 -24.41l-0.02 0.02c0.01,0.01 0.01,0.01 0.01,0.02l0.01 -0.04z"/>
  <path class="fil0" d="M23.33 21.06c-0.72,-0.49 -9.19,0.64 -9.19,0.64l-0.7 0.05 -3.78 3.32 0.09 0.44 0.48 0.14 0.31 -0.77 2.67 -2.35 2.57 2.35 4.15 -0.26 3.37 -3.11 2.44 1.99 0.14 0.8 1.08 -0.29c0,0 -2.91,-2.47 -3.63,-2.95z"/>
 </g>
</svg>
