<?xml version="1.0" encoding="UTF-8"?>
<!DOCTYPE svg PUBLIC "-//W3C//DTD SVG 1.1//EN" "http://www.w3.org/Graphics/SVG/1.1/DTD/svg11.dtd">
<!-- Creator: CorelDRAW 2019 (64-Bit) -->
<svg xmlns="http://www.w3.org/2000/svg" xml:space="preserve" width="450px" height="483px" version="1.1" style="shape-rendering:geometricPrecision; text-rendering:geometricPrecision; image-rendering:optimizeQuality; fill-rule:evenodd; clip-rule:evenodd"
viewBox="0 0 29.31 31.45"
 xmlns:xlink="http://www.w3.org/1999/xlink"
 xmlns:xodm="http://www.corel.com/coreldraw/odm/2003">
 <defs>
  <style type="text/css">
   <![CDATA[
    .fil0 {fill:black}
   ]]>
  </style>
 </defs>
 <g id="Capa_x0020_1">
  <metadata id="CorelCorpID_0Corel-Layer"/>
  <path class="fil0" d="M20 8.92c-0.31,1.53 -0.52,3.22 -1.12,4.37 -0.84,1.65 -2.69,2.66 -4.2,2.66 -1.6,0 -3.37,-1.09 -4.2,-2.91 -0.5,-1.1 -0.87,-3.81 -1.01,-5.23 -0.4,-4.05 1.18,-5.49 5.21,-5.58 4.47,-0.09 6.09,2.83 5.32,6.69z"/>
  <path class="fil0" d="M9.79 7.32c-0.62,-0.34 -1.2,-0.29 -1.08,0.46 0.11,0.74 0.28,2.74 0.68,3.08 0.4,0.35 0.8,0.46 1.03,0.06 0.23,-0.4 -0.63,-3.6 -0.63,-3.6z"/>
  <path class="fil0" d="M19.71 7.32c0.63,-0.34 1.2,-0.29 1.08,0.46 -0.11,0.74 -0.28,2.74 -0.68,3.08 -0.4,0.35 -0.8,0.46 -1.03,0.06 -0.23,-0.4 0.63,-3.6 0.63,-3.6z"/>
  <path class="fil0" d="M17.28 1.9c-0.22,-0.86 0.11,-1.24 -1.58,-1.65 -1.79,-0.43 -3.15,-0.43 -4.87,0.94 -1.35,1.07 -1.94,2.07 -1.86,4.01 0.07,1.93 0.28,2.79 0.28,2.79l1.15 0.65c0,0 0.14,-3.59 0.57,-4.3 0.43,-0.72 3.15,-0.5 4.37,-0.79 1.22,-0.29 1.94,-1.65 1.94,-1.65z"/>
  <path class="fil0" d="M16.63 1.97c0.43,1.01 1.86,2.08 2.37,2.94 0.5,0.86 0.28,4.01 0.28,4.01l0.93 -0.79c0,0 0.94,-3.22 0,-5.23 -0.93,-2 -2.43,-2.72 -3.36,-2.22 -0.93,0.51 -0.22,1.29 -0.22,1.29z"/>
  <path class="fil0" d="M19.23 21.32l-0.52 -0.33c-0.22,0.98 -0.55,2.04 -0.87,3.23 -0.89,3.24 -2.16,6.42 -2.4,6.72l-1.07 0c-0.25,-0.3 -1.5,-3.31 -2.39,-6.54 -0.34,-1.23 -0.67,-2.32 -0.93,-3.4l-0.56 0.32 -0.45 -4.93 1.1 -0.69 3.24 3.38 -0.14 0.09c0.24,0.14 0.44,0.22 0.55,0.21 0.19,-0.02 0.48,-0.16 0.82,-0.41l-0.24 -0.16 2.95 -3.11 1.13 0.65 -0.22 4.97zm8.01 -1.98c-0.24,-0.35 -0.68,-0.35 -0.68,-0.35l-6.78 -2.71 -1.59 -0.93c-0.05,-0.84 -0.04,-1.75 0.12,-2.49 0.36,-1.63 -7.26,-0.17 -7.26,-0.17 0.09,0.79 0.12,1.77 0.08,2.7l-1.51 0.89 -6.78 2.89c0,0 -0.44,0 -0.68,0.35 -0.25,0.35 -1.87,5.45 -2.16,11.92l29.31 0c-0.29,-6.47 -1.82,-11.75 -2.07,-12.1z"/>
  <path class="fil0" d="M15.19 18.48l-0.67 0 -0.88 0.89c0,0 0.54,0.17 0.65,1.39 0.34,0.03 0.46,0.03 0.57,0.02 0.11,0.01 0.22,0.01 0.57,-0.02 0.1,-1.22 0.74,-1.42 0.74,-1.42l-0.98 -0.86z"/>
  <path class="fil0" d="M15.38 20.6l-0.41 -0.18 0 -0.08 -0.11 0.04 -0.12 -0.04 0 0.08 -0.41 0.18c-0.51,0.47 -0.51,2.26 -0.51,2.74l0 8.11 2.07 0 0 -8.11c0,-0.48 0.01,-2.27 -0.51,-2.74z"/>
  <polygon class="fil0" points="15.19,18.48 18.73,20.98 15.27,18.81 "/>
  <polygon class="fil0" points="14.52,18.48 11.18,20.89 14.52,18.81 "/>
 </g>
</svg>
